<?xml version="1.0" encoding="utf-8"?>
<!-- Generator: Adobe Illustrator 18.1.1, SVG Export Plug-In . SVG Version: 6.00 Build 0)  -->
<!DOCTYPE svg PUBLIC "-//W3C//DTD SVG 1.1//EN" "http://www.w3.org/Graphics/SVG/1.1/DTD/svg11.dtd">
<svg version="1.1" id="Breaks" xmlns="http://www.w3.org/2000/svg" xmlns:xlink="http://www.w3.org/1999/xlink" x="0px" y="0px"
	 viewBox="0 0 286.2 162" enable-background="new 0 0 286.2 162" xml:space="preserve">
<g>
	<g>
		<path fill="#898981" d="M11.6,18.7c0,0.1-0.1,0.1-0.1,0.1l-0.3-0.1c0,0-0.1,0,0-0.1c0-0.1,0-0.1,0-0.2c0-0.2-0.1-0.3-0.2-0.3
			c-0.1,0-0.4,0.1-0.6,0.2c-0.3,0.2-1.3,0.4-2,0.4c-2,0-3.5-1.3-3.5-3.5c0-1.7,0.8-3.6,2.1-5.1c1-1,2.3-1.7,3.5-1.7
			c0.7,0,1.2,0.1,1.9,0.6c0.2,0.1,0.5,0.4,0.7,0.4c0.2,0,0.3-0.1,0.4-0.5c0-0.1,0.1-0.1,0.1-0.1l0.2,0c0.1,0,0.1,0.1,0.1,0.1l-0.8,3
			c0,0.1-0.1,0.1-0.2,0.1l-0.2,0c-0.1,0-0.1,0-0.1-0.1c0.3-1.4-0.4-3.1-2.1-3.1c-1.2,0-2,0.6-2.8,1.8c-1.1,1.6-1.5,3.4-1.5,4.6
			c0,2.1,1.4,2.7,2.2,2.7c1.2,0,2.8-0.4,3.7-2.6c0.1-0.1,0.1-0.1,0.1-0.1l0.2,0.1c0.1,0,0.1,0.1,0.1,0.1L11.6,18.7z"/>
		<path fill="#898981" d="M19.3,8c0.1-0.1,0.2-0.1,0.3,0.1c0.1,0.1,0.1,0.2-0.1,0.3c-2.5,2.1-4.3,5.6-4.3,9.4c0,2.2,0.2,3,0.3,3.4
			c0,0.1,0,0.1-0.2,0.2c-0.2,0.1-0.2,0-0.3,0c-0.3-0.6-0.7-2.4-0.7-3.9C14.3,13.7,16.3,10.2,19.3,8z"/>
		<path fill="#898981" d="M20,14.8c0-0.1,0.1-0.1,0.2-0.1l0.1,0c0.1,0,0.1,0.1,0.1,0.2c-0.5,2.2,0.8,3.2,1.7,3.2
			c0.9,0,1.7-0.7,1.7-1.7c0-1-0.7-1.6-1.4-2.3c-0.9-1-1.6-1.7-1.6-3.1c0-1.1,0.8-2.6,2.5-2.6c0.8,0,1.5,0.5,1.7,0.7
			c0.1,0,0.1,0.1,0.2,0.1c0.1,0,0.2-0.2,0.2-0.5c0,0,0-0.1,0.1,0l0.2,0c0.1,0,0.1,0,0.1,0.1l-0.5,2.8c0,0.1,0,0.1-0.1,0.1l-0.2,0
			c-0.1,0-0.1,0-0.1-0.1C25,10.9,24.9,9,23.3,9c-0.9,0-1.5,0.8-1.5,1.6c0,1.1,0.6,1.5,1.3,2.2c0.7,0.7,1.6,1.5,1.6,3
			c0,1.9-1.4,2.8-2.7,2.8c-0.9,0-1.6-0.5-2.2-1.1c-0.1-0.1-0.2-0.1-0.3,0c-0.1,0.1-0.2,0.3-0.3,0.6c0,0.1-0.1,0.1-0.1,0L19,18.1
			c-0.1,0-0.1,0-0.1-0.1L20,14.8z"/>
		<path fill="#898981" d="M25.5,20.2c0-0.1,0-0.2,0.2-0.2c0.4-0.1,1.2-0.6,1.2-1.3c0-0.4-0.1-0.5-0.4-0.7c-0.1-0.1-0.4-0.3-0.4-0.7
			c0-0.4,0.2-0.7,0.6-0.7c0.7,0,1.1,0.9,1.1,1.4c0,1.7-1.8,2.3-2.1,2.3C25.6,20.3,25.5,20.4,25.5,20.2z"/>
		<path fill="#898981" d="M31.8,13.3h-1c-0.1,0-0.1,0-0.1-0.1l0.1-0.3c0-0.1,0.1-0.1,0.2-0.1H32l0.8-1.7c0.1-0.1,0.1-0.2,0.2-0.2
			c0.2,0,0.5-0.2,0.7-0.2c0.1,0,0.2-0.1,0.2-0.1c0.1,0,0.1,0.1,0,0.3l-1,2h1.5c0.1,0,0.1,0,0.1,0.2l-0.1,0.3c0,0-0.1,0.1-0.1,0.1
			h-1.5l-1.4,3.3C31.1,17,31,17.4,31,17.5c0,0.2,0.1,0.2,0.2,0.2c0.4,0,1.4-0.8,1.5-0.9c0-0.1,0.1,0,0.1,0l0.2,0.2c0,0,0,0.1,0,0.1
			c-0.2,0.2-1.6,1.5-2.7,1.5c-0.4,0-0.5-0.1-0.5-0.4c0-0.2,0.1-0.5,0.2-0.7L31.8,13.3z"/>
		<path fill="#898981" d="M33.4,21.4c-0.1,0.1-0.2,0.1-0.3-0.1C33,21.2,33,21.1,33.2,21c2.5-2.1,4.3-5.6,4.3-9.4
			c0-2.2-0.2-3-0.3-3.4c0-0.1,0-0.1,0.2-0.2c0.2-0.1,0.2,0,0.3,0c0.3,0.6,0.7,2.4,0.7,3.9C38.4,15.7,36.4,19.2,33.4,21.4z"/>
		<path fill="#898981" d="M48.9,13.4v0.8h-5.7v-0.8H48.9z M48.9,15.6v0.8h-5.7v-0.8H48.9z"/>
		<path fill="#898981" d="M56.7,10c0.1-0.5,0.1-0.9-0.9-0.9h-0.6c-0.1,0-0.1-0.1-0.1-0.2l0.1-0.2c0-0.1,0-0.1,0.2-0.1
			c0.2,0,0.8,0,2.5,0c0.2,0,0.2,0.2,0.3,0.4l3.2,7c0.1,0.2,0.2,0.2,0.4-0.3l1.9-5.7c0.2-0.6,0-0.9-0.5-0.9h-0.5
			c-0.1,0-0.2,0-0.2-0.2l0-0.3c0-0.1,0-0.1,0.1-0.1c0.2,0,0.6,0,1.7,0c0.8,0,1.1,0,1.3,0c0.1,0,0.2,0.1,0.1,0.2l0,0.2
			c0,0.1,0,0.1-0.1,0.1h-0.4c-0.4,0-0.6,0.1-0.8,0.8l-2.8,8.1c-0.2,0.5-0.4,0.5-0.6,0.1l-3.5-7.8c-0.1-0.2-0.2-0.2-0.3,0l-1.9,6.2
			C55,17.5,55.1,18,55.8,18h0.6c0.1,0,0.1,0.1,0.1,0.1l0,0.3c0,0.1,0,0.1-0.2,0.1c-0.1,0-0.8,0-1.8,0c-1,0-1.5,0-1.6,0
			c-0.1,0-0.1-0.1-0.1-0.2l0-0.3c0-0.1,0-0.1,0.1-0.1h0.4c0.7,0,1-0.4,1.4-1.5L56.7,10z"/>
		<path fill="#898981" d="M70.1,8c0.1-0.1,0.2-0.1,0.3,0.1c0.1,0.1,0.1,0.2-0.1,0.3C67.8,10.4,66,14,66,17.8c0,2.2,0.2,3,0.3,3.4
			c0,0.1,0,0.1-0.2,0.2c-0.2,0.1-0.2,0-0.3,0c-0.3-0.6-0.7-2.4-0.7-3.9C65.1,13.7,67.1,10.2,70.1,8z"/>
		<path fill="#898981" d="M75,9.1c-0.1,0-0.1-0.1-0.1-0.1L75,8.7c0-0.1,0-0.1,0.2-0.1h1.8c0.2,0,0.2,0.1,0.2,0.3
			c-0.2,0.5-2.8,7.4-3,8.3c-0.1,0.5-0.1,0.7,0.1,0.7c0.2,0,1-0.7,1-0.8c0.1,0,0.1,0,0.2,0l0.1,0.1c0,0,0,0.1,0,0.1
			c-0.1,0.1-1.4,1.3-2.1,1.3c-0.2,0-0.4-0.1-0.4-0.3c0-0.3,0.3-1.3,0.6-2.1l-0.1,0c-0.7,1.1-2.1,2.5-3.1,2.5c-0.5,0-0.9-0.3-0.9-1
			c0-1.2,0.8-2.9,2-4.1c0.5-0.5,1.3-1.2,2.3-1.2c0.4,0,0.7,0.2,0.9,0.5l1.1-3.2c0.1-0.3,0-0.6-0.4-0.6H75z M73.3,15.9
			c0.4-0.6,1-1.5,1-2.1c0-0.7-0.3-1-0.8-1c-1.4,0-2.9,3.2-2.9,4.6c0,0.3,0.2,0.5,0.4,0.5C71.5,17.9,72.7,16.7,73.3,15.9z"/>
		<path fill="#898981" d="M76.2,23.1c0-0.1,0-0.1,0.1-0.1h0.5c0.3,0,0.5,0,0.7-0.4c0-0.1,0.2-0.6,0.4-1.2l0.5-1.6
			c0.2-0.5,0.3-0.8,0.3-0.8c0-0.1,0-0.2-0.1-0.2c-0.1,0-0.3,0.1-0.5,0.2l-0.5,0.2c-0.1,0-0.1,0-0.1,0L77.3,19c0,0,0-0.1,0.1-0.1
			l1.9-1c0.1-0.1,0.2-0.1,0.3-0.1c0,0,0.1,0,0.1,0.1c0,0,0,0.1-0.1,0.2c0,0.1-0.4,1.1-0.7,2l-0.5,1.5c-0.1,0.4-0.3,0.9-0.3,1
			c-0.1,0.3,0,0.4,0.4,0.4h0.5c0.1,0,0.1,0,0.1,0.1l0,0.2c0,0,0,0.1-0.1,0.1c-0.1,0-1.3,0-1.4,0c-0.1,0-1.2,0-1.3,0c0,0-0.1,0,0-0.1
			L76.2,23.1z"/>
		<path fill="#898981" d="M79.7,21.4c-0.1,0.1-0.2,0.1-0.3-0.1c-0.1-0.1-0.1-0.2,0.1-0.3c2.5-2.1,4.3-5.6,4.3-9.4
			c0-2.2-0.2-3-0.3-3.4c0-0.1,0-0.1,0.2-0.2c0.2-0.1,0.2,0,0.3,0c0.3,0.6,0.7,2.4,0.7,3.9C84.7,15.7,82.7,19.2,79.7,21.4z"/>
		<path fill="#898981" d="M87,14.8c0-0.1,0.1-0.1,0.2-0.1l0.1,0c0.1,0,0.1,0.1,0.1,0.2c-0.5,2.2,0.8,3.2,1.7,3.2
			c0.9,0,1.7-0.7,1.7-1.7c0-1-0.7-1.6-1.4-2.3c-0.9-1-1.6-1.7-1.6-3.1c0-1.1,0.8-2.6,2.5-2.6c0.8,0,1.5,0.5,1.7,0.7
			c0.1,0,0.1,0.1,0.2,0.1c0.1,0,0.2-0.2,0.2-0.5c0,0,0-0.1,0.1,0l0.2,0c0.1,0,0.1,0,0.1,0.1l-0.5,2.8c0,0.1,0,0.1-0.1,0.1l-0.2,0
			c-0.1,0-0.1,0-0.1-0.1C92,10.9,91.9,9,90.3,9c-0.9,0-1.5,0.8-1.5,1.6c0,1.1,0.6,1.5,1.3,2.2c0.7,0.7,1.6,1.5,1.6,3
			c0,1.9-1.4,2.8-2.7,2.8c-0.9,0-1.6-0.5-2.2-1.1c-0.1-0.1-0.2-0.1-0.3,0c-0.1,0.1-0.2,0.3-0.3,0.6c0,0.1-0.1,0.1-0.1,0L86,18.1
			c-0.1,0-0.1,0-0.1-0.1L87,14.8z"/>
		<path fill="#898981" d="M96.8,14.6c0-0.1,0-0.1,0.1-0.1h4.7c0.1,0,0.1,0,0.1,0.1v0.5c0,0.1-0.1,0.2-0.1,0.2h-4.7
			c-0.1,0-0.1,0-0.1-0.1V14.6z"/>
		<path fill="#898981" d="M109.1,10c0.1-0.5,0.1-0.9-0.9-0.9h-0.6c-0.1,0-0.1-0.1-0.1-0.2l0.1-0.2c0-0.1,0-0.1,0.2-0.1
			c0.2,0,0.8,0,2.5,0c0.2,0,0.2,0.2,0.3,0.4l3.2,7c0.1,0.2,0.2,0.2,0.4-0.3l1.9-5.7c0.2-0.6,0-0.9-0.5-0.9h-0.5
			c-0.1,0-0.2,0-0.2-0.2l0-0.3c0-0.1,0-0.1,0.1-0.1c0.2,0,0.6,0,1.7,0c0.8,0,1.1,0,1.3,0c0.1,0,0.2,0.1,0.1,0.2l0,0.2
			c0,0.1,0,0.1-0.1,0.1h-0.4c-0.4,0-0.6,0.1-0.8,0.8l-2.8,8.1c-0.2,0.5-0.4,0.5-0.6,0.1l-3.5-7.8c-0.1-0.2-0.2-0.2-0.3,0l-1.9,6.2
			c-0.3,0.9-0.2,1.4,0.5,1.4h0.6c0.1,0,0.1,0.1,0.1,0.1l0,0.3c0,0.1,0,0.1-0.2,0.1c-0.1,0-0.8,0-1.8,0c-1,0-1.5,0-1.6,0
			c-0.1,0-0.1-0.1-0.1-0.2l0-0.3c0-0.1,0-0.1,0.1-0.1h0.4c0.7,0,1-0.4,1.4-1.5L109.1,10z"/>
		<path fill="#898981" d="M122.6,8c0.1-0.1,0.2-0.1,0.3,0.1c0.1,0.1,0.1,0.2-0.1,0.3c-2.5,2.1-4.3,5.6-4.3,9.4c0,2.2,0.2,3,0.3,3.4
			c0,0.1,0,0.1-0.2,0.2c-0.2,0.1-0.2,0-0.3,0c-0.3-0.6-0.7-2.4-0.7-3.9C117.6,13.7,119.5,10.2,122.6,8z"/>
		<path fill="#898981" d="M127.5,9.1c-0.1,0-0.1-0.1-0.1-0.1l0.1-0.3c0-0.1,0-0.1,0.2-0.1h1.8c0.2,0,0.2,0.1,0.2,0.3
			c-0.2,0.5-2.8,7.4-3,8.3c-0.1,0.5-0.1,0.7,0.1,0.7c0.2,0,1-0.7,1-0.8c0.1,0,0.1,0,0.2,0l0.1,0.1c0,0,0,0.1,0,0.1
			c-0.1,0.1-1.4,1.3-2.1,1.3c-0.2,0-0.4-0.1-0.4-0.3c0-0.3,0.3-1.3,0.6-2.1l-0.1,0c-0.7,1.1-2.1,2.5-3.1,2.5c-0.5,0-0.9-0.3-0.9-1
			c0-1.2,0.8-2.9,2-4.1c0.5-0.5,1.3-1.2,2.3-1.2c0.4,0,0.7,0.2,0.9,0.5l1.1-3.2c0.1-0.3,0-0.6-0.4-0.6H127.5z M125.7,15.9
			c0.4-0.6,1-1.5,1-2.1c0-0.7-0.3-1-0.8-1c-1.4,0-2.9,3.2-2.9,4.6c0,0.3,0.2,0.5,0.4,0.5C124,17.9,125.2,16.7,125.7,15.9z"/>
		<path fill="#898981" d="M130.8,22.8c0.5,0,0.8-0.3,1-0.6c0-0.1,0.1-0.1,0.1-0.1l0.1,0.1c0,0,0,0.1,0,0.1c-0.2,0.3-0.6,1.1-0.6,1.2
			c0,0.1-0.1,0.1-0.1,0.1c-0.1,0-0.1,0-0.2-0.1c-0.1-0.1-0.3-0.1-0.4-0.1h-1.9c-0.1,0-0.2,0-0.3,0c-0.1,0-0.2,0-0.2,0
			s-0.1,0-0.1-0.1c0,0,0-0.1,0.1-0.2c1.1-0.9,3.4-2.4,3.4-3.8c0-0.3-0.1-1-0.8-1c-0.7,0-1.1,0.7-1.2,1c-0.1,0.1-0.1,0.1-0.1,0.1
			l-0.1-0.1c0,0,0,0,0-0.1c0.2-0.5,0.8-1.4,1.8-1.4c0.7,0,1.2,0.5,1.2,1.3c0,1.5-2.2,2.9-3.2,3.6v0H130.8z"/>
		<path fill="#898981" d="M132.2,21.4c-0.1,0.1-0.2,0.1-0.3-0.1c-0.1-0.1-0.1-0.2,0.1-0.3c2.5-2.1,4.3-5.6,4.3-9.4
			c0-2.2-0.2-3-0.3-3.4c0-0.1,0-0.1,0.2-0.2c0.2-0.1,0.2,0,0.3,0c0.3,0.6,0.7,2.4,0.7,3.9C137.2,15.7,135.2,19.2,132.2,21.4z"/>
		<path fill="#898981" d="M140.6,17c-0.2,0.6,0,1,0.5,1h0.4c0.1,0,0.1,0,0.1,0.1l-0.1,0.3c0,0.1-0.1,0.1-0.2,0.1c-0.2,0-0.8,0-1.8,0
			c-1.1,0-1.5,0-1.6,0c-0.1,0-0.1-0.1-0.1-0.2l0.1-0.3c0-0.1,0-0.1,0.2-0.1h0.4c0.4,0,0.7-0.3,0.9-0.9l2.3-7
			c0.2-0.6,0.1-0.9-0.5-0.9h-0.4c-0.1,0-0.2-0.1-0.1-0.1l0.1-0.3c0-0.1,0.1-0.1,0.2-0.1c0.1,0,0.7,0,1.6,0c1.2,0,1.6,0,1.8,0
			c0.1,0,0.1,0.1,0.1,0.1l0,0.3c0,0.1-0.1,0.1-0.2,0.1h-0.4c-0.5,0-0.8,0.2-1,0.8l-1.1,3.5c0.6,0,0.8,0,1.2-0.4
			c1.3-1.2,3-2.6,3.6-3.3c0.2-0.3,0.1-0.5-0.2-0.5h-0.2C146,9.1,146,9.1,146,9l0.1-0.3c0-0.1,0.1-0.1,0.2-0.1c0.1,0,0.8,0,1.6,0
			c0.9,0,1.3,0,1.4,0c0.1,0,0.2,0.1,0.2,0.1L149.4,9c0,0.1,0,0.1-0.1,0.1h-0.5c-0.4,0-0.8,0.2-1.2,0.5c-0.6,0.5-4.2,3.7-4.4,3.9
			c0.1,0.2,2.3,3.3,2.6,3.8c0.3,0.3,0.7,0.7,1.1,0.7h0.4c0.1,0,0.1,0.1,0.1,0.1l-0.1,0.2c0,0.1-0.1,0.1-0.2,0.1c-0.2,0-0.6,0-1.5,0
			c-0.9,0-1.7,0-1.8,0c-0.1,0-0.1,0-0.1-0.2l0-0.2c0-0.1,0-0.1,0.1-0.1h0.2c0.3,0,0.6-0.2,0.4-0.4c-0.1-0.2-2-3.1-2.4-3.6
			c-0.1-0.2-0.2-0.2-0.5-0.2L140.6,17z"/>
		<path fill="#898981" d="M148.3,17.2c0-1.2,0.8-2.8,1.9-3.8c0.5-0.5,1.3-1,2-1c0.6,0,0.8,0.4,0.8,0.8c0,0.7-0.5,1.5-1.4,1.9
			c-0.8,0.4-1.6,0.6-2.1,0.6c-0.1,0.2-0.2,0.7-0.2,1.3c0,0.7,0.5,0.9,0.8,0.9c0.7,0,1.4-0.5,1.7-1c0,0,0.1-0.1,0.1,0L152,17
			c0.1,0,0.1,0.1,0,0.1c-0.4,0.5-1.2,1.5-2.4,1.5C148.7,18.6,148.3,18.1,148.3,17.2z M149.6,15.2c0.5,0,2.4-0.6,2.4-1.7
			c0-0.3-0.1-0.6-0.5-0.6C150.6,13,149.7,14.7,149.6,15.2z"/>
		<path fill="#898981" d="M153.3,11.4C153.3,11.3,153.3,11.3,153.3,11.4l2.8-0.1c0,0,0.1,0,0.1,0.1v0.3c0,0.1,0,0.1-0.1,0.1h-2.8
			c-0.1,0-0.1,0-0.1-0.1V11.4z"/>
		<path fill="#898981" d="M156.9,13.6C156.8,13.6,156.8,13.5,156.9,13.6l0.4-1.5c0.2-0.5,0.4-1.4,0.4-1.5c0-0.1-0.1-0.1-0.1-0.1
			c-0.2,0-0.6,0.4-0.7,0.5c0,0-0.1,0-0.1,0l-0.1-0.1c0,0,0,0,0-0.1c0.2-0.3,0.7-0.8,1.3-0.8c0.2,0,0.2,0.1,0.2,0.3
			c0,0.2-0.1,0.6-0.3,1.2l0,0c0.2-0.5,0.9-1.5,1.4-1.5c0.2,0,0.4,0.2,0.4,0.4c0,0.2-0.2,0.4-0.3,0.4c-0.1,0-0.1,0-0.2-0.1
			c-0.1-0.1-0.1-0.1-0.2-0.1c-0.2,0-0.7,0.7-1.1,1.3c-0.1,0.2-0.2,0.4-0.3,0.7l-0.3,0.9c0,0.1,0,0.1-0.1,0.1H156.9z"/>
		<path fill="#898981" d="M163,7.5c0.1-0.1,0.1,0,0.2,0.1c0.1,0.1,0.1,0.1,0,0.2c-1.5,1.2-2.5,3.3-2.5,5.5c0,1.3,0.1,1.7,0.2,2
			c0,0.1,0,0.1-0.1,0.1c-0.1,0-0.1,0-0.2,0c-0.2-0.4-0.4-1.4-0.4-2.3C160.1,10.8,161.2,8.8,163,7.5z"/>
		<path fill="#898981" d="M168.4,7.9c0.4,0,0.7,0,0.8-0.1c0.1,0,0.2-0.1,0.2-0.1c0,0,0.1,0,0.1,0.1c0,0.1-0.1,1.4-0.1,1.7
			c0,0.1,0,0.1-0.1,0.1l-0.1,0c-0.1,0-0.1,0-0.1-0.1c0-0.3-0.2-0.9-0.3-1.1c-0.2-0.1-1-0.2-1.3-0.2h-0.2l-1.4,4.4
			c-0.2,0.5-0.1,0.7,0.4,0.7h0.3c0.1,0,0.1,0,0.1,0.1l0,0.2c0,0,0,0.1-0.1,0.1c-0.1,0-0.5,0-1.3,0c-0.6,0-1.1,0-1.2,0
			c-0.1,0-0.1,0-0.1-0.1l0-0.2c0,0,0-0.1,0.1-0.1h0.2c0.5,0,0.7-0.2,0.9-0.9l1.4-4.3h-0.2c-0.8,0-1.3,0.1-1.5,0.2
			c-0.3,0.3-0.7,0.8-0.9,1c0,0-0.1,0-0.1,0l-0.1-0.1c0,0,0-0.1,0-0.1c0.1-0.2,0.6-1.4,0.6-1.4c0-0.1,0-0.1,0.1-0.1
			c0.1,0,0.3,0.2,1.4,0.2H168.4z"/>
		<path fill="#898981" d="M168.4,11.4C168.4,11.3,168.4,11.3,168.4,11.4l2.8-0.1c0,0,0.1,0,0.1,0.1v0.3c0,0.1,0,0.1-0.1,0.1h-2.8
			c-0.1,0-0.1,0-0.1-0.1V11.4z"/>
		<path fill="#898981" d="M173,10.6h-0.6c-0.1,0-0.1,0-0.1-0.1l0.1-0.2c0,0,0-0.1,0.1-0.1h0.6l0.4-1c0-0.1,0.1-0.1,0.1-0.1
			c0.1,0,0.3-0.1,0.4-0.1c0.1,0,0.1-0.1,0.1-0.1c0.1,0,0.1,0.1,0,0.2l-0.6,1.1h0.9c0,0,0.1,0,0,0.1l-0.1,0.2c0,0,0,0-0.1,0h-0.9
			l-0.8,1.9c-0.1,0.2-0.2,0.5-0.2,0.5c0,0.1,0,0.1,0.1,0.1c0.2,0,0.8-0.5,0.9-0.5c0,0,0.1,0,0.1,0l0.1,0.1c0,0,0,0,0,0.1
			c-0.1,0.1-0.9,0.8-1.6,0.8c-0.2,0-0.3-0.1-0.3-0.2c0-0.1,0-0.3,0.1-0.4L173,10.6z"/>
		<path fill="#898981" d="M173.9,15.3c-0.1,0.1-0.1,0-0.2-0.1c-0.1-0.1-0.1-0.1,0-0.2c1.5-1.2,2.5-3.3,2.5-5.5c0-1.3-0.1-1.7-0.2-2
			c0-0.1,0-0.1,0.1-0.1c0.1,0,0.1,0,0.2,0c0.2,0.4,0.4,1.4,0.4,2.3C176.8,12,175.7,14,173.9,15.3z"/>
	</g>
	<g>
		<path fill="#898981" d="M21.8,47c-0.1,0-0.1-0.1-0.1-0.1l0.1-0.3c0-0.1,0-0.1,0.2-0.1h1.8c0.2,0,0.2,0.1,0.2,0.3
			c-0.2,0.5-2.8,7.4-3,8.3c-0.1,0.5-0.1,0.7,0.1,0.7c0.2,0,1-0.7,1-0.8c0.1,0,0.1,0,0.2,0l0.1,0.1c0,0,0,0.1,0,0.1
			c-0.1,0.1-1.4,1.3-2.1,1.3c-0.2,0-0.4-0.1-0.4-0.3c0-0.3,0.3-1.3,0.6-2.1l-0.1,0c-0.7,1.1-2.1,2.5-3.1,2.5c-0.5,0-0.9-0.3-0.9-1
			c0-1.2,0.8-2.9,2-4.1c0.5-0.5,1.3-1.2,2.3-1.2c0.4,0,0.7,0.2,0.9,0.5l1.1-3.2c0.1-0.3,0-0.6-0.4-0.6H21.8z M20.1,53.8
			c0.4-0.6,1-1.5,1-2.1c0-0.7-0.3-1-0.8-1c-1.4,0-2.9,3.2-2.9,4.6c0,0.3,0.2,0.5,0.4,0.5C18.3,55.8,19.5,54.6,20.1,53.8z"/>
		<path fill="#898981" d="M23,61.1c0-0.1,0-0.1,0.1-0.1h0.5c0.3,0,0.5,0,0.7-0.4c0-0.1,0.2-0.6,0.4-1.2l0.5-1.6
			c0.2-0.5,0.3-0.8,0.3-0.8c0-0.1,0-0.2-0.1-0.2c-0.1,0-0.3,0.1-0.5,0.2l-0.5,0.2c-0.1,0-0.1,0-0.1,0L24.1,57c0,0,0-0.1,0.1-0.1
			l1.9-1c0.1-0.1,0.2-0.1,0.3-0.1c0,0,0.1,0,0.1,0.1c0,0,0,0.1-0.1,0.2c0,0.1-0.4,1.1-0.7,2l-0.5,1.5c-0.1,0.4-0.3,0.9-0.3,1
			c-0.1,0.3,0,0.4,0.4,0.4h0.5c0.1,0,0.1,0,0.1,0.1l0,0.2c0,0,0,0.1-0.1,0.1c-0.1,0-1.3,0-1.4,0c-0.1,0-1.2,0-1.3,0c0,0-0.1,0,0-0.1
			L23,61.1z"/>
		<path fill="#898981" d="M35.6,51.4v0.8h-5.7v-0.8H35.6z M35.6,53.6v0.8h-5.7v-0.8H35.6z"/>
	</g>
	<g>
		<path fill="#898981" d="M36.4,144.6v0.8h-5.7v-0.8H36.4z M36.4,146.8v0.8h-5.7v-0.8H36.4z"/>
		<path fill="#898981" d="M46.4,140.3c-0.1,0-0.1-0.1-0.1-0.1l0.1-0.3c0-0.1,0-0.1,0.2-0.1h1.8c0.2,0,0.2,0.1,0.2,0.3
			c-0.2,0.5-2.8,7.4-3,8.3c-0.1,0.5-0.1,0.7,0.1,0.7c0.2,0,1-0.7,1-0.8c0.1,0,0.1,0,0.2,0l0.1,0.1c0,0,0,0.1,0,0.1
			c-0.1,0.1-1.4,1.3-2.1,1.3c-0.2,0-0.4-0.1-0.4-0.3c0-0.3,0.3-1.3,0.6-2.1l-0.1,0c-0.7,1.1-2.1,2.5-3.1,2.5c-0.5,0-0.9-0.3-0.9-1
			c0-1.2,0.8-2.9,2-4.1c0.5-0.5,1.3-1.2,2.3-1.2c0.4,0,0.7,0.2,0.9,0.5l1.1-3.2c0.1-0.3,0-0.6-0.4-0.6H46.4z M44.7,147.1
			c0.4-0.6,1-1.5,1-2.1c0-0.7-0.3-1-0.8-1c-1.4,0-2.9,3.2-2.9,4.6c0,0.3,0.2,0.5,0.4,0.5C43,149.1,44.1,147.9,44.7,147.1z"/>
		<path fill="#898981" d="M47.6,154.3c0-0.1,0-0.1,0.1-0.1h0.5c0.3,0,0.5,0,0.7-0.4c0-0.1,0.2-0.6,0.4-1.2l0.5-1.6
			c0.2-0.5,0.3-0.8,0.3-0.8c0-0.1,0-0.2-0.1-0.2c-0.1,0-0.3,0.1-0.5,0.2l-0.5,0.2c-0.1,0-0.1,0-0.1,0l-0.1-0.1c0,0,0-0.1,0.1-0.1
			l1.9-1c0.1-0.1,0.2-0.1,0.3-0.1c0,0,0.1,0,0.1,0.1c0,0,0,0.1-0.1,0.2c0,0.1-0.4,1.1-0.7,2l-0.5,1.5c-0.1,0.4-0.3,0.9-0.3,1
			c-0.1,0.3,0,0.4,0.4,0.4h0.5c0.1,0,0.1,0,0.1,0.1l0,0.2c0,0,0,0.1-0.1,0.1c-0.1,0-1.3,0-1.4,0c-0.1,0-1.2,0-1.3,0c0,0-0.1,0,0-0.1
			L47.6,154.3z"/>
		<path fill="#898981" d="M54.4,145.9c0-0.1,0-0.1,0.1-0.1h4.7c0.1,0,0.1,0,0.1,0.1v0.5c0,0.1-0.1,0.2-0.1,0.2h-4.7
			c-0.1,0-0.1,0-0.1-0.1V145.9z"/>
		<path fill="#898981" d="M69.6,144.2c0.5,0.6,0.7,1.4,0.7,2.2c0,1-0.3,1.8-1,2.4c-0.7,0.7-1.5,1-2.4,1c-1,0-1.8-0.3-2.5-1
			c-0.7-0.7-1-1.5-1-2.4c0-1.1,0.3-1.9,1-2.5c0.6-0.6,1.4-0.9,2.4-0.9c0.4,0,0.8,0.1,1.3,0.2h3.5c0.1,0,0.1,0,0.1,0c0,0,0,0,0,0.1
			l-0.4,0.7c0,0,0,0.1,0,0.1c0,0,0,0-0.1,0H69.6z M68.6,148.5c0.2-0.3,0.3-0.6,0.4-1c0.1-0.4,0.1-0.7,0.1-1.1c0-0.4,0-0.7-0.1-1.1
			c-0.1-0.4-0.2-0.7-0.4-1c-0.4-0.6-0.9-1-1.6-1c-0.7,0-1.3,0.3-1.7,1c-0.3,0.5-0.5,1.2-0.5,2c0,1.3,0.4,2.2,1.2,2.7
			c0.3,0.2,0.6,0.3,1,0.3c0.4,0,0.7-0.1,1-0.3S68.4,148.7,68.6,148.5z"/>
		<path fill="#898981" d="M97.8,139.9c0.7,0,1.1-0.1,1.4-0.1c0.2-0.1,0.4-0.1,0.4-0.1c0.1,0,0.1,0,0.1,0.1c0,0.2-0.2,2.3-0.1,2.9
			c0,0.1,0,0.1-0.1,0.1l-0.2,0c-0.1,0-0.2,0-0.2-0.2c-0.1-0.5-0.3-1.5-0.5-1.9c-0.4-0.2-1.8-0.3-2.2-0.3h-0.3l-2.4,7.6
			c-0.3,0.9-0.2,1.3,0.6,1.3h0.6c0.1,0,0.1,0.1,0.1,0.1l-0.1,0.3c0,0.1,0,0.1-0.2,0.1c-0.2,0-0.8,0-2.2,0c-1.1,0-1.8,0-2,0
			c-0.1,0-0.1,0-0.1-0.1l0-0.3c0-0.1,0-0.1,0.2-0.1h0.4c0.9,0,1.1-0.4,1.5-1.5l2.3-7.3h-0.4c-1.4,0-2.2,0.2-2.6,0.3
			c-0.6,0.5-1.3,1.3-1.5,1.7c0,0.1-0.1,0.1-0.2,0l-0.2-0.1c-0.1,0-0.1-0.1,0-0.1c0.2-0.3,1.1-2.3,1.1-2.4c0-0.1,0-0.1,0.1-0.1
			c0.2,0,0.5,0.3,2.4,0.3H97.8z"/>
		<path fill="#898981" d="M102.2,145.9c0-0.1,0-0.1,0.1-0.1h4.7c0.1,0,0.1,0,0.1,0.1v0.5c0,0.1-0.1,0.2-0.1,0.2h-4.7
			c-0.1,0-0.1,0-0.1-0.1V145.9z"/>
		<path fill="#898981" d="M113.4,144.5h-1c-0.1,0-0.1,0-0.1-0.1l0.1-0.3c0-0.1,0.1-0.1,0.2-0.1h1.1l0.8-1.7c0.1-0.1,0.1-0.2,0.2-0.2
			c0.2,0,0.5-0.2,0.7-0.2c0.1,0,0.2-0.1,0.2-0.1c0.1,0,0.1,0.1,0,0.3l-1,2h1.5c0.1,0,0.1,0,0.1,0.2l-0.1,0.3c0,0-0.1,0.1-0.1,0.1
			h-1.5l-1.4,3.3c-0.2,0.4-0.3,0.8-0.3,0.9c0,0.2,0.1,0.2,0.2,0.2c0.4,0,1.4-0.8,1.5-0.9c0-0.1,0.1,0,0.1,0l0.2,0.2c0,0,0,0.1,0,0.1
			c-0.2,0.2-1.6,1.5-2.7,1.5c-0.4,0-0.5-0.1-0.5-0.4c0-0.2,0.1-0.5,0.2-0.7L113.4,144.5z"/>
	</g>
	<g>
		<path fill="#898981" d="M21.8,93.8c-0.1,0-0.1-0.1-0.1-0.1l0.1-0.3c0-0.1,0-0.1,0.2-0.1h1.8c0.2,0,0.2,0.1,0.2,0.3
			c-0.2,0.5-2.8,7.4-3,8.3c-0.1,0.5-0.1,0.7,0.1,0.7c0.2,0,1-0.7,1-0.8c0.1,0,0.1,0,0.2,0l0.1,0.1c0,0,0,0.1,0,0.1
			c-0.1,0.1-1.4,1.3-2.1,1.3c-0.2,0-0.4-0.1-0.4-0.3c0-0.3,0.3-1.3,0.6-2.1l-0.1,0c-0.7,1.1-2.1,2.5-3.1,2.5c-0.5,0-0.9-0.3-0.9-1
			c0-1.2,0.8-2.9,2-4.1c0.5-0.5,1.3-1.2,2.3-1.2c0.4,0,0.7,0.2,0.9,0.5l1.1-3.2c0.1-0.3,0-0.6-0.4-0.6H21.8z M20.1,100.6
			c0.4-0.6,1-1.5,1-2.1c0-0.7-0.3-1-0.8-1c-1.4,0-2.9,3.2-2.9,4.6c0,0.3,0.2,0.5,0.4,0.5C18.3,102.6,19.5,101.4,20.1,100.6z"/>
		<path fill="#898981" d="M25.1,107.6c0.5,0,0.8-0.3,1-0.6c0-0.1,0.1-0.1,0.1-0.1l0.1,0.1c0,0,0,0.1,0,0.1c-0.2,0.3-0.6,1.1-0.6,1.2
			c0,0.1-0.1,0.1-0.1,0.1c-0.1,0-0.1,0-0.2-0.1c-0.1-0.1-0.3-0.1-0.4-0.1h-1.9c-0.1,0-0.2,0-0.3,0c-0.1,0-0.2,0-0.2,0
			c-0.1,0-0.1,0-0.1-0.1c0,0,0-0.1,0.1-0.2c1.1-0.9,3.4-2.4,3.4-3.8c0-0.3-0.1-1-0.8-1c-0.7,0-1.1,0.7-1.2,1
			c-0.1,0.1-0.1,0.1-0.1,0.1l-0.1-0.1c0,0,0,0,0-0.1c0.2-0.5,0.8-1.4,1.8-1.4c0.7,0,1.2,0.5,1.2,1.3c0,1.5-2.2,2.9-3.2,3.6v0H25.1z"
			/>
		<path fill="#898981" d="M35.6,98.2V99h-5.7v-0.8H35.6z M35.6,100.4v0.8h-5.7v-0.8H35.6z"/>
	</g>
	<g>
		<polygon fill="#898981" points="78,150.3 75,145.2 74.2,145.2 74.2,144.2 75.5,144.2 78,149 85.5,135.2 112.9,135.2 112.9,135.2 
			85.9,135.2 		"/>
	</g>
	<g>
		<g>
			<path fill="#898981" d="M56.7,111.7c0.5,0.6,0.7,1.4,0.7,2.2c0,1-0.3,1.8-1,2.4c-0.7,0.7-1.5,1-2.4,1c-1,0-1.8-0.3-2.5-1
				c-0.7-0.7-1-1.5-1-2.4c0-1.1,0.3-1.9,1-2.5c0.6-0.6,1.4-0.9,2.4-0.9c0.4,0,0.8,0.1,1.3,0.2h3.5c0.1,0,0.1,0,0.1,0c0,0,0,0,0,0.1
				l-0.4,0.7c0,0,0,0.1,0,0.1c0,0,0,0-0.1,0H56.7z M55.6,116c0.2-0.3,0.3-0.6,0.4-1c0.1-0.4,0.1-0.7,0.1-1.1s0-0.7-0.1-1.1
				c-0.1-0.4-0.2-0.7-0.4-1c-0.4-0.6-0.9-1-1.6-1c-0.7,0-1.3,0.3-1.7,1c-0.3,0.5-0.5,1.2-0.5,2c0,1.3,0.4,2.2,1.2,2.7
				c0.3,0.2,0.6,0.3,1,0.3c0.4,0,0.7-0.1,1-0.3C55.2,116.5,55.4,116.2,55.6,116z"/>
			<path fill="#898981" d="M84.8,107.4c0.7,0,1.1-0.1,1.4-0.1c0.2-0.1,0.4-0.1,0.4-0.1c0.1,0,0.1,0,0.1,0.1c0,0.2-0.2,2.3-0.1,2.9
				c0,0.1,0,0.1-0.1,0.1l-0.2,0c-0.1,0-0.2,0-0.2-0.2c-0.1-0.5-0.3-1.5-0.5-1.9c-0.4-0.2-1.8-0.3-2.2-0.3h-0.3l-2.4,7.6
				c-0.3,0.9-0.2,1.3,0.6,1.3h0.6c0.1,0,0.1,0.1,0.1,0.1l-0.1,0.3c0,0.1,0,0.1-0.2,0.1c-0.2,0-0.8,0-2.2,0c-1.1,0-1.8,0-2,0
				c-0.1,0-0.1,0-0.1-0.1l0-0.3c0-0.1,0-0.1,0.2-0.1h0.4c0.9,0,1.1-0.4,1.5-1.5l2.3-7.3h-0.4c-1.4,0-2.2,0.2-2.6,0.3
				c-0.6,0.5-1.3,1.3-1.5,1.7c0,0.1-0.1,0.1-0.2,0l-0.2-0.1c-0.1,0-0.1-0.1,0-0.1c0.2-0.3,1.1-2.3,1.1-2.4c0-0.1,0-0.1,0.1-0.1
				c0.2,0,0.5,0.3,2.4,0.3H84.8z"/>
			<path fill="#898981" d="M89.3,113.4c0-0.1,0-0.1,0.1-0.1h4.7c0.1,0,0.1,0,0.1,0.1v0.5c0,0.1-0.1,0.2-0.1,0.2h-4.7
				c-0.1,0-0.1,0-0.1-0.1V113.4z"/>
			<path fill="#898981" d="M100.5,112h-1c-0.1,0-0.1,0-0.1-0.1l0.1-0.3c0-0.1,0.1-0.1,0.2-0.1h1.1l0.8-1.7c0.1-0.1,0.1-0.2,0.2-0.2
				c0.2,0,0.5-0.2,0.7-0.2c0.1,0,0.2-0.1,0.2-0.1c0.1,0,0.1,0.1,0,0.3l-1,2h1.5c0.1,0,0.1,0,0.1,0.2l-0.1,0.3c0,0-0.1,0.1-0.1,0.1
				h-1.5l-1.4,3.3c-0.2,0.4-0.3,0.8-0.3,0.9c0,0.2,0.1,0.2,0.2,0.2c0.4,0,1.4-0.8,1.5-0.9c0-0.1,0.1,0,0.1,0l0.2,0.2
				c0,0,0,0.1,0,0.1c-0.2,0.2-1.6,1.5-2.7,1.5c-0.4,0-0.5-0.1-0.5-0.4c0-0.2,0.1-0.5,0.2-0.7L100.5,112z"/>
		</g>
		<g>
			<polygon fill="#898981" points="64,117.8 61.1,112.2 60.2,112.2 60.2,111.2 61.6,111.2 64,116 71.6,102.2 99.2,102.2 99.2,103.2 
				72,103.2 			"/>
		</g>
	</g>
	<g>
		<g>
			<path fill="#898981" d="M56.7,65.3c0.5,0.6,0.7,1.4,0.7,2.2c0,1-0.3,1.8-1,2.4c-0.7,0.7-1.5,1-2.4,1c-1,0-1.8-0.3-2.5-1
				c-0.7-0.7-1-1.5-1-2.4c0-1.1,0.3-1.9,1-2.5c0.6-0.6,1.4-0.9,2.4-0.9c0.4,0,0.8,0.1,1.3,0.2h3.5c0.1,0,0.1,0,0.1,0c0,0,0,0,0,0.1
				l-0.4,0.7c0,0,0,0.1,0,0.1c0,0,0,0-0.1,0H56.7z M55.6,69.5c0.2-0.3,0.3-0.6,0.4-1c0.1-0.4,0.1-0.7,0.1-1.1s0-0.7-0.1-1.1
				c-0.1-0.4-0.2-0.7-0.4-1c-0.4-0.6-0.9-1-1.6-1c-0.7,0-1.3,0.3-1.7,1c-0.3,0.5-0.5,1.2-0.5,2c0,1.3,0.4,2.2,1.2,2.7
				c0.3,0.2,0.6,0.3,1,0.3c0.4,0,0.7-0.1,1-0.3C55.2,70,55.4,69.8,55.6,69.5z"/>
			<path fill="#898981" d="M84.8,60.9c0.7,0,1.1-0.1,1.4-0.1c0.2-0.1,0.4-0.1,0.4-0.1c0.1,0,0.1,0,0.1,0.1c0,0.2-0.2,2.3-0.1,2.9
				c0,0.1,0,0.1-0.1,0.1l-0.2,0c-0.1,0-0.2,0-0.2-0.2c-0.1-0.5-0.3-1.5-0.5-1.9c-0.4-0.2-1.8-0.3-2.2-0.3h-0.3L80.5,69
				c-0.3,0.9-0.2,1.3,0.6,1.3h0.6c0.1,0,0.1,0.1,0.1,0.1l-0.1,0.3c0,0.1,0,0.1-0.2,0.1c-0.2,0-0.8,0-2.2,0c-1.1,0-1.8,0-2,0
				c-0.1,0-0.1,0-0.1-0.1l0-0.3c0-0.1,0-0.1,0.2-0.1h0.4c0.9,0,1.1-0.4,1.5-1.5l2.3-7.3h-0.4c-1.4,0-2.2,0.2-2.6,0.3
				c-0.6,0.5-1.3,1.3-1.5,1.7c0,0.1-0.1,0.1-0.2,0l-0.2-0.1c-0.1,0-0.1-0.1,0-0.1c0.2-0.3,1.1-2.3,1.1-2.4c0-0.1,0-0.1,0.1-0.1
				c0.2,0,0.5,0.3,2.4,0.3H84.8z"/>
			<path fill="#898981" d="M89.3,66.9c0-0.1,0-0.1,0.1-0.1h4.7c0.1,0,0.1,0,0.1,0.1v0.5c0,0.1-0.1,0.2-0.1,0.2h-4.7
				c-0.1,0-0.1,0-0.1-0.1V66.9z"/>
			<path fill="#898981" d="M100.5,65.6h-1c-0.1,0-0.1,0-0.1-0.1l0.1-0.3c0-0.1,0.1-0.1,0.2-0.1h1.1l0.8-1.7c0.1-0.1,0.1-0.2,0.2-0.2
				c0.2,0,0.5-0.2,0.7-0.2c0.1,0,0.2-0.1,0.2-0.1c0.1,0,0.1,0.1,0,0.3l-1,2h1.5c0.1,0,0.1,0,0.1,0.2l-0.1,0.3c0,0-0.1,0.1-0.1,0.1
				h-1.5l-1.4,3.3c-0.2,0.4-0.3,0.8-0.3,0.9c0,0.2,0.1,0.2,0.2,0.2c0.4,0,1.4-0.8,1.5-0.9c0-0.1,0.1,0,0.1,0l0.2,0.2
				c0,0,0,0.1,0,0.1c-0.2,0.2-1.6,1.5-2.7,1.5c-0.4,0-0.5-0.1-0.5-0.4c0-0.2,0.1-0.5,0.2-0.7L100.5,65.6z"/>
		</g>
		<g>
			<polygon fill="#898981" points="64,71.3 61.1,66.2 60.2,66.2 60.2,65.2 61.6,65.2 64,70 71.6,56.2 98.9,56.2 98.9,56.2 72,56.2 
							"/>
		</g>
	</g>
	<g>
		<rect x="41.2" y="99.2" fill="#898981" width="58" height="1"/>
	</g>
	<g>
		<rect x="41.2" y="51.2" fill="#898981" width="58" height="1"/>
	</g>
	<g>
		<path fill="#898981" d="M64.4,46.2c0-0.1,0.1-0.1,0.2-0.1h0.8c0.5,0,0.8-0.1,1.2-0.7c0.1-0.2,0.4-1,0.7-2.1l0.8-2.7
			c0.3-0.9,0.4-1.3,0.4-1.5c0-0.2-0.1-0.3-0.2-0.3c-0.2,0-0.4,0.1-0.9,0.3l-0.8,0.3c-0.1,0-0.2,0-0.2,0l-0.1-0.2
			c0-0.1,0-0.1,0.1-0.2l3.3-1.7c0.2-0.1,0.3-0.1,0.4-0.1c0.1,0,0.2,0.1,0.2,0.1c0,0.1,0,0.2-0.1,0.4c0,0.1-0.7,1.9-1.2,3.4l-0.8,2.6
			c-0.2,0.7-0.5,1.5-0.5,1.7c-0.2,0.5-0.1,0.7,0.6,0.7H69c0.1,0,0.1,0.1,0.1,0.1L69,46.6c0,0.1,0,0.1-0.1,0.1c-0.1,0-2.2,0-2.4,0
			c-0.2,0-2.1,0-2.2,0c-0.1,0-0.1,0-0.1-0.1L64.4,46.2z"/>
	</g>
	<g>
		<path fill="#898981" d="M64.4,96.1c0-0.1,0.1-0.1,0.2-0.1h0.8c0.5,0,0.8-0.1,1.2-0.7c0.1-0.2,0.4-1,0.7-2.1l0.8-2.7
			c0.3-0.9,0.4-1.3,0.4-1.5c0-0.2-0.1-0.3-0.2-0.3c-0.2,0-0.4,0.1-0.9,0.3l-0.8,0.3c-0.1,0-0.2,0-0.2,0l-0.1-0.2
			c0-0.1,0-0.1,0.1-0.2l3.3-1.7c0.2-0.1,0.3-0.1,0.4-0.1c0.1,0,0.2,0.1,0.2,0.1c0,0.1,0,0.2-0.1,0.4c0,0.1-0.7,1.9-1.2,3.4l-0.8,2.6
			c-0.2,0.7-0.5,1.5-0.5,1.7c-0.2,0.5-0.1,0.7,0.6,0.7H69c0.1,0,0.1,0.1,0.1,0.1L69,96.5c0,0.1,0,0.1-0.1,0.1c-0.1,0-2.2,0-2.4,0
			c-0.2,0-2.1,0-2.2,0c-0.1,0-0.1,0-0.1-0.1L64.4,96.1z"/>
	</g>
	<g>
		<polygon fill="#898981" points="113.2,71.2 106.2,71.2 106.2,35.2 113.2,35.2 113.2,36.2 107.2,36.2 107.2,70.2 113.2,70.2 		"/>
	</g>
	<g>
		<polygon fill="#898981" points="281.2,71.2 275.2,71.2 275.2,70.2 280.2,70.2 280.2,36.2 276.2,36.2 276.2,35.2 281.2,35.2 		"/>
	</g>
	<g>
		<path fill="#898981" d="M116.9,48.3c0.2-0.7,0-1-0.5-1h-0.7c-0.1,0-0.1,0-0.1-0.1l0.1-0.3c0-0.1,0.1-0.1,0.2-0.1c0.2,0,1,0,2,0
			c1.2,0,1.8,0,2,0c0.1,0,0.2,0.1,0.2,0.1l-0.1,0.3c0,0.1,0,0.1-0.2,0.1h-0.3c-0.9,0-1.1,0.1-1.4,1l-1.8,6.8c-0.2,0.7,0,1,0.8,1h0.5
			c0.1,0,0.1,0.1,0.1,0.1l0,0.3c0,0.1,0,0.1-0.2,0.1c-0.2,0-0.9,0-2.1,0c-1.2,0-2,0-2.2,0c-0.1,0-0.1,0-0.1-0.1l0.1-0.3
			c0-0.1,0-0.1,0.1-0.1h0.6c0.9,0,1-0.3,1.2-1.1L116.9,48.3z"/>
		<path fill="#898981" d="M119.5,56.7c-0.2,0-0.2,0-0.2-0.1l1-2.7c0.4-0.9,0.8-2,0.8-2.2c0-0.1-0.1-0.2-0.2-0.2c-0.3,0-1,0.7-1.2,1
			c0,0-0.1,0-0.1,0l-0.1-0.1c-0.1-0.1-0.1-0.1,0-0.1c0.2-0.3,1.3-1.5,2.4-1.5c0.3,0,0.5,0.2,0.5,0.4c0,0.5-0.6,1.8-0.7,2.2l0.1,0
			c0.4-0.7,2-2.7,3.3-2.7c0.4,0,0.7,0.2,0.7,0.6c0,0.6-0.3,1.4-0.8,2.6c-0.4,1-0.7,1.8-0.7,2c0,0.1,0.1,0.2,0.2,0.2
			c0.2,0,0.9-0.5,1.1-0.7c0.1,0,0.1,0,0.2,0l0.1,0.1c0.1,0.1,0.1,0.1,0,0.2c-0.2,0.2-1.4,1.3-2.3,1.3c-0.2,0-0.4-0.1-0.4-0.3
			c0-0.3,0.5-1.4,1-2.7c0.2-0.6,0.7-1.8,0.7-2.1c0-0.2-0.1-0.3-0.4-0.3c-0.6,0-2,1.3-2.7,2.4c-0.3,0.4-0.5,0.8-0.9,1.8l-0.4,1
			c0,0.1-0.1,0.1-0.2,0.1H119.5z"/>
	</g>
	<g>
		<path fill="#898981" d="M141,45.3c0-0.1,0.1-0.1,0.2-0.1l0.1,0c0.1,0,0.1,0.1,0.1,0.2c-0.5,2.2,0.8,3.2,1.7,3.2
			c0.9,0,1.7-0.7,1.7-1.7c0-1-0.7-1.6-1.4-2.3c-0.9-1-1.6-1.7-1.6-3.1c0-1.1,0.8-2.6,2.5-2.6c0.8,0,1.5,0.5,1.7,0.7
			c0.1,0,0.1,0.1,0.2,0.1c0.1,0,0.2-0.2,0.2-0.5c0,0,0-0.1,0.1,0l0.2,0c0.1,0,0.1,0,0.1,0.1l-0.5,2.8c0,0.1,0,0.1-0.1,0.1l-0.2,0
			c-0.1,0-0.1,0-0.1-0.1c0.1-0.6-0.1-2.4-1.6-2.4c-0.9,0-1.5,0.8-1.5,1.6c0,1.1,0.6,1.5,1.3,2.2c0.7,0.7,1.6,1.5,1.6,3
			c0,1.9-1.4,2.8-2.7,2.8c-0.9,0-1.6-0.5-2.2-1.1c-0.1-0.1-0.2-0.1-0.3,0c-0.1,0.1-0.2,0.3-0.3,0.6c0,0.1-0.1,0.1-0.1,0l-0.2-0.1
			c-0.1,0-0.1,0-0.1-0.1L141,45.3z"/>
		<path fill="#898981" d="M142.1,65.1c-0.2,0.6,0,1,0.5,1h0.4c0.1,0,0.1,0,0.1,0.1l-0.1,0.3c0,0.1-0.1,0.1-0.2,0.1
			c-0.2,0-0.8,0-1.8,0c-1.1,0-1.5,0-1.6,0c-0.1,0-0.1-0.1-0.1-0.2l0.1-0.3c0-0.1,0-0.1,0.2-0.1h0.4c0.4,0,0.7-0.3,0.9-0.9l2.3-7
			c0.2-0.6,0.1-0.9-0.5-0.9h-0.4c-0.1,0-0.2-0.1-0.1-0.1l0.1-0.3c0-0.1,0.1-0.1,0.2-0.1c0.1,0,0.7,0,1.6,0c1.2,0,1.6,0,1.8,0
			c0.1,0,0.1,0.1,0.1,0.1l0,0.3c0,0.1-0.1,0.1-0.2,0.1h-0.4c-0.5,0-0.8,0.2-1,0.8l-1.1,3.5c0.6,0,0.8,0,1.2-0.4
			c1.3-1.2,3-2.6,3.6-3.3c0.2-0.3,0.1-0.5-0.2-0.5h-0.2c-0.1,0-0.1-0.1-0.1-0.1l0.1-0.3c0-0.1,0.1-0.1,0.2-0.1c0.1,0,0.8,0,1.6,0
			c0.9,0,1.3,0,1.4,0c0.1,0,0.2,0.1,0.2,0.1l-0.1,0.3c0,0.1,0,0.1-0.1,0.1h-0.5c-0.4,0-0.8,0.2-1.2,0.5c-0.6,0.5-4.2,3.7-4.4,3.9
			c0.1,0.2,2.3,3.3,2.6,3.8c0.3,0.3,0.7,0.7,1.1,0.7h0.4c0.1,0,0.1,0.1,0.1,0.1l-0.1,0.2c0,0.1-0.1,0.1-0.2,0.1c-0.2,0-0.6,0-1.5,0
			c-0.9,0-1.7,0-1.8,0c-0.1,0-0.1,0-0.1-0.2l0-0.2c0-0.1,0-0.1,0.1-0.1h0.2c0.3,0,0.6-0.2,0.4-0.4c-0.1-0.2-2-3.1-2.4-3.6
			c-0.1-0.2-0.2-0.2-0.5-0.2L142.1,65.1z"/>
	</g>
	<g>
		<path fill="#898981" d="M184.6,57.3c-0.1,0-0.2-0.1-0.1-0.1l0.8-2.4c0.3-0.8,0.7-2.4,0.7-2.6c0-0.1-0.1-0.2-0.2-0.2
			c-0.3,0-1,0.7-1.2,0.9c0,0-0.1,0-0.1,0l-0.1-0.1c0,0,0-0.1,0-0.1c0.3-0.5,1.2-1.5,2.2-1.5c0.3,0,0.4,0.2,0.4,0.5
			c0,0.3-0.2,1.1-0.5,2.1l0.1,0c0.4-0.8,1.6-2.6,2.4-2.6c0.4,0,0.7,0.3,0.7,0.7c0,0.4-0.3,0.7-0.6,0.7c-0.1,0-0.2,0-0.4-0.1
			c-0.1-0.1-0.2-0.2-0.4-0.2c-0.4,0-1.2,1.3-1.8,2.2c-0.2,0.3-0.4,0.6-0.6,1.3l-0.5,1.5c0,0.1-0.1,0.1-0.2,0.1H184.6z"/>
		<path fill="#898981" d="M195.7,56.7v-2.5h-2.4v-0.8h2.4v-2.5h0.9v2.5h2.4v0.8h-2.4v2.5H195.7z"/>
	</g>
	<g>
		<path fill="#898981" d="M247.5,46.7c0.1-0.1,0.2-0.1,0.3,0.1c0.1,0.1,0.1,0.2-0.1,0.3c-2.5,2.1-4.3,5.6-4.3,9.4
			c0,2.2,0.2,3,0.3,3.4c0,0.1,0,0.1-0.2,0.2c-0.2,0.1-0.2,0-0.3,0c-0.3-0.6-0.7-2.4-0.7-3.9C242.5,52.5,244.5,49,247.5,46.7z"/>
		<path fill="#898981" d="M256.8,47.4c0.7,0,1.1-0.1,1.4-0.1c0.2-0.1,0.4-0.1,0.4-0.1c0.1,0,0.1,0,0.1,0.1c0,0.2-0.2,2.3-0.1,2.9
			c0,0.1,0,0.1-0.1,0.1l-0.2,0c-0.1,0-0.2,0-0.2-0.2c-0.1-0.5-0.3-1.5-0.5-1.9c-0.4-0.2-1.8-0.3-2.2-0.3h-0.3l-2.4,7.6
			c-0.3,0.9-0.2,1.3,0.6,1.3h0.6c0.1,0,0.1,0.1,0.1,0.1l-0.1,0.3c0,0.1,0,0.1-0.2,0.1c-0.2,0-0.8,0-2.2,0c-1.1,0-1.8,0-2,0
			c-0.1,0-0.1,0-0.1-0.1l0-0.3c0-0.1,0-0.1,0.2-0.1h0.4c0.9,0,1.1-0.4,1.5-1.5l2.3-7.3h-0.4c-1.4,0-2.2,0.2-2.6,0.3
			c-0.6,0.5-1.3,1.3-1.5,1.7c0,0.1-0.1,0.1-0.2,0l-0.2-0.1c-0.1,0-0.1-0.1,0-0.1c0.2-0.3,1.1-2.3,1.1-2.4c0-0.1,0-0.1,0.1-0.1
			c0.2,0,0.5,0.3,2.4,0.3H256.8z"/>
		<path fill="#898981" d="M261.2,53.4c0-0.1,0-0.1,0.1-0.1h4.7c0.1,0,0.1,0,0.1,0.1v0.5c0,0.1-0.1,0.2-0.1,0.2h-4.7
			c-0.1,0-0.1,0-0.1-0.1V53.4z"/>
		<path fill="#898981" d="M272.4,52.1h-1c-0.1,0-0.1,0-0.1-0.1l0.1-0.3c0-0.1,0.1-0.1,0.2-0.1h1.1l0.8-1.7c0.1-0.1,0.1-0.2,0.2-0.2
			c0.2,0,0.5-0.2,0.7-0.2c0.1,0,0.2-0.1,0.2-0.1c0.1,0,0.1,0.1,0,0.3l-1,2h1.5c0.1,0,0.1,0,0.1,0.2L275,52c0,0-0.1,0.1-0.1,0.1h-1.5
			l-1.4,3.3c-0.2,0.4-0.3,0.8-0.3,0.9s0.1,0.2,0.2,0.2c0.4,0,1.4-0.8,1.5-0.9c0-0.1,0.1,0,0.1,0l0.2,0.2c0,0,0,0.1,0,0.1
			c-0.2,0.2-1.6,1.5-2.7,1.5c-0.4,0-0.5-0.1-0.5-0.4c0-0.2,0.1-0.5,0.2-0.7L272.4,52.1z"/>
		<path fill="#898981" d="M274,60.2c-0.1,0.1-0.2,0.1-0.3-0.1c-0.1-0.1-0.1-0.2,0.1-0.3c2.5-2.1,4.3-5.6,4.3-9.4
			c0-2.2-0.2-3-0.3-3.4c0-0.1,0-0.1,0.2-0.2c0.2-0.1,0.2,0,0.3,0c0.3,0.6,0.7,2.4,0.7,3.9C279,54.5,277.1,57.9,274,60.2z"/>
	</g>
	<g>
		<path fill="#898981" d="M217.7,41.3c0.5,0.6,0.7,1.4,0.7,2.2c0,1-0.3,1.8-1,2.4c-0.7,0.7-1.5,1-2.4,1c-1,0-1.8-0.3-2.5-1
			c-0.7-0.7-1-1.5-1-2.4c0-1.1,0.3-1.9,1-2.5c0.6-0.6,1.4-0.9,2.4-0.9c0.4,0,0.8,0.1,1.3,0.2h3.5c0.1,0,0.1,0,0.1,0c0,0,0,0,0,0.1
			l-0.4,0.7c0,0,0,0.1,0,0.1c0,0,0,0-0.1,0H217.7z M216.7,45.6c0.2-0.3,0.3-0.6,0.4-1c0.1-0.4,0.1-0.7,0.1-1.1s0-0.7-0.1-1.1
			c-0.1-0.4-0.2-0.7-0.4-1c-0.4-0.6-0.9-1-1.6-1c-0.7,0-1.3,0.3-1.7,1c-0.3,0.5-0.5,1.2-0.5,2c0,1.3,0.4,2.2,1.2,2.7
			c0.3,0.2,0.6,0.3,1,0.3c0.4,0,0.7-0.1,1-0.3C216.3,46.1,216.5,45.9,216.7,45.6z"/>
		<path fill="#898981" d="M222.6,41.4c0.5,0,0.8-0.3,1-0.6c0-0.1,0.1-0.1,0.1-0.1l0.1,0.1c0,0,0,0.1,0,0.1c-0.2,0.3-0.6,1.1-0.6,1.2
			c0,0.1-0.1,0.1-0.1,0.1c-0.1,0-0.1,0-0.2-0.1c-0.1-0.1-0.3-0.1-0.4-0.1h-1.9c-0.1,0-0.2,0-0.3,0c-0.1,0-0.2,0-0.2,0
			s-0.1,0-0.1-0.1c0,0,0-0.1,0.1-0.2c1.1-0.9,3.4-2.4,3.4-3.8c0-0.3-0.1-1-0.8-1c-0.7,0-1.1,0.7-1.2,1c-0.1,0.1-0.1,0.1-0.1,0.1
			l-0.1-0.1c0,0,0,0,0-0.1c0.2-0.5,0.8-1.4,1.8-1.4c0.7,0,1.2,0.5,1.2,1.3c0,1.5-2.2,2.9-3.2,3.6v0H222.6z"/>
		<path fill="#898981" d="M215.4,63.4c0.9,0,1.3-0.6,1.7-1.1c0.1-0.1,0.1-0.1,0.1-0.1l0.2,0.1c0,0.1,0,0.1,0,0.2c-0.4,0.5-1,1.9-1,2
			c-0.1,0.1-0.1,0.1-0.2,0.1c-0.1,0-0.2,0-0.3-0.2c-0.1-0.1-0.4-0.1-0.7-0.1h-3.3c-0.2,0-0.3,0-0.5,0c-0.1,0-0.3,0-0.4,0
			c-0.1,0-0.1,0-0.1-0.1c0-0.1,0-0.2,0.2-0.3c1.9-1.5,5.8-4.2,5.9-6.5c0-0.5-0.2-1.7-1.5-1.7c-1.2,0-1.8,1.2-2.1,1.6
			c-0.1,0.1-0.1,0.2-0.2,0.2l-0.2-0.1c0,0,0-0.1,0-0.2c0.3-0.8,1.4-2.4,3.1-2.4c1.3,0,2.1,0.9,2.1,2.2c0,2.6-3.8,5-5.5,6.2v0H215.4z
			"/>
	</g>
	<g>
		<rect x="207.2" y="51.2" fill="#898981" width="18" height="1"/>
	</g>
	<g>
		<rect x="134.2" y="51.2" fill="#898981" width="18" height="1"/>
	</g>
	<g>
		<path fill="#898981" d="M135.5,68.5c-6.4-9-6-16.7-4.6-21.6c1.5-5.3,4.5-8.5,4.6-8.6l0.6,0.5c-0.1,0.1-11.8,12.7,0,29.3
			L135.5,68.5z"/>
	</g>
	<g>
		<path fill="#898981" d="M183.5,68.5c-6.4-9-6-16.7-4.6-21.6c1.5-5.3,4.5-8.5,4.6-8.6l0.6,0.5c-0.1,0.1-11.8,12.7,0,29.3
			L183.5,68.5z"/>
	</g>
	<g>
		<path fill="#898981" d="M150.8,68.5l-0.6-0.5c0.1-0.1,11.8-12.7,0-29.3l0.6-0.4c6.4,9,6,16.7,4.6,21.6
			C153.9,65.2,151,68.4,150.8,68.5z"/>
	</g>
	<g>
		<path fill="#898981" d="M227.4,68.5l-0.6-0.5c0.1-0.1,11.8-12.7,0-29.3l0.6-0.4c6.4,9,6,16.7,4.6,21.6
			C230.6,65.2,227.6,68.4,227.4,68.5z"/>
	</g>
	<g>
		<path fill="#898981" d="M166.6,56.7v-2.5h-2.4v-0.8h2.4v-2.5h0.9v2.5h2.4v0.8h-2.4v2.5H166.6z"/>
	</g>
	<g>
		<polygon fill="#898981" points="113.2,121.2 106.2,121.2 106.2,84.2 113.2,84.2 113.2,85.2 107.2,85.2 107.2,120.2 113.2,120.2 		
			"/>
	</g>
	<g>
		<polygon fill="#898981" points="281.2,121.2 275.2,121.2 275.2,120.2 280.2,120.2 280.2,85.2 276.2,85.2 276.2,84.2 281.2,84.2 		
			"/>
	</g>
	<g>
		<path fill="#898981" d="M116.9,97.8c0.2-0.7,0-1-0.5-1h-0.7c-0.1,0-0.1,0-0.1-0.1l0.1-0.3c0-0.1,0.1-0.1,0.2-0.1c0.2,0,1,0,2,0
			c1.2,0,1.8,0,2,0c0.1,0,0.2,0.1,0.2,0.1l-0.1,0.3c0,0.1,0,0.1-0.2,0.1h-0.3c-0.9,0-1.1,0.1-1.4,1l-1.8,6.8c-0.2,0.7,0,1,0.8,1h0.5
			c0.1,0,0.1,0.1,0.1,0.1l0,0.3c0,0.1,0,0.1-0.2,0.1c-0.2,0-0.9,0-2.1,0c-1.2,0-2,0-2.2,0c-0.1,0-0.1,0-0.1-0.1l0.1-0.3
			c0-0.1,0-0.1,0.1-0.1h0.6c0.9,0,1-0.3,1.2-1.1L116.9,97.8z"/>
		<path fill="#898981" d="M119.5,106.2c-0.2,0-0.2,0-0.2-0.1l1-2.7c0.4-0.9,0.8-2,0.8-2.2c0-0.1-0.1-0.2-0.2-0.2c-0.3,0-1,0.7-1.2,1
			c0,0-0.1,0-0.1,0l-0.1-0.1c-0.1-0.1-0.1-0.1,0-0.1c0.2-0.3,1.3-1.5,2.4-1.5c0.3,0,0.5,0.2,0.5,0.4c0,0.5-0.6,1.8-0.7,2.2l0.1,0
			c0.4-0.7,2-2.7,3.3-2.7c0.4,0,0.7,0.2,0.7,0.6c0,0.6-0.3,1.4-0.8,2.6c-0.4,1-0.7,1.8-0.7,2c0,0.1,0.1,0.2,0.2,0.2
			c0.2,0,0.9-0.5,1.1-0.7c0.1,0,0.1,0,0.2,0l0.1,0.1c0.1,0.1,0.1,0.1,0,0.2c-0.2,0.2-1.4,1.3-2.3,1.3c-0.2,0-0.4-0.1-0.4-0.3
			c0-0.3,0.5-1.4,1-2.7c0.2-0.6,0.7-1.8,0.7-2.1c0-0.2-0.1-0.3-0.4-0.3c-0.6,0-2,1.3-2.7,2.4c-0.3,0.4-0.5,0.8-0.9,1.8l-0.4,1
			c0,0.1-0.1,0.1-0.2,0.1H119.5z"/>
	</g>
	<g>
		<path fill="#898981" d="M141,94.8c0-0.1,0.1-0.1,0.2-0.1l0.1,0c0.1,0,0.1,0.1,0.1,0.2c-0.5,2.2,0.8,3.2,1.7,3.2
			c0.9,0,1.7-0.7,1.7-1.7c0-1-0.7-1.6-1.4-2.3c-0.9-1-1.6-1.7-1.6-3.1c0-1.1,0.8-2.6,2.5-2.6c0.8,0,1.5,0.5,1.7,0.7
			c0.1,0,0.1,0.1,0.2,0.1c0.1,0,0.2-0.2,0.2-0.5c0,0,0-0.1,0.1,0l0.2,0c0.1,0,0.1,0,0.1,0.1l-0.5,2.8c0,0.1,0,0.1-0.1,0.1l-0.2,0
			c-0.1,0-0.1,0-0.1-0.1c0.1-0.6-0.1-2.4-1.6-2.4c-0.9,0-1.5,0.8-1.5,1.6c0,1.1,0.6,1.5,1.3,2.2c0.7,0.7,1.6,1.5,1.6,3
			c0,1.9-1.4,2.8-2.7,2.8c-0.9,0-1.6-0.5-2.2-1.1c-0.1-0.1-0.2-0.1-0.3,0c-0.1,0.1-0.2,0.3-0.3,0.6c0,0.1-0.1,0.1-0.1,0l-0.2-0.1
			c-0.1,0-0.1,0-0.1-0.1L141,94.8z"/>
		<path fill="#898981" d="M142.1,114.6c-0.2,0.6,0,1,0.5,1h0.4c0.1,0,0.1,0,0.1,0.1L143,116c0,0.1-0.1,0.1-0.2,0.1
			c-0.2,0-0.8,0-1.8,0c-1.1,0-1.5,0-1.6,0c-0.1,0-0.1-0.1-0.1-0.2l0.1-0.3c0-0.1,0-0.1,0.2-0.1h0.4c0.4,0,0.7-0.3,0.9-0.9l2.3-7
			c0.2-0.6,0.1-0.9-0.5-0.9h-0.4c-0.1,0-0.2-0.1-0.1-0.1l0.1-0.3c0-0.1,0.1-0.1,0.2-0.1c0.1,0,0.7,0,1.6,0c1.2,0,1.6,0,1.8,0
			c0.1,0,0.1,0.1,0.1,0.1l0,0.3c0,0.1-0.1,0.1-0.2,0.1h-0.4c-0.5,0-0.8,0.2-1,0.8l-1.1,3.5c0.6,0,0.8,0,1.2-0.4
			c1.3-1.2,3-2.6,3.6-3.3c0.2-0.3,0.1-0.5-0.2-0.5h-0.2c-0.1,0-0.1-0.1-0.1-0.1l0.1-0.3c0-0.1,0.1-0.1,0.2-0.1c0.1,0,0.8,0,1.6,0
			c0.9,0,1.3,0,1.4,0c0.1,0,0.2,0.1,0.2,0.1l-0.1,0.3c0,0.1,0,0.1-0.1,0.1h-0.5c-0.4,0-0.8,0.2-1.2,0.5c-0.6,0.5-4.2,3.7-4.4,3.9
			c0.1,0.2,2.3,3.3,2.6,3.8c0.3,0.3,0.7,0.7,1.1,0.7h0.4c0.1,0,0.1,0.1,0.1,0.1l-0.1,0.2c0,0.1-0.1,0.1-0.2,0.1c-0.2,0-0.6,0-1.5,0
			c-0.9,0-1.7,0-1.8,0c-0.1,0-0.1,0-0.1-0.2l0-0.2c0-0.1,0-0.1,0.1-0.1h0.2c0.3,0,0.6-0.2,0.4-0.4c-0.1-0.2-2-3.1-2.4-3.6
			c-0.1-0.2-0.2-0.2-0.5-0.2L142.1,114.6z"/>
	</g>
	<g>
		<path fill="#898981" d="M184.6,106.8c-0.1,0-0.2-0.1-0.1-0.1l0.8-2.4c0.3-0.8,0.7-2.4,0.7-2.6c0-0.1-0.1-0.2-0.2-0.2
			c-0.3,0-1,0.7-1.2,0.9c0,0-0.1,0-0.1,0l-0.1-0.1c0,0,0-0.1,0-0.1c0.3-0.5,1.2-1.5,2.2-1.5c0.3,0,0.4,0.2,0.4,0.5
			c0,0.3-0.2,1.1-0.5,2.1l0.1,0c0.4-0.8,1.6-2.6,2.4-2.6c0.4,0,0.7,0.3,0.7,0.7c0,0.4-0.3,0.7-0.6,0.7c-0.1,0-0.2,0-0.4-0.1
			c-0.1-0.1-0.2-0.2-0.4-0.2c-0.4,0-1.2,1.3-1.8,2.2c-0.2,0.3-0.4,0.6-0.6,1.3l-0.5,1.5c0,0.1-0.1,0.1-0.2,0.1H184.6z"/>
		<path fill="#898981" d="M195.7,106.2v-2.5h-2.4v-0.8h2.4v-2.5h0.9v2.5h2.4v0.8h-2.4v2.5H195.7z"/>
	</g>
	<g>
		<path fill="#898981" d="M247.5,96.3c0.1-0.1,0.2-0.1,0.3,0.1c0.1,0.1,0.1,0.2-0.1,0.3c-2.5,2.1-4.3,5.6-4.3,9.4
			c0,2.2,0.2,3,0.3,3.4c0,0.1,0,0.1-0.2,0.2c-0.2,0.1-0.2,0-0.3,0c-0.3-0.6-0.7-2.4-0.7-3.9C242.5,102,244.5,98.6,247.5,96.3z"/>
		<path fill="#898981" d="M256.8,97c0.7,0,1.1-0.1,1.4-0.1c0.2-0.1,0.4-0.1,0.4-0.1c0.1,0,0.1,0,0.1,0.1c0,0.2-0.2,2.3-0.1,2.9
			c0,0.1,0,0.1-0.1,0.1l-0.2,0c-0.1,0-0.2,0-0.2-0.2c-0.1-0.5-0.3-1.5-0.5-1.9c-0.4-0.2-1.8-0.3-2.2-0.3h-0.3l-2.4,7.6
			c-0.3,0.9-0.2,1.3,0.6,1.3h0.6c0.1,0,0.1,0.1,0.1,0.1l-0.1,0.3c0,0.1,0,0.1-0.2,0.1c-0.2,0-0.8,0-2.2,0c-1.1,0-1.8,0-2,0
			c-0.1,0-0.1,0-0.1-0.1l0-0.3c0-0.1,0-0.1,0.2-0.1h0.4c0.9,0,1.1-0.4,1.5-1.5l2.3-7.3h-0.4c-1.4,0-2.2,0.2-2.6,0.3
			c-0.6,0.5-1.3,1.3-1.5,1.7c0,0.1-0.1,0.1-0.2,0l-0.2-0.1c-0.1,0-0.1-0.1,0-0.1c0.2-0.3,1.1-2.3,1.1-2.4c0-0.1,0-0.1,0.1-0.1
			c0.2,0,0.5,0.3,2.4,0.3H256.8z"/>
		<path fill="#898981" d="M261.2,103c0-0.1,0-0.1,0.1-0.1h4.7c0.1,0,0.1,0,0.1,0.1v0.5c0,0.1-0.1,0.2-0.1,0.2h-4.7
			c-0.1,0-0.1,0-0.1-0.1V103z"/>
		<path fill="#898981" d="M272.4,101.6h-1c-0.1,0-0.1,0-0.1-0.1l0.1-0.3c0-0.1,0.1-0.1,0.2-0.1h1.1l0.8-1.7c0.1-0.1,0.1-0.2,0.2-0.2
			c0.2,0,0.5-0.2,0.7-0.2c0.1,0,0.2-0.1,0.2-0.1c0.1,0,0.1,0.1,0,0.3l-1,2h1.5c0.1,0,0.1,0,0.1,0.2l-0.1,0.3c0,0-0.1,0.1-0.1,0.1
			h-1.5l-1.4,3.3c-0.2,0.4-0.3,0.8-0.3,0.9c0,0.2,0.1,0.2,0.2,0.2c0.4,0,1.4-0.8,1.5-0.9c0-0.1,0.1,0,0.1,0l0.2,0.2c0,0,0,0.1,0,0.1
			c-0.2,0.2-1.6,1.5-2.7,1.5c-0.4,0-0.5-0.1-0.5-0.4c0-0.2,0.1-0.5,0.2-0.7L272.4,101.6z"/>
		<path fill="#898981" d="M274,109.8c-0.1,0.1-0.2,0.1-0.3-0.1c-0.1-0.1-0.1-0.2,0.1-0.3c2.5-2.1,4.3-5.6,4.3-9.4
			c0-2.2-0.2-3-0.3-3.4c0-0.1,0-0.1,0.2-0.2c0.2-0.1,0.2,0,0.3,0c0.3,0.6,0.7,2.4,0.7,3.9C279,104,277.1,107.5,274,109.8z"/>
	</g>
	<g>
		<path fill="#898981" d="M217.7,90.9c0.5,0.6,0.7,1.4,0.7,2.2c0,1-0.3,1.8-1,2.4c-0.7,0.7-1.5,1-2.4,1c-1,0-1.8-0.3-2.5-1
			c-0.7-0.7-1-1.5-1-2.4c0-1.1,0.3-1.9,1-2.5c0.6-0.6,1.4-0.9,2.4-0.9c0.4,0,0.8,0.1,1.3,0.2h3.5c0.1,0,0.1,0,0.1,0c0,0,0,0,0,0.1
			l-0.4,0.7c0,0,0,0.1,0,0.1c0,0,0,0-0.1,0H217.7z M216.7,95.1c0.2-0.3,0.3-0.6,0.4-1s0.1-0.7,0.1-1.1s0-0.7-0.1-1.1
			c-0.1-0.4-0.2-0.7-0.4-1c-0.4-0.6-0.9-1-1.6-1c-0.7,0-1.3,0.3-1.7,1c-0.3,0.5-0.5,1.2-0.5,2c0,1.3,0.4,2.2,1.2,2.7
			c0.3,0.2,0.6,0.3,1,0.3c0.4,0,0.7-0.1,1-0.3C216.3,95.6,216.5,95.4,216.7,95.1z"/>
		<path fill="#898981" d="M222.6,90.9c0.5,0,0.8-0.3,1-0.6c0-0.1,0.1-0.1,0.1-0.1l0.1,0.1c0,0,0,0.1,0,0.1c-0.2,0.3-0.6,1.1-0.6,1.2
			c0,0.1-0.1,0.1-0.1,0.1c-0.1,0-0.1,0-0.2-0.1c-0.1-0.1-0.3-0.1-0.4-0.1h-1.9c-0.1,0-0.2,0-0.3,0c-0.1,0-0.2,0-0.2,0
			s-0.1,0-0.1-0.1c0,0,0-0.1,0.1-0.2c1.1-0.9,3.4-2.4,3.4-3.8c0-0.3-0.1-1-0.8-1c-0.7,0-1.1,0.7-1.2,1c-0.1,0.1-0.1,0.1-0.1,0.1
			l-0.1-0.1c0,0,0,0,0-0.1c0.2-0.5,0.8-1.4,1.8-1.4c0.7,0,1.2,0.5,1.2,1.3c0,1.5-2.2,2.9-3.2,3.6v0H222.6z"/>
		<path fill="#898981" d="M215.4,113c0.9,0,1.3-0.6,1.7-1.1c0.1-0.1,0.1-0.1,0.1-0.1l0.2,0.1c0,0.1,0,0.1,0,0.2c-0.4,0.5-1,1.9-1,2
			c-0.1,0.1-0.1,0.1-0.2,0.1c-0.1,0-0.2,0-0.3-0.2c-0.1-0.1-0.4-0.1-0.7-0.1h-3.3c-0.2,0-0.3,0-0.5,0c-0.1,0-0.3,0-0.4,0
			c-0.1,0-0.1,0-0.1-0.1c0-0.1,0-0.2,0.2-0.3c1.9-1.5,5.8-4.2,5.9-6.5c0-0.5-0.2-1.7-1.5-1.7c-1.2,0-1.8,1.2-2.1,1.6
			c-0.1,0.1-0.1,0.2-0.2,0.2l-0.2-0.1c0,0,0-0.1,0-0.2c0.3-0.8,1.4-2.4,3.1-2.4c1.3,0,2.1,0.9,2.1,2.2c0,2.6-3.8,5-5.5,6.2v0H215.4z
			"/>
	</g>
	<g>
		<rect x="206.9" y="101.2" fill="#898981" width="18" height="0"/>
	</g>
	<g>
		<rect x="133.9" y="101.2" fill="#898981" width="18" height="0"/>
	</g>
	<g>
		<path fill="#898981" d="M135.5,118c-6.4-9-6-16.7-4.6-21.6c1.5-5.3,4.5-8.5,4.6-8.6l0.6,0.5c-0.1,0.1-11.8,12.7,0,29.3L135.5,118z
			"/>
	</g>
	<g>
		<path fill="#898981" d="M183.5,118c-6.4-9-6-16.7-4.6-21.6c1.5-5.3,4.5-8.5,4.6-8.6l0.6,0.5c-0.1,0.1-11.8,12.7,0,29.3L183.5,118z
			"/>
	</g>
	<g>
		<path fill="#898981" d="M150.8,118.1l-0.6-0.5c0.1-0.1,11.8-12.7,0-29.3l0.6-0.4c6.4,9,6,16.7,4.6,21.6
			C153.9,114.8,151,117.9,150.8,118.1z"/>
	</g>
	<g>
		<path fill="#898981" d="M227.4,118.1l-0.6-0.5c0.1-0.1,11.8-12.7,0-29.3l0.6-0.4c6.4,9,6,16.7,4.6,21.6
			C230.6,114.8,227.6,117.9,227.4,118.1z"/>
	</g>
	<g>
		<path fill="#898981" d="M166.6,106.2v-2.5h-2.4v-0.8h2.4v-2.5h0.9v2.5h2.4v0.8h-2.4v2.5H166.6z"/>
	</g>
</g>
</svg>
