<?xml version="1.0" encoding="utf-8"?>
<!-- Generator: Adobe Illustrator 18.1.1, SVG Export Plug-In . SVG Version: 6.00 Build 0)  -->
<!DOCTYPE svg PUBLIC "-//W3C//DTD SVG 1.1//EN" "http://www.w3.org/Graphics/SVG/1.1/DTD/svg11.dtd">
<svg version="1.1" id="Breaks" xmlns="http://www.w3.org/2000/svg" xmlns:xlink="http://www.w3.org/1999/xlink" x="0px" y="0px"
	 viewBox="0 0 381.8 44.2" enable-background="new 0 0 381.8 44.2" xml:space="preserve">
<g>
	<g>
		<path fill="#898981" d="M41.4,25.9c0,0.1-0.1,0.1-0.2,0.1L41,25.9c-0.1,0-0.1-0.1-0.1-0.1c0-0.1,0.1-0.2,0.1-0.3
			c0-0.2-0.1-0.3-0.3-0.3s-0.5,0.1-0.8,0.3c-0.4,0.2-1.6,0.5-2.5,0.5c-2.4,0-4.3-1.7-4.3-4.3c0-2.1,1-4.4,2.6-6.2
			c1.2-1.3,2.8-2.1,4.3-2.1c0.9,0,1.5,0.2,2.4,0.8c0.2,0.2,0.6,0.5,0.9,0.5c0.2,0,0.4-0.1,0.5-0.6c0-0.1,0.1-0.1,0.2-0.1l0.2,0.1
			c0.1,0,0.1,0.1,0.1,0.2l-1,3.7c0,0.1-0.1,0.1-0.2,0.1l-0.3,0c-0.1,0-0.1-0.1-0.1-0.2c0.4-1.8-0.5-3.8-2.6-3.8
			c-1.5,0-2.4,0.7-3.5,2.2c-1.4,2-1.8,4.2-1.8,5.7c0,2.6,1.7,3.4,2.8,3.4c1.5,0,3.4-0.5,4.5-3.2c0.1-0.2,0.1-0.2,0.2-0.1l0.3,0.1
			c0.1,0,0.1,0.1,0.1,0.2L41.4,25.9z"/>
		<path fill="#898981" d="M44.2,23.4c0-2.3,1.7-5.3,4.1-5.3c1.2,0,1.9,0.9,1.9,2.1c0,2-1.6,5.6-4.2,5.6C45,25.8,44.2,24.8,44.2,23.4
			z M49.5,19.9c0-0.6-0.3-1-0.9-1c-0.8,0-1.7,0.7-2.6,2.1c-0.6,1-1,2.1-1,2.9c0,0.6,0.4,0.9,0.8,0.9C47.6,24.9,49.5,21.1,49.5,19.9z
			"/>
		<path fill="#898981" d="M53.2,19.2c-0.6,0-1,0.4-1,0.9c0,0.3,0.2,0.4,0.4,0.5c0.1,0.1,0.4,0.3,0.4,0.5s-0.2,0.6-0.7,0.6
			c-0.3,0-0.8-0.3-0.8-1c0-0.7,0.5-1.5,0.7-1.7c0.4-0.4,0.8-0.9,2.1-0.9c1.8,0,2.1-0.1,2.3-0.1c0.2,0,0.4,0.1,0.2,0.3
			c-0.4,0.5-2.1,2.9-2.1,4.7c0,1.2,0.6,1.7,1.3,1.7c1.5,0,3.1-2.4,3.1-4.2c0-0.3,0-0.6-0.1-0.9c-0.1-0.3-0.3-0.5-0.3-0.7
			c0-0.5,0.3-0.8,0.8-0.8c0.5,0,0.7,0.5,0.7,1c0,0.9-0.4,2.7-1.2,4c-0.8,1.4-2.3,2.7-3.7,2.7c-0.9,0-1.8-0.6-1.8-1.9
			c0-1.7,1.5-3.9,2.5-5.1l-0.1-0.1c-0.4,0.3-1.3,0.5-1.7,0.5H53.2z"/>
		<path fill="#898981" d="M71.8,12.7c0.1-0.1,0.2-0.1,0.3,0.1c0.1,0.2,0.1,0.3-0.1,0.4c-3.1,2.5-5.3,6.9-5.3,11.6
			c0,2.7,0.3,3.6,0.4,4.2c0,0.1,0,0.2-0.2,0.3c-0.2,0.1-0.3,0.1-0.3-0.1c-0.4-0.8-0.9-3-0.9-4.8C65.7,19.7,68.1,15.5,71.8,12.7z"/>
		<path fill="#898981" d="M75.1,15.1c0.2-0.6,0.1-0.9-0.5-0.9h-0.7c-0.1,0-0.2-0.1-0.1-0.1l0.1-0.4c0-0.1,0.1-0.1,0.2-0.1
			c1.9,0,3.7-0.1,4-0.1c1.3,0,4.1,0.1,4.1,2.6c0,1.8-1.9,3.2-4.1,3.5v0c0.4,0.1,0.7,0.7,0.9,1.1c0.1,0.2,1.3,2.7,1.7,3.3
			c0.5,0.7,0.8,1,1.6,1h0.5c0.1,0,0.1,0.1,0.1,0.2l-0.1,0.3c0,0.1-0.1,0.1-0.2,0.1c-0.2,0-0.5-0.1-1.3-0.1c-0.8,0-1.1,0.1-1.3,0.1
			c-0.1,0-0.2-0.1-0.5-0.6c-0.3-0.4-1.9-4-2.1-4.4c-0.5-1-1.5-0.9-2.2-0.9l-1.3,3.9c-0.3,1-0.1,1.3,0.7,1.3h0.7
			c0.1,0,0.1,0.1,0.1,0.1l-0.1,0.4c0,0.1-0.1,0.1-0.2,0.1c-0.2,0-1-0.1-2.5-0.1c-1.1,0-1.8,0.1-2,0.1c-0.1,0-0.1-0.1-0.1-0.1
			l0.1-0.4c0-0.1,0.1-0.1,0.2-0.1h0.3c0.6,0,1-0.4,1.1-0.9L75.1,15.1z M75.4,19.1c0.9,0,2,0.1,3.3-0.5c1.1-0.4,1.9-1.4,1.9-2.7
			c0-0.8-0.7-2-2.9-2c-0.3,0-0.5,0-0.7,0L75.4,19.1z"/>
		<path fill="#898981" d="M85.9,28.4l-1.5,1.8C84.2,30.5,84,30.8,84,31c0,0.2,0.1,0.3,0.4,0.3h0.4c0.1,0,0.1,0,0.1,0.1l0,0.2
			c0,0.1,0,0.1-0.1,0.1c-0.1,0-0.6,0-1.4,0c-0.7,0-1.1,0-1.2,0c-0.1,0-0.1,0-0.1-0.1l0.1-0.2c0-0.1,0-0.1,0.1-0.1h0.2
			c0.5,0,0.9-0.3,1.3-0.8l4.9-5.8c0.1-0.1,0.1-0.1,0.3-0.1c0.1,0,0.4,0,0.5-0.1c0.1,0,0.3-0.1,0.3-0.1s0.1,0,0.1,0.1l-1.5,5.8
			c0,0.2-0.1,0.4-0.1,0.6s0.2,0.3,0.4,0.3h0.3c0.1,0,0.1,0,0.1,0.1l0,0.2c0,0.1,0,0.1-0.1,0.1c-0.1,0-0.5,0-1.3,0
			c-0.7,0-1.1,0-1.2,0c-0.1,0-0.1,0-0.1-0.1l0-0.2c0,0,0-0.1,0.1-0.1h0.2c0.4,0,0.7-0.1,0.9-0.9l0.5-1.9H85.9z M87.9,28l0.8-2.8
			c0-0.1-0.1-0.2-0.2-0.1L86.2,28H87.9z"/>
		<path fill="#898981" d="M91.7,27.7c0-0.2,0.1-0.2,0.2-0.3c0.5-0.1,1.4-0.7,1.4-1.5c0-0.4-0.1-0.6-0.4-0.9
			c-0.1-0.1-0.5-0.4-0.5-0.8c0-0.4,0.3-0.8,0.8-0.8c0.8,0,1.3,1.1,1.3,1.7c0,2.1-2.2,2.8-2.6,2.8C91.8,27.9,91.7,27.9,91.7,27.7z"/>
		<path fill="#898981" d="M101,15.1c0.2-0.6,0.1-0.9-0.5-0.9h-0.7c-0.1,0-0.2-0.1-0.1-0.1l0.1-0.4c0-0.1,0.1-0.1,0.2-0.1
			c1.9,0,3.7-0.1,4-0.1c1.3,0,4.1,0.1,4.1,2.6c0,1.8-1.9,3.2-4.1,3.5v0c0.4,0.1,0.7,0.7,0.9,1.1c0.1,0.2,1.3,2.7,1.7,3.3
			c0.5,0.7,0.8,1,1.6,1h0.5c0.1,0,0.1,0.1,0.1,0.2l-0.1,0.3c0,0.1-0.1,0.1-0.2,0.1c-0.2,0-0.5-0.1-1.3-0.1c-0.8,0-1.1,0.1-1.3,0.1
			c-0.1,0-0.2-0.1-0.5-0.6c-0.3-0.4-1.9-4-2.1-4.4c-0.5-1-1.5-0.9-2.2-0.9l-1.3,3.9c-0.3,1-0.1,1.3,0.7,1.3h0.7
			c0.1,0,0.1,0.1,0.1,0.1l-0.1,0.4c0,0.1-0.1,0.1-0.2,0.1c-0.2,0-1-0.1-2.5-0.1c-1.1,0-1.8,0.1-2,0.1c-0.1,0-0.1-0.1-0.1-0.1
			l0.1-0.4c0-0.1,0.1-0.1,0.2-0.1h0.3c0.6,0,1-0.4,1.1-0.9L101,15.1z M101.3,19.1c0.9,0,2,0.1,3.3-0.5c1.1-0.4,1.9-1.4,1.9-2.7
			c0-0.8-0.7-2-2.9-2c-0.3,0-0.5,0-0.7,0L101.3,19.1z"/>
		<path fill="#898981" d="M111.4,25.6c0-0.2,0.1-0.3,0.1-0.4c0-0.2-0.2-0.3-0.6-0.3h-0.3c-0.1,0-0.1,0-0.1-0.1l0-0.2
			c0-0.1,0-0.1,0.1-0.1c0.1,0,0.4,0,0.8,0c0.6,0,1.1,0,1.5,0c0.1,0,1,0,1.6,0.3c0.4,0.2,0.7,0.6,0.7,1.1c0,1.3-1.2,1.9-2.1,2
			c-0.1,0-0.1,0,0,0.1c0.8,0.3,1.4,0.8,1.4,1.7c0,0.1,0,0.7-0.6,1.3c-0.4,0.4-1,0.6-2.2,0.6c-0.5,0-0.9,0-1.4,0c-0.5,0-1,0-1.5,0
			c-0.1,0-0.1,0-0.1-0.1l0-0.2c0-0.1,0-0.1,0.1-0.1h0.4c0.4,0,0.6-0.2,0.7-0.6L111.4,25.6z M110.9,30.5c-0.1,0.4-0.1,0.5,0.1,0.6
			c0.1,0.1,0.5,0.1,0.7,0.1c1.4,0,2-0.8,2-1.7c0-1.1-1.2-1.4-2-1.4h-0.1L110.9,30.5z M111.7,27.8c0.2,0,0.5,0,0.6,0
			c1.1,0,2.1-0.5,2.1-1.7c0-0.7-0.6-1.2-1.6-1.2c-0.1,0-0.2,0-0.3,0L111.7,27.8z"/>
		<path fill="#898981" d="M117.1,29.2c-0.1,0.1-0.2,0.1-0.3-0.1c-0.1-0.2-0.1-0.3,0.1-0.4c3.1-2.5,5.3-6.9,5.3-11.6
			c0-2.7-0.3-3.6-0.4-4.2c0-0.1,0-0.2,0.2-0.3c0.2-0.1,0.3-0.1,0.3,0.1c0.4,0.8,0.9,3,0.9,4.8C123.3,22.2,120.9,26.4,117.1,29.2z"/>
		<path fill="#898981" d="M136.2,19.3v1h-7v-1H136.2z M136.2,22.1v1h-7v-1H136.2z"/>
		<path fill="#898981" d="M145.9,15.4c0.3-1-0.4-1.3-1-1.3h-0.6c-0.1,0-0.1-0.1-0.1-0.2l0.1-0.3c0-0.1,0.1-0.1,0.2-0.1
			c0.1,0,0.3,0,0.7,0c0.4,0,0.9,0,1.8,0h1.2c1.4,0,2.4,0,3.1,0c0.7,0,1.2,0,1.4,0c0.3,0,0.3,0.1,0.4,0.3l0.6,2.5
			c0,0.1,0,0.1-0.1,0.2l-0.2,0.1c-0.1,0-0.1,0-0.2-0.1l-1.7-2.2c-0.1-0.1-0.2-0.1-0.3-0.1h-3.3l-1.5,4.7h1.7c1,0,1.6,0,2.1-1.5
			c0-0.1,0.1-0.1,0.1-0.1l0.3,0.1c0.1,0,0.1,0.1,0.1,0.1l-1,3.6c0,0.1-0.1,0.1-0.1,0.1l-0.3,0c-0.1,0-0.1,0-0.1-0.1
			c0.1-1.5-0.6-1.5-2-1.5h-1.1l-1.7,5.5h4.7c0.6,0,1.1-0.3,1.4-0.8l1.4-1.8c0.1-0.1,0.1-0.1,0.2,0l0.2,0.1c0.1,0.1,0.1,0.1,0.1,0.3
			l-0.9,2.6c-0.1,0.3-0.2,0.3-0.4,0.3c-0.1,0-0.9,0-2,0c-1.1,0-2.4,0-3.6,0h-2.1c-0.8,0-1.3,0-1.7,0c-0.3,0-0.5,0-0.5,0
			c-0.1,0-0.2,0-0.1-0.1l0.1-0.4c0-0.1,0.1-0.1,0.1-0.1h0.7c0.7,0,1.1-0.4,1.3-1L145.9,15.4z"/>
		<path fill="#898981" d="M155,20.2c0.2,0,0.4,0,0.6-0.1c0.6-0.3,1-0.7,1.1-1.3c0.1-1.1,0-1.9,0.1-3.1c0.2-1.8,2.1-2.9,3.5-3.1
			c0.4-0.1,0.7-0.1,0.8-0.1c0.2,0,0.3,0.1,0.3,0.3c0,0.2-0.1,0.3-0.2,0.3c-0.1,0-0.4,0-0.6,0c-1.3,0.2-2.4,0.9-2.7,2.5
			c-0.1,0.9-0.1,1.7-0.3,2.5c-0.1,0.9-0.5,1.3-0.9,1.6c-0.4,0.3-0.9,0.5-0.9,0.7c0,0.2,0.4,0.3,0.5,0.6c0.2,0.3,0.3,0.5,0.3,0.9
			c0,0.7-0.3,1.3-0.5,2c-0.3,0.7-0.6,1.4-0.6,2.2c0,1.2,0.8,2,1.6,2.2c0.2,0.1,0.5,0.1,0.6,0.1c0.1,0,0.1,0.1,0.1,0.3
			c0,0.2,0,0.3-0.1,0.3c-0.1,0-0.4,0-0.8-0.1c-0.8-0.1-2.7-0.8-2.7-2.7c0-0.9,0.3-1.6,0.7-2.3c0.3-0.7,0.7-1.4,0.7-2
			c0-0.5-0.1-0.8-0.3-0.9c-0.1-0.2-0.4-0.3-0.6-0.3c-0.1,0-0.2-0.1-0.2-0.3C154.8,20.3,154.9,20.2,155,20.2z"/>
		<path fill="#898981" d="M159.3,29.1c-0.1,0-0.1-0.1-0.1-0.3l4.4-16.1c0-0.1,0.1-0.2,0.3-0.2h3.5c0.1,0,0.2,0.1,0.1,0.1l-0.1,0.5
			c0,0.1-0.1,0.1-0.3,0.1h-2.3c-0.1,0-0.2,0.1-0.3,0.3l-4.1,14.8c0,0.1,0,0.2,0.1,0.2h2.5c0.1,0,0.1,0,0.1,0.1l-0.1,0.4
			c0,0.1-0.1,0.1-0.3,0.1H159.3z"/>
		<path fill="#898981" d="M169.6,15.1c0.2-0.6,0.1-0.9-0.5-0.9h-0.7c-0.1,0-0.2-0.1-0.1-0.1l0.1-0.4c0-0.1,0.1-0.1,0.2-0.1
			c1.9,0,3.7-0.1,4-0.1c1.3,0,4.1,0.1,4.1,2.6c0,1.8-1.9,3.2-4.1,3.5v0c0.4,0.1,0.7,0.7,0.9,1.1c0.1,0.2,1.3,2.7,1.7,3.3
			c0.5,0.7,0.8,1,1.6,1h0.5c0.1,0,0.1,0.1,0.1,0.2l-0.1,0.3c0,0.1-0.1,0.1-0.2,0.1c-0.2,0-0.5-0.1-1.3-0.1c-0.8,0-1.1,0.1-1.3,0.1
			c-0.1,0-0.2-0.1-0.5-0.6c-0.3-0.4-1.9-4-2.1-4.4c-0.5-1-1.5-0.9-2.2-0.9l-1.3,3.9c-0.3,1-0.1,1.3,0.7,1.3h0.7
			c0.1,0,0.1,0.1,0.1,0.1l-0.1,0.4c0,0.1-0.1,0.1-0.2,0.1c-0.2,0-1-0.1-2.5-0.1c-1.1,0-1.8,0.1-2,0.1c-0.1,0-0.1-0.1-0.1-0.1
			l0.1-0.4c0-0.1,0.1-0.1,0.2-0.1h0.3c0.6,0,1-0.4,1.1-0.9L169.6,15.1z M169.9,19.1c0.9,0,2,0.1,3.3-0.5c1.1-0.4,1.9-1.4,1.9-2.7
			c0-0.8-0.7-2-2.9-2c-0.3,0-0.5,0-0.7,0L169.9,19.1z"/>
		<path fill="#898981" d="M180.4,28.4l-1.5,1.8c-0.2,0.3-0.4,0.6-0.4,0.7c0,0.2,0.1,0.3,0.4,0.3h0.4c0.1,0,0.1,0,0.1,0.1l0,0.2
			c0,0.1,0,0.1-0.1,0.1c-0.1,0-0.6,0-1.4,0c-0.7,0-1.1,0-1.2,0c-0.1,0-0.1,0-0.1-0.1l0.1-0.2c0-0.1,0-0.1,0.1-0.1h0.2
			c0.5,0,0.9-0.3,1.3-0.8l4.9-5.8c0.1-0.1,0.1-0.1,0.3-0.1c0.1,0,0.4,0,0.5-0.1c0.1,0,0.3-0.1,0.3-0.1s0.1,0,0.1,0.1l-1.5,5.8
			c0,0.2-0.1,0.4-0.1,0.6s0.2,0.3,0.4,0.3h0.3c0.1,0,0.1,0,0.1,0.1l0,0.2c0,0.1,0,0.1-0.1,0.1c-0.1,0-0.5,0-1.3,0
			c-0.7,0-1.1,0-1.2,0c-0.1,0-0.1,0-0.1-0.1l0-0.2c0,0,0-0.1,0.1-0.1h0.2c0.4,0,0.7-0.1,0.9-0.9l0.5-1.9H180.4z M182.3,28l0.8-2.8
			c0-0.1-0.1-0.2-0.2-0.1l-2.3,2.8H182.3z"/>
		<path fill="#898981" d="M189,20.9c0-0.1,0-0.2,0.1-0.2h5.8c0.1,0,0.2,0,0.2,0.1v0.6c0,0.2-0.1,0.2-0.2,0.2h-5.8
			c-0.1,0-0.1,0-0.1-0.1V20.9z"/>
		<path fill="#898981" d="M204.4,15.4c0.3-1-0.4-1.3-1-1.3h-0.6c-0.1,0-0.1-0.1-0.1-0.2l0.1-0.3c0-0.1,0.1-0.1,0.2-0.1
			c0.1,0,0.3,0,0.7,0c0.4,0,0.9,0,1.8,0h1.2c1.4,0,2.4,0,3.1,0c0.7,0,1.2,0,1.4,0c0.3,0,0.3,0.1,0.4,0.3l0.6,2.5
			c0,0.1,0,0.1-0.1,0.2l-0.2,0.1c-0.1,0-0.1,0-0.2-0.1l-1.7-2.2c-0.1-0.1-0.2-0.1-0.3-0.1h-3.3l-1.5,4.7h1.7c1,0,1.6,0,2.1-1.5
			c0-0.1,0.1-0.1,0.1-0.1l0.3,0.1c0.1,0,0.1,0.1,0.1,0.1l-1,3.6c0,0.1-0.1,0.1-0.1,0.1l-0.3,0c-0.1,0-0.1,0-0.1-0.1
			c0.1-1.5-0.6-1.5-2-1.5h-1.1l-1.7,5.5h4.7c0.6,0,1.1-0.3,1.4-0.8l1.4-1.8c0.1-0.1,0.1-0.1,0.2,0l0.2,0.1c0.1,0.1,0.1,0.1,0.1,0.3
			l-0.9,2.6c-0.1,0.3-0.2,0.3-0.4,0.3c-0.1,0-0.9,0-2,0c-1.1,0-2.4,0-3.6,0h-2.1c-0.8,0-1.3,0-1.7,0c-0.3,0-0.5,0-0.5,0
			c-0.1,0-0.2,0-0.1-0.1l0.1-0.4c0-0.1,0.1-0.1,0.1-0.1h0.7c0.7,0,1.1-0.4,1.3-1L204.4,15.4z"/>
		<path fill="#898981" d="M219.3,12.7c0.1-0.1,0.2-0.1,0.3,0.1c0.1,0.2,0.1,0.3-0.1,0.4c-3.1,2.5-5.3,6.9-5.3,11.6
			c0,2.7,0.3,3.6,0.4,4.2c0,0.1,0,0.2-0.2,0.3c-0.2,0.1-0.3,0.1-0.3-0.1c-0.4-0.8-0.9-3-0.9-4.8C213.2,19.7,215.6,15.5,219.3,12.7z"
			/>
		<path fill="#898981" d="M222.7,15.1c0.2-0.6,0.1-0.9-0.5-0.9h-0.7c-0.1,0-0.2-0.1-0.1-0.1l0.1-0.4c0-0.1,0.1-0.1,0.2-0.1
			c1.9,0,3.7-0.1,4-0.1c1.3,0,4.1,0.1,4.1,2.6c0,1.8-1.9,3.2-4.1,3.5v0c0.4,0.1,0.7,0.7,0.9,1.1c0.1,0.2,1.3,2.7,1.7,3.3
			c0.5,0.7,0.8,1,1.6,1h0.5c0.1,0,0.1,0.1,0.1,0.2l-0.1,0.3c0,0.1-0.1,0.1-0.2,0.1c-0.2,0-0.5-0.1-1.3-0.1c-0.8,0-1.1,0.1-1.3,0.1
			c-0.1,0-0.2-0.1-0.5-0.6c-0.3-0.4-1.9-4-2.1-4.4c-0.5-1-1.5-0.9-2.2-0.9l-1.3,3.9c-0.3,1-0.1,1.3,0.7,1.3h0.7
			c0.1,0,0.1,0.1,0.1,0.1l-0.1,0.4c0,0.1-0.1,0.1-0.2,0.1c-0.2,0-1-0.1-2.5-0.1c-1.1,0-1.8,0.1-2,0.1c-0.1,0-0.1-0.1-0.1-0.1
			l0.1-0.4c0-0.1,0.1-0.1,0.2-0.1h0.3c0.6,0,1-0.4,1.1-0.9L222.7,15.1z M222.9,19.1c0.9,0,2,0.1,3.3-0.5c1.1-0.4,1.9-1.4,1.9-2.7
			c0-0.8-0.7-2-2.9-2c-0.3,0-0.5,0-0.7,0L222.9,19.1z"/>
		<path fill="#898981" d="M233.4,28.4l-1.5,1.8c-0.2,0.3-0.4,0.6-0.4,0.7c0,0.2,0.1,0.3,0.4,0.3h0.4c0.1,0,0.1,0,0.1,0.1l0,0.2
			c0,0.1,0,0.1-0.1,0.1c-0.1,0-0.6,0-1.4,0c-0.7,0-1.1,0-1.2,0c-0.1,0-0.1,0-0.1-0.1l0.1-0.2c0-0.1,0-0.1,0.1-0.1h0.2
			c0.5,0,0.9-0.3,1.3-0.8l4.9-5.8c0.1-0.1,0.1-0.1,0.3-0.1c0.1,0,0.4,0,0.5-0.1c0.1,0,0.3-0.1,0.3-0.1s0.1,0,0.1,0.1l-1.5,5.8
			c0,0.2-0.1,0.4-0.1,0.6s0.2,0.3,0.4,0.3h0.3c0.1,0,0.1,0,0.1,0.1l0,0.2c0,0.1,0,0.1-0.1,0.1c-0.1,0-0.5,0-1.3,0
			c-0.7,0-1.1,0-1.2,0c-0.1,0-0.1,0-0.1-0.1l0-0.2c0,0,0-0.1,0.1-0.1h0.2c0.4,0,0.7-0.1,0.9-0.9l0.5-1.9H233.4z M235.4,28l0.8-2.8
			c0-0.1-0.1-0.2-0.2-0.1l-2.3,2.8H235.4z"/>
		<path fill="#898981" d="M238.7,29.2c-0.1,0.1-0.2,0.1-0.3-0.1c-0.1-0.2-0.1-0.3,0.1-0.4c3.1-2.5,5.3-6.9,5.3-11.6
			c0-2.7-0.3-3.6-0.4-4.2c0-0.1,0-0.2,0.2-0.3c0.2-0.1,0.3-0.1,0.3,0.1c0.4,0.8,0.9,3,0.9,4.8C244.9,22.2,242.5,26.4,238.7,29.2z"/>
		<path fill="#898981" d="M252.1,12.6c0.1,0,0.1,0.1,0.1,0.3l-4.4,16.1c0,0.1-0.1,0.2-0.3,0.2H244c-0.1,0-0.2-0.1-0.1-0.1l0.1-0.5
			c0-0.1,0.1-0.1,0.2-0.1h2.4c0.1,0,0.2-0.1,0.3-0.3l4.1-14.8c0-0.1,0-0.2-0.1-0.2h-2.5c-0.1,0-0.1,0-0.1-0.1l0.1-0.4
			c0-0.1,0.1-0.1,0.3-0.1H252.1z"/>
		<path fill="#898981" d="M251.6,29.1c-0.1,0-0.1-0.1-0.1-0.3l4.4-16.1c0-0.1,0.1-0.2,0.3-0.2h3.5c0.1,0,0.2,0.1,0.1,0.1l-0.1,0.5
			c0,0.1-0.1,0.1-0.3,0.1h-2.3c-0.1,0-0.2,0.1-0.3,0.3l-4.1,14.8c0,0.1,0,0.2,0.1,0.2h2.5c0.1,0,0.1,0,0.1,0.1l-0.1,0.4
			c0,0.1-0.1,0.1-0.3,0.1H251.6z"/>
		<path fill="#898981" d="M261.9,15.1c0.2-0.6,0.1-0.9-0.5-0.9h-0.7c-0.1,0-0.2-0.1-0.1-0.1l0.1-0.4c0-0.1,0.1-0.1,0.2-0.1
			c1.9,0,3.7-0.1,4-0.1c1.3,0,4.1,0.1,4.1,2.6c0,1.8-1.9,3.2-4.1,3.5v0c0.4,0.1,0.7,0.7,0.9,1.1c0.1,0.2,1.3,2.7,1.7,3.3
			c0.5,0.7,0.8,1,1.6,1h0.5c0.1,0,0.1,0.1,0.1,0.2l-0.1,0.3c0,0.1-0.1,0.1-0.2,0.1c-0.2,0-0.5-0.1-1.3-0.1c-0.8,0-1.1,0.1-1.3,0.1
			c-0.1,0-0.2-0.1-0.5-0.6c-0.3-0.4-1.9-4-2.1-4.4c-0.5-1-1.5-0.9-2.2-0.9l-1.3,3.9c-0.3,1-0.1,1.3,0.7,1.3h0.7
			c0.1,0,0.1,0.1,0.1,0.1l-0.1,0.4c0,0.1-0.1,0.1-0.2,0.1c-0.2,0-1-0.1-2.5-0.1c-1.1,0-1.8,0.1-2,0.1c-0.1,0-0.1-0.1-0.1-0.1
			l0.1-0.4c0-0.1,0.1-0.1,0.2-0.1h0.3c0.6,0,1-0.4,1.1-0.9L261.9,15.1z M262.1,19.1c0.9,0,2,0.1,3.3-0.5c1.1-0.4,1.9-1.4,1.9-2.7
			c0-0.8-0.7-2-2.9-2c-0.3,0-0.5,0-0.7,0L262.1,19.1z"/>
		<path fill="#898981" d="M272.2,25.6c0-0.2,0.1-0.3,0.1-0.4c0-0.2-0.2-0.3-0.6-0.3h-0.3c-0.1,0-0.1,0-0.1-0.1l0-0.2
			c0-0.1,0-0.1,0.1-0.1c0.1,0,0.4,0,0.8,0c0.6,0,1.1,0,1.5,0c0.1,0,1,0,1.6,0.3c0.4,0.2,0.7,0.6,0.7,1.1c0,1.3-1.2,1.9-2.1,2
			c-0.1,0-0.1,0,0,0.1c0.8,0.3,1.4,0.8,1.4,1.7c0,0.1,0,0.7-0.6,1.3c-0.4,0.4-1,0.6-2.2,0.6c-0.5,0-0.9,0-1.4,0c-0.5,0-1,0-1.5,0
			c-0.1,0-0.1,0-0.1-0.1l0-0.2c0-0.1,0-0.1,0.1-0.1h0.4c0.4,0,0.6-0.2,0.7-0.6L272.2,25.6z M271.8,30.5c-0.1,0.4-0.1,0.5,0.1,0.6
			c0.1,0.1,0.5,0.1,0.7,0.1c1.4,0,2-0.8,2-1.7c0-1.1-1.2-1.4-2-1.4h-0.1L271.8,30.5z M272.5,27.8c0.2,0,0.5,0,0.6,0
			c1.1,0,2.1-0.5,2.1-1.7c0-0.7-0.6-1.2-1.6-1.2c-0.1,0-0.2,0-0.3,0L272.5,27.8z"/>
		<path fill="#898981" d="M279.6,20.9c0-0.1,0-0.2,0.1-0.2h5.8c0.1,0,0.2,0,0.2,0.1v0.6c0,0.2-0.1,0.2-0.2,0.2h-5.8
			c-0.1,0-0.1,0-0.1-0.1V20.9z"/>
		<path fill="#898981" d="M295,15.4c0.3-1-0.4-1.3-1-1.3h-0.6c-0.1,0-0.1-0.1-0.1-0.2l0.1-0.3c0-0.1,0.1-0.1,0.2-0.1
			c0.1,0,0.3,0,0.7,0c0.4,0,0.9,0,1.8,0h1.2c1.4,0,2.4,0,3.1,0c0.7,0,1.2,0,1.4,0c0.3,0,0.3,0.1,0.4,0.3l0.6,2.5
			c0,0.1,0,0.1-0.1,0.2l-0.2,0.1c-0.1,0-0.1,0-0.2-0.1l-1.7-2.2c-0.1-0.1-0.2-0.1-0.3-0.1H297l-1.5,4.7h1.7c1,0,1.6,0,2.1-1.5
			c0-0.1,0.1-0.1,0.1-0.1l0.3,0.1c0.1,0,0.1,0.1,0.1,0.1l-1,3.6c0,0.1-0.1,0.1-0.1,0.1l-0.3,0c-0.1,0-0.1,0-0.1-0.1
			c0.1-1.5-0.6-1.5-2-1.5h-1.1l-1.7,5.5h4.7c0.6,0,1.1-0.3,1.4-0.8l1.4-1.8c0.1-0.1,0.1-0.1,0.2,0l0.2,0.1c0.1,0.1,0.1,0.1,0.1,0.3
			l-0.9,2.6c-0.1,0.3-0.2,0.3-0.4,0.3c-0.1,0-0.9,0-2,0c-1.1,0-2.4,0-3.6,0h-2.1c-0.8,0-1.3,0-1.7,0c-0.3,0-0.5,0-0.5,0
			c-0.1,0-0.2,0-0.1-0.1l0.1-0.4c0-0.1,0.1-0.1,0.1-0.1h0.7c0.7,0,1.1-0.4,1.3-1L295,15.4z"/>
		<path fill="#898981" d="M309.9,12.7c0.1-0.1,0.2-0.1,0.3,0.1c0.1,0.2,0.1,0.3-0.1,0.4c-3.1,2.5-5.3,6.9-5.3,11.6
			c0,2.7,0.3,3.6,0.4,4.2c0,0.1,0,0.2-0.2,0.3c-0.2,0.1-0.3,0.1-0.3-0.1c-0.4-0.8-0.9-3-0.9-4.8C303.7,19.7,306.1,15.5,309.9,12.7z"
			/>
		<path fill="#898981" d="M313.2,15.1c0.2-0.6,0.1-0.9-0.5-0.9H312c-0.1,0-0.2-0.1-0.1-0.1l0.1-0.4c0-0.1,0.1-0.1,0.2-0.1
			c1.9,0,3.7-0.1,4-0.1c1.3,0,4.1,0.1,4.1,2.6c0,1.8-1.9,3.2-4.1,3.5v0c0.4,0.1,0.7,0.7,0.9,1.1c0.1,0.2,1.3,2.7,1.7,3.3
			c0.5,0.7,0.8,1,1.6,1h0.5c0.1,0,0.1,0.1,0.1,0.2l-0.1,0.3c0,0.1-0.1,0.1-0.2,0.1c-0.2,0-0.5-0.1-1.3-0.1c-0.8,0-1.1,0.1-1.3,0.1
			c-0.1,0-0.2-0.1-0.5-0.6c-0.3-0.4-1.9-4-2.1-4.4c-0.5-1-1.5-0.9-2.2-0.9l-1.3,3.9c-0.3,1-0.1,1.3,0.7,1.3h0.7
			c0.1,0,0.1,0.1,0.1,0.1l-0.1,0.4c0,0.1-0.1,0.1-0.2,0.1c-0.2,0-1-0.1-2.5-0.1c-1.1,0-1.8,0.1-2,0.1c-0.1,0-0.1-0.1-0.1-0.1
			l0.1-0.4c0-0.1,0.1-0.1,0.2-0.1h0.3c0.6,0,1-0.4,1.1-0.9L313.2,15.1z M313.4,19.1c0.9,0,2,0.1,3.3-0.5c1.1-0.4,1.9-1.4,1.9-2.7
			c0-0.8-0.7-2-2.9-2c-0.3,0-0.5,0-0.7,0L313.4,19.1z"/>
		<path fill="#898981" d="M323.6,25.6c0-0.2,0.1-0.3,0.1-0.4c0-0.2-0.2-0.3-0.6-0.3l-0.3,0c-0.1,0-0.1,0-0.1-0.1l0-0.2
			c0-0.1,0-0.1,0.1-0.1c0.1,0,0.4,0,0.9,0c0.6,0,1.1,0,1.5,0c0.1,0,1,0,1.6,0.3c0.4,0.2,0.7,0.6,0.7,1.1c0,1.3-1.1,1.9-2.1,2.1
			c-0.1,0-0.1,0,0,0.1c0.8,0.2,1.4,0.8,1.5,1.7c0,0.1,0,0.7-0.6,1.3c-0.4,0.4-1,0.6-2.2,0.6c-0.5,0-0.9,0-1.4,0c-0.5,0-1,0-1.5,0.1
			c-0.1,0-0.1,0-0.1-0.1l0-0.2c0-0.1,0-0.1,0.1-0.1l0.4,0c0.4,0,0.6-0.3,0.7-0.7L323.6,25.6z M323.2,30.6c-0.1,0.4-0.1,0.5,0.1,0.6
			c0.1,0.1,0.5,0.1,0.7,0.1c1.4,0,2-0.9,2-1.7c0-1.1-1.2-1.4-2-1.4l-0.1,0L323.2,30.6z M323.9,27.8c0.2,0,0.5,0,0.6,0
			c1.1,0,2.1-0.6,2.1-1.8c0-0.7-0.7-1.2-1.7-1.2c-0.1,0-0.2,0-0.3,0L323.9,27.8z"/>
		<path fill="#898981" d="M330,29.3c-0.1,0.1-0.2,0.1-0.3-0.1c-0.1-0.2-0.1-0.2,0.1-0.4c3-2.6,5.2-7,5.1-11.7c0-2.7-0.3-3.6-0.5-4.2
			c0-0.1,0-0.2,0.2-0.3c0.2-0.1,0.3-0.1,0.3,0c0.4,0.8,0.9,3,1,4.8C336,22.1,333.7,26.4,330,29.3z"/>
		<path fill="#898981" d="M343.4,12.5c0.1,0,0.1,0.1,0.1,0.3l-4.1,16.2c0,0.1-0.1,0.2-0.3,0.2l-3.5,0.1c-0.1,0-0.2-0.1-0.1-0.1
			l0.1-0.5c0-0.1,0.1-0.1,0.2-0.1l2.4,0c0.1,0,0.2-0.1,0.2-0.3l3.8-14.8c0-0.1,0-0.2-0.1-0.2l-2.5,0c-0.1,0-0.1,0-0.1-0.1l0.1-0.4
			c0-0.1,0.1-0.1,0.3-0.1L343.4,12.5z"/>
		<path fill="#898981" d="M348.4,21.4c-0.2,0-0.4,0-0.6,0.1c-0.6,0.3-1,0.7-1.1,1.4c-0.1,1.1,0,1.9-0.1,3.1c-0.2,1.8-2,2.9-3.5,3.1
			c-0.4,0.1-0.7,0.1-0.8,0.1c-0.2,0-0.3-0.1-0.3-0.2c0-0.2,0-0.3,0.2-0.3c0.1,0,0.4,0,0.6,0c1.3-0.2,2.4-1,2.6-2.5
			c0.1-0.9,0.1-1.7,0.2-2.5c0.1-0.9,0.4-1.3,0.9-1.7c0.4-0.3,0.9-0.5,0.9-0.8c0-0.2-0.4-0.3-0.5-0.6c-0.2-0.3-0.3-0.5-0.3-0.9
			c0-0.7,0.2-1.3,0.5-2c0.3-0.7,0.6-1.4,0.5-2.2c0-1.2-0.8-1.9-1.7-2.1c-0.2,0-0.5-0.1-0.6-0.1c-0.1,0-0.1-0.1-0.1-0.3
			c0-0.2,0-0.3,0.1-0.3c0.1,0,0.4,0,0.8,0.1c0.8,0.1,2.7,0.8,2.7,2.7c0,0.9-0.3,1.6-0.6,2.3c-0.3,0.7-0.6,1.4-0.6,2
			c0,0.5,0.2,0.8,0.3,0.9c0.1,0.2,0.4,0.3,0.6,0.3c0.1,0,0.2,0.1,0.2,0.3C348.6,21.4,348.5,21.4,348.4,21.4z"/>
	</g>
</g>
</svg>
