<?xml version="1.0" encoding="utf-8"?>
<!-- Generator: Adobe Illustrator 18.1.1, SVG Export Plug-In . SVG Version: 6.00 Build 0)  -->
<!DOCTYPE svg PUBLIC "-//W3C//DTD SVG 1.1//EN" "http://www.w3.org/Graphics/SVG/1.1/DTD/svg11.dtd">
<svg version="1.1" id="Breaks" xmlns="http://www.w3.org/2000/svg" xmlns:xlink="http://www.w3.org/1999/xlink" x="0px" y="0px"
	 viewBox="0 0 230 71.5" enable-background="new 0 0 230 71.5" xml:space="preserve">
<g>
	<g>
		<path fill="#898981" d="M13.6,35.5c0.6,0.8,1,1.8,1,2.9c0,1.3-0.4,2.3-1.3,3.2c-0.8,0.8-1.9,1.3-3.1,1.3c-1.3,0-2.3-0.4-3.2-1.3
			c-0.9-0.9-1.3-1.9-1.3-3.2c0-1.4,0.4-2.4,1.3-3.3c0.8-0.8,1.9-1.2,3.1-1.2c0.5,0,1.1,0.1,1.6,0.3h4.5c0.1,0,0.1,0,0.1,0
			c0,0,0,0.1,0,0.1l-0.5,1c0,0,0,0.1-0.1,0.1c0,0,0,0-0.1,0H13.6z M12.3,41c0.2-0.4,0.4-0.8,0.5-1.2s0.2-0.9,0.2-1.4
			s-0.1-0.9-0.2-1.4c-0.1-0.5-0.3-0.9-0.5-1.2c-0.5-0.8-1.2-1.2-2.1-1.2c-1,0-1.7,0.4-2.2,1.2c-0.4,0.7-0.7,1.6-0.7,2.6
			c0,1.7,0.5,2.9,1.6,3.5c0.4,0.2,0.8,0.3,1.3,0.3c0.5,0,0.9-0.1,1.2-0.3S12,41.3,12.3,41z"/>
		<path fill="#898981" d="M16.6,36.2C16.6,36.2,16.6,36.2,16.6,36.2c0-0.3,0.4-0.7,1.1-1.3c0.3-0.3,0.7-0.5,1-0.8
			c0.3-0.3,0.7-0.5,1-0.8c0.3-0.3,0.6-0.5,0.8-0.8c0.5-0.6,0.8-1.2,0.8-1.7c0-0.4-0.1-0.7-0.3-1c-0.2-0.3-0.5-0.4-0.9-0.4
			c-0.3,0-0.6,0.1-0.9,0.2c-0.4,0.2-0.8,0.5-1,1c-0.1,0.1-0.1,0.2-0.1,0.3C18,31,18,31,18,31c-0.1,0-0.1,0-0.2,0c-0.1,0-0.1,0-0.1,0
			c0-0.1,0.1-0.2,0.2-0.5c0.3-0.5,0.5-0.8,0.7-0.9c0.2-0.2,0.4-0.3,0.5-0.4c0.2-0.1,0.3-0.2,0.5-0.2c0.3-0.1,0.6-0.2,0.9-0.2
			s0.6,0,0.8,0.1c0.2,0.1,0.4,0.2,0.6,0.3c0.3,0.3,0.5,0.7,0.5,1.2c0,0.6-0.2,1.2-0.7,1.7c-0.3,0.4-1,0.9-2,1.6
			c-0.4,0.3-0.8,0.6-1.2,0.9c-0.6,0.5-0.9,0.8-0.9,0.8h3c0.3,0,0.5-0.1,0.6-0.2c0.1-0.1,0.2-0.3,0.4-0.7h0.2l-0.5,1.5
			c0,0.1-0.1,0.1-0.2,0.2H16.6z"/>
		<path fill="#898981" d="M30.3,26.6c0.1-0.1,0.1-0.1,0.1-0.1s0.1,0,0.1,0.1c0,0,0.1,0.1,0.1,0.2c0.1,0.1,0.1,0.2,0.1,0.3
			c0,0.1,0,0.1-0.1,0.2c-2.6,3.1-4.2,6.3-5,9.6c-0.3,1.2-0.4,2.4-0.4,3.5c0,2.3,0.4,4.4,1.3,6.3c0,0,0,0.1,0,0.1c0,0,0,0.1-0.1,0.2
			c0,0.1-0.1,0.1-0.1,0.2c-0.1,0.2-0.2,0.3-0.3,0.3s-0.1,0-0.2-0.1c-1.2-2.3-1.8-4.7-1.8-6.9c0-2.5,0.6-5,1.7-7.4
			C26.9,30.7,28.4,28.5,30.3,26.6z"/>
		<path fill="#898981" d="M29.4,42.8c-0.2-0.1-0.4-0.3-0.4-0.6c0-0.5,0.1-1,0.4-1.5c0.1-0.2,0.2-0.2,0.2-0.2c0.1,0,0.1,0,0.1,0.1
			s0,0.1,0.1,0.2c0,0.1,0,0.2,0.1,0.3c0,0.1,0.1,0.2,0.1,0.3c0.1,0.2,0.3,0.3,0.5,0.3c0.4,0,0.8-0.2,1.1-0.6l1.7-2.1l-1.2-3.1
			c-0.1-0.2-0.3-0.4-0.6-0.4c-0.3,0-0.6,0.2-0.9,0.7c-0.1,0.1-0.2,0.2-0.2,0.3c-0.1,0.2-0.3,0.3-0.4,0.3c-0.1,0-0.1,0-0.1-0.1
			s0-0.2,0.1-0.3c0.1-0.1,0.2-0.3,0.3-0.5c0.1-0.2,0.3-0.3,0.4-0.5c0.2-0.2,0.3-0.3,0.5-0.5c0.4-0.3,0.8-0.5,1.1-0.5
			c0.2,0,0.4,0,0.5,0.1c0.2,0.1,0.3,0.2,0.3,0.4l1.1,2.9c0,0,0.1-0.1,0.2-0.2c0.1-0.2,0.3-0.4,0.4-0.6c0.2-0.2,0.4-0.5,0.6-0.8
			c0.2-0.3,0.5-0.5,0.7-0.8c0.6-0.6,1.1-0.8,1.6-0.8c0.6,0,0.9,0.3,0.9,1c0,0.3,0,0.6-0.1,0.7c-0.1,0.1-0.1,0.2-0.2,0.2
			c-0.1,0-0.1,0-0.2-0.1c-0.1-0.1-0.1-0.2-0.2-0.3c-0.2-0.3-0.5-0.4-0.8-0.4c-0.4,0-0.8,0.4-1.4,1.1c-0.3,0.4-0.6,0.7-0.8,1
			c-0.2,0.3-0.4,0.5-0.5,0.7l1.3,3.3c0.1,0.3,0.2,0.4,0.5,0.4c0.2,0,0.4-0.1,0.5-0.2c0.1-0.2,0.2-0.3,0.3-0.4
			c0.1-0.1,0.1-0.2,0.2-0.3c0.1-0.2,0.3-0.3,0.4-0.3c0,0.1,0.1,0.2,0.1,0.3s-0.1,0.3-0.2,0.5s-0.3,0.5-0.5,0.7
			c-0.5,0.6-0.9,0.9-1.3,0.9c-0.5,0-0.8-0.1-0.9-0.4c-0.7-1.8-1.1-2.8-1.1-2.9c0-0.1-0.1-0.1-0.1-0.1c0,0-0.1,0-0.1,0
			c0,0-0.1,0.1-0.1,0.1c0,0-0.1,0.2-0.3,0.3c-0.1,0.2-0.4,0.5-0.6,0.8c-0.3,0.4-0.6,0.7-0.9,1C30.8,42.4,30.1,42.8,29.4,42.8z"/>
		<path fill="#898981" d="M42.6,26.6c0.1,0,0.1-0.1,0.1-0.1c0,0,0.1,0,0.1,0.1c1.2,2,1.9,4.3,1.9,7c0,2.5-0.6,4.9-1.7,7.4
			c-1.1,2.4-2.6,4.5-4.6,6.3c0,0-0.1,0.1-0.1,0.1c0,0,0,0-0.1,0s-0.1,0-0.1-0.1c0,0-0.1-0.1-0.1-0.2C38.1,47,38,46.9,38,46.9
			c0-0.1,0-0.2,0.1-0.2c3.6-4.2,5.5-8.6,5.5-13.2c0-2.1-0.4-4.2-1.3-6.2c0,0,0-0.1,0-0.1C42.2,27,42.4,26.8,42.6,26.6z"/>
		<path fill="#898981" d="M55.6,34.6v1.2h-8.1v-1.2H55.6z M55.6,37.7v1.2h-8.1v-1.2H55.6z"/>
		<path fill="#898981" d="M78.4,23c-0.1,0.6-0.3,2.6-0.4,4.4l-0.7,0.1c-0.2-1.4-0.3-2.2-0.7-2.7S75.4,24,73.3,24h-4.9l4.6,9.2
			l-8.4,9.7h7.9c2,0,2.9-0.6,4.3-3.2l0.7,0.2l-2,5H61.7l0.1-0.8L70.7,34l-5.2-10.2l0.1-0.8H78.4z"/>
		<path fill="#898981" d="M89.7,31.8c0.2-0.6,0.2-1.3-0.6-1.3h-0.9c-0.1,0-0.1-0.1-0.1-0.2l0.1-0.4c0-0.1,0.1-0.2,0.3-0.2
			s3.6-0.1,4-0.1c1.8,0,2.8,0.1,3.8,0.9c0.8,0.7,1.1,1.3,1.1,2.6c0,1.9-1.6,4-5.5,4c-0.8,0-1.6-0.1-1.9-0.2L89,40.5
			c-0.2,0.7-0.2,1.4,0.6,1.4h0.7c0.1,0,0.2,0.1,0.2,0.2l-0.1,0.4c0,0.1-0.1,0.2-0.2,0.2c-0.2,0-1-0.1-2.5-0.1c-1.3,0-2,0.1-2.2,0.1
			c-0.1,0-0.2-0.1-0.2-0.2l0-0.3c0-0.1,0.1-0.2,0.2-0.2h0.4c1,0,1.3-0.7,1.5-1.5L89.7,31.8z M90.1,36.4c0.3,0.2,0.8,0.3,1.6,0.3
			c2.8,0,4-2,4-3.6c0-2.3-1.9-2.7-3.2-2.7c-0.2,0-0.6,0-0.7,0L90.1,36.4z"/>
		<path fill="#898981" d="M104.2,29c0.2-0.1,0.2-0.1,0.4,0.1c0.1,0.2,0.1,0.3-0.1,0.4c-3.2,2.7-5.6,7.3-5.6,12.2
			c0,2.9,0.3,3.8,0.4,4.4c0,0.2,0,0.2-0.2,0.3c-0.2,0.1-0.3,0.1-0.4-0.1c-0.4-0.8-0.9-3.1-0.9-5.1C97.7,36.4,100.2,31.9,104.2,29z"
			/>
		<path fill="#898981" d="M111,35c0.6-0.5,3.4-3.3,3.6-3.8c0.2-0.3,0.1-0.8-0.5-0.8h-0.3c-0.1,0-0.2,0-0.2-0.2l0.1-0.4
			c0-0.2,0.1-0.2,0.2-0.2c0.2,0,0.9,0.1,1.9,0.1c1,0,1.6-0.1,1.8-0.1c0.2,0,0.2,0.1,0.2,0.2l-0.1,0.4c0,0.1,0,0.2-0.2,0.2h-0.3
			c-0.5,0-1,0.4-1.5,0.7c-0.2,0.2-4.1,4-4.6,4.5l1.9,5.2c0.2,0.6,0.7,1,1.3,1h0.4c0.1,0,0.2,0.1,0.2,0.2l0,0.3c0,0.2,0,0.2-0.2,0.2
			c-0.2,0-0.8-0.1-2-0.1c-1.2,0-1.9,0.1-2.2,0.1c-0.2,0-0.2-0.1-0.2-0.2l0.1-0.3c0-0.1,0-0.2,0.2-0.2h0.3c0.6,0,0.6-0.4,0.5-0.8
			c-0.1-0.3-1.4-4.1-1.5-4.5c-0.2,0.3-3.4,3.3-4.2,4.4c-0.3,0.4-0.3,0.9,0.3,0.9h0.4c0.1,0,0.1,0.1,0.1,0.2l0,0.3
			c0,0.1,0,0.2-0.2,0.2c-0.2,0-0.9-0.1-2.1-0.1c-0.9,0-1.7,0.1-2,0.1c-0.1,0-0.2-0.1-0.2-0.2l0.1-0.4c0-0.1,0.1-0.2,0.2-0.2h0.4
			c0.9,0,1.4-0.6,2-1.1c0.3-0.3,4.5-4.2,5-4.7l-1.5-4.4c-0.2-0.7-0.5-1.2-1.2-1.2h-0.5c-0.1,0-0.2-0.1-0.2-0.2l0.1-0.3
			c0-0.1,0-0.2,0.2-0.2c0.2,0,1.1,0.1,2,0.1c1.2,0,1.8-0.1,2-0.1c0.2,0,0.2,0.1,0.2,0.2l-0.1,0.4c0,0.1,0,0.2-0.2,0.2h-0.4
			c-0.6,0-0.6,0.5-0.5,1L111,35z"/>
		<path fill="#898981" d="M116.5,48.7c0-0.3,0.2-0.8,0.7-2l0.3-0.9c0.1-0.3,0.2-0.5,0.2-0.7c0-0.1-0.1-0.1-0.2-0.1
			c-0.2,0-0.7,0.6-0.9,0.8c0,0-0.1,0-0.1,0l-0.1-0.1c0,0-0.1-0.1,0-0.1c0-0.1,1.2-1.4,1.9-1.4c0.1,0,0.3,0.1,0.3,0.3
			c0,0.2-0.2,0.7-0.4,1.2l-0.6,1.7c-0.2,0.4-0.2,0.7-0.2,0.7c0,0.1,0,0.2,0.1,0.2c0.2,0,0.8-0.7,0.9-0.8c0,0,0.1,0,0.1,0l0.1,0.1
			c0,0.1,0.1,0.1,0,0.1c-0.1,0.1-1,1.1-1.9,1.1C116.6,49,116.5,48.9,116.5,48.7z M117.9,42.2c0-0.3,0.2-0.6,0.6-0.6
			c0.4,0,0.6,0.3,0.6,0.5c0,0.2-0.1,0.6-0.6,0.6C118,42.8,117.9,42.4,117.9,42.2z"/>
		<path fill="#898981" d="M120.9,46.4c-0.2,0.1-0.2,0.1-0.4-0.1c-0.1-0.2-0.1-0.3,0.1-0.4c3.2-2.7,5.6-7.3,5.6-12.2
			c0-2.9-0.3-3.8-0.4-4.4c0-0.2,0-0.2,0.2-0.3c0.2-0.1,0.3-0.1,0.4,0.1c0.4,0.8,0.9,3.1,0.9,5.1C127.4,39,124.9,43.4,120.9,46.4z"/>
		<path fill="#898981" d="M132.7,46.3c-0.1,0-0.2-0.1-0.1-0.3l4.6-17c0-0.2,0.1-0.2,0.3-0.2h3.7c0.1,0,0.2,0.1,0.2,0.1l-0.1,0.5
			c0,0.1-0.1,0.1-0.3,0.1h-2.4c-0.1,0-0.2,0.1-0.3,0.3L134,45.4c0,0.1,0,0.2,0.1,0.2h2.7c0.1,0,0.2,0,0.1,0.1l-0.1,0.4
			c0,0.1-0.1,0.1-0.3,0.1H132.7z"/>
		<path fill="#898981" d="M146.8,35c0.6-0.5,3.4-3.3,3.6-3.8c0.2-0.3,0.1-0.8-0.5-0.8h-0.3c-0.1,0-0.2,0-0.2-0.2l0.1-0.4
			c0-0.2,0.1-0.2,0.2-0.2c0.2,0,0.9,0.1,1.9,0.1c1,0,1.6-0.1,1.8-0.1c0.2,0,0.2,0.1,0.2,0.2l-0.1,0.4c0,0.1,0,0.2-0.2,0.2h-0.3
			c-0.5,0-1,0.4-1.5,0.7c-0.2,0.2-4.1,4-4.6,4.5l1.9,5.2c0.2,0.6,0.7,1,1.3,1h0.4c0.1,0,0.2,0.1,0.2,0.2l0,0.3c0,0.2,0,0.2-0.2,0.2
			c-0.2,0-0.8-0.1-2-0.1c-1.2,0-1.9,0.1-2.2,0.1c-0.2,0-0.2-0.1-0.2-0.2l0.1-0.3c0-0.1,0-0.2,0.2-0.2h0.3c0.6,0,0.6-0.4,0.5-0.8
			c-0.1-0.3-1.4-4.1-1.5-4.5c-0.2,0.3-3.4,3.3-4.2,4.4c-0.3,0.4-0.3,0.9,0.3,0.9h0.4c0.1,0,0.1,0.1,0.1,0.2l0,0.3
			c0,0.1,0,0.2-0.2,0.2c-0.2,0-0.9-0.1-2.1-0.1c-0.9,0-1.7,0.1-2,0.1c-0.1,0-0.2-0.1-0.2-0.2l0.1-0.4c0-0.1,0.1-0.2,0.2-0.2h0.4
			c0.9,0,1.4-0.6,2-1.1c0.3-0.3,4.5-4.2,5-4.7l-1.5-4.4c-0.2-0.7-0.5-1.2-1.2-1.2h-0.5c-0.1,0-0.2-0.1-0.2-0.2l0.1-0.3
			c0-0.1,0-0.2,0.2-0.2c0.2,0,1.1,0.1,2,0.1c1.2,0,1.8-0.1,2-0.1c0.2,0,0.2,0.1,0.2,0.2l-0.1,0.4c0,0.1,0,0.2-0.2,0.2h-0.4
			c-0.6,0-0.6,0.5-0.5,1L146.8,35z"/>
		<path fill="#898981" d="M152.3,48.7c0-0.3,0.2-0.8,0.7-2l0.3-0.9c0.1-0.3,0.2-0.5,0.2-0.7c0-0.1-0.1-0.1-0.2-0.1
			c-0.2,0-0.7,0.6-0.9,0.8c0,0-0.1,0-0.1,0l-0.1-0.1c0,0-0.1-0.1,0-0.1c0-0.1,1.2-1.4,1.9-1.4c0.1,0,0.3,0.1,0.3,0.3
			c0,0.2-0.2,0.7-0.4,1.2l-0.6,1.7c-0.2,0.4-0.2,0.7-0.2,0.7c0,0.1,0,0.2,0.1,0.2c0.2,0,0.8-0.7,0.9-0.8c0,0,0.1,0,0.1,0l0.1,0.1
			c0,0.1,0.1,0.1,0,0.1c-0.1,0.1-1,1.1-1.9,1.1C152.4,49,152.3,48.9,152.3,48.7z M153.7,42.2c0-0.3,0.2-0.6,0.6-0.6
			c0.4,0,0.6,0.3,0.6,0.5c0,0.2-0.1,0.6-0.6,0.6C153.8,42.8,153.7,42.4,153.7,42.2z"/>
		<path fill="#898981" d="M158.4,37.6c0-0.1,0-0.2,0.2-0.2h6.1c0.1,0,0.2,0,0.2,0.2v0.6c0,0.2-0.1,0.2-0.2,0.2h-6.1
			c-0.1,0-0.2,0-0.2-0.1V37.6z"/>
		<path fill="#898981" d="M174.6,31.8c0.3-1.1-0.4-1.3-1-1.3H173c-0.1,0-0.2-0.1-0.1-0.2l0.1-0.4c0-0.1,0.1-0.1,0.2-0.1
			c0.1,0,0.3,0,0.7,0c0.4,0,1,0,1.9,0h1.2c1.4,0,2.5,0,3.3,0c0.8,0,1.3,0,1.5,0c0.3,0,0.3,0.1,0.4,0.4l0.6,2.6c0,0.1,0,0.1-0.1,0.2
			l-0.2,0.1c-0.1,0-0.1,0-0.2-0.1l-1.8-2.3c-0.1-0.1-0.2-0.2-0.3-0.2h-3.4l-1.6,5h1.8c1.1,0,1.7,0,2.3-1.6c0-0.1,0.1-0.1,0.1-0.1
			l0.3,0.1c0.1,0,0.1,0.1,0.1,0.2l-1,3.8c0,0.1-0.1,0.1-0.1,0.1l-0.3,0c-0.1,0-0.1,0-0.1-0.2c0.1-1.6-0.6-1.6-2.1-1.6h-1.1l-1.8,5.8
			h4.9c0.7,0,1.1-0.3,1.5-0.8l1.5-1.9c0.1-0.1,0.1-0.1,0.2,0l0.2,0.1c0.1,0.1,0.1,0.1,0.1,0.3l-1,2.7c-0.1,0.3-0.2,0.3-0.4,0.3
			c-0.2,0-1,0-2.1,0c-1.1,0-2.5,0-3.8,0H172c-0.9,0-1.4,0-1.8,0c-0.3,0-0.5,0-0.6,0c-0.1,0-0.2,0-0.2-0.2l0.1-0.4
			c0-0.1,0.1-0.2,0.2-0.2h0.7c0.8,0,1.2-0.4,1.4-1.1L174.6,31.8z"/>
		<path fill="#898981" d="M190.3,29c0.2-0.1,0.2-0.1,0.4,0.1c0.1,0.2,0.1,0.3-0.1,0.4c-3.2,2.7-5.6,7.3-5.6,12.2
			c0,2.9,0.3,3.8,0.4,4.4c0,0.2,0,0.2-0.2,0.3c-0.2,0.1-0.3,0.1-0.4-0.1c-0.4-0.8-0.9-3.1-0.9-5.1C183.8,36.4,186.3,31.9,190.3,29z"
			/>
		<path fill="#898981" d="M197.1,35c0.6-0.5,3.4-3.3,3.6-3.8c0.2-0.3,0.1-0.8-0.5-0.8H200c-0.1,0-0.2,0-0.2-0.2l0.1-0.4
			c0-0.2,0.1-0.2,0.2-0.2c0.2,0,0.9,0.1,1.9,0.1c1,0,1.6-0.1,1.8-0.1c0.2,0,0.2,0.1,0.2,0.2l-0.1,0.4c0,0.1,0,0.2-0.2,0.2h-0.3
			c-0.5,0-1,0.4-1.5,0.7c-0.2,0.2-4.1,4-4.6,4.5l1.9,5.2c0.2,0.6,0.7,1,1.3,1h0.4c0.1,0,0.2,0.1,0.2,0.2l0,0.3c0,0.2,0,0.2-0.2,0.2
			c-0.2,0-0.8-0.1-2-0.1c-1.2,0-1.9,0.1-2.2,0.1c-0.2,0-0.2-0.1-0.2-0.2l0.1-0.3c0-0.1,0-0.2,0.2-0.2h0.3c0.6,0,0.6-0.4,0.5-0.8
			c-0.1-0.3-1.4-4.1-1.5-4.5c-0.2,0.3-3.4,3.3-4.2,4.4c-0.3,0.4-0.3,0.9,0.3,0.9h0.4c0.1,0,0.1,0.1,0.1,0.2l0,0.3
			c0,0.1,0,0.2-0.2,0.2c-0.2,0-0.9-0.1-2.1-0.1c-0.9,0-1.7,0.1-2,0.1c-0.1,0-0.2-0.1-0.2-0.2l0.1-0.4c0-0.1,0.1-0.2,0.2-0.2h0.4
			c0.9,0,1.4-0.6,2-1.1c0.3-0.3,4.5-4.2,5-4.7l-1.5-4.4c-0.2-0.7-0.5-1.2-1.2-1.2h-0.5c-0.1,0-0.2-0.1-0.2-0.2l0.1-0.3
			c0-0.1,0-0.2,0.2-0.2c0.2,0,1.1,0.1,2,0.1c1.2,0,1.8-0.1,2-0.1c0.2,0,0.2,0.1,0.2,0.2l-0.1,0.4c0,0.1,0,0.2-0.2,0.2h-0.4
			c-0.6,0-0.6,0.5-0.5,1L197.1,35z"/>
		<path fill="#898981" d="M201.3,46.4c-0.2,0.1-0.2,0.1-0.4-0.1c-0.1-0.2-0.1-0.3,0.1-0.4c3.2-2.7,5.6-7.3,5.6-12.2
			c0-2.9-0.3-3.8-0.4-4.4c0-0.2,0-0.2,0.2-0.3c0.2-0.1,0.3-0.1,0.4,0.1c0.4,0.8,0.9,3.1,0.9,5.1C207.8,39,205.3,43.4,201.3,46.4z"/>
		<path fill="#898981" d="M215.4,28.8c0.1,0,0.2,0.1,0.1,0.3l-4.6,17c0,0.2-0.1,0.2-0.3,0.2h-3.7c-0.1,0-0.2-0.1-0.2-0.1l0.1-0.5
			c0-0.1,0.1-0.1,0.2-0.1h2.5c0.1,0,0.2-0.1,0.3-0.3l4.3-15.6c0-0.1,0-0.2-0.1-0.2h-2.7c-0.1,0-0.2,0-0.1-0.1l0.1-0.4
			c0-0.1,0.1-0.1,0.3-0.1H215.4z"/>
		<path fill="#898981" d="M222,35.5c0.7,0,1-0.4,1.3-0.8c0-0.1,0.1-0.1,0.1-0.1l0.2,0.1c0,0,0,0.1,0,0.1c-0.3,0.4-0.7,1.4-0.8,1.5
			c0,0.1-0.1,0.1-0.1,0.1c-0.1,0-0.1,0-0.2-0.1c-0.1-0.1-0.3-0.1-0.5-0.1h-2.5c-0.1,0-0.2,0-0.4,0c-0.1,0-0.2,0-0.3,0
			s-0.1,0-0.1-0.1c0,0,0-0.1,0.2-0.2c1.5-1.2,4.4-3.2,4.4-4.9c0-0.4-0.1-1.3-1.1-1.3c-0.9,0-1.4,0.9-1.6,1.2
			c-0.1,0.1-0.1,0.1-0.1,0.1l-0.2-0.1c0,0,0-0.1,0-0.2c0.2-0.6,1.1-1.8,2.3-1.8c1,0,1.6,0.7,1.6,1.7c0,1.9-2.9,3.8-4.2,4.7v0H222z"
			/>
	</g>
	<g>
		<path fill="#898981" d="M70.5,17.2c-0.1,0-0.1,0-0.1-0.1l0.7-2c0.2-0.7,0.5-1.4,0.5-1.6c0-0.1,0-0.2-0.2-0.2
			c-0.2,0-0.7,0.5-0.9,0.7c0,0-0.1,0-0.1,0L70.3,14c0,0-0.1-0.1,0-0.1c0.2-0.2,0.9-1.1,1.7-1.1c0.2,0,0.3,0.2,0.3,0.3
			c0,0.3-0.4,1.3-0.5,1.6l0,0c0.3-0.5,1.4-1.9,2.4-1.9c0.3,0,0.5,0.1,0.5,0.4c0,0.5-0.2,1-0.6,1.9c-0.3,0.7-0.5,1.3-0.5,1.5
			c0,0.1,0,0.1,0.1,0.1c0.2,0,0.6-0.4,0.7-0.5c0,0,0.1,0,0.1,0l0.1,0.1c0,0,0.1,0.1,0,0.1c-0.1,0.2-1,0.9-1.7,0.9
			c-0.1,0-0.3,0-0.3-0.2c0-0.2,0.4-1,0.7-1.9c0.1-0.4,0.5-1.3,0.5-1.5c0-0.1-0.1-0.2-0.3-0.2c-0.4,0-1.4,1-1.9,1.7
			c-0.2,0.3-0.3,0.6-0.6,1.3L71,17.2c0,0,0,0.1-0.1,0.1L70.5,17.2z"/>
	</g>
	<g>
		<path fill="#898981" d="M62.7,58.4c0-0.2,0.2-0.7,0.6-1.9l0.3-0.8c0.1-0.3,0.2-0.5,0.2-0.6c0-0.1-0.1-0.1-0.1-0.1
			c-0.2,0-0.7,0.6-0.8,0.7c0,0-0.1,0-0.1,0l-0.1-0.1c0,0-0.1-0.1,0-0.1c0-0.1,1.1-1.3,1.8-1.3c0.1,0,0.3,0.1,0.3,0.3
			c0,0.2-0.2,0.7-0.3,1.2l-0.6,1.6c-0.1,0.4-0.2,0.6-0.2,0.7c0,0.1,0,0.2,0.1,0.2c0.2,0,0.8-0.7,0.8-0.8c0,0,0.1,0,0.1,0l0.1,0.1
			c0,0.1,0.1,0.1,0,0.1c-0.1,0.1-0.9,1.1-1.8,1.1C62.8,58.7,62.7,58.6,62.7,58.4z M63.9,52.3c0-0.3,0.2-0.5,0.5-0.5
			c0.4,0,0.6,0.3,0.6,0.5c0,0.2-0.1,0.5-0.5,0.5C64,52.8,63.9,52.4,63.9,52.3z"/>
		<path fill="#898981" d="M65.7,55.8c0-0.1,0-0.1,0.1-0.1l3.4-0.1c0.1,0,0.1,0,0.1,0.1l0,0.4c0,0.1,0,0.1-0.1,0.1l-3.4,0.1
			c-0.1,0-0.1,0-0.1-0.1L65.7,55.8z"/>
		<path fill="#898981" d="M70.2,58.3c0-0.1,0.1-0.1,0.1-0.1l0.6,0c0.4,0,0.6-0.1,0.8-0.5c0-0.1,0.2-0.7,0.5-1.5l0.6-2
			c0.2-0.6,0.3-0.9,0.3-1c0-0.1,0-0.2-0.2-0.2c-0.1,0-0.3,0.1-0.6,0.2l-0.6,0.3c-0.1,0-0.1,0-0.1,0l-0.1-0.2c0-0.1,0-0.1,0.1-0.1
			l2.3-1.3c0.2-0.1,0.2-0.1,0.3-0.1c0.1,0,0.1,0,0.1,0.1c0,0,0,0.1-0.1,0.3c0,0.1-0.5,1.4-0.8,2.5l-0.5,1.8
			c-0.2,0.5-0.3,1.1-0.4,1.3c-0.1,0.4,0,0.5,0.5,0.5l0.6,0c0.1,0,0.1,0,0.1,0.1l0,0.2c0,0.1,0,0.1-0.1,0.1c-0.1,0-1.6,0-1.7,0
			c-0.2,0-1.5,0.1-1.6,0.1c0,0-0.1,0-0.1-0.1L70.2,58.3z"/>
	</g>
</g>
</svg>
