<?xml version="1.0" encoding="utf-8"?>
<!-- Generator: Adobe Illustrator 18.1.1, SVG Export Plug-In . SVG Version: 6.00 Build 0)  -->
<!DOCTYPE svg PUBLIC "-//W3C//DTD SVG 1.1//EN" "http://www.w3.org/Graphics/SVG/1.1/DTD/svg11.dtd">
<svg version="1.1" id="Breaks" xmlns="http://www.w3.org/2000/svg" xmlns:xlink="http://www.w3.org/1999/xlink" x="0px" y="0px"
	 viewBox="0 0 313.4 65.5" enable-background="new 0 0 313.4 65.5" xml:space="preserve">
<g>
	<g>
		<path fill="#898981" d="M19.6,23.4c-0.1,0.3-0.2,1.6-0.3,2.6l-0.4,0.1c-0.1-0.8-0.2-1.3-0.4-1.6c-0.2-0.3-0.7-0.4-2-0.4h-3
			l2.8,5.5l-5.1,5.8H16c1.2,0,1.7-0.4,2.6-1.9l0.4,0.1l-1.2,3H9.5l0.1-0.5l5.3-6.1l-3.1-6.1l0.1-0.5H19.6z"/>
		<path fill="#898981" d="M20.1,41c0-0.2,0.2-0.7,0.6-1.9l0.3-0.8c0.1-0.3,0.2-0.5,0.2-0.6c0-0.1-0.1-0.1-0.1-0.1
			c-0.2,0-0.7,0.6-0.8,0.7c0,0-0.1,0-0.1,0L20,38.2c0,0-0.1-0.1,0-0.1c0-0.1,1.1-1.3,1.8-1.3c0.1,0,0.3,0.1,0.3,0.3
			c0,0.2-0.2,0.7-0.4,1.2L21,39.8c-0.1,0.4-0.2,0.6-0.2,0.7c0,0.1,0,0.2,0.1,0.2c0.2,0,0.8-0.6,0.8-0.7c0,0,0.1,0,0.1,0l0.1,0.1
			c0,0.1,0.1,0.1,0,0.1c-0.1,0.1-0.9,1.1-1.8,1.1C20.2,41.3,20.1,41.2,20.1,41z M21.4,34.9c0-0.3,0.2-0.5,0.5-0.5
			c0.4,0,0.6,0.3,0.6,0.5c0,0.2-0.1,0.5-0.6,0.5C21.5,35.4,21.4,35,21.4,34.9z"/>
		<path fill="#898981" d="M33,28.9v1h-7v-1H33z M33,31.7v1h-7v-1H33z"/>
	</g>
	<g>
		<path fill="#898981" d="M55.8,22.5c0,0.1-0.1,0.1-0.2,0.1l-0.3-0.1c-0.1,0-0.1-0.1-0.1-0.1c0-0.1,0.1-0.2,0.1-0.3
			c0-0.2-0.1-0.3-0.3-0.3s-0.5,0.1-0.8,0.3c-0.4,0.2-1.6,0.5-2.5,0.5c-2.4,0-4.3-1.7-4.3-4.3c0-2.1,1-4.4,2.6-6.2
			c1.2-1.3,2.8-2.1,4.3-2.1c0.9,0,1.5,0.2,2.4,0.8c0.2,0.2,0.6,0.5,0.9,0.5c0.2,0,0.4-0.1,0.5-0.6c0-0.1,0.1-0.1,0.2-0.1l0.2,0.1
			c0.1,0,0.1,0.1,0.1,0.2l-1,3.7c0,0.1-0.1,0.1-0.2,0.1l-0.3,0c-0.1,0-0.1-0.1-0.1-0.2c0.4-1.8-0.5-3.8-2.6-3.8
			c-1.5,0-2.4,0.7-3.5,2.2c-1.4,2-1.8,4.2-1.8,5.7c0,2.6,1.7,3.4,2.8,3.4c1.5,0,3.4-0.5,4.5-3.2c0.1-0.2,0.1-0.2,0.2-0.1l0.3,0.1
			c0.1,0,0.1,0.1,0.1,0.2L55.8,22.5z"/>
		<path fill="#898981" d="M58.6,20c0-2.3,1.7-5.3,4.1-5.3c1.2,0,1.9,0.9,1.9,2.1c0,2-1.6,5.6-4.2,5.6C59.4,22.4,58.6,21.4,58.6,20z
			 M63.9,16.5c0-0.6-0.3-1-0.9-1c-0.8,0-1.7,0.7-2.6,2.1c-0.6,1-1,2.1-1,2.9c0,0.6,0.4,0.9,0.8,0.9C62,21.5,63.9,17.7,63.9,16.5z"/>
		<path fill="#898981" d="M67.6,15.8c-0.6,0-1,0.4-1,0.9c0,0.3,0.2,0.4,0.4,0.5c0.1,0.1,0.4,0.3,0.4,0.5s-0.2,0.6-0.7,0.6
			c-0.3,0-0.8-0.3-0.8-1c0-0.7,0.5-1.5,0.7-1.7c0.4-0.4,0.8-0.9,2.1-0.9c1.8,0,2.1-0.1,2.3-0.1c0.2,0,0.4,0.1,0.2,0.3
			c-0.4,0.5-2.1,2.9-2.1,4.7c0,1.2,0.6,1.7,1.3,1.7c1.5,0,3.1-2.4,3.1-4.2c0-0.3,0-0.6-0.1-0.9c-0.1-0.3-0.3-0.5-0.3-0.7
			c0-0.5,0.3-0.8,0.8-0.8c0.5,0,0.7,0.5,0.7,1c0,0.9-0.4,2.7-1.2,4c-0.8,1.4-2.3,2.7-3.7,2.7c-0.9,0-1.8-0.6-1.8-1.9
			c0-1.7,1.5-3.9,2.5-5.1l-0.1-0.1c-0.4,0.3-1.3,0.5-1.7,0.5H67.6z"/>
		<path fill="#898981" d="M82.1,9.3c0.1-0.1,0.2-0.1,0.3,0.1c0.1,0.2,0.1,0.3-0.1,0.4c-3.1,2.5-5.3,6.9-5.3,11.6
			c0,2.7,0.3,3.6,0.4,4.2c0,0.1,0,0.2-0.2,0.3c-0.2,0.1-0.3,0.1-0.3-0.1c-0.4-0.8-0.9-3-0.9-4.8C75.9,16.3,78.3,12.1,82.1,9.3z"/>
		<path fill="#898981" d="M85.4,11.7c0.2-0.6,0.1-0.9-0.5-0.9h-0.7c-0.1,0-0.2-0.1-0.1-0.1l0.1-0.4c0-0.1,0.1-0.1,0.2-0.1
			c1.9,0,3.7-0.1,4-0.1c1.3,0,4.1,0.1,4.1,2.6c0,1.8-1.9,3.2-4.1,3.5v0c0.4,0.1,0.7,0.7,0.9,1.1c0.1,0.2,1.3,2.7,1.7,3.3
			c0.5,0.7,0.8,1,1.6,1H93c0.1,0,0.1,0.1,0.1,0.2l-0.1,0.3c0,0.1-0.1,0.1-0.2,0.1c-0.2,0-0.5-0.1-1.3-0.1c-0.8,0-1.1,0.1-1.3,0.1
			c-0.1,0-0.2-0.1-0.5-0.6c-0.3-0.4-1.9-4-2.1-4.4c-0.5-1-1.5-0.9-2.2-0.9l-1.3,3.9c-0.3,1-0.1,1.3,0.7,1.3h0.7
			c0.1,0,0.1,0.1,0.1,0.1l-0.1,0.4c0,0.1-0.1,0.1-0.2,0.1c-0.2,0-1-0.1-2.5-0.1c-1.1,0-1.8,0.1-2,0.1c-0.1,0-0.1-0.1-0.1-0.1
			l0.1-0.4c0-0.1,0.1-0.1,0.2-0.1h0.3c0.6,0,1-0.4,1.1-0.9L85.4,11.7z M85.6,15.7c0.9,0,2,0.1,3.3-0.5c1.1-0.4,1.9-1.4,1.9-2.7
			c0-0.8-0.7-2-2.9-2c-0.3,0-0.5,0-0.7,0L85.6,15.7z"/>
		<path fill="#898981" d="M93.8,28c0-0.2,0.2-0.7,0.6-1.9l0.3-0.8c0.1-0.3,0.2-0.5,0.2-0.6c0-0.1-0.1-0.1-0.1-0.1
			c-0.2,0-0.7,0.6-0.8,0.7c0,0-0.1,0-0.1,0l-0.1-0.1c0,0-0.1-0.1,0-0.1c0-0.1,1.1-1.3,1.8-1.3c0.1,0,0.3,0.1,0.3,0.3
			c0,0.2-0.2,0.7-0.4,1.2l-0.6,1.6c-0.1,0.4-0.2,0.6-0.2,0.7c0,0.1,0,0.2,0.1,0.2c0.2,0,0.8-0.6,0.8-0.7c0,0,0.1,0,0.1,0l0.1,0.1
			c0,0.1,0.1,0.1,0,0.1c-0.1,0.1-0.9,1.1-1.8,1.1C93.9,28.3,93.8,28.2,93.8,28z M95.2,21.9c0-0.3,0.2-0.5,0.5-0.5
			c0.4,0,0.6,0.3,0.6,0.5c0,0.2-0.1,0.5-0.6,0.5C95.3,22.4,95.2,22,95.2,21.9z"/>
		<path fill="#898981" d="M103.3,11.7c0.2-0.6,0.1-0.9-0.5-0.9h-0.7c-0.1,0-0.2-0.1-0.1-0.1l0.1-0.4c0-0.1,0.1-0.1,0.2-0.1
			c1.9,0,3.7-0.1,4-0.1c1.3,0,4.1,0.1,4.1,2.6c0,1.8-1.9,3.2-4.1,3.5v0c0.4,0.1,0.7,0.7,0.9,1.1c0.1,0.2,1.3,2.7,1.7,3.3
			c0.5,0.7,0.8,1,1.6,1h0.5c0.1,0,0.1,0.1,0.1,0.2l-0.1,0.3c0,0.1-0.1,0.1-0.2,0.1c-0.2,0-0.5-0.1-1.3-0.1c-0.8,0-1.1,0.1-1.3,0.1
			c-0.1,0-0.2-0.1-0.5-0.6c-0.3-0.4-1.9-4-2.1-4.4c-0.5-1-1.5-0.9-2.2-0.9l-1.3,3.9c-0.3,1-0.1,1.3,0.7,1.3h0.7
			c0.1,0,0.1,0.1,0.1,0.1l-0.1,0.4c0,0.1-0.1,0.1-0.2,0.1c-0.2,0-1-0.1-2.5-0.1c-1.1,0-1.8,0.1-2,0.1c-0.1,0-0.1-0.1-0.1-0.1
			l0.1-0.4c0-0.1,0.1-0.1,0.2-0.1h0.3c0.6,0,1-0.4,1.1-0.9L103.3,11.7z M103.6,15.7c0.9,0,2,0.1,3.3-0.5c1.1-0.4,1.9-1.4,1.9-2.7
			c0-0.8-0.7-2-2.9-2c-0.3,0-0.5,0-0.7,0L103.6,15.7z"/>
		<path fill="#898981" d="M111.6,28.2c-0.1,0-0.1,0-0.1-0.1l0.8-1.9c0.3-0.7,0.6-1.4,0.6-1.6c0-0.1,0-0.2-0.1-0.2
			c-0.1,0-0.8,0.6-0.9,0.7c0,0-0.1,0-0.1,0l-0.1-0.1c0,0,0-0.1,0-0.1c0.2-0.3,1.1-1.2,1.7-1.2c0.1,0,0.3,0.1,0.3,0.3
			c0,0.3-0.6,1.6-0.7,1.9l0.1,0c0.5-0.7,1.6-2.2,2.5-2.2c0.3,0,0.5,0.3,0.5,0.5c0,0.4-0.4,1.4-0.6,1.8l0.1,0
			c0.6-0.9,1.5-2.3,2.4-2.3c0.3,0,0.5,0.3,0.5,0.5c0,0.4-0.2,0.8-0.6,1.9c-0.2,0.6-0.4,1-0.4,1.2c0,0.1,0,0.1,0.1,0.1
			c0.2,0,0.8-0.7,0.8-0.8c0-0.1,0.1,0,0.1,0l0.1,0.1c0,0,0,0.1,0,0.1c0,0.1-1.1,1.3-1.8,1.3c-0.1,0-0.2-0.1-0.2-0.3
			c0-0.3,0.3-1,0.7-2c0.3-0.7,0.5-1.2,0.5-1.5c0-0.1-0.1-0.2-0.2-0.2c-0.4,0-1.4,1.2-2,2.1c-0.1,0.1-0.3,0.4-0.4,0.7l-0.4,0.9
			c0,0.1-0.1,0.1-0.1,0.1H114c-0.1,0-0.1,0-0.1-0.1l0.7-1.7c0.3-0.7,0.6-1.5,0.6-1.8c0-0.1-0.1-0.2-0.2-0.2c-0.4,0-1.4,1.1-2,1.9
			c-0.2,0.2-0.4,0.5-0.5,0.9l-0.4,0.9c0,0.1-0.1,0.1-0.2,0.1H111.6z"/>
		<path fill="#898981" d="M120.6,25.8c-0.1,0.1-0.2,0.1-0.3-0.1c-0.1-0.2-0.1-0.3,0.1-0.4c3.1-2.5,5.3-6.9,5.3-11.6
			c0-2.7-0.3-3.6-0.4-4.2c0-0.1,0-0.2,0.2-0.3c0.2-0.1,0.3-0.1,0.3,0.1c0.4,0.8,0.9,3,0.9,4.8C126.7,18.8,124.3,23,120.6,25.8z"/>
		<path fill="#898981" d="M82.6,43.5c0.6,0.8,0.9,1.7,0.9,2.8c0,1.2-0.4,2.2-1.2,3c-0.8,0.8-1.8,1.2-2.9,1.2c-1.2,0-2.2-0.4-3-1.2
			c-0.8-0.8-1.2-1.8-1.2-3c0-1.3,0.4-2.3,1.3-3.1c0.8-0.7,1.8-1.1,3-1.1c0.5,0,1,0.1,1.5,0.3h4.2c0.1,0,0.1,0,0.1,0c0,0,0,0.1,0,0.1
			l-0.5,0.9c0,0,0,0.1,0,0.1c0,0,0,0-0.1,0H82.6z M81.3,48.7c0.2-0.4,0.4-0.7,0.5-1.2s0.2-0.9,0.2-1.3s-0.1-0.9-0.2-1.3
			c-0.1-0.4-0.3-0.8-0.5-1.2c-0.5-0.8-1.2-1.2-2-1.2c-0.9,0-1.6,0.4-2.1,1.2c-0.4,0.7-0.6,1.5-0.6,2.5c0,1.6,0.5,2.7,1.5,3.3
			c0.3,0.2,0.7,0.3,1.2,0.3s0.8-0.1,1.2-0.3C80.8,49.3,81.1,49,81.3,48.7z"/>
		<path fill="#898981" d="M88.6,43.5c0.7,0,1-0.4,1.2-0.8c0-0.1,0.1-0.1,0.1-0.1l0.2,0.1c0,0,0,0.1,0,0.1c-0.3,0.4-0.7,1.4-0.7,1.5
			c0,0.1-0.1,0.1-0.1,0.1c-0.1,0-0.1,0-0.2-0.1c-0.1-0.1-0.3-0.1-0.5-0.1h-2.4c-0.1,0-0.2,0-0.3,0c-0.1,0-0.2,0-0.3,0
			c-0.1,0-0.1,0-0.1-0.1c0,0,0-0.1,0.1-0.2c1.4-1.1,4.2-3,4.2-4.6c0-0.4-0.1-1.2-1-1.2c-0.9,0-1.3,0.9-1.5,1.2
			c-0.1,0.1-0.1,0.1-0.1,0.1L87,39.2c0,0,0-0.1,0-0.1c0.2-0.6,1-1.7,2.2-1.7c0.9,0,1.5,0.7,1.5,1.6c0,1.8-2.7,3.6-4,4.5v0H88.6z"/>
		<path fill="#898981" d="M91.4,56.2c-0.1,0-0.1,0-0.1-0.1l0.8-1.9c0.3-0.7,0.6-1.4,0.6-1.6c0-0.1,0-0.2-0.1-0.2
			c-0.1,0-0.8,0.6-0.9,0.7c0,0-0.1,0-0.1,0l-0.1-0.1c0,0,0-0.1,0-0.1c0.2-0.3,1.1-1.2,1.7-1.2c0.1,0,0.3,0.1,0.3,0.3
			c0,0.3-0.6,1.6-0.7,1.9l0.1,0c0.5-0.7,1.6-2.2,2.5-2.2c0.3,0,0.5,0.3,0.5,0.5c0,0.4-0.4,1.4-0.6,1.8l0.1,0
			c0.6-0.9,1.5-2.3,2.4-2.3c0.3,0,0.5,0.3,0.5,0.5c0,0.4-0.2,0.8-0.6,1.9c-0.2,0.6-0.4,1-0.4,1.2c0,0.1,0,0.1,0.1,0.1
			c0.2,0,0.8-0.7,0.8-0.8c0-0.1,0.1,0,0.1,0l0.1,0.1c0,0,0,0.1,0,0.1c0,0.1-1.1,1.3-1.8,1.3c-0.1,0-0.2-0.1-0.2-0.3
			c0-0.3,0.3-1,0.7-2c0.3-0.7,0.5-1.2,0.5-1.5c0-0.1-0.1-0.2-0.2-0.2c-0.4,0-1.4,1.2-2,2.1c-0.1,0.1-0.3,0.4-0.4,0.7l-0.4,0.9
			c0,0.1-0.1,0.1-0.1,0.1h-0.4c-0.1,0-0.1,0-0.1-0.1l0.7-1.7c0.3-0.7,0.6-1.5,0.6-1.8c0-0.1-0.1-0.2-0.2-0.2c-0.4,0-1.4,1.1-2,1.9
			c-0.2,0.2-0.4,0.5-0.5,0.9L92,56.1c0,0.1-0.1,0.1-0.2,0.1H91.4z"/>
	</g>
	<g>
		<path fill="#898981" d="M143.7,28.9v1h-7v-1H143.7z M143.7,31.7v1h-7v-1H143.7z"/>
	</g>
	<g>
		<path fill="#898981" d="M245.2,28.9v1h-7v-1H245.2z M245.2,31.7v1h-7v-1H245.2z"/>
	</g>
	<g>
		<path fill="#898981" d="M169,13.3c0.1-0.1,0.1-0.2,0.2-0.3l1.1-0.4c0,0,0.1,0,0.1,0c0,0,0.1,0,0.1,0.1s0,0.1,0,0.1l-0.8,1.9
			c0.1,0,0.2,0,0.4,0c0.1,0,0.3,0,0.4,0c1.7,0,2.5,1.2,2.5,2.4c0,1.3-0.6,2.6-2.1,3.7c-0.8,0.6-2.3,1.2-3.7,1.4l-1.3,3.6
			c-0.3,1-0.2,1.2,0.6,1.2h0.5c0.1,0,0.1,0.1,0.1,0.1l-0.1,0.4c0,0.1-0.1,0.1-0.2,0.1c-0.2,0-0.7-0.1-1.9-0.1
			c-1.2,0-1.7,0.1-1.9,0.1c-0.1,0-0.1,0-0.1-0.1l0.1-0.4c0-0.1,0-0.1,0.1-0.1h0.4c0.7,0,1-0.4,1.4-1.5l3.5-9.7
			c-0.9,0.3-1.9,1.2-2.2,1.6c-0.1,0.1-0.1,0.1-0.2,0l-0.2-0.2c-0.1-0.1-0.1-0.1,0-0.2c0.6-0.8,1.5-1.6,2.9-2.1L169,13.3z
			 M167.2,21.6c2.2-0.3,4.4-1.9,4.4-4.1c0-1.4-0.8-2.1-1.6-2.1c-0.3,0-0.5,0-0.6,0.1L167.2,21.6z"/>
		<path fill="#898981" d="M173.8,28c0-0.2,0.2-0.7,0.6-1.9l0.3-0.8c0.1-0.3,0.2-0.5,0.2-0.6c0-0.1-0.1-0.1-0.1-0.1
			c-0.2,0-0.7,0.6-0.8,0.7c0,0-0.1,0-0.1,0l-0.1-0.1c0,0-0.1-0.1,0-0.1c0-0.1,1.1-1.3,1.8-1.3c0.1,0,0.3,0.1,0.3,0.3
			c0,0.2-0.2,0.7-0.4,1.2l-0.6,1.6c-0.1,0.4-0.2,0.6-0.2,0.7c0,0.1,0,0.2,0.1,0.2c0.2,0,0.8-0.6,0.8-0.7c0,0,0.1,0,0.1,0l0.1,0.1
			c0,0.1,0.1,0.1,0,0.1c-0.1,0.1-0.9,1.1-1.8,1.1C173.8,28.3,173.8,28.2,173.8,28z M175.1,21.9c0-0.3,0.2-0.5,0.5-0.5
			c0.4,0,0.6,0.3,0.6,0.5c0,0.2-0.1,0.5-0.6,0.5C175.2,22.4,175.1,22,175.1,21.9z"/>
		<path fill="#898981" d="M176,29.4c0-0.1,0-0.1,0.1-0.1c0.3-0.1,0.8-0.4,0.8-0.9c0-0.3-0.1-0.4-0.3-0.5c-0.1-0.1-0.3-0.2-0.3-0.5
			s0.2-0.5,0.5-0.5c0.5,0,0.8,0.7,0.8,1c0,1.2-1.3,1.6-1.5,1.6C176.1,29.5,176,29.5,176,29.4z"/>
		<path fill="#898981" d="M179.3,28.2c-0.1,0-0.1,0-0.1-0.1l0.8-1.9c0.3-0.7,0.6-1.4,0.6-1.6c0-0.1,0-0.2-0.1-0.2
			c-0.1,0-0.8,0.6-0.9,0.7c0,0-0.1,0-0.1,0l-0.1-0.1c0,0,0-0.1,0-0.1c0.2-0.3,1.1-1.2,1.7-1.2c0.1,0,0.3,0.1,0.3,0.3
			c0,0.3-0.6,1.6-0.7,1.9l0.1,0c0.5-0.7,1.6-2.2,2.5-2.2c0.3,0,0.5,0.3,0.5,0.5c0,0.4-0.4,1.4-0.6,1.8l0.1,0
			c0.6-0.9,1.5-2.3,2.4-2.3c0.3,0,0.5,0.3,0.5,0.5c0,0.4-0.2,0.8-0.6,1.9c-0.2,0.6-0.4,1-0.4,1.2c0,0.1,0,0.1,0.1,0.1
			c0.2,0,0.8-0.7,0.8-0.8c0-0.1,0.1,0,0.1,0l0.1,0.1c0,0,0,0.1,0,0.1c0,0.1-1.1,1.3-1.8,1.3c-0.1,0-0.2-0.1-0.2-0.3
			c0-0.3,0.3-1,0.7-2c0.3-0.7,0.5-1.2,0.5-1.5c0-0.1-0.1-0.2-0.2-0.2c-0.4,0-1.4,1.2-2,2.1c-0.1,0.1-0.3,0.4-0.4,0.7l-0.4,0.9
			c0,0.1-0.1,0.1-0.1,0.1h-0.4c-0.1,0-0.1,0-0.1-0.1l0.7-1.7c0.3-0.7,0.6-1.5,0.6-1.8c0-0.1-0.1-0.2-0.2-0.2c-0.4,0-1.4,1.1-2,1.9
			c-0.2,0.2-0.4,0.5-0.5,0.9l-0.4,0.9c0,0.1-0.1,0.1-0.2,0.1H179.3z"/>
		<path fill="#898981" d="M194.4,15.5c0.6,0.8,0.9,1.7,0.9,2.8c0,1.2-0.4,2.2-1.2,3c-0.8,0.8-1.8,1.2-2.9,1.2c-1.2,0-2.2-0.4-3-1.2
			c-0.8-0.8-1.2-1.8-1.2-3c0-1.3,0.4-2.3,1.3-3.1c0.8-0.7,1.8-1.1,3-1.1c0.5,0,1,0.1,1.5,0.3h4.2c0.1,0,0.1,0,0.1,0c0,0,0,0.1,0,0.1
			l-0.5,0.9c0,0,0,0.1,0,0.1c0,0,0,0-0.1,0H194.4z M193.2,20.7c0.2-0.4,0.4-0.7,0.5-1.2s0.2-0.9,0.2-1.3s-0.1-0.9-0.2-1.3
			c-0.1-0.4-0.3-0.8-0.5-1.2c-0.5-0.8-1.2-1.2-2-1.2c-0.9,0-1.6,0.4-2.1,1.2c-0.4,0.7-0.6,1.5-0.6,2.5c0,1.6,0.5,2.7,1.5,3.3
			c0.3,0.2,0.7,0.3,1.2,0.3s0.8-0.1,1.2-0.3C192.7,21.3,192.9,21,193.2,20.7z"/>
		<path fill="#898981" d="M199.7,24l-0.8,3.7c0,0.1,0,0.1,0.1,0.1c0.1,0,0.4-0.2,0.7-0.5c0,0,0.1-0.1,0.1-0.1l0.1,0.1
			c-0.1,0.1-0.2,0.3-0.4,0.4c-0.2,0.2-0.4,0.3-0.5,0.4c-0.2,0.1-0.4,0.2-0.5,0.2c-0.1,0-0.2,0-0.3-0.1c-0.1-0.1-0.1-0.2-0.1-0.2
			c0-0.1,0-0.2,0-0.3l0.7-3.5v0c0-0.1,0-0.1-0.1-0.1c-0.1,0-0.4,0.2-0.7,0.5c-0.1,0.1-0.1,0.1-0.1,0.1l-0.1-0.1
			c0.1-0.1,0.3-0.3,0.6-0.6c0.4-0.3,0.6-0.4,0.8-0.4c0.2,0,0.3,0,0.3,0.1C199.7,23.8,199.7,23.9,199.7,24z M199.5,22.2
			c0-0.1-0.1-0.1-0.1-0.2s0-0.1,0-0.2s0-0.1,0-0.2s0.1-0.2,0.1-0.3c0.1-0.2,0.2-0.3,0.4-0.3c0.2,0,0.3,0.1,0.3,0.3c0,0,0,0.1,0,0.2
			s0,0.1,0,0.2c0,0.1-0.1,0.2-0.1,0.3c-0.1,0.2-0.3,0.3-0.4,0.3C199.6,22.3,199.5,22.3,199.5,22.2z"/>
		<path fill="#898981" d="M208.3,15.5c0.6,0.8,0.9,1.7,0.9,2.8c0,1.2-0.4,2.2-1.2,3c-0.8,0.8-1.8,1.2-2.9,1.2c-1.2,0-2.2-0.4-3-1.2
			c-0.8-0.8-1.2-1.8-1.2-3c0-1.3,0.4-2.3,1.3-3.1c0.8-0.7,1.8-1.1,3-1.1c0.5,0,1,0.1,1.5,0.3h4.2c0.1,0,0.1,0,0.1,0c0,0,0,0.1,0,0.1
			l-0.5,0.9c0,0,0,0.1,0,0.1c0,0,0,0-0.1,0H208.3z M207.1,20.7c0.2-0.4,0.4-0.7,0.5-1.2s0.2-0.9,0.2-1.3s-0.1-0.9-0.2-1.3
			c-0.1-0.4-0.3-0.8-0.5-1.2c-0.5-0.8-1.2-1.2-2-1.2c-0.9,0-1.6,0.4-2.1,1.2c-0.4,0.7-0.6,1.5-0.6,2.5c0,1.6,0.5,2.7,1.5,3.3
			c0.3,0.2,0.7,0.3,1.2,0.3s0.8-0.1,1.2-0.3C206.6,21.3,206.8,21,207.1,20.7z"/>
		<path fill="#898981" d="M212,28.2c0,0,0-0.1,0-0.2c0-0.1,0-0.2,0.1-0.3l0.7-3.2v0c0-0.1,0-0.1-0.1-0.1c-0.1,0-0.1,0.1-0.3,0.2
			s-0.3,0.3-0.5,0.5l-0.1-0.1c0.1-0.2,0.4-0.4,0.8-0.8c0.4-0.3,0.6-0.5,0.8-0.5c0.1,0,0.2,0.1,0.2,0.4c0,0.1,0,0.2,0,0.3l-0.3,1.3
			c0,0,0,0.1,0,0.1c0,0,0.1,0,0.1,0c0,0,0.1-0.1,0.2-0.2c0.1-0.1,0.2-0.2,0.4-0.4c0.2-0.2,0.3-0.3,0.4-0.5c0.1-0.1,0.2-0.2,0.4-0.3
			c0.1-0.1,0.2-0.2,0.4-0.3c0.3-0.2,0.5-0.3,0.6-0.3c0.1,0,0.2,0,0.3,0.1s0.1,0.2,0.1,0.2c0,0.1,0,0.2,0,0.2l-0.3,1.3
			c0,0,0,0.1,0,0.1s0,0,0,0c0.1,0,0.2-0.2,0.5-0.5c0.2-0.3,0.4-0.5,0.6-0.7c0.1-0.1,0.2-0.2,0.4-0.3c0.1-0.1,0.2-0.2,0.4-0.3
			c0.3-0.2,0.5-0.3,0.6-0.3c0.1,0,0.2,0,0.3,0.1c0.1,0.1,0.1,0.2,0.1,0.3s0,0.2,0,0.2l-0.8,3.5v0c0,0.1,0,0.1,0.1,0.1
			c0.1,0,0.4-0.2,0.7-0.5c0,0,0.1-0.1,0.1-0.1l0.1,0.1c-0.1,0.1-0.3,0.3-0.6,0.6c-0.4,0.3-0.6,0.4-0.8,0.4c-0.1,0-0.2,0-0.3-0.1
			c-0.1-0.1-0.1-0.2-0.1-0.3c0-0.1,0-0.2,0-0.2l0.8-3.5v0c0-0.1,0-0.1-0.1-0.1c-0.1,0-0.3,0.1-0.5,0.3c-0.4,0.5-0.8,0.8-1,1.1
			c0,0-0.1,0.1-0.1,0.1c0,0.1-0.1,0.1-0.1,0.2c-0.1,0.1-0.2,0.2-0.2,0.2c0,0.1-0.1,0.1-0.1,0.1s-0.1,0.1-0.1,0.2l-0.4,1.7
			c-0.2,0.1-0.4,0.2-0.5,0.2c-0.1,0-0.2,0-0.2-0.1c0,0,0-0.1,0-0.2c0-0.1,0-0.2,0.1-0.3l0.8-3.5v0c0-0.1,0-0.1-0.1-0.1
			c-0.1,0-0.3,0.1-0.5,0.3c-0.5,0.5-0.8,0.9-0.9,1c-0.1,0.1-0.2,0.2-0.2,0.3c0,0.1-0.1,0.1-0.1,0.2c-0.1,0.1-0.1,0.2-0.2,0.2
			s-0.1,0.1-0.1,0.1s-0.1,0.1-0.1,0.2l-0.4,1.7c-0.2,0.1-0.4,0.2-0.5,0.2C212.1,28.3,212,28.3,212,28.2z"/>
		<path fill="#898981" d="M188.1,43.5c0.6,0.8,0.9,1.7,0.9,2.8c0,1.2-0.4,2.2-1.2,3c-0.8,0.8-1.8,1.2-2.9,1.2c-1.2,0-2.2-0.4-3-1.2
			c-0.8-0.8-1.2-1.8-1.2-3c0-1.3,0.4-2.3,1.3-3.1c0.8-0.7,1.8-1.1,3-1.1c0.5,0,1,0.1,1.5,0.3h4.2c0.1,0,0.1,0,0.1,0c0,0,0,0.1,0,0.1
			l-0.5,0.9c0,0,0,0.1,0,0.1c0,0,0,0-0.1,0H188.1z M186.8,48.7c0.2-0.4,0.4-0.7,0.5-1.2s0.2-0.9,0.2-1.3s-0.1-0.9-0.2-1.3
			c-0.1-0.4-0.3-0.8-0.5-1.2c-0.5-0.8-1.2-1.2-2-1.2c-0.9,0-1.6,0.4-2.1,1.2c-0.4,0.7-0.6,1.5-0.6,2.5c0,1.6,0.5,2.7,1.5,3.3
			c0.3,0.2,0.7,0.3,1.2,0.3s0.8-0.1,1.2-0.3C186.3,49.3,186.6,49,186.8,48.7z"/>
		<path fill="#898981" d="M194.1,43.5c0.7,0,1-0.4,1.2-0.8c0-0.1,0.1-0.1,0.1-0.1l0.2,0.1c0,0,0,0.1,0,0.1c-0.3,0.4-0.7,1.4-0.7,1.5
			c0,0.1-0.1,0.1-0.1,0.1c-0.1,0-0.1,0-0.2-0.1c-0.1-0.1-0.3-0.1-0.5-0.1h-2.4c-0.1,0-0.2,0-0.3,0c-0.1,0-0.2,0-0.3,0
			c-0.1,0-0.1,0-0.1-0.1c0,0,0-0.1,0.1-0.2c1.4-1.1,4.2-3,4.2-4.6c0-0.4-0.1-1.2-1-1.2c-0.9,0-1.3,0.9-1.5,1.2
			c-0.1,0.1-0.1,0.1-0.1,0.1l-0.2-0.1c0,0,0-0.1,0-0.1c0.2-0.6,1-1.7,2.2-1.7c0.9,0,1.5,0.7,1.5,1.6c0,1.8-2.7,3.6-4,4.5v0H194.1z"
			/>
		<path fill="#898981" d="M196.9,56.2c-0.1,0-0.1,0-0.1-0.1l0.8-1.9c0.3-0.7,0.6-1.4,0.6-1.6c0-0.1,0-0.2-0.1-0.2
			c-0.1,0-0.8,0.6-0.9,0.7c0,0-0.1,0-0.1,0l-0.1-0.1c0,0,0-0.1,0-0.1c0.2-0.3,1.1-1.2,1.7-1.2c0.1,0,0.3,0.1,0.3,0.3
			c0,0.3-0.6,1.6-0.7,1.9l0.1,0c0.5-0.7,1.6-2.2,2.5-2.2c0.3,0,0.5,0.3,0.5,0.5c0,0.4-0.4,1.4-0.6,1.8l0.1,0
			c0.6-0.9,1.5-2.3,2.4-2.3c0.3,0,0.5,0.3,0.5,0.5c0,0.4-0.2,0.8-0.6,1.9c-0.2,0.6-0.4,1-0.4,1.2c0,0.1,0,0.1,0.1,0.1
			c0.2,0,0.8-0.7,0.8-0.8c0-0.1,0.1,0,0.1,0l0.1,0.1c0,0,0,0.1,0,0.1c0,0.1-1.1,1.3-1.8,1.3c-0.1,0-0.2-0.1-0.2-0.3
			c0-0.3,0.3-1,0.7-2c0.3-0.7,0.5-1.2,0.5-1.5c0-0.1-0.1-0.2-0.2-0.2c-0.4,0-1.4,1.2-2,2.1c-0.1,0.1-0.3,0.4-0.4,0.7l-0.4,0.9
			c0,0.1-0.1,0.1-0.1,0.1h-0.4c-0.1,0-0.1,0-0.1-0.1l0.7-1.7c0.3-0.7,0.6-1.5,0.6-1.8c0-0.1-0.1-0.2-0.2-0.2c-0.4,0-1.4,1.1-2,1.9
			c-0.2,0.2-0.4,0.5-0.5,0.9l-0.4,0.9c0,0.1-0.1,0.1-0.2,0.1H196.9z"/>
	</g>
	<g>
		<path fill="#898981" d="M268.5,13.3c0.1-0.1,0.1-0.2,0.2-0.3l1.1-0.4c0,0,0.1,0,0.1,0c0,0,0.1,0,0.1,0.1s0,0.1,0,0.1l-0.8,1.9
			c0.1,0,0.2,0,0.4,0c0.1,0,0.3,0,0.4,0c1.7,0,2.5,1.2,2.5,2.4c0,1.3-0.6,2.6-2.1,3.7c-0.8,0.6-2.3,1.2-3.7,1.4l-1.3,3.6
			c-0.3,1-0.2,1.2,0.6,1.2h0.5c0.1,0,0.1,0.1,0.1,0.1l-0.1,0.4c0,0.1-0.1,0.1-0.2,0.1c-0.2,0-0.7-0.1-1.9-0.1
			c-1.2,0-1.7,0.1-1.9,0.1c-0.1,0-0.1,0-0.1-0.1l0.1-0.4c0-0.1,0-0.1,0.1-0.1h0.4c0.7,0,1-0.4,1.4-1.5l3.5-9.7
			c-0.9,0.3-1.9,1.2-2.2,1.6c-0.1,0.1-0.1,0.1-0.2,0l-0.2-0.2c-0.1-0.1-0.1-0.1,0-0.2c0.6-0.8,1.5-1.6,2.9-2.1L268.5,13.3z
			 M266.7,21.6c2.2-0.3,4.4-1.9,4.4-4.1c0-1.4-0.8-2.1-1.6-2.1c-0.3,0-0.5,0-0.6,0.1L266.7,21.6z"/>
		<path fill="#898981" d="M273.3,28c0-0.2,0.2-0.7,0.6-1.9l0.3-0.8c0.1-0.3,0.2-0.5,0.2-0.6c0-0.1-0.1-0.1-0.1-0.1
			c-0.2,0-0.7,0.6-0.8,0.7c0,0-0.1,0-0.1,0l-0.1-0.1c0,0-0.1-0.1,0-0.1c0-0.1,1.1-1.3,1.8-1.3c0.1,0,0.3,0.1,0.3,0.3
			c0,0.2-0.2,0.7-0.4,1.2l-0.6,1.6c-0.1,0.4-0.2,0.6-0.2,0.7c0,0.1,0,0.2,0.1,0.2c0.2,0,0.8-0.6,0.8-0.7c0,0,0.1,0,0.1,0l0.1,0.1
			c0,0.1,0.1,0.1,0,0.1c-0.1,0.1-0.9,1.1-1.8,1.1C273.3,28.3,273.3,28.2,273.3,28z M274.6,21.9c0-0.3,0.2-0.5,0.5-0.5
			c0.4,0,0.6,0.3,0.6,0.5c0,0.2-0.1,0.5-0.6,0.5C274.7,22.4,274.6,22,274.6,21.9z"/>
		<path fill="#898981" d="M275.5,29.4c0-0.1,0-0.1,0.1-0.1c0.3-0.1,0.8-0.4,0.8-0.9c0-0.3-0.1-0.4-0.3-0.5c-0.1-0.1-0.3-0.2-0.3-0.5
			s0.2-0.5,0.5-0.5c0.5,0,0.8,0.7,0.8,1c0,1.2-1.3,1.6-1.5,1.6C275.6,29.5,275.5,29.5,275.5,29.4z"/>
		<path fill="#898981" d="M278.8,28.2c-0.1,0-0.1,0-0.1-0.1l0.8-1.9c0.3-0.7,0.6-1.4,0.6-1.6c0-0.1,0-0.2-0.1-0.2
			c-0.1,0-0.8,0.6-0.9,0.7c0,0-0.1,0-0.1,0l-0.1-0.1c0,0,0-0.1,0-0.1c0.2-0.3,1.1-1.2,1.7-1.2c0.1,0,0.3,0.1,0.3,0.3
			c0,0.3-0.6,1.6-0.7,1.9l0.1,0c0.5-0.7,1.6-2.2,2.5-2.2c0.3,0,0.5,0.3,0.5,0.5c0,0.4-0.4,1.4-0.6,1.8l0.1,0
			c0.6-0.9,1.5-2.3,2.4-2.3c0.3,0,0.5,0.3,0.5,0.5c0,0.4-0.2,0.8-0.6,1.9c-0.2,0.6-0.4,1-0.4,1.2c0,0.1,0,0.1,0.1,0.1
			c0.2,0,0.8-0.7,0.8-0.8c0-0.1,0.1,0,0.1,0l0.1,0.1c0,0,0,0.1,0,0.1c0,0.1-1.1,1.3-1.8,1.3c-0.1,0-0.2-0.1-0.2-0.3
			c0-0.3,0.3-1,0.7-2c0.3-0.7,0.5-1.2,0.5-1.5c0-0.1-0.1-0.2-0.2-0.2c-0.4,0-1.4,1.2-2,2.1c-0.1,0.1-0.3,0.4-0.4,0.7l-0.4,0.9
			c0,0.1-0.1,0.1-0.1,0.1h-0.4c-0.1,0-0.1,0-0.1-0.1l0.7-1.7c0.3-0.7,0.6-1.5,0.6-1.8c0-0.1-0.1-0.2-0.2-0.2c-0.4,0-1.4,1.1-2,1.9
			c-0.2,0.2-0.4,0.5-0.5,0.9l-0.4,0.9c0,0.1-0.1,0.1-0.2,0.1H278.8z"/>
		<path fill="#898981" d="M293.9,15.5c0.6,0.8,0.9,1.7,0.9,2.8c0,1.2-0.4,2.2-1.2,3c-0.8,0.8-1.8,1.2-2.9,1.2c-1.2,0-2.2-0.4-3-1.2
			c-0.8-0.8-1.2-1.8-1.2-3c0-1.3,0.4-2.3,1.3-3.1c0.8-0.7,1.8-1.1,3-1.1c0.5,0,1,0.1,1.5,0.3h4.2c0.1,0,0.1,0,0.1,0c0,0,0,0.1,0,0.1
			l-0.5,0.9c0,0,0,0.1,0,0.1c0,0,0,0-0.1,0H293.9z M292.7,20.7c0.2-0.4,0.4-0.7,0.5-1.2s0.2-0.9,0.2-1.3s-0.1-0.9-0.2-1.3
			c-0.1-0.4-0.3-0.8-0.5-1.2c-0.5-0.8-1.2-1.2-2-1.2c-0.9,0-1.6,0.4-2.1,1.2c-0.4,0.7-0.6,1.5-0.6,2.5c0,1.6,0.5,2.7,1.5,3.3
			c0.3,0.2,0.7,0.3,1.2,0.3s0.8-0.1,1.2-0.3C292.2,21.3,292.4,21,292.7,20.7z"/>
		<path fill="#898981" d="M299.2,24l-0.8,3.7c0,0.1,0,0.1,0.1,0.1c0.1,0,0.4-0.2,0.7-0.5c0,0,0.1-0.1,0.1-0.1l0.1,0.1
			c-0.1,0.1-0.2,0.3-0.4,0.4c-0.2,0.2-0.4,0.3-0.5,0.4c-0.2,0.1-0.4,0.2-0.5,0.2c-0.1,0-0.2,0-0.3-0.1c-0.1-0.1-0.1-0.2-0.1-0.2
			c0-0.1,0-0.2,0-0.3l0.7-3.5v0c0-0.1,0-0.1-0.1-0.1c-0.1,0-0.4,0.2-0.7,0.5c-0.1,0.1-0.1,0.1-0.1,0.1l-0.1-0.1
			c0.1-0.1,0.3-0.3,0.6-0.6c0.4-0.3,0.6-0.4,0.8-0.4c0.2,0,0.3,0,0.3,0.1C299.2,23.8,299.2,23.9,299.2,24z M299,22.2
			c0-0.1-0.1-0.1-0.1-0.2s0-0.1,0-0.2s0-0.1,0-0.2s0.1-0.2,0.1-0.3c0.1-0.2,0.2-0.3,0.4-0.3c0.2,0,0.3,0.1,0.3,0.3c0,0,0,0.1,0,0.2
			s0,0.1,0,0.2c0,0.1-0.1,0.2-0.1,0.3c-0.1,0.2-0.3,0.3-0.4,0.3C299.1,22.3,299.1,22.3,299,22.2z"/>
		<path fill="#898981" d="M278.1,43.5c0.6,0.8,0.9,1.7,0.9,2.8c0,1.2-0.4,2.2-1.2,3c-0.8,0.8-1.8,1.2-2.9,1.2c-1.2,0-2.2-0.4-3-1.2
			c-0.8-0.8-1.2-1.8-1.2-3c0-1.3,0.4-2.3,1.3-3.1c0.8-0.7,1.8-1.1,3-1.1c0.5,0,1,0.1,1.5,0.3h4.2c0.1,0,0.1,0,0.1,0c0,0,0,0.1,0,0.1
			l-0.5,0.9c0,0,0,0.1,0,0.1c0,0,0,0-0.1,0H278.1z M276.8,48.7c0.2-0.4,0.4-0.7,0.5-1.2s0.2-0.9,0.2-1.3s-0.1-0.9-0.2-1.3
			c-0.1-0.4-0.3-0.8-0.5-1.2c-0.5-0.8-1.2-1.2-2-1.2c-0.9,0-1.6,0.4-2.1,1.2c-0.4,0.7-0.6,1.5-0.6,2.5c0,1.6,0.5,2.7,1.5,3.3
			c0.3,0.2,0.7,0.3,1.2,0.3s0.8-0.1,1.2-0.3C276.3,49.3,276.6,49,276.8,48.7z"/>
		<path fill="#898981" d="M284.1,43.5c0.7,0,1-0.4,1.2-0.8c0-0.1,0.1-0.1,0.1-0.1l0.2,0.1c0,0,0,0.1,0,0.1c-0.3,0.4-0.7,1.4-0.7,1.5
			c0,0.1-0.1,0.1-0.1,0.1c-0.1,0-0.1,0-0.2-0.1c-0.1-0.1-0.3-0.1-0.5-0.1h-2.4c-0.1,0-0.2,0-0.3,0c-0.1,0-0.2,0-0.3,0
			c-0.1,0-0.1,0-0.1-0.1c0,0,0-0.1,0.1-0.2c1.4-1.1,4.2-3,4.2-4.6c0-0.4-0.1-1.2-1-1.2c-0.9,0-1.3,0.9-1.5,1.2
			c-0.1,0.1-0.1,0.1-0.1,0.1l-0.2-0.1c0,0,0-0.1,0-0.1c0.2-0.6,1-1.7,2.2-1.7c0.9,0,1.5,0.7,1.5,1.6c0,1.8-2.7,3.6-4,4.5v0H284.1z"
			/>
		<path fill="#898981" d="M286.9,56.2c-0.1,0-0.1,0-0.1-0.1l0.8-1.9c0.3-0.7,0.6-1.4,0.6-1.6c0-0.1,0-0.2-0.1-0.2
			c-0.1,0-0.8,0.6-0.9,0.7c0,0-0.1,0-0.1,0l-0.1-0.1c0,0,0-0.1,0-0.1c0.2-0.3,1.1-1.2,1.7-1.2c0.1,0,0.3,0.1,0.3,0.3
			c0,0.3-0.6,1.6-0.7,1.9l0.1,0c0.5-0.7,1.6-2.2,2.5-2.2c0.3,0,0.5,0.3,0.5,0.5c0,0.4-0.4,1.4-0.6,1.8l0.1,0
			c0.6-0.9,1.5-2.3,2.4-2.3c0.3,0,0.5,0.3,0.5,0.5c0,0.4-0.2,0.8-0.6,1.9c-0.2,0.6-0.4,1-0.4,1.2c0,0.1,0,0.1,0.1,0.1
			c0.2,0,0.8-0.7,0.8-0.8c0-0.1,0.1,0,0.1,0l0.1,0.1c0,0,0,0.1,0,0.1c0,0.1-1.1,1.3-1.8,1.3c-0.1,0-0.2-0.1-0.2-0.3
			c0-0.3,0.3-1,0.7-2c0.3-0.7,0.5-1.2,0.5-1.5c0-0.1-0.1-0.2-0.2-0.2c-0.4,0-1.4,1.2-2,2.1c-0.1,0.1-0.3,0.4-0.4,0.7l-0.4,0.9
			c0,0.1-0.1,0.1-0.1,0.1h-0.4c-0.1,0-0.1,0-0.1-0.1l0.7-1.7c0.3-0.7,0.6-1.5,0.6-1.8c0-0.1-0.1-0.2-0.2-0.2c-0.4,0-1.4,1.1-2,1.9
			c-0.2,0.2-0.4,0.5-0.5,0.9l-0.4,0.9c0,0.1-0.1,0.1-0.2,0.1H286.9z"/>
	</g>
	<g>
		<rect x="45" y="31" fill="#898981" width="82" height="1"/>
	</g>
	<g>
		<rect x="160" y="31" fill="#898981" width="64" height="1"/>
	</g>
	<g>
		<rect x="255" y="31" fill="#898981" width="49" height="1"/>
	</g>
</g>
</svg>
