<?xml version="1.0" encoding="utf-8"?>
<!-- Generator: Adobe Illustrator 18.1.1, SVG Export Plug-In . SVG Version: 6.00 Build 0)  -->
<!DOCTYPE svg PUBLIC "-//W3C//DTD SVG 1.1//EN" "http://www.w3.org/Graphics/SVG/1.1/DTD/svg11.dtd">
<svg version="1.1" id="Breaks" xmlns="http://www.w3.org/2000/svg" xmlns:xlink="http://www.w3.org/1999/xlink" x="0px" y="0px"
	 viewBox="0 0 121.5 66.4" enable-background="new 0 0 121.5 66.4" xml:space="preserve">
<g>
	<g>
		<path fill="#898981" d="M60.3,12.1C60.2,12.1,60.2,12.1,60.3,12.1l0.4-1.5c0.2-0.5,0.4-1.1,0.4-1.2c0-0.1,0-0.1-0.1-0.1
			c-0.1,0-0.5,0.4-0.6,0.5c0,0,0,0-0.1,0l-0.1-0.1c0,0,0,0,0-0.1c0.1-0.1,0.7-0.8,1.2-0.8c0.2,0,0.3,0.1,0.3,0.2
			c0,0.2-0.3,1-0.4,1.2l0,0c0.2-0.4,1.1-1.4,1.8-1.5c0.2,0,0.4,0.1,0.4,0.3c0,0.3-0.2,0.8-0.4,1.4c-0.2,0.5-0.4,1-0.4,1.1
			c0,0,0,0.1,0.1,0.1c0.1,0,0.5-0.3,0.6-0.4c0,0,0.1,0,0.1,0l0.1,0.1c0,0,0,0,0,0.1c-0.1,0.1-0.7,0.7-1.2,0.7c-0.1,0-0.2,0-0.2-0.2
			c0-0.1,0.3-0.8,0.5-1.5c0.1-0.3,0.4-1,0.4-1.1c0-0.1-0.1-0.2-0.2-0.2c-0.3,0-1.1,0.7-1.4,1.3c-0.1,0.2-0.3,0.4-0.5,1l-0.2,0.5
			c0,0,0,0-0.1,0L60.3,12.1z"/>
	</g>
	<g>
		<path fill="#898981" d="M54.5,42.9c0-0.2,0.1-0.5,0.4-1.4l0.2-0.6c0.1-0.2,0.1-0.4,0.1-0.5c0-0.1,0-0.1-0.1-0.1
			c-0.1,0-0.5,0.4-0.6,0.6c0,0-0.1,0-0.1,0l-0.1-0.1c0,0,0,0,0-0.1c0,0,0.8-1,1.3-1c0.1,0,0.2,0.1,0.2,0.2c0,0.1-0.1,0.5-0.3,0.9
			L55.2,42c-0.1,0.3-0.1,0.5-0.1,0.5c0,0.1,0,0.1,0.1,0.1c0.2,0,0.6-0.5,0.6-0.6c0,0,0,0,0.1,0l0.1,0.1c0,0,0,0.1,0,0.1
			c0,0.1-0.7,0.8-1.3,0.8C54.5,43.1,54.5,43,54.5,42.9z M55.4,38.3c0-0.2,0.2-0.4,0.4-0.4c0.3,0,0.4,0.2,0.4,0.4
			c0,0.1-0.1,0.4-0.4,0.4C55.5,38.7,55.4,38.4,55.4,38.3z"/>
		<path fill="#898981" d="M56.7,41C56.7,40.9,56.8,40.9,56.7,41l2.6-0.1c0,0,0.1,0,0.1,0.1l0,0.3c0,0.1,0,0.1-0.1,0.1l-2.5,0
			c0,0-0.1,0-0.1-0.1L56.7,41z"/>
		<path fill="#898981" d="M60.1,42.8C60.1,42.8,60.1,42.8,60.1,42.8l0.5-0.1c0.3,0,0.4,0,0.6-0.4c0-0.1,0.2-0.6,0.4-1.1l0.4-1.5
			c0.1-0.5,0.2-0.7,0.2-0.8c0-0.1,0-0.1-0.1-0.1c-0.1,0-0.2,0.1-0.5,0.2l-0.4,0.2c0,0-0.1,0-0.1,0L61,39.1c0,0,0-0.1,0.1-0.1l1.7-1
			c0.1-0.1,0.2-0.1,0.2-0.1c0,0,0.1,0,0.1,0.1c0,0,0,0.1-0.1,0.2c0,0.1-0.4,1-0.6,1.8l-0.4,1.4c-0.1,0.4-0.2,0.8-0.3,0.9
			c-0.1,0.3,0,0.4,0.3,0.4l0.4,0c0,0,0.1,0,0,0.1l0,0.2c0,0,0,0-0.1,0c-0.1,0-1.2,0-1.3,0c-0.1,0-1.1,0-1.2,0c0,0,0,0,0-0.1
			L60.1,42.8z"/>
	</g>
	<g>
		<path fill="#898981" d="M5.6,40.1c0-0.3,0.2-0.6,0.6-0.6c0.4,0,0.7,0.3,0.8,0.6c0.1,0.3,0.2,0.5,0.7,0.5c0.6,0,1.1-0.5,1-1.2
			c0-0.8-0.6-1.6-0.9-2.2c-0.1-0.3-0.6-1-0.6-1.9c0-1.1,1-2.3,2.4-2.4c0.6,0,1.4,0.2,1.4,0.9c0,0.3-0.3,0.6-0.6,0.6
			c-0.2,0-0.5-0.1-0.7-0.4c-0.1-0.2-0.1-0.5-0.5-0.5c-0.4,0-0.9,0.5-0.9,1.2c0,0.7,0.6,1.5,0.7,1.8c0.1,0.2,0.7,1.1,0.8,2.2
			c0,1.5-1.2,2.4-2.5,2.4C6.3,41.2,5.6,40.8,5.6,40.1z"/>
		<path fill="#898981" d="M24.6,34.3l0,1l-7.4,0.1l0-1L24.6,34.3z M24.7,37.2l0,1l-7.4,0.1l0-1L24.7,37.2z"/>
	</g>
	<g>
		<polygon fill="#898981" points="40.2,60 36.3,40.4 35,40.4 35,39.4 37.1,39.4 40.2,54.9 49.8,6.4 116,6.4 116,7.4 50.6,7.4 		"/>
	</g>
	<g>
		<path fill="#898981" d="M66.3,16.2c-0.1,0.4-0.2,2-0.3,3.3l-0.5,0.1c-0.1-1-0.2-1.6-0.5-2c-0.3-0.4-0.9-0.6-2.5-0.6h-3.7l3.5,6.9
			l-6.3,7.2h5.9c1.5,0,2.2-0.4,3.2-2.4l0.5,0.2L64,32.6H53.8l0.1-0.6l6.7-7.6l-3.9-7.6l0.1-0.6H66.3z"/>
	</g>
	<g>
		<path fill="#898981" d="M76.7,17.1c0.2-0.1,0.2-0.1,0.4,0.1c0.1,0.2,0.1,0.3-0.1,0.4c-3.2,2.7-5.5,7.4-5.4,12.3
			c0,2.9,0.3,3.8,0.5,4.4c0,0.2,0,0.2-0.2,0.3c-0.2,0.1-0.3,0.1-0.4-0.1c-0.4-0.8-1-3.1-1-5.1C70.4,24.7,72.8,20.2,76.7,17.1z"/>
		<path fill="#898981" d="M79.1,24.7c-0.1-0.2-0.2-0.3-0.3-0.3c-0.4,0-0.8,0.7-1.2,1.4c0,0.1-0.1,0.1-0.2,0.1l-0.3-0.1
			c-0.1,0-0.1-0.1,0-0.2c0.1-0.2,1.2-2.6,2.2-2.6c0.4,0,0.6,0.2,0.9,1l0.7,2.2c0.8-1.1,1.5-2,1.9-2.5c0.3-0.3,0.7-0.8,1.3-0.8
			c0.3,0,0.6,0.3,0.6,0.6c0,0.6-0.2,1.6-0.5,2.3c0,0.1-0.1,0.1-0.2,0.1l-0.2-0.1c-0.1,0-0.2-0.1-0.1-0.1c0.3-1,0.3-1.5-0.1-1.5
			c-0.4,0-1.5,1.4-2.5,2.7l0.9,2.5c0.1,0.3,0.3,0.5,0.5,0.5c0.5,0,1.1-1.1,1.2-1.3c0-0.1,0.1-0.1,0.2,0l0.2,0.1
			c0.1,0,0.1,0.1,0.1,0.2C84,29.2,83,31,81.9,31c-0.4,0-0.7-0.3-0.9-0.8l-0.8-2.6c-1.2,1.6-2.4,3.4-3.2,3.4c-0.5,0-0.7-0.2-0.7-0.7
			c0-0.4,0.2-1.5,0.4-2c0-0.1,0.1-0.1,0.2-0.1l0.3,0.1c0.1,0,0.1,0.1,0.1,0.2c-0.4,1.2,0,1.4,0.2,1.4c0.4,0,1.8-1.7,2.7-2.9
			L79.1,24.7z"/>
		<path fill="#898981" d="M86.1,25.9c0-0.1,0-0.2,0.1-0.2l6.1-0.1c0.1,0,0.2,0,0.2,0.1l0,0.6c0,0.2-0.1,0.2-0.2,0.2l-6.1,0.1
			c-0.1,0-0.2,0-0.2-0.1L86.1,25.9z"/>
		<path fill="#898981" d="M96.7,24.7c-0.1-0.2-0.2-0.3-0.3-0.3c-0.4,0-0.8,0.7-1.2,1.4c0,0.1-0.1,0.1-0.2,0.1l-0.3-0.1
			c-0.1,0-0.1-0.1,0-0.2c0.1-0.2,1.2-2.6,2.2-2.6c0.4,0,0.6,0.2,0.9,1l0.7,2.2c0.8-1.1,1.5-2,1.9-2.5c0.3-0.3,0.7-0.8,1.3-0.8
			c0.3,0,0.6,0.3,0.6,0.6c0,0.6-0.2,1.6-0.5,2.3c0,0.1-0.1,0.1-0.2,0.1l-0.2-0.1c-0.1,0-0.2-0.1-0.1-0.1c0.3-1,0.3-1.5-0.1-1.5
			c-0.4,0-1.5,1.4-2.5,2.7l0.9,2.5c0.1,0.3,0.3,0.5,0.5,0.5c0.5,0,1.1-1.1,1.2-1.3c0-0.1,0.1-0.1,0.2,0l0.2,0.1
			c0.1,0,0.1,0.1,0.1,0.2c-0.2,0.4-1.2,2.2-2.3,2.2c-0.4,0-0.7-0.3-0.9-0.8l-0.8-2.6c-1.2,1.6-2.4,3.4-3.2,3.4
			c-0.5,0-0.7-0.2-0.7-0.7c0-0.4,0.2-1.5,0.4-2c0-0.1,0.1-0.1,0.2-0.1l0.3,0.1c0.1,0,0.1,0.1,0.1,0.2c-0.4,1.2,0,1.4,0.2,1.4
			c0.4,0,1.8-1.7,2.7-2.9L96.7,24.7z"/>
		<path fill="#898981" d="M102.1,34.8c-0.2,0.1-0.2,0.1-0.4-0.1c-0.1-0.2-0.1-0.3,0.1-0.4c3.2-2.7,5.5-7.4,5.4-12.3
			c0-2.9-0.3-3.8-0.5-4.4c0-0.2,0-0.2,0.2-0.3c0.2-0.1,0.3-0.1,0.4,0.1c0.4,0.8,1,3.1,1,5.1C108.5,27.2,106,31.7,102.1,34.8z"/>
		<path fill="#898981" d="M112.5,23.8c0.7,0,1-0.4,1.3-0.9c0-0.1,0.1-0.1,0.1-0.1l0.2,0.1c0,0,0,0.1,0,0.1c-0.3,0.4-0.7,1.5-0.7,1.6
			c0,0.1-0.1,0.1-0.1,0.1c-0.1,0-0.1,0-0.2-0.1c-0.1-0.1-0.3-0.1-0.5-0.1l-2.5,0c-0.1,0-0.2,0-0.4,0c-0.1,0-0.2,0-0.3,0
			c-0.1,0-0.1,0-0.1-0.1c0,0,0-0.1,0.2-0.2c1.4-1.2,4.4-3.2,4.3-5c0-0.4-0.1-1.3-1.1-1.3c-0.9,0-1.3,0.9-1.5,1.3
			c-0.1,0.1-0.1,0.1-0.1,0.1l-0.2-0.1c0,0,0-0.1,0-0.2c0.2-0.6,1-1.8,2.3-1.8c1,0,1.6,0.7,1.6,1.6c0,1.9-2.8,3.9-4.1,4.8v0
			L112.5,23.8z"/>
	</g>
	<g>
		<path fill="#898981" d="M67.2,60C67,60,67,60,67,59.8l1.3-3.5c0.4-1.2,0.9-2.6,0.9-2.9c0-0.2-0.1-0.3-0.3-0.3
			c-0.4,0-1.3,0.9-1.6,1.3c-0.1,0.1-0.1,0.1-0.2,0L67,54.2c-0.1-0.1-0.1-0.1,0-0.2c0.3-0.3,1.7-1.9,3-2c0.4,0,0.6,0.3,0.6,0.6
			c0,0.6-0.8,2.4-0.9,2.8l0.1,0c0.6-0.9,2.6-3.5,4.3-3.5c0.6,0,1,0.3,1,0.8c0,0.8-0.4,1.8-1,3.4c-0.5,1.3-0.9,2.3-0.9,2.6
			c0,0.1,0.1,0.2,0.2,0.2c0.3,0,1.1-0.7,1.4-1c0.1-0.1,0.2,0,0.2,0l0.1,0.1c0.1,0.1,0.1,0.1,0,0.2c-0.2,0.3-1.7,1.7-3,1.7
			c-0.2,0-0.5-0.1-0.5-0.4c0-0.4,0.7-1.9,1.2-3.5c0.3-0.7,0.9-2.3,0.9-2.8c0-0.3-0.1-0.4-0.5-0.4c-0.7,0-2.6,1.8-3.4,3.2
			c-0.3,0.6-0.6,1.1-1.1,2.4l-0.5,1.3c0,0.1-0.1,0.1-0.3,0.1L67.2,60z"/>
		<path fill="#898981" d="M77.1,55c0-0.1,0-0.2,0.1-0.2l6.1-0.1c0.1,0,0.2,0,0.2,0.1l0,0.6c0,0.2-0.1,0.2-0.2,0.2l-6.1,0.1
			c-0.1,0-0.2,0-0.2-0.1L77.1,55z"/>
		<path fill="#898981" d="M85.2,59.5c0-0.1,0.1-0.1,0.2-0.1l1,0c0.7,0,1.1-0.1,1.5-1c0.1-0.2,0.5-1.3,0.9-2.7l1-3.5
			c0.3-1.1,0.5-1.7,0.5-1.9c0-0.2-0.1-0.4-0.3-0.4c-0.2,0-0.6,0.2-1.2,0.4l-1,0.5c-0.1,0.1-0.2,0-0.3-0.1l-0.2-0.3
			c0-0.1,0-0.2,0.1-0.2l4.2-2.3c0.3-0.1,0.4-0.2,0.6-0.2c0.1,0,0.2,0.1,0.2,0.2c0,0.1,0,0.2-0.1,0.5c-0.1,0.2-0.8,2.5-1.4,4.4
			l-1,3.3c-0.3,0.9-0.6,1.9-0.7,2.3c-0.2,0.7-0.1,0.9,0.8,0.9l1,0c0.1,0,0.1,0.1,0.1,0.2l-0.1,0.4c0,0.1,0,0.1-0.2,0.1
			c-0.2,0-2.9,0-3.1,0c-0.3,0-2.7,0.1-2.8,0.1c-0.1,0-0.1-0.1-0.1-0.1L85.2,59.5z"/>
	</g>
	<g>
		<rect x="51" y="45.4" fill="#898981" width="65" height="1"/>
	</g>
</g>
</svg>
