<?xml version="1.0" encoding="utf-8"?>
<!-- Generator: Adobe Illustrator 18.1.1, SVG Export Plug-In . SVG Version: 6.00 Build 0)  -->
<!DOCTYPE svg PUBLIC "-//W3C//DTD SVG 1.1//EN" "http://www.w3.org/Graphics/SVG/1.1/DTD/svg11.dtd">
<svg version="1.1" id="Breaks" xmlns="http://www.w3.org/2000/svg" xmlns:xlink="http://www.w3.org/1999/xlink" x="0px" y="0px"
	 viewBox="0 0 172.8 58.5" enable-background="new 0 0 172.8 58.5" xml:space="preserve">
<g>
	<g>
		<rect x="111.8" y="29.5" fill="#898981" width="52" height="1"/>
	</g>
	<g>
		<path fill="#898981" d="M8.8,30.5c0-0.1,0.1-0.1,0.2-0.1l0.2,0.1c0.1,0,0.2,0.1,0.1,0.2c-0.7,2.8,1,4.1,2.2,4.1
			c1.2,0,2.2-1,2.2-2.2c0-1.3-0.9-2-1.8-2.9c-1.2-1.3-2.1-2.3-2.1-4c0-1.4,1.1-3.3,3.2-3.3c1,0,1.9,0.6,2.2,0.9
			c0.1,0.1,0.2,0.1,0.3,0.1c0.2,0,0.2-0.3,0.3-0.7c0-0.1,0.1-0.1,0.2-0.1l0.2,0c0.1,0,0.2,0.1,0.1,0.1l-0.7,3.6
			c0,0.1-0.1,0.1-0.2,0.1l-0.3,0c-0.1,0-0.2-0.1-0.2-0.2c0.1-0.8-0.1-3.2-2.1-3.2c-1.2,0-1.9,1-1.9,2.1c0,1.4,0.8,2,1.7,2.9
			c0.9,0.9,2.1,1.9,2.1,3.9c0,2.5-1.8,3.7-3.4,3.7c-1.2,0-2-0.7-2.8-1.4c-0.2-0.2-0.3-0.1-0.4,0c-0.1,0.2-0.3,0.4-0.4,0.7
			C7.9,35,7.9,35,7.8,35l-0.2-0.1c-0.1,0-0.1-0.1-0.1-0.2L8.8,30.5z"/>
		<path fill="#898981" d="M16.5,35.3c-0.1,0-0.2-0.1-0.1-0.1l4.3-10.7c0.2-0.6,0.2-0.8,0.2-0.9c0-0.2-0.3-0.4-0.6-0.4h-0.6
			c-0.1,0-0.2-0.1-0.2-0.2l0.1-0.3c0-0.1,0.1-0.2,0.2-0.2h2.6c0.2,0,0.2,0.1,0.2,0.2c0,0.1-0.1,0.3-0.2,0.6l-3,7l0.1,0.1
			c0.9-1.3,2.2-2.9,3.8-2.9c0.9,0,1.3,0.7,1.3,1.6c0,1.5-0.6,3.2-1.3,4.4c-0.8,1.4-1.8,2.5-2.8,2.5c-0.5,0-1-0.4-1-0.8
			c0-0.4,0.3-0.9,0.7-0.9c0.4,0,0.6,0.3,0.7,0.6c0,0.2,0.1,0.4,0.3,0.4c0.4,0,1-1.2,1.4-2.2c0.4-1.1,0.8-2.5,0.8-3.4
			c0-0.5,0-1.1-0.6-1.1c-1,0-2.7,2-3.2,2.6c-0.5,0.6-0.9,1.3-1.3,2.2l-0.8,1.9c0,0.1-0.1,0.1-0.3,0.1H16.5z"/>
		<path fill="#898981" d="M33.4,27.4c0.1,0,0.1,0.1,0.1,0.2c-0.4,0.8-1.3,3.4-1.4,3.7c-0.1,0.3-0.9,2.7-0.9,2.8
			c0,0.2,0.1,0.2,0.2,0.2c0.2,0,1.2-1,1.3-1.2c0.1-0.1,0.1-0.1,0.2,0l0.2,0.2c0.1,0.1,0.1,0.1,0,0.2c-0.2,0.4-1.9,2-2.9,2
			c-0.2,0-0.4-0.1-0.4-0.3c0-0.3,0.2-0.9,0.9-2.9l-0.1,0c-0.8,1.2-2.7,3.2-4.1,3.2c-0.4,0-1-0.4-1-1.2c0-2.8,3.1-6.9,5.4-6.9
			c0.8,0,1.2,0.3,1.3,0.6l0.4-0.5c0.1-0.1,0.1-0.1,0.2-0.1H33.4z M31,30.7c0.3-0.5,0.5-1,0.5-1.6c0-0.5-0.2-1.1-0.9-1.1
			c-1.7,0-3.8,4-3.8,5.8c0,0.4,0.2,0.7,0.5,0.7C28.2,34.5,30.7,31.4,31,30.7z"/>
		<path fill="#898981" d="M34.7,35.3c-0.1,0-0.2-0.1-0.2-0.2l1.1-3.1c0.3-1.1,0.9-3.1,0.9-3.3c0-0.2-0.2-0.3-0.3-0.3
			c-0.4,0-1.2,0.9-1.5,1.2c0,0.1-0.1,0-0.2,0l-0.2-0.2c0,0,0-0.1,0-0.2c0.4-0.6,1.5-1.9,2.8-1.9c0.4,0,0.5,0.3,0.5,0.7
			c0,0.4-0.3,1.4-0.7,2.7l0.1,0c0.5-1.1,2-3.4,3.1-3.4c0.5,0,0.9,0.3,0.9,0.9c0,0.5-0.4,0.9-0.7,0.9c-0.2,0-0.3,0-0.5-0.2
			c-0.2-0.2-0.2-0.2-0.5-0.2c-0.5,0-1.6,1.6-2.3,2.9c-0.2,0.4-0.5,0.8-0.7,1.6l-0.6,1.9c0,0.1-0.1,0.1-0.2,0.1H34.7z"/>
		<path fill="#898981" d="M45,26c0.1-0.2,0.1-0.2,0.2-0.3l1.2-0.4c0,0,0.1,0,0.1,0c0,0,0.1,0,0.1,0.1c0,0,0,0.1,0,0.2l-0.9,2
			c0.1,0,0.2,0,0.4,0c0.1,0,0.3,0,0.4,0c1.8,0,2.6,1.3,2.6,2.5c0,1.3-0.6,2.7-2.3,3.9c-0.8,0.6-2.4,1.3-3.9,1.4l-1.3,3.8
			c-0.3,1-0.2,1.3,0.6,1.3h0.5c0.1,0,0.2,0.1,0.1,0.2l-0.1,0.4c0,0.1-0.1,0.1-0.2,0.1c-0.2,0-0.8-0.1-2-0.1c-1.3,0-1.8,0.1-2,0.1
			c-0.1,0-0.2,0-0.1-0.1l0.1-0.4c0-0.1,0-0.2,0.1-0.2H39c0.7,0,1-0.4,1.4-1.5l3.7-10.2c-0.9,0.3-2,1.2-2.3,1.7
			c-0.1,0.1-0.1,0.1-0.2,0l-0.2-0.2c-0.1-0.1-0.1-0.1,0-0.2c0.7-0.8,1.6-1.7,3-2.2L45,26z M43.1,34.7c2.3-0.4,4.6-2,4.6-4.4
			c0-1.5-0.9-2.2-1.7-2.2c-0.3,0-0.5,0-0.6,0.1L43.1,34.7z"/>
		<path fill="#898981" d="M49.9,33.6c0-1.6,1-3.6,2.4-4.9c0.6-0.6,1.6-1.3,2.5-1.3c0.7,0,1.1,0.5,1.1,1c0,0.9-0.7,1.9-1.8,2.5
			c-1,0.5-2,0.7-2.7,0.8c-0.1,0.2-0.2,0.9-0.2,1.7c0,0.9,0.6,1.2,1,1.2c0.9,0,1.8-0.7,2.2-1.3c0-0.1,0.1-0.1,0.2,0l0.2,0.2
			c0.1,0.1,0.1,0.1,0,0.2c-0.5,0.7-1.6,1.9-3.1,1.9C50.4,35.5,49.9,34.9,49.9,33.6z M51.6,31.1c0.7,0.1,3.1-0.7,3.1-2.1
			c0-0.4-0.2-0.7-0.6-0.7C52.9,28.3,51.7,30.4,51.6,31.1z"/>
		<path fill="#898981" d="M61.3,35.3c-0.1,0-0.2-0.1-0.2-0.2l1.1-3.1c0.3-1.1,0.9-3.1,0.9-3.3c0-0.2-0.2-0.3-0.3-0.3
			c-0.4,0-1.2,0.9-1.5,1.2c0,0.1-0.1,0-0.2,0L61,29.4c0,0,0-0.1,0-0.2c0.4-0.6,1.5-1.9,2.8-1.9c0.4,0,0.5,0.3,0.5,0.7
			c0,0.4-0.3,1.4-0.7,2.7l0.1,0c0.5-1.1,2-3.4,3.1-3.4c0.5,0,0.9,0.3,0.9,0.9c0,0.5-0.4,0.9-0.7,0.9c-0.2,0-0.3,0-0.5-0.2
			c-0.2-0.2-0.2-0.2-0.5-0.2c-0.5,0-1.6,1.6-2.3,2.9c-0.2,0.4-0.5,0.8-0.7,1.6l-0.6,1.9c0,0.1-0.1,0.1-0.2,0.1H61.3z"/>
		<path fill="#898981" d="M75,27.4c0.1,0,0.1,0.1,0.1,0.2c-0.4,0.8-1.3,3.4-1.4,3.7c-0.1,0.3-0.9,2.7-0.9,2.8c0,0.2,0.1,0.2,0.2,0.2
			c0.2,0,1.2-1,1.3-1.2c0.1-0.1,0.1-0.1,0.2,0l0.2,0.2c0.1,0.1,0.1,0.1,0,0.2c-0.2,0.4-1.9,2-2.9,2c-0.2,0-0.4-0.1-0.4-0.3
			c0-0.3,0.2-0.9,0.9-2.9l-0.1,0c-0.8,1.2-2.7,3.2-4.1,3.2c-0.4,0-1-0.4-1-1.2c0-2.8,3.1-6.9,5.4-6.9c0.8,0,1.2,0.3,1.3,0.6l0.4-0.5
			c0.1-0.1,0.1-0.1,0.2-0.1H75z M72.6,30.7c0.3-0.5,0.5-1,0.5-1.6c0-0.5-0.2-1.1-0.9-1.1c-1.7,0-3.8,4-3.8,5.8
			c0,0.4,0.2,0.7,0.5,0.7C69.9,34.5,72.3,31.4,72.6,30.7z"/>
		<path fill="#898981" d="M78.4,28.6h-1.3c-0.1,0-0.2,0-0.1-0.2l0.2-0.4c0-0.1,0.1-0.1,0.2-0.1h1.4l1-2.2c0.1-0.2,0.2-0.2,0.3-0.3
			c0.2-0.1,0.7-0.2,0.9-0.3C81,25.1,81,25,81.1,25c0.1,0,0.2,0.1,0,0.4l-1.3,2.5h1.9c0.1,0,0.1,0.1,0.1,0.2l-0.2,0.4
			c0,0.1-0.1,0.1-0.2,0.1h-1.9l-1.8,4.3c-0.2,0.5-0.4,1-0.4,1.2s0.1,0.3,0.2,0.3c0.5,0,1.8-1.1,1.9-1.2c0.1-0.1,0.1-0.1,0.2,0
			l0.2,0.2c0.1,0.1,0.1,0.1,0,0.2c-0.2,0.3-2,1.9-3.5,1.9c-0.5,0-0.6-0.2-0.6-0.5c0-0.3,0.1-0.6,0.2-0.9L78.4,28.6z"/>
		<path fill="#898981" d="M82.4,35c0-0.4,0.3-1.3,1.1-3.4l0.5-1.5c0.2-0.5,0.3-0.9,0.3-1.1c0-0.2-0.1-0.2-0.3-0.2
			c-0.3,0-1.2,1-1.5,1.3c-0.1,0.1-0.2,0.1-0.2,0l-0.2-0.2c-0.1-0.1-0.1-0.1-0.1-0.2c0.1-0.1,2-2.4,3.2-2.3c0.2,0,0.5,0.2,0.5,0.5
			c0,0.3-0.3,1.2-0.6,2.1l-1.1,2.9c-0.3,0.7-0.3,1.1-0.3,1.3c0,0.2,0.1,0.3,0.2,0.3c0.4-0.1,1.4-1.2,1.5-1.3c0-0.1,0.1-0.1,0.2,0
			l0.2,0.1c0.1,0.1,0.1,0.1,0,0.2c-0.1,0.2-1.6,2-3.2,2C82.5,35.5,82.4,35.3,82.4,35z M84.8,24c0-0.5,0.4-0.9,1-0.9
			c0.7,0,1,0.5,1,0.9c0,0.3-0.2,0.9-1,0.9C84.9,24.9,84.8,24.2,84.8,24z"/>
		<path fill="#898981" d="M87.4,33c0-2.4,1.8-5.6,4.3-5.6c1.3,0,2,0.9,2,2.2c0,2.1-1.6,5.9-4.4,5.9C88.3,35.5,87.4,34.5,87.4,33z
			 M93,29.3c0-0.6-0.3-1.1-0.9-1.1c-0.8,0-1.8,0.7-2.7,2.3c-0.6,1-1.1,2.2-1.1,3.1c0,0.6,0.4,1,0.9,1C91,34.6,93,30.6,93,29.3z"/>
		<path fill="#898981" d="M107,28.7v1h-7.4v-1H107z M107,31.6v1h-7.4v-1H107z"/>
	</g>
	<g>
		<path fill="#898981" d="M118.5,6.3c0.2-0.6,0.1-0.9-0.5-0.9h-0.7c-0.2,0-0.2-0.1-0.2-0.2l0.1-0.4c0-0.1,0.1-0.2,0.2-0.2
			c2,0,3.9-0.1,4.2-0.1c1.4,0,4.3,0.1,4.3,2.7c0,1.9-2,3.4-4.3,3.7v0c0.5,0.2,0.7,0.7,0.9,1.1c0.1,0.2,1.4,2.9,1.7,3.4
			c0.5,0.8,0.9,1.1,1.7,1.1h0.5c0.1,0,0.2,0.1,0.1,0.2l-0.1,0.4c0,0.1-0.1,0.2-0.2,0.2c-0.2,0-0.5-0.1-1.4-0.1
			c-0.8,0-1.2,0.1-1.4,0.1c-0.2,0-0.2-0.2-0.5-0.6c-0.3-0.5-2-4.2-2.2-4.6c-0.5-1.1-1.6-1-2.3-1l-1.3,4.2c-0.3,1.1-0.1,1.4,0.7,1.4
			h0.8c0.1,0,0.2,0.1,0.1,0.2l-0.1,0.4c0,0.1-0.1,0.1-0.2,0.1c-0.2,0-1.1-0.1-2.7-0.1c-1.1,0-1.9,0.1-2.1,0.1
			c-0.1,0-0.1-0.1-0.1-0.2l0.1-0.4c0-0.1,0.1-0.2,0.2-0.2h0.4c0.7,0,1-0.4,1.2-0.9L118.5,6.3z M118.7,10.5c1,0,2.1,0.1,3.5-0.5
			c1.1-0.5,2-1.5,2-2.8c0-0.8-0.7-2.1-3-2.1c-0.3,0-0.5,0-0.8,0L118.7,10.5z"/>
		<path fill="#898981" d="M129.1,18.2c0-0.1,0.1-0.1,0.1-0.2l0.7-0.2c0,0,0.1,0,0.1,0c0,0,0,0,0,0s0,0.1,0,0.1l-0.5,1.1
			c0.1,0,0.1,0,0.2,0c0.1,0,0.2,0,0.2,0c1,0,1.5,0.8,1.5,1.5c0,0.8-0.3,1.6-1.3,2.3c-0.5,0.4-1.4,0.7-2.3,0.8l-0.8,2.2
			c-0.2,0.6-0.1,0.8,0.4,0.8h0.3c0.1,0,0.1,0.1,0.1,0.1l-0.1,0.2c0,0,0,0.1-0.1,0.1c-0.1,0-0.5,0-1.2,0c-0.8,0-1.1,0-1.2,0
			c-0.1,0-0.1,0-0.1-0.1l0.1-0.2c0,0,0-0.1,0.1-0.1h0.3c0.4,0,0.6-0.3,0.8-0.9l2.2-6c-0.5,0.2-1.1,0.7-1.4,1c0,0-0.1,0-0.1,0
			l-0.1-0.1c0,0,0-0.1,0-0.1c0.4-0.5,0.9-1,1.8-1.3L129.1,18.2z M128,23.3c1.3-0.2,2.7-1.2,2.7-2.5c0-0.9-0.5-1.3-1-1.3
			c-0.2,0-0.3,0-0.4,0L128,23.3z"/>
		<path fill="#898981" d="M135.3,12.4c0-0.1,0-0.2,0.2-0.2h6.1c0.1,0,0.2,0,0.2,0.2V13c0,0.2-0.1,0.2-0.2,0.2h-6.1
			c-0.1,0-0.2,0-0.2-0.1V12.4z"/>
		<path fill="#898981" d="M151.5,6.3c0.2-0.6,0.1-0.9-0.5-0.9h-0.7c-0.2,0-0.2-0.1-0.2-0.2l0.1-0.4c0-0.1,0.1-0.2,0.2-0.2
			c2,0,3.9-0.1,4.2-0.1c1.4,0,4.3,0.1,4.3,2.7c0,1.9-2,3.4-4.3,3.7v0c0.5,0.2,0.7,0.7,0.9,1.1c0.1,0.2,1.4,2.9,1.7,3.4
			c0.5,0.8,0.9,1.1,1.7,1.1h0.5c0.1,0,0.2,0.1,0.1,0.2l-0.1,0.4c0,0.1-0.1,0.2-0.2,0.2c-0.2,0-0.5-0.1-1.4-0.1
			c-0.8,0-1.2,0.1-1.4,0.1c-0.2,0-0.2-0.2-0.5-0.6c-0.3-0.5-2-4.2-2.2-4.6c-0.5-1.1-1.6-1-2.3-1l-1.3,4.2c-0.3,1.1-0.1,1.4,0.7,1.4
			h0.8c0.1,0,0.2,0.1,0.1,0.2l-0.1,0.4c0,0.1-0.1,0.1-0.2,0.1c-0.2,0-1.1-0.1-2.7-0.1c-1.1,0-1.9,0.1-2.1,0.1
			c-0.1,0-0.1-0.1-0.1-0.2l0.1-0.4c0-0.1,0.1-0.2,0.2-0.2h0.4c0.7,0,1-0.4,1.2-0.9L151.5,6.3z M151.8,10.5c1,0,2.1,0.1,3.5-0.5
			c1.1-0.5,2-1.5,2-2.8c0-0.8-0.7-2.1-3-2.1c-0.3,0-0.5,0-0.8,0L151.8,10.5z"/>
		<path fill="#898981" d="M160.3,19.7c-0.1,0-0.1,0-0.1-0.1l0-0.2c0-0.1,0-0.1,0.1-0.1h1c0.3-1,0.7-1.9,1.3-2.5
			c0.3-0.4,0.9-0.8,1.6-0.8c0.6,0,1,0.4,1,0.7c0,0.3-0.2,0.5-0.4,0.5c-0.4,0-0.5-0.2-0.5-0.4c0-0.1-0.1-0.3-0.5-0.3
			c-1,0-1.4,1.6-1.8,2.9h1.1c0.1,0,0.1,0,0.1,0.1l-0.1,0.2c0,0.1,0,0.1-0.1,0.1h-1c-0.3,0.9-0.8,2.8-1.3,4.2
			c-0.7,1.7-1.5,2.9-2.6,2.9c-0.4,0-0.8-0.3-0.8-0.7c0-0.3,0.2-0.5,0.5-0.5c0.3,0,0.5,0.3,0.5,0.5c0,0.1,0.1,0.2,0.2,0.2
			c0.5,0,1.1-0.9,1.7-3l1.1-3.8H160.3z"/>
		<path fill="#898981" d="M138.3,37.2c0.6,0.8,1,1.8,1,2.9c0,1.3-0.4,2.3-1.3,3.2c-0.8,0.8-1.9,1.3-3.1,1.3c-1.3,0-2.3-0.4-3.2-1.3
			c-0.9-0.9-1.3-1.9-1.3-3.2c0-1.4,0.4-2.4,1.3-3.3c0.8-0.8,1.9-1.2,3.1-1.2c0.5,0,1.1,0.1,1.6,0.3h4.5c0.1,0,0.1,0,0.1,0
			c0,0,0,0.1,0,0.1l-0.5,1c0,0,0,0.1-0.1,0.1c0,0,0,0-0.1,0H138.3z M136.9,42.7c0.2-0.4,0.4-0.8,0.5-1.2s0.2-0.9,0.2-1.4
			s-0.1-0.9-0.2-1.4c-0.1-0.5-0.3-0.9-0.5-1.2c-0.5-0.8-1.2-1.2-2.1-1.2c-1,0-1.7,0.4-2.2,1.2c-0.4,0.7-0.7,1.6-0.7,2.6
			c0,1.7,0.5,2.9,1.6,3.5c0.4,0.2,0.8,0.3,1.3,0.3c0.5,0,0.9-0.1,1.2-0.3S136.7,43.1,136.9,42.7z"/>
		<path fill="#898981" d="M144,45.2c0-0.1,0.1-0.1,0.1-0.2l0.7-0.2c0,0,0.1,0,0.1,0c0,0,0,0,0,0s0,0.1,0,0.1l-0.5,1.1
			c0.1,0,0.1,0,0.2,0c0.1,0,0.2,0,0.2,0c1,0,1.5,0.8,1.5,1.5c0,0.8-0.3,1.6-1.3,2.3c-0.5,0.4-1.4,0.7-2.3,0.8l-0.8,2.2
			c-0.2,0.6-0.1,0.8,0.4,0.8h0.3c0.1,0,0.1,0.1,0.1,0.1l-0.1,0.2c0,0,0,0.1-0.1,0.1c-0.1,0-0.5,0-1.2,0c-0.8,0-1.1,0-1.2,0
			c-0.1,0-0.1,0-0.1-0.1l0.1-0.2c0,0,0-0.1,0.1-0.1h0.3c0.4,0,0.6-0.3,0.8-0.9l2.2-6c-0.5,0.2-1.1,0.7-1.4,1c0,0-0.1,0-0.1,0
			l-0.1-0.1c0,0,0-0.1,0-0.1c0.4-0.5,0.9-1,1.8-1.3L144,45.2z M142.9,50.3c1.3-0.2,2.7-1.2,2.7-2.5c0-0.9-0.5-1.3-1-1.3
			c-0.2,0-0.3,0-0.4,0L142.9,50.3z"/>
	</g>
</g>
</svg>
