<?xml version="1.0" encoding="utf-8"?>
<!-- Generator: Adobe Illustrator 18.1.1, SVG Export Plug-In . SVG Version: 6.00 Build 0)  -->
<!DOCTYPE svg PUBLIC "-//W3C//DTD SVG 1.1//EN" "http://www.w3.org/Graphics/SVG/1.1/DTD/svg11.dtd">
<svg version="1.1" id="Breaks" xmlns="http://www.w3.org/2000/svg" xmlns:xlink="http://www.w3.org/1999/xlink" x="0px" y="0px"
	 viewBox="0 0 381.8 65.5" enable-background="new 0 0 381.8 65.5" xml:space="preserve">
<g>
	<g>
		<path fill="#898981" d="M255,22.5c0,0.1-0.1,0.1-0.2,0.1l-0.3-0.1c-0.1,0-0.1-0.1-0.1-0.1c0-0.1,0.1-0.2,0.1-0.3
			c0-0.2-0.1-0.3-0.3-0.3s-0.5,0.1-0.8,0.3c-0.4,0.2-1.6,0.5-2.5,0.5c-2.4,0-4.3-1.7-4.3-4.3c0-2.1,1-4.4,2.6-6.2
			c1.2-1.3,2.8-2.1,4.3-2.1c0.9,0,1.5,0.2,2.4,0.8c0.2,0.2,0.6,0.5,0.9,0.5c0.2,0,0.4-0.1,0.5-0.6c0-0.1,0.1-0.1,0.2-0.1l0.2,0.1
			c0.1,0,0.1,0.1,0.1,0.2l-1,3.7c0,0.1-0.1,0.1-0.2,0.1l-0.3,0c-0.1,0-0.1-0.1-0.1-0.2c0.4-1.8-0.5-3.8-2.6-3.8
			c-1.5,0-2.4,0.7-3.5,2.2c-1.4,2-1.8,4.2-1.8,5.7c0,2.6,1.7,3.4,2.8,3.4c1.5,0,3.4-0.5,4.5-3.2c0.1-0.2,0.1-0.2,0.2-0.1l0.3,0.1
			c0.1,0,0.1,0.1,0.1,0.2L255,22.5z"/>
		<path fill="#898981" d="M257.7,20.1c0-2.3,1.7-5.3,4.1-5.3c1.2,0,1.9,0.9,1.9,2.1c0,2-1.6,5.6-4.2,5.6
			C258.6,22.4,257.7,21.4,257.7,20.1z M263,16.6c0-0.6-0.3-1-0.9-1c-0.8,0-1.7,0.7-2.6,2.1c-0.6,1-1,2.1-1,2.9
			c0,0.6,0.4,0.9,0.8,0.9C261.2,21.5,263,17.7,263,16.6z"/>
		<path fill="#898981" d="M266.7,15.9c-0.6,0-1,0.4-1,0.9c0,0.3,0.2,0.4,0.4,0.5c0.1,0.1,0.4,0.3,0.4,0.5s-0.2,0.6-0.7,0.6
			c-0.3,0-0.8-0.3-0.8-1c0-0.7,0.5-1.5,0.7-1.7c0.4-0.4,0.8-0.9,2.1-0.9c1.8,0,2.1-0.1,2.3-0.1c0.2,0,0.4,0.1,0.2,0.3
			c-0.4,0.5-2.1,2.9-2.1,4.7c0,1.2,0.6,1.7,1.3,1.7c1.5,0,3.1-2.4,3.1-4.2c0-0.3,0-0.6-0.1-0.9c-0.1-0.3-0.3-0.5-0.3-0.7
			c0-0.5,0.3-0.8,0.8-0.8c0.5,0,0.7,0.5,0.7,1c0,0.9-0.4,2.7-1.2,4c-0.8,1.4-2.3,2.7-3.7,2.7c-0.9,0-1.8-0.6-1.8-1.9
			c0-1.7,1.5-3.9,2.5-5.1l-0.1-0.1c-0.4,0.3-1.3,0.5-1.7,0.5H266.7z"/>
		<path fill="#898981" d="M285.4,9.3c0.1-0.1,0.2-0.1,0.3,0.1c0.1,0.2,0.1,0.3-0.1,0.4c-3.1,2.5-5.3,6.9-5.3,11.6
			c0,2.7,0.3,3.6,0.4,4.2c0,0.1,0,0.2-0.2,0.3c-0.2,0.1-0.3,0.1-0.3-0.1c-0.4-0.8-0.9-3-0.9-4.8C279.2,16.3,281.6,12.1,285.4,9.3z"
			/>
		<path fill="#898981" d="M288.7,11.7c0.2-0.6,0.1-0.9-0.5-0.9h-0.7c-0.1,0-0.2-0.1-0.1-0.1l0.1-0.4c0-0.1,0.1-0.1,0.2-0.1
			c1.9,0,3.7-0.1,4-0.1c1.3,0,4.1,0.1,4.1,2.6c0,1.8-1.9,3.2-4.1,3.5v0c0.4,0.1,0.7,0.7,0.9,1.1c0.1,0.2,1.3,2.7,1.7,3.3
			c0.5,0.7,0.8,1,1.6,1h0.5c0.1,0,0.1,0.1,0.1,0.2l-0.1,0.3c0,0.1-0.1,0.1-0.2,0.1c-0.2,0-0.5-0.1-1.3-0.1c-0.8,0-1.1,0.1-1.3,0.1
			c-0.1,0-0.2-0.1-0.5-0.6c-0.3-0.4-1.9-4-2.1-4.4c-0.5-1-1.5-0.9-2.2-0.9l-1.3,3.9c-0.3,1-0.1,1.3,0.7,1.3h0.7
			c0.1,0,0.1,0.1,0.1,0.1l-0.1,0.4c0,0.1-0.1,0.1-0.2,0.1c-0.2,0-1-0.1-2.5-0.1c-1.1,0-1.8,0.1-2,0.1c-0.1,0-0.1-0.1-0.1-0.1
			l0.1-0.4c0-0.1,0.1-0.1,0.2-0.1h0.3c0.6,0,1-0.4,1.1-0.9L288.7,11.7z M288.9,15.8c0.9,0,2,0.1,3.3-0.5c1.1-0.4,1.9-1.4,1.9-2.7
			c0-0.8-0.7-2-2.9-2c-0.3,0-0.5,0-0.7,0L288.9,15.8z"/>
		<path fill="#898981" d="M299.4,25l-1.5,1.8c-0.2,0.3-0.4,0.6-0.4,0.7c0,0.2,0.1,0.3,0.4,0.3h0.4c0.1,0,0.1,0,0.1,0.1l0,0.2
			c0,0.1,0,0.1-0.1,0.1c-0.1,0-0.6,0-1.4,0c-0.7,0-1.1,0-1.2,0c-0.1,0-0.1,0-0.1-0.1l0.1-0.2c0-0.1,0-0.1,0.1-0.1h0.2
			c0.5,0,0.9-0.3,1.3-0.8l4.9-5.8c0.1-0.1,0.1-0.1,0.3-0.1c0.1,0,0.4,0,0.5-0.1c0.1,0,0.3-0.1,0.3-0.1s0.1,0,0.1,0.1l-1.5,5.8
			c0,0.2-0.1,0.4-0.1,0.6s0.2,0.3,0.4,0.3h0.3c0.1,0,0.1,0,0.1,0.1l0,0.2c0,0.1,0,0.1-0.1,0.1c-0.1,0-0.5,0-1.3,0
			c-0.7,0-1.1,0-1.2,0c-0.1,0-0.1,0-0.1-0.1l0-0.2c0,0,0-0.1,0.1-0.1h0.2c0.4,0,0.7-0.1,0.9-0.9l0.5-1.9H299.4z M301.4,24.7l0.8-2.8
			c0-0.1-0.1-0.2-0.2-0.1l-2.3,2.8H301.4z"/>
		<path fill="#898981" d="M305.2,24.3c0-0.2,0.1-0.2,0.2-0.3c0.5-0.1,1.4-0.7,1.4-1.5c0-0.4-0.1-0.6-0.4-0.9
			c-0.1-0.1-0.5-0.4-0.5-0.8c0-0.4,0.3-0.8,0.8-0.8c0.8,0,1.3,1.1,1.3,1.7c0,2.1-2.2,2.8-2.6,2.8C305.4,24.5,305.3,24.5,305.2,24.3z
			"/>
		<path fill="#898981" d="M314.6,11.7c0.2-0.6,0.1-0.9-0.5-0.9h-0.7c-0.1,0-0.2-0.1-0.1-0.1l0.1-0.4c0-0.1,0.1-0.1,0.2-0.1
			c1.9,0,3.7-0.1,4-0.1c1.3,0,4.1,0.1,4.1,2.6c0,1.8-1.9,3.2-4.1,3.5v0c0.4,0.1,0.7,0.7,0.9,1.1c0.1,0.2,1.3,2.7,1.7,3.3
			c0.5,0.7,0.8,1,1.6,1h0.5c0.1,0,0.1,0.1,0.1,0.2l-0.1,0.3c0,0.1-0.1,0.1-0.2,0.1c-0.2,0-0.5-0.1-1.3-0.1c-0.8,0-1.1,0.1-1.3,0.1
			c-0.1,0-0.2-0.1-0.5-0.6c-0.3-0.4-1.9-4-2.1-4.4c-0.5-1-1.5-0.9-2.2-0.9l-1.3,3.9c-0.3,1-0.1,1.3,0.7,1.3h0.7
			c0.1,0,0.1,0.1,0.1,0.1l-0.1,0.4c0,0.1-0.1,0.1-0.2,0.1c-0.2,0-1-0.1-2.5-0.1c-1.1,0-1.8,0.1-2,0.1c-0.1,0-0.1-0.1-0.1-0.1
			l0.1-0.4c0-0.1,0.1-0.1,0.2-0.1h0.3c0.6,0,1-0.4,1.1-0.9L314.6,11.7z M314.8,15.8c0.9,0,2,0.1,3.3-0.5c1.1-0.4,1.9-1.4,1.9-2.7
			c0-0.8-0.7-2-2.9-2c-0.3,0-0.5,0-0.7,0L314.8,15.8z"/>
		<path fill="#898981" d="M324.9,22.2c0-0.2,0.1-0.3,0.1-0.4c0-0.2-0.2-0.3-0.6-0.3h-0.3c-0.1,0-0.1,0-0.1-0.1l0-0.2
			c0-0.1,0-0.1,0.1-0.1c0.1,0,0.4,0,0.9,0c0.6,0,1.1,0,1.5,0c0.1,0,1,0,1.6,0.3c0.4,0.2,0.7,0.6,0.7,1.1c0,1.3-1.2,1.9-2.1,2
			c-0.1,0-0.1,0,0,0.1c0.8,0.3,1.4,0.8,1.4,1.7c0,0.1,0,0.7-0.6,1.3c-0.4,0.4-1,0.6-2.2,0.6c-0.5,0-0.9,0-1.4,0c-0.5,0-1,0-1.5,0
			c-0.1,0-0.1,0-0.1-0.1l0-0.2c0-0.1,0-0.1,0.1-0.1h0.4c0.4,0,0.6-0.2,0.7-0.6L324.9,22.2z M324.5,27.2c-0.1,0.4-0.1,0.5,0.1,0.6
			c0.1,0.1,0.5,0.1,0.7,0.1c1.4,0,2-0.8,2-1.7c0-1.1-1.2-1.4-2-1.4h-0.1L324.5,27.2z M325.2,24.4c0.2,0,0.5,0,0.6,0
			c1.1,0,2.1-0.5,2.1-1.7c0-0.7-0.6-1.2-1.6-1.2c-0.1,0-0.2,0-0.3,0L325.2,24.4z"/>
		<path fill="#898981" d="M330.7,25.9c-0.1,0.1-0.2,0.1-0.3-0.1c-0.1-0.2-0.1-0.3,0.1-0.4c3.1-2.5,5.3-6.9,5.3-11.6
			c0-2.7-0.3-3.6-0.4-4.2c0-0.1,0-0.2,0.2-0.3c0.2-0.1,0.3-0.1,0.3,0.1c0.4,0.8,0.9,3,0.9,4.8C336.8,18.8,334.4,23.1,330.7,25.9z"/>
		<path fill="#898981" d="M262.4,35.1c0.1-0.1,0.1-0.1,0.1-0.1s0.1,0,0.1,0.1s0.1,0.1,0.1,0.1c0.1,0.1,0.1,0.2,0.1,0.3
			c0,0.1,0,0.1-0.1,0.2c-2.4,2.9-4,5.9-4.7,9.1c-0.3,1.1-0.4,2.2-0.4,3.3c0,2.2,0.4,4.2,1.2,6c0,0,0,0.1,0,0.1c0,0,0,0.1-0.1,0.2
			s-0.1,0.1-0.1,0.2c-0.1,0.2-0.2,0.2-0.3,0.2c-0.1,0-0.1,0-0.2-0.1c-1.1-2.2-1.7-4.4-1.7-6.6c0-2.4,0.5-4.7,1.6-7
			C259.1,38.9,260.6,36.9,262.4,35.1z"/>
		<path fill="#898981" d="M268.9,43.5c0.6,0.8,0.9,1.7,0.9,2.8c0,1.2-0.4,2.2-1.2,3c-0.8,0.8-1.8,1.2-2.9,1.2c-1.2,0-2.2-0.4-3-1.2
			c-0.8-0.8-1.2-1.8-1.2-3c0-1.3,0.4-2.3,1.3-3.1c0.8-0.7,1.8-1.1,3-1.1c0.5,0,1,0.1,1.5,0.3h4.2c0.1,0,0.1,0,0.1,0c0,0,0,0.1,0,0.1
			l-0.5,0.9c0,0,0,0.1,0,0.1c0,0,0,0-0.1,0H268.9z M267.6,48.7c0.2-0.4,0.4-0.7,0.5-1.2s0.2-0.9,0.2-1.3s-0.1-0.9-0.2-1.3
			c-0.1-0.4-0.3-0.8-0.5-1.2c-0.5-0.8-1.2-1.2-2-1.2c-0.9,0-1.6,0.4-2.1,1.2c-0.4,0.7-0.6,1.5-0.6,2.5c0,1.6,0.5,2.7,1.5,3.3
			c0.3,0.2,0.7,0.3,1.2,0.3s0.8-0.1,1.2-0.3C267.1,49.4,267.4,49.1,267.6,48.7z"/>
		<path fill="#898981" d="M274.9,53l-1.5,1.8c-0.2,0.3-0.4,0.6-0.4,0.7c0,0.2,0.1,0.3,0.4,0.3h0.4c0.1,0,0.1,0,0.1,0.1l0,0.2
			c0,0.1,0,0.1-0.1,0.1c-0.1,0-0.6,0-1.4,0c-0.7,0-1.1,0-1.2,0c-0.1,0-0.1,0-0.1-0.1l0.1-0.2c0-0.1,0-0.1,0.1-0.1h0.2
			c0.5,0,0.9-0.3,1.3-0.8l4.9-5.8c0.1-0.1,0.1-0.1,0.3-0.1c0.1,0,0.4,0,0.5-0.1c0.1,0,0.3-0.1,0.3-0.1s0.1,0,0.1,0.1l-1.5,5.8
			c0,0.2-0.1,0.4-0.1,0.6s0.2,0.3,0.4,0.3h0.3c0.1,0,0.1,0,0.1,0.1l0,0.2c0,0.1,0,0.1-0.1,0.1c-0.1,0-0.5,0-1.3,0
			c-0.7,0-1.1,0-1.2,0c-0.1,0-0.1,0-0.1-0.1l0-0.2c0,0,0-0.1,0.1-0.1h0.2c0.4,0,0.7-0.1,0.9-0.9l0.5-1.9H274.9z M276.9,52.7l0.8-2.8
			c0-0.1-0.1-0.2-0.2-0.1l-2.3,2.8H276.9z"/>
		<path fill="#898981" d="M280.3,53.9c-0.1,0.1-0.2,0.1-0.3-0.1c-0.1-0.2-0.1-0.3,0.1-0.4c3.1-2.5,5.3-6.9,5.3-11.6
			c0-2.7-0.3-3.6-0.4-4.2c0-0.1,0-0.2,0.2-0.3c0.2-0.1,0.3-0.1,0.3,0.1c0.4,0.8,0.9,3,0.9,4.8C286.4,46.8,284,51.1,280.3,53.9z"/>
		<path fill="#898981" d="M298.7,35.1c0.1-0.1,0.1-0.1,0.1-0.1s0.1,0,0.1,0.1s0.1,0.1,0.1,0.1c0.1,0.1,0.1,0.2,0.1,0.3
			c0,0.1,0,0.1-0.1,0.2c-2.4,2.9-4,5.9-4.7,9.1c-0.3,1.1-0.4,2.2-0.4,3.3c0,2.2,0.4,4.2,1.2,6c0,0,0,0.1,0,0.1c0,0,0,0.1-0.1,0.2
			s-0.1,0.1-0.1,0.2c-0.1,0.2-0.2,0.2-0.3,0.2c-0.1,0-0.1,0-0.2-0.1c-1.1-2.2-1.7-4.4-1.7-6.6c0-2.4,0.5-4.7,1.6-7
			C295.4,38.9,296.8,36.9,298.7,35.1z"/>
		<path fill="#898981" d="M305.2,43.5c0.6,0.8,0.9,1.7,0.9,2.8c0,1.2-0.4,2.2-1.2,3c-0.8,0.8-1.8,1.2-2.9,1.2c-1.2,0-2.2-0.4-3-1.2
			c-0.8-0.8-1.2-1.8-1.2-3c0-1.3,0.4-2.3,1.3-3.1c0.8-0.7,1.8-1.1,3-1.1c0.5,0,1,0.1,1.5,0.3h4.2c0.1,0,0.1,0,0.1,0c0,0,0,0.1,0,0.1
			l-0.5,0.9c0,0,0,0.1,0,0.1c0,0,0,0-0.1,0H305.2z M303.9,48.7c0.2-0.4,0.4-0.7,0.5-1.2s0.2-0.9,0.2-1.3s-0.1-0.9-0.2-1.3
			c-0.1-0.4-0.3-0.8-0.5-1.2c-0.5-0.8-1.2-1.2-2-1.2c-0.9,0-1.6,0.4-2.1,1.2c-0.4,0.7-0.6,1.5-0.6,2.5c0,1.6,0.5,2.7,1.5,3.3
			c0.3,0.2,0.7,0.3,1.2,0.3s0.8-0.1,1.2-0.3C303.4,49.4,303.7,49.1,303.9,48.7z"/>
		<path fill="#898981" d="M310.8,50.2c0-0.2,0.1-0.3,0.1-0.4c0-0.2-0.2-0.3-0.6-0.3H310c-0.1,0-0.1,0-0.1-0.1l0-0.2
			c0-0.1,0-0.1,0.1-0.1c0.1,0,0.4,0,0.8,0c0.6,0,1.1,0,1.5,0c0.1,0,1,0,1.6,0.3c0.4,0.2,0.7,0.6,0.7,1.1c0,1.3-1.2,1.9-2.1,2
			c-0.1,0-0.1,0,0,0.1c0.8,0.3,1.4,0.8,1.4,1.7c0,0.1,0,0.7-0.6,1.3c-0.4,0.4-1,0.6-2.2,0.6c-0.5,0-0.9,0-1.4,0c-0.5,0-1,0-1.5,0
			c-0.1,0-0.1,0-0.1-0.1l0-0.2c0-0.1,0-0.1,0.1-0.1h0.4c0.4,0,0.6-0.2,0.7-0.6L310.8,50.2z M310.3,55.2c-0.1,0.4-0.1,0.5,0.1,0.6
			c0.1,0.1,0.5,0.1,0.7,0.1c1.4,0,2-0.8,2-1.7c0-1.1-1.2-1.4-2-1.4H311L310.3,55.2z M311.1,52.4c0.2,0,0.5,0,0.6,0
			c1.1,0,2.1-0.5,2.1-1.7c0-0.7-0.6-1.2-1.6-1.2c-0.1,0-0.2,0-0.3,0L311.1,52.4z"/>
		<path fill="#898981" d="M316.5,53.9c-0.1,0.1-0.2,0.1-0.3-0.1c-0.1-0.2-0.1-0.3,0.1-0.4c3.1-2.5,5.3-6.9,5.3-11.6
			c0-2.7-0.3-3.6-0.4-4.2c0-0.1,0-0.2,0.2-0.3c0.2-0.1,0.3-0.1,0.3,0.1c0.4,0.8,0.9,3,0.9,4.8C322.7,46.8,320.3,51.1,316.5,53.9z"/>
	</g>
	<g>
		<rect x="245.4" y="31" fill="#898981" width="91" height="1"/>
	</g>
	<g>
		<path fill="#898981" d="M53.4,36.5c0,0.1-0.1,0.1-0.2,0.1l-0.3-0.1c-0.1,0-0.1-0.1-0.1-0.1c0-0.1,0.1-0.2,0.1-0.3
			c0-0.2-0.1-0.3-0.3-0.3s-0.5,0.1-0.8,0.3c-0.4,0.2-1.6,0.5-2.5,0.5c-2.4,0-4.3-1.7-4.3-4.3c0-2.1,1-4.4,2.6-6.2
			c1.2-1.3,2.8-2.1,4.3-2.1c0.9,0,1.5,0.2,2.4,0.8c0.2,0.2,0.6,0.5,0.9,0.5c0.2,0,0.4-0.1,0.5-0.6c0-0.1,0.1-0.1,0.2-0.1l0.2,0.1
			c0.1,0,0.1,0.1,0.1,0.2l-1,3.7c0,0.1-0.1,0.1-0.2,0.1l-0.3,0c-0.1,0-0.1-0.1-0.1-0.2c0.4-1.8-0.5-3.8-2.6-3.8
			c-1.5,0-2.4,0.7-3.5,2.2c-1.4,2-1.8,4.2-1.8,5.7c0,2.6,1.7,3.4,2.8,3.4c1.5,0,3.4-0.5,4.5-3.2c0.1-0.2,0.1-0.2,0.2-0.1l0.3,0.1
			c0.1,0,0.1,0.1,0.1,0.2L53.4,36.5z"/>
		<path fill="#898981" d="M56.1,34.1c0-2.3,1.7-5.3,4.1-5.3c1.2,0,1.9,0.9,1.9,2.1c0,2-1.6,5.6-4.2,5.6C57,36.4,56.1,35.4,56.1,34.1
			z M61.4,30.6c0-0.6-0.3-1-0.9-1c-0.8,0-1.7,0.7-2.6,2.1c-0.6,1-1,2.1-1,2.9c0,0.6,0.4,0.9,0.8,0.9C59.6,35.5,61.4,31.7,61.4,30.6z
			"/>
		<path fill="#898981" d="M63.5,36.2c-0.1,0-0.2-0.1-0.2-0.2l1-2.9c0.3-1,0.9-2.9,0.9-3.2c0-0.2-0.1-0.3-0.3-0.3
			c-0.4,0-1.2,0.8-1.4,1.1c0,0.1-0.1,0-0.1,0l-0.2-0.2c0,0,0-0.1,0-0.1c0.4-0.6,1.5-1.8,2.7-1.8c0.4,0,0.5,0.3,0.5,0.6
			c0,0.3-0.3,1.4-0.6,2.6l0.1,0c0.5-1,1.9-3.2,2.9-3.2c0.5,0,0.8,0.3,0.8,0.8c0,0.5-0.4,0.8-0.7,0.8c-0.2,0-0.3,0-0.5-0.2
			C68.3,30,68.2,30,68,30c-0.5,0-1.5,1.5-2.2,2.7c-0.2,0.3-0.4,0.8-0.7,1.6l-0.6,1.8c0,0.1-0.1,0.1-0.2,0.1H63.5z"/>
		<path fill="#898981" d="M70.4,36.2c-0.1,0-0.2-0.1-0.2-0.2l1-2.9c0.3-1,0.9-2.9,0.9-3.2c0-0.2-0.1-0.3-0.3-0.3
			c-0.4,0-1.2,0.8-1.4,1.1c0,0.1-0.1,0-0.1,0l-0.2-0.2c0,0,0-0.1,0-0.1c0.4-0.6,1.5-1.8,2.7-1.8c0.4,0,0.5,0.3,0.5,0.6
			c0,0.3-0.3,1.4-0.6,2.6l0.1,0c0.5-1,1.9-3.2,2.9-3.2c0.5,0,0.8,0.3,0.8,0.8c0,0.5-0.4,0.8-0.7,0.8c-0.2,0-0.3,0-0.5-0.2
			C75.2,30,75.1,30,74.8,30c-0.5,0-1.5,1.5-2.2,2.7c-0.2,0.3-0.4,0.8-0.7,1.6l-0.6,1.8c0,0.1-0.1,0.1-0.2,0.1H70.4z"/>
		<path fill="#898981" d="M87.4,23.3c0.1-0.1,0.2-0.1,0.3,0.1c0.1,0.2,0.1,0.3-0.1,0.4c-3.1,2.5-5.3,6.9-5.3,11.6
			c0,2.7,0.3,3.6,0.4,4.2c0,0.1,0,0.2-0.2,0.3c-0.2,0.1-0.3,0.1-0.3-0.1c-0.4-0.8-0.9-3-0.9-4.8C81.3,30.3,83.7,26.1,87.4,23.3z"/>
		<path fill="#898981" d="M90.8,25.7c0.2-0.6,0.1-0.9-0.5-0.9h-0.7c-0.1,0-0.2-0.1-0.1-0.1l0.1-0.4c0-0.1,0.1-0.1,0.2-0.1
			c1.9,0,3.7-0.1,4-0.1c1.3,0,4.1,0.1,4.1,2.6c0,1.8-1.9,3.2-4.1,3.5v0c0.4,0.1,0.7,0.7,0.9,1.1c0.1,0.2,1.3,2.7,1.7,3.3
			c0.5,0.7,0.8,1,1.6,1h0.5c0.1,0,0.1,0.1,0.1,0.2l-0.1,0.3c0,0.1-0.1,0.1-0.2,0.1c-0.2,0-0.5-0.1-1.3-0.1c-0.8,0-1.1,0.1-1.3,0.1
			c-0.1,0-0.2-0.1-0.5-0.6c-0.3-0.4-1.9-4-2.1-4.4c-0.5-1-1.5-0.9-2.2-0.9l-1.3,3.9c-0.3,1-0.1,1.3,0.7,1.3h0.7
			c0.1,0,0.1,0.1,0.1,0.1L91,36.2c0,0.1-0.1,0.1-0.2,0.1c-0.2,0-1-0.1-2.5-0.1c-1.1,0-1.8,0.1-2,0.1c-0.1,0-0.1-0.1-0.1-0.1l0.1-0.4
			c0-0.1,0.1-0.1,0.2-0.1h0.3c0.6,0,1-0.4,1.1-0.9L90.8,25.7z M91,29.8c0.9,0,2,0.1,3.3-0.5c1.1-0.4,1.9-1.4,1.9-2.7
			c0-0.8-0.7-2-2.9-2c-0.3,0-0.5,0-0.7,0L91,29.8z"/>
		<path fill="#898981" d="M101.5,39l-1.5,1.8c-0.2,0.3-0.4,0.6-0.4,0.7c0,0.2,0.1,0.3,0.4,0.3h0.4c0.1,0,0.1,0,0.1,0.1l0,0.2
			c0,0.1,0,0.1-0.1,0.1c-0.1,0-0.6,0-1.4,0c-0.7,0-1.1,0-1.2,0c-0.1,0-0.1,0-0.1-0.1l0.1-0.2c0-0.1,0-0.1,0.1-0.1h0.2
			c0.5,0,0.9-0.3,1.3-0.8l4.9-5.8c0.1-0.1,0.1-0.1,0.3-0.1c0.1,0,0.4,0,0.5-0.1c0.1,0,0.3-0.1,0.3-0.1s0.1,0,0.1,0.1l-1.5,5.8
			c0,0.2-0.1,0.4-0.1,0.6s0.2,0.3,0.4,0.3h0.3c0.1,0,0.1,0,0.1,0.1l0,0.2c0,0.1,0,0.1-0.1,0.1c-0.1,0-0.5,0-1.3,0
			c-0.7,0-1.1,0-1.2,0c-0.1,0-0.1,0-0.1-0.1l0-0.2c0,0,0-0.1,0.1-0.1h0.2c0.4,0,0.7-0.1,0.9-0.9l0.5-1.9H101.5z M103.5,38.7l0.8-2.8
			c0-0.1-0.1-0.2-0.2-0.1l-2.3,2.8H103.5z"/>
		<path fill="#898981" d="M107.3,38.3c0-0.2,0.1-0.2,0.2-0.3c0.5-0.1,1.4-0.7,1.4-1.5c0-0.4-0.1-0.6-0.4-0.9
			c-0.1-0.1-0.5-0.4-0.5-0.8c0-0.4,0.3-0.8,0.8-0.8c0.8,0,1.3,1.1,1.3,1.7c0,2.1-2.2,2.8-2.6,2.8C107.4,38.5,107.3,38.5,107.3,38.3z
			"/>
		<path fill="#898981" d="M116.7,25.7c0.2-0.6,0.1-0.9-0.5-0.9h-0.7c-0.1,0-0.2-0.1-0.1-0.1l0.1-0.4c0-0.1,0.1-0.1,0.2-0.1
			c1.9,0,3.7-0.1,4-0.1c1.3,0,4.1,0.1,4.1,2.6c0,1.8-1.9,3.2-4.1,3.5v0c0.4,0.1,0.7,0.7,0.9,1.1c0.1,0.2,1.3,2.7,1.7,3.3
			c0.5,0.7,0.8,1,1.6,1h0.5c0.1,0,0.1,0.1,0.1,0.2l-0.1,0.3c0,0.1-0.1,0.1-0.2,0.1c-0.2,0-0.5-0.1-1.3-0.1c-0.8,0-1.1,0.1-1.3,0.1
			c-0.1,0-0.2-0.1-0.5-0.6c-0.3-0.4-1.9-4-2.1-4.4c-0.5-1-1.5-0.9-2.2-0.9l-1.3,3.9c-0.3,1-0.1,1.3,0.7,1.3h0.7
			c0.1,0,0.1,0.1,0.1,0.1l-0.1,0.4c0,0.1-0.1,0.1-0.2,0.1c-0.2,0-1-0.1-2.5-0.1c-1.1,0-1.8,0.1-2,0.1c-0.1,0-0.1-0.1-0.1-0.1
			l0.1-0.4c0-0.1,0.1-0.1,0.2-0.1h0.3c0.6,0,1-0.4,1.1-0.9L116.7,25.7z M116.9,29.8c0.9,0,2,0.1,3.3-0.5c1.1-0.4,1.9-1.4,1.9-2.7
			c0-0.8-0.7-2-2.9-2c-0.3,0-0.5,0-0.7,0L116.9,29.8z"/>
		<path fill="#898981" d="M127,36.2c0-0.2,0.1-0.3,0.1-0.4c0-0.2-0.2-0.3-0.6-0.3h-0.3c-0.1,0-0.1,0-0.1-0.1l0-0.2
			c0-0.1,0-0.1,0.1-0.1c0.1,0,0.4,0,0.9,0c0.6,0,1.1,0,1.5,0c0.1,0,1,0,1.6,0.3c0.4,0.2,0.7,0.6,0.7,1.1c0,1.3-1.2,1.9-2.1,2
			c-0.1,0-0.1,0,0,0.1c0.8,0.3,1.4,0.8,1.4,1.7c0,0.1,0,0.7-0.6,1.3c-0.4,0.4-1,0.6-2.2,0.6c-0.5,0-0.9,0-1.4,0c-0.5,0-1,0-1.5,0
			c-0.1,0-0.1,0-0.1-0.1l0-0.2c0-0.1,0-0.1,0.1-0.1h0.4c0.4,0,0.6-0.2,0.7-0.6L127,36.2z M126.5,41.2c-0.1,0.4-0.1,0.5,0.1,0.6
			c0.1,0.1,0.5,0.1,0.7,0.1c1.4,0,2-0.8,2-1.7c0-1.1-1.2-1.4-2-1.4h-0.1L126.5,41.2z M127.3,38.4c0.2,0,0.5,0,0.6,0
			c1.1,0,2.1-0.5,2.1-1.7c0-0.7-0.6-1.2-1.6-1.2c-0.1,0-0.2,0-0.3,0L127.3,38.4z"/>
		<path fill="#898981" d="M132.7,39.9c-0.1,0.1-0.2,0.1-0.3-0.1c-0.1-0.2-0.1-0.3,0.1-0.4c3.1-2.5,5.3-6.9,5.3-11.6
			c0-2.7-0.3-3.6-0.4-4.2c0-0.1,0-0.2,0.2-0.3c0.2-0.1,0.3-0.1,0.3,0.1c0.4,0.8,0.9,3,0.9,4.8C138.9,32.8,136.5,37.1,132.7,39.9z"/>
		<path fill="#898981" d="M151.8,30v1h-7v-1H151.8z M151.8,32.7v1h-7v-1H151.8z"/>
		<path fill="#898981" d="M161,27.3c0.1-0.1,0.1-0.2,0.2-0.3l1.1-0.4c0,0,0.1,0,0.1,0c0,0,0.1,0,0.1,0.1s0,0.1,0,0.1l-0.8,1.9
			c0.1,0,0.2,0,0.4,0c0.1,0,0.3,0,0.4,0c1.7,0,2.5,1.2,2.5,2.4c0,1.3-0.6,2.6-2.1,3.7c-0.8,0.6-2.3,1.2-3.7,1.4l-1.3,3.6
			c-0.3,1-0.2,1.2,0.6,1.2h0.5c0.1,0,0.1,0.1,0.1,0.1l-0.1,0.4c0,0.1-0.1,0.1-0.2,0.1c-0.2,0-0.7-0.1-1.9-0.1
			c-1.2,0-1.7,0.1-1.9,0.1c-0.1,0-0.1,0-0.1-0.1l0.1-0.4c0-0.1,0-0.1,0.1-0.1h0.4c0.7,0,1-0.4,1.4-1.5l3.5-9.7
			c-0.9,0.3-1.9,1.2-2.2,1.6c-0.1,0.1-0.1,0.1-0.2,0l-0.2-0.2c-0.1-0.1-0.1-0.1,0-0.2c0.6-0.8,1.5-1.6,2.9-2.1L161,27.3z
			 M159.2,35.7c2.2-0.3,4.4-1.9,4.4-4.1c0-1.4-0.8-2.1-1.6-2.1c-0.3,0-0.5,0-0.6,0.1L159.2,35.7z"/>
		<path fill="#898981" d="M172.7,23.3c0.1-0.1,0.2-0.1,0.3,0.1c0.1,0.2,0.1,0.3-0.1,0.4c-3.1,2.5-5.3,6.9-5.3,11.6
			c0,2.7,0.3,3.6,0.4,4.2c0,0.1,0,0.2-0.2,0.3c-0.2,0.1-0.3,0.1-0.3-0.1c-0.4-0.8-0.9-3-0.9-4.8C166.5,30.3,168.9,26.1,172.7,23.3z"
			/>
		<path fill="#898981" d="M176,25.7c0.2-0.6,0.1-0.9-0.5-0.9h-0.7c-0.1,0-0.2-0.1-0.1-0.1l0.1-0.4c0-0.1,0.1-0.1,0.2-0.1
			c1.9,0,3.7-0.1,4-0.1c1.3,0,4.1,0.1,4.1,2.6c0,1.8-1.9,3.2-4.1,3.5v0c0.4,0.1,0.7,0.7,0.9,1.1c0.1,0.2,1.3,2.7,1.7,3.3
			c0.5,0.7,0.8,1,1.6,1h0.5c0.1,0,0.1,0.1,0.1,0.2l-0.1,0.3c0,0.1-0.1,0.1-0.2,0.1c-0.2,0-0.5-0.1-1.3-0.1c-0.8,0-1.1,0.1-1.3,0.1
			c-0.1,0-0.2-0.1-0.5-0.6c-0.3-0.4-1.9-4-2.1-4.4c-0.5-1-1.5-0.9-2.2-0.9l-1.3,3.9c-0.3,1-0.1,1.3,0.7,1.3h0.7
			c0.1,0,0.1,0.1,0.1,0.1l-0.1,0.4c0,0.1-0.1,0.1-0.2,0.1c-0.2,0-1-0.1-2.5-0.1c-1.1,0-1.8,0.1-2,0.1c-0.1,0-0.1-0.1-0.1-0.1
			l0.1-0.4c0-0.1,0.1-0.1,0.2-0.1h0.3c0.6,0,1-0.4,1.1-0.9L176,25.7z M176.3,29.8c0.9,0,2,0.1,3.3-0.5c1.1-0.4,1.9-1.4,1.9-2.7
			c0-0.8-0.7-2-2.9-2c-0.3,0-0.5,0-0.7,0L176.3,29.8z"/>
		<path fill="#898981" d="M186.8,39l-1.5,1.8c-0.2,0.3-0.4,0.6-0.4,0.7c0,0.2,0.1,0.3,0.4,0.3h0.4c0.1,0,0.1,0,0.1,0.1l0,0.2
			c0,0.1,0,0.1-0.1,0.1c-0.1,0-0.6,0-1.4,0c-0.7,0-1.1,0-1.2,0c-0.1,0-0.1,0-0.1-0.1l0.1-0.2c0-0.1,0-0.1,0.1-0.1h0.2
			c0.5,0,0.9-0.3,1.3-0.8l4.9-5.8c0.1-0.1,0.1-0.1,0.3-0.1c0.1,0,0.4,0,0.5-0.1c0.1,0,0.3-0.1,0.3-0.1s0.1,0,0.1,0.1l-1.5,5.8
			c0,0.2-0.1,0.4-0.1,0.6s0.2,0.3,0.4,0.3h0.3c0.1,0,0.1,0,0.1,0.1l0,0.2c0,0.1,0,0.1-0.1,0.1c-0.1,0-0.5,0-1.3,0
			c-0.7,0-1.1,0-1.2,0c-0.1,0-0.1,0-0.1-0.1l0-0.2c0,0,0-0.1,0.1-0.1h0.2c0.4,0,0.7-0.1,0.9-0.9l0.5-1.9H186.8z M188.7,38.7l0.8-2.8
			c0-0.1-0.1-0.2-0.2-0.1l-2.3,2.8H188.7z"/>
		<path fill="#898981" d="M192.6,38.3c0-0.2,0.1-0.2,0.2-0.3c0.5-0.1,1.4-0.7,1.4-1.5c0-0.4-0.1-0.6-0.4-0.9
			c-0.1-0.1-0.5-0.4-0.5-0.8c0-0.4,0.3-0.8,0.8-0.8c0.8,0,1.3,1.1,1.3,1.7c0,2.1-2.2,2.8-2.6,2.8C192.7,38.5,192.6,38.5,192.6,38.3z
			"/>
		<path fill="#898981" d="M201.9,25.7c0.2-0.6,0.1-0.9-0.5-0.9h-0.7c-0.1,0-0.2-0.1-0.1-0.1l0.1-0.4c0-0.1,0.1-0.1,0.2-0.1
			c1.9,0,3.7-0.1,4-0.1c1.3,0,4.1,0.1,4.1,2.6c0,1.8-1.9,3.2-4.1,3.5v0c0.4,0.1,0.7,0.7,0.9,1.1c0.1,0.2,1.3,2.7,1.7,3.3
			c0.5,0.7,0.8,1,1.6,1h0.5c0.1,0,0.1,0.1,0.1,0.2l-0.1,0.3c0,0.1-0.1,0.1-0.2,0.1c-0.2,0-0.5-0.1-1.3-0.1c-0.8,0-1.1,0.1-1.3,0.1
			c-0.1,0-0.2-0.1-0.5-0.6c-0.3-0.4-1.9-4-2.1-4.4c-0.5-1-1.5-0.9-2.2-0.9l-1.3,3.9c-0.3,1-0.1,1.3,0.7,1.3h0.7
			c0.1,0,0.1,0.1,0.1,0.1l-0.1,0.4c0,0.1-0.1,0.1-0.2,0.1c-0.2,0-1-0.1-2.5-0.1c-1.1,0-1.8,0.1-2,0.1c-0.1,0-0.1-0.1-0.1-0.1
			l0.1-0.4c0-0.1,0.1-0.1,0.2-0.1h0.3c0.6,0,1-0.4,1.1-0.9L201.9,25.7z M202.2,29.8c0.9,0,2,0.1,3.3-0.5c1.1-0.4,1.9-1.4,1.9-2.7
			c0-0.8-0.7-2-2.9-2c-0.3,0-0.5,0-0.7,0L202.2,29.8z"/>
		<path fill="#898981" d="M212.2,36.2c0-0.2,0.1-0.3,0.1-0.4c0-0.2-0.2-0.3-0.6-0.3h-0.3c-0.1,0-0.1,0-0.1-0.1l0-0.2
			c0-0.1,0-0.1,0.1-0.1c0.1,0,0.4,0,0.9,0c0.6,0,1.1,0,1.5,0c0.1,0,1,0,1.6,0.3c0.4,0.2,0.7,0.6,0.7,1.1c0,1.3-1.2,1.9-2.1,2
			c-0.1,0-0.1,0,0,0.1c0.8,0.3,1.4,0.8,1.4,1.7c0,0.1,0,0.7-0.6,1.3c-0.4,0.4-1,0.6-2.2,0.6c-0.5,0-0.9,0-1.4,0c-0.5,0-1,0-1.5,0
			c-0.1,0-0.1,0-0.1-0.1l0-0.2c0-0.1,0-0.1,0.1-0.1h0.4c0.4,0,0.6-0.2,0.7-0.6L212.2,36.2z M211.8,41.2c-0.1,0.4-0.1,0.5,0.1,0.6
			c0.1,0.1,0.5,0.1,0.7,0.1c1.4,0,2-0.8,2-1.7c0-1.1-1.2-1.4-2-1.4h-0.1L211.8,41.2z M212.5,38.4c0.2,0,0.5,0,0.6,0
			c1.1,0,2.1-0.5,2.1-1.7c0-0.7-0.6-1.2-1.6-1.2c-0.1,0-0.2,0-0.3,0L212.5,38.4z"/>
		<path fill="#898981" d="M218,39.9c-0.1,0.1-0.2,0.1-0.3-0.1c-0.1-0.2-0.1-0.3,0.1-0.4c3.1-2.5,5.3-6.9,5.3-11.6
			c0-2.7-0.3-3.6-0.4-4.2c0-0.1,0-0.2,0.2-0.3c0.2-0.1,0.3-0.1,0.3,0.1c0.4,0.8,0.9,3,0.9,4.8C224.1,32.8,221.8,37.1,218,39.9z"/>
		<path fill="#898981" d="M237.1,30v1h-7v-1H237.1z M237.1,32.7v1h-7v-1H237.1z"/>
	</g>
</g>
</svg>
