<?xml version="1.0" encoding="utf-8"?>
<!-- Generator: Adobe Illustrator 18.1.1, SVG Export Plug-In . SVG Version: 6.00 Build 0)  -->
<!DOCTYPE svg PUBLIC "-//W3C//DTD SVG 1.1//EN" "http://www.w3.org/Graphics/SVG/1.1/DTD/svg11.dtd">
<svg version="1.1" id="Text_Layout" xmlns="http://www.w3.org/2000/svg" xmlns:xlink="http://www.w3.org/1999/xlink" x="0px"
	 y="0px" viewBox="0 0 108 95" enable-background="new 0 0 108 95" xml:space="preserve">
<g>
	<path fill="#333333" d="M71.1,78H36.9L19.9,48l17.1-30h34.2l17.1,30L71.1,78z M38.1,76h31.8l15.9-28L69.9,20H38.1L22.2,48L38.1,76z
		"/>
</g>
<g>
	<g>
		<path fill="#333333" d="M46,43.5c-0.6,0.1-1.2-0.2-1.4-0.8c-0.1-0.6,0.2-1.3,0.8-1.4c0.6-0.1,1.2,0.2,1.4,0.9
			C46.9,42.7,46.6,43.3,46,43.5L46,43.5z M55.9,36.4c-1.3,0-2.4,1.1-2.4,2.4c0,1.3,1.1,2.4,2.4,2.4c1.3,0,2.4-1.1,2.4-2.4
			C58.3,37.4,57.2,36.4,55.9,36.4L55.9,36.4z M71,49.9L70.8,49l-0.2-0.8l-0.3-0.7L70,46.8l-0.3-0.7l-0.3-0.7l-0.2-0.7L69,44l0-0.3
			l0.1-0.3l0.2-0.3l0-0.3L69.3,42l-0.2-0.6l-0.2-0.6l-0.2-0.6l-0.2-0.6l-0.2-0.6l-0.2-0.6l-0.2-0.6l-0.3-0.6L67,35.9l0.9-0.5
			l-0.3-0.5l-0.4-0.5l-0.3-0.5l-0.4-0.5l-0.3-0.4l-0.3-0.4l-0.4-0.4l-0.4-0.3l-0.4-0.3l0.8-0.3l-0.4-0.3l-0.4-0.3l-0.4-0.3L63.8,30
			l-0.4-0.2l-0.5-0.2l-0.5-0.2L62,29.2L61.5,29L61,28.8l-0.6-0.2l-0.6-0.1l-0.6-0.2l-0.6-0.1L58.1,28l-0.6-0.1l-0.6-0.1l-0.6-0.1
			l-0.6,0l-0.6,0l-0.6,0l-0.6,0l-0.6,0l-0.6,0L52,27.9l-0.6,0.1L50.7,28l-0.6,0.1l-0.6,0.1l-0.6,0.1l-0.6,0.2l-0.6,0.2L47,28.9
			l-0.6,0.2l-0.6,0.2l-0.6,0.3l-0.6,0.3L44,30.2l-0.6,0.3L43,30.9l-0.5,0.4L42,31.7l-0.4,0.4l-0.4,0.4l-0.4,0.4l-0.4,0.4l-0.4,0.5
			l-0.4,0.5l-0.3,0.5l-0.3,0.5l-0.3,0.5l-0.3,0.5L38.1,37l-0.2,0.6l-0.2,0.6l-0.2,0.6l-0.1,0.6l-0.1,0.6L37,41L37,42.2l0,1.2
			l0.1,1.2l0.2,1.2l0.3,1.2L38,48l2.9,4.8c5,5.1,4.8,10.3,4.8,10.3l0,1l0,3.1h17l0.1-0.3v-1l0-1l0.1-2.2l0.1-1.1l0.1-0.3l0.1-0.2
			l0.1-0.2l0.1-0.2l0.2-0.1l0.2-0.1l0.3-0.1l0.3,0l0.4,0l0.3,0h0.1l0.3,0l0.3,0l0.3,0l0.3,0l0.4,0l0.3,0l-0.8,0l0.4,0l0.4,0l0.4,0
			l0.2,0l0.2-0.1l0.2-0.1l0.2-0.1l0.2-0.1L69,60l0.2-0.2l0.1-0.2l0.1-0.4l0-0.5l-0.1-0.5v-0.5l0.1-0.2l0.1-0.2l0.1-0.2l0.1-0.1
			l0.1-0.2l0.1-0.2l0.1-0.2l0-0.2l0-0.2l0-0.2l-0.1-0.2l-0.1-0.2l-0.1-0.2l-0.1-0.2l-0.2-0.1L69,54.9l0.2-0.1l0.2-0.1l0.2-0.2
			l0.1-0.1l0.1-0.2l0.1-0.2l0-0.2l0-0.2l-0.2-0.7l-0.1-0.6l-0.1-0.6v-0.6L70,51l0.3-0.1l0.3-0.1l0.2-0.1l0.2-0.2l0.1-0.2l0.1-0.2
			L71,49.9z M48.9,43.9l-0.4,0.7c0,0-1-0.2-1-0.2l-0.4,0.3c0,0-0.1,1.1-0.2,1.1L46.2,46c0,0-0.6-0.9-0.6-0.9L45.1,45
			c0,0-0.8,0.6-0.9,0.6l-0.7-0.4c-0.1,0,0.1-1.1,0.1-1.1l-0.3-0.4c0,0-1-0.1-1.1-0.2l-0.2-0.8c0,0,0.8-0.6,0.8-0.6l0.1-0.5
			c0,0-0.6-0.8-0.6-0.9l0.4-0.7c0,0,1,0.2,1,0.2l0.4-0.3c0,0,0.1-1.1,0.2-1.1l0.8-0.2c0.1,0,0.6,0.9,0.6,0.9l0.5,0.1
			c0,0,0.8-0.6,0.9-0.6l0.7,0.4c0,0-0.1,1.1-0.1,1.1l0.3,0.4c0,0,1,0.1,1.1,0.2l0.2,0.8c0,0-0.8,0.6-0.8,0.6L48.3,43
			C48.3,43,48.9,43.9,48.9,43.9L48.9,43.9z M63.5,39.6L63.5,39.6c0,0.1-2.1,0.9-2.1,0.9L61,41.4c0,0,0.9,2,0.8,2.1l-1.2,1.2
			c-0.1,0.1-2.1-0.8-2.1-0.8l-0.9,0.4c0,0-0.8,2-0.9,2H55c-0.1,0-0.9-2-0.9-2l-0.9-0.4c0,0-2,0.9-2.1,0.8l-1.2-1.1
			c-0.1-0.1,0.9-2,0.9-2l-0.4-0.9c0,0-2.1-0.8-2.1-0.9v-1.6c0-0.1,2.1-0.9,2.1-0.9l0.4-0.9c0,0-0.9-2-0.8-2.1l1.2-1.2
			c0.1-0.1,2.1,0.8,2.1,0.8l0.9-0.4c0,0,0.8-2,0.9-2h1.7c0.1,0,0.9,2,0.9,2l0.9,0.4c0,0,2-0.9,2.1-0.8l1.2,1.2c0.1,0.1-0.9,2-0.9,2
			l0.4,0.9c0,0,2.1,0.8,2.1,0.9L63.5,39.6L63.5,39.6z M63.5,39.6"/>
	</g>
</g>
</svg>
