<?xml version="1.0" encoding="utf-8"?>
<!-- Generator: Adobe Illustrator 18.1.1, SVG Export Plug-In . SVG Version: 6.00 Build 0)  -->
<!DOCTYPE svg PUBLIC "-//W3C//DTD SVG 1.1//EN" "http://www.w3.org/Graphics/SVG/1.1/DTD/svg11.dtd">
<svg version="1.1" id="Text_Layout" xmlns="http://www.w3.org/2000/svg" xmlns:xlink="http://www.w3.org/1999/xlink" x="0px"
	 y="0px" viewBox="0 0 108 95" enable-background="new 0 0 108 95" xml:space="preserve">
<g>
	<path fill="#333333" d="M71.1,78H36.9L19.9,48l17.1-30h34.2l17.1,30L71.1,78z M38.1,76h31.8l15.9-28L69.9,20H38.1L22.2,48L38.1,76z
		"/>
</g>
<g>
	<g>
		<g>
			<path fill="#333333" d="M71.3,57.7c-1.2,0.8-12.4,7.5-14,8.4c-1.9,1.1-2.3,1.2-5.2,0.3c-1.9-0.6-4.5-1.5-6.4-2.4
				c-1.7-0.8-2.9-0.8-4.2,0l-2.2,1.3l-4.6-10.2c0,0,3.8-1.8,6.1-2.7c3.7-1.4,4.8-0.8,6.9,0.5c0.9,0.5,3.7,2.6,3.7,2.6
				s1.8,1.7,5.4,1.7c2.2,0,3.7,0.2,3.7,1.6c0,1.5-2.8,1.6-2.8,1.6h-5.3c-2.3,0-5.6-1.4-5.6-1.4s2.8,3,5.6,3h5.3
				c1.5,0,4.4-0.8,4.4-3.3c0-3.2-2.9-3.2-6.7-3.2c-0.3,0-0.6,0-0.8-0.1c0.1-0.1,0.3-0.2,0.5-0.3c0.7-0.4,1.6-0.9,2.6-1.5
				c2.7-1.6,4-1.9,5.4-0.1c0.9-0.9,2.1-1.2,3.1-1.2c1.1,0,2.1,0.7,1.8,1.9c2.9-1.7,4.3-1,4.9-0.2C73.7,55.2,73.2,56.4,71.3,57.7
				L71.3,57.7z M47.6,41.8c0-4,3.3-7.3,7.3-7.3c4,0,7.3,3.3,7.3,7.3c0,4-3.3,7.3-7.3,7.3C50.8,49.1,47.6,45.9,47.6,41.8L47.6,41.8z
				 M61.8,36.3c0.6,0.8,1.1,1.7,1.5,2.7c2.2-0.8,3.7-2.9,3.7-5.3c0-3.1-2.5-5.7-5.7-5.7c-2.9,0-5.2,2.1-5.6,4.9
				c1.8,0.2,3.4,0.9,4.7,2L61.8,36.3z M60.5,32.9"/>
		</g>
	</g>
</g>
</svg>
