<?xml version="1.0" encoding="utf-8"?>
<!-- Generator: Adobe Illustrator 18.1.1, SVG Export Plug-In . SVG Version: 6.00 Build 0)  -->
<!DOCTYPE svg PUBLIC "-//W3C//DTD SVG 1.1//EN" "http://www.w3.org/Graphics/SVG/1.1/DTD/svg11.dtd">
<svg version="1.1" id="Text_Layout" xmlns="http://www.w3.org/2000/svg" xmlns:xlink="http://www.w3.org/1999/xlink" x="0px"
	 y="0px" viewBox="0 0 108 95" enable-background="new 0 0 108 95" xml:space="preserve">
<g>
	<g>
		<path fill="#333333" d="M71.1,77H36.9L19.9,47l17.1-30h34.2l17.1,30L71.1,77z M38.1,75h31.8l15.9-28L69.9,19H38.1L22.2,47L38.1,75
			z"/>
	</g>
	<g>
		<g>
			<path fill="#333333" d="M53.5,30.8c-8.9,0-16.2,7.3-16.2,16.2c0,9,7.3,16.2,16.2,16.2c9,0,16.2-7.2,16.2-16.2
				C69.7,38.1,62.4,30.8,53.5,30.8L53.5,30.8z M53.5,60.9c-7.7,0-13.9-6.2-13.9-13.9c0-7.7,6.2-13.9,13.9-13.9
				c7.7,0,13.9,6.2,13.9,13.9C67.4,54.7,61.2,60.9,53.5,60.9L53.5,60.9z M53.5,60.9"/>
		</g>
		<g>
			<path fill="#333333" d="M44.5,56c0,0,10.2-3.7,12.3-5.7c2-2,5.7-12.3,5.7-12.3s-10.2,3.7-12.3,5.7C48.2,45.8,44.5,56,44.5,56
				L44.5,56z M51.9,45.4l3.3,3.3c0.8,0.8-7.4,4.1-7.4,4.1S51,44.5,51.9,45.4L51.9,45.4z M51.9,45.4"/>
		</g>
	</g>
</g>
</svg>
