<?xml version="1.0" encoding="utf-8"?>
<!-- Generator: Adobe Illustrator 18.1.1, SVG Export Plug-In . SVG Version: 6.00 Build 0)  -->
<!DOCTYPE svg PUBLIC "-//W3C//DTD SVG 1.1//EN" "http://www.w3.org/Graphics/SVG/1.1/DTD/svg11.dtd">
<svg version="1.1" id="Breaks" xmlns="http://www.w3.org/2000/svg" xmlns:xlink="http://www.w3.org/1999/xlink" x="0px" y="0px"
	 viewBox="0 0 226.3 65.5" enable-background="new 0 0 226.3 65.5" xml:space="preserve">
<g>
	<g>
		<path fill="#898981" d="M9,26.6c0.2-0.6,0.2-1.3-0.6-1.3H7.5c-0.1,0-0.1-0.1-0.1-0.2l0.1-0.4c0-0.1,0.1-0.2,0.3-0.2s3.6-0.1,4-0.1
			c1.8,0,2.8,0.1,3.8,0.9c0.8,0.7,1.1,1.3,1.1,2.6c0,1.9-1.6,4-5.5,4c-0.8,0-1.6-0.1-1.9-0.2l-0.9,3.5c-0.2,0.7-0.2,1.4,0.6,1.4h0.7
			c0.1,0,0.2,0.1,0.2,0.2l-0.1,0.4c0,0.1-0.1,0.2-0.2,0.2c-0.2,0-1-0.1-2.5-0.1c-1.3,0-2,0.1-2.2,0.1c-0.1,0-0.2-0.1-0.2-0.2l0-0.3
			c0-0.1,0.1-0.2,0.2-0.2h0.4c1,0,1.3-0.7,1.5-1.5L9,26.6z M9.4,31.2c0.3,0.2,0.8,0.3,1.6,0.3c2.8,0,4-2,4-3.6
			c0-2.3-1.9-2.7-3.2-2.7c-0.2,0-0.6,0-0.7,0L9.4,31.2z"/>
		<path fill="#898981" d="M20.2,34.2c-0.1,0.5,0.2,0.5,0.5,0.1l5.8-7.7c0.5-0.7,0.5-1.2,0-1.2h-0.6c-0.2,0-0.2-0.1-0.2-0.2l0.1-0.3
			c0-0.1,0.1-0.2,0.2-0.2c0.2,0,0.9,0.1,2,0.1c1.1,0,1.6-0.1,1.8-0.1c0.2,0,0.2,0.1,0.2,0.2L30,25.1c0,0.1-0.1,0.2-0.2,0.2h-0.6
			c-0.7,0-1.3,0.7-2,1.5L19,37.4c-0.1,0.2-0.3,0.3-0.5,0.3c-0.2,0-0.3-0.2-0.3-0.7l1.6-10.7c0.1-0.6-0.1-1-0.8-1h-0.6
			c-0.2,0-0.2,0-0.2-0.1l0.1-0.4c0-0.1,0-0.2,0.2-0.2c0.2,0,1.1,0.1,2.4,0.1c1.4,0,2.2-0.1,2.4-0.1c0.2,0,0.2,0.1,0.2,0.2l-0.1,0.4
			c0,0.1-0.1,0.2-0.2,0.2h-0.6c-0.7,0-1,0.2-1.1,0.8L20.2,34.2z"/>
		<path fill="#898981" d="M40.1,30.8v1h-7.4v-1H40.1z M40.1,33.7v1h-7.4v-1H40.1z"/>
	</g>
	<g>
		<path fill="#898981" d="M57.8,11.8c0.2-0.7-0.3-0.9-1-0.9H56c-0.2,0-0.2,0-0.2-0.2l0.1-0.4c0-0.1,0.1-0.1,0.3-0.1s0.8,0,1.6-0.1
			c0.8,0,1.7-0.1,2-0.1c2.4,0,5.1,0.3,6.7,1.8c1.2,1.2,1.4,2.3,1.4,3.4c0,3.7-2.4,5.6-3.5,6.3c-2.4,1.3-4.9,1.3-6.2,1.3
			c-0.5,0-2.2-0.1-2.8-0.1c-1.4,0-2,0.1-2.1,0.1c-0.1,0-0.2-0.1-0.2-0.2l0.1-0.4c0-0.1,0.1-0.1,0.2-0.1H54c0.7,0,1.3-0.2,1.6-1.5
			L57.8,11.8z M57.2,20.8c-0.1,0.3-0.1,0.6-0.1,0.8c0,0.4,0.5,0.6,1.3,0.6c2,0,4-0.4,5.4-1.6c1.2-1,2.3-3.1,2.3-5.3
			c0-1.2-0.5-2.4-1.2-3.1c-0.6-0.6-1.4-1-2.2-1.2c-1-0.3-1.8-0.2-2.1-0.2c-0.3,0-0.9,0-1.1,0.1L57.2,20.8z"/>
		<path fill="#898981" d="M68.4,27.1c0-2.2,1.7-5.1,3.6-5.1c1.1,0,1.6,0.8,1.6,2c0,2.4-1.7,5.3-3.5,5.3C69,29.3,68.4,28.4,68.4,27.1
			z M72.9,23.7c0-0.8-0.4-1.2-1-1.2c-1.5,0-2.8,3.3-2.8,5c0,1,0.4,1.4,0.9,1.4C71.7,28.9,72.9,25.5,72.9,23.7z"/>
		<path fill="#898981" d="M83.9,9.3c0.2-0.1,0.2-0.1,0.4,0.1c0.1,0.2,0.1,0.3-0.1,0.4c-3.2,2.7-5.6,7.3-5.6,12.2
			c0,2.9,0.3,3.8,0.4,4.4c0,0.2,0,0.2-0.2,0.3c-0.2,0.1-0.3,0.1-0.4-0.1c-0.4-0.8-0.9-3.1-0.9-5.1C77.5,16.7,80,12.2,83.9,9.3z"/>
		<path fill="#898981" d="M87.6,22.3c0-0.1,0.1-0.1,0.2-0.1h1c0.7,0,1.1-0.1,1.5-1c0.1-0.2,0.5-1.3,0.9-2.7l1.1-3.5
			c0.4-1.1,0.6-1.7,0.6-1.9c0-0.2-0.1-0.4-0.3-0.4c-0.2,0-0.6,0.2-1.2,0.4l-1,0.4c-0.1,0.1-0.2,0-0.3-0.1L90,13.3
			c0-0.1,0-0.2,0.1-0.2l4.3-2.2c0.3-0.1,0.4-0.2,0.6-0.2c0.1,0,0.2,0.1,0.2,0.2c0,0.1,0,0.2-0.2,0.5c-0.1,0.2-0.9,2.5-1.5,4.4
			l-1,3.3c-0.3,0.9-0.6,1.9-0.7,2.3c-0.2,0.7-0.1,0.9,0.8,0.9h1c0.1,0,0.1,0.1,0.1,0.2l-0.1,0.4c0,0.1,0,0.1-0.2,0.1
			c-0.2,0-2.9-0.1-3.1-0.1c-0.3,0-2.7,0.1-2.8,0.1c-0.1,0-0.1-0.1-0.1-0.1L87.6,22.3z"/>
		<path fill="#898981" d="M105,22.1v-3.3h-3.1v-1h3.1v-3.3h1.1v3.3h3.1v1h-3.1v3.3H105z"/>
		<path fill="#898981" d="M113.4,26c0-1.4,2.3-2.3,3.2-2.7c-0.5-0.4-0.7-0.7-0.7-1.1c0-0.4,0.3-0.7,1.6-1.4
			c-0.5-0.1-1.5-0.8-1.5-2.2c0-1.4,1.3-3.6,3.4-3.6c0.9,0,1.4,0.6,1.6,0.9c0.2-0.2,0.9-0.7,1.6-0.7c0.6,0,0.8,0.5,0.8,0.7
			c0,0.2-0.1,0.6-0.6,0.6c-0.4,0-0.5-0.2-0.6-0.3c-0.1-0.1-0.2-0.1-0.4-0.1c-0.2,0-0.5,0.1-0.5,0.3c0.1,0.2,0.2,0.8,0.2,1.1
			c0,0.9-0.5,3-2.7,3.4c-0.3,0.1-0.5,0.1-0.6,0.1c-0.4,0.2-1,0.6-1,0.9c0,0.2,0.2,0.4,0.3,0.5c0.3,0.2,1.2,0.8,2.5,1.6
			c1.1,0.7,1.4,1.3,1.4,2c0,0.3-0.3,2.5-4,2.5C115.3,28.5,113.4,27.4,113.4,26z M117.7,27.9c1.3,0,2.4-0.5,2.4-1.5
			c0-0.8-0.8-1.3-1.3-1.7l-1.7-1.1c-1.6,0.6-2.4,1.3-2.4,2.2C114.7,27.2,116.4,27.9,117.7,27.9z M120.2,16.7c0-0.9-0.3-1.3-0.9-1.3
			c-1.1,0-2.1,2.2-2.1,3.6c0,0.9,0.3,1.3,0.9,1.3C119.5,20.4,120.2,18.1,120.2,16.7z"/>
		<path fill="#898981" d="M123.1,28.3c0-1.5,1.2-3.7,2.5-3.7c0.5,0,0.6,0.4,0.6,0.6c0,0.3-0.3,0.5-0.5,0.5c-0.1,0-0.2-0.1-0.3-0.2
			c0-0.1-0.2-0.3-0.3-0.3c-0.3,0-0.6,0.3-0.8,0.8c-0.3,0.6-0.5,1.6-0.5,1.9c0,0.8,0.2,0.9,0.4,0.9c0.4,0,0.9-0.4,1-0.6
			c0,0,0.1-0.1,0.1,0l0.1,0.1c0,0,0.1,0.1,0,0.1c-0.2,0.2-0.9,1-1.6,1C123.5,29.3,123.1,29,123.1,28.3z"/>
		<path fill="#898981" d="M129.8,26.7c-0.2,0.1-0.2,0.1-0.4-0.1c-0.1-0.2-0.1-0.3,0.1-0.4c3.2-2.7,5.6-7.3,5.6-12.2
			c0-2.9-0.3-3.8-0.4-4.4c0-0.2,0-0.2,0.2-0.3c0.2-0.1,0.3-0.1,0.4,0.1c0.4,0.8,0.9,3.1,0.9,5.1C136.2,19.3,133.7,23.7,129.8,26.7z"
			/>
		<path fill="#898981" d="M137.3,16.2c0-0.1,0.1-0.1,0.1-0.1h0.6c0.4,0,0.6,0,0.9-0.6c0.1-0.1,0.3-0.8,0.5-1.6l0.6-2
			c0.2-0.7,0.3-1,0.3-1.1c0-0.1,0-0.2-0.2-0.2c-0.1,0-0.3,0.1-0.7,0.2l-0.6,0.3c-0.1,0-0.1,0-0.2,0l-0.1-0.2c0-0.1,0-0.1,0.1-0.1
			l2.5-1.3c0.2-0.1,0.2-0.1,0.3-0.1c0.1,0,0.1,0,0.1,0.1c0,0,0,0.1-0.1,0.3c0,0.1-0.5,1.4-0.9,2.6l-0.6,1.9
			c-0.2,0.5-0.4,1.1-0.4,1.3c-0.1,0.4-0.1,0.5,0.5,0.5h0.6c0.1,0,0.1,0,0.1,0.1l0,0.2c0,0.1,0,0.1-0.1,0.1c-0.1,0-1.7,0-1.8,0
			c-0.2,0-1.5,0-1.6,0c0,0-0.1,0-0.1-0.1L137.3,16.2z"/>
		<path fill="#898981" d="M75.1,36.3c0.2-0.1,0.2-0.1,0.4,0.1c0.1,0.2,0.1,0.3-0.1,0.4c-3.2,2.7-5.6,7.3-5.6,12.2
			c0,2.9,0.3,3.8,0.4,4.4c0,0.2,0,0.2-0.2,0.3c-0.2,0.1-0.3,0.1-0.4-0.1c-0.4-0.8-0.9-3.1-0.9-5.1C68.6,43.7,71.2,39.2,75.1,36.3z"
			/>
		<path fill="#898981" d="M74,49.9c-0.1,0-0.2-0.1-0.1-0.2l4.5-11.1c0.2-0.5,0-0.8-0.7-0.8h-0.5c-0.1,0-0.1-0.1-0.1-0.2l0.1-0.3
			c0.1-0.1,0.1-0.2,0.2-0.2H80c0.2,0,0.2,0.2,0.2,0.3L77.4,44l0.1,0c0.6-0.8,2-2,3.2-2c0.4,0,1,0.2,1,1.1c0,1.5-2.7,3-3.5,3.3v0.1
			l1.2,2c0.3,0.5,0.6,0.8,0.9,0.8c0.4,0,0.7-0.3,0.9-0.5c0.1-0.1,0.1-0.1,0.2,0l0.2,0.2c0,0,0,0.1,0,0.2C81.5,49.2,80.8,50,80,50
			c-0.9,0-1.3-0.2-1.7-1.1l-1-2c-0.1-0.2-0.4-0.3-0.9-0.2l-1.2,3c0,0.1-0.1,0.1-0.3,0.1H74z M76.4,46.3c1.8,0.2,4-1.6,4-2.8
			c0-0.3-0.2-0.6-0.5-0.6c-1,0-2.3,1.3-2.5,1.6c-0.2,0.2-0.4,0.5-0.5,0.7L76.4,46.3z"/>
		<path fill="#898981" d="M82.2,55.2c0-0.9,0.6-2.1,1.4-2.9c0.4-0.4,1-0.7,1.5-0.7c0.4,0,0.6,0.3,0.6,0.6c0,0.5-0.4,1.1-1,1.4
			c-0.6,0.3-1.2,0.4-1.6,0.5c-0.1,0.1-0.1,0.5-0.1,1c0,0.5,0.4,0.7,0.6,0.7c0.5,0,1-0.4,1.3-0.8c0,0,0.1-0.1,0.1,0l0.1,0.1
			c0.1,0,0.1,0.1,0,0.1c-0.3,0.4-0.9,1.1-1.8,1.1C82.5,56.3,82.2,55.9,82.2,55.2z M83.2,53.7c0.4,0,1.8-0.4,1.8-1.2
			c0-0.2-0.1-0.4-0.4-0.4C84,52.1,83.3,53.3,83.2,53.7z"/>
		<path fill="#898981" d="M91.2,44.9c0-0.1,0-0.2,0.2-0.2h6.1c0.1,0,0.2,0,0.2,0.2v0.6c0,0.2-0.1,0.2-0.2,0.2h-6.1
			c-0.1,0-0.2,0-0.2-0.1V44.9z"/>
		<path fill="#898981" d="M101.3,53c0-1.4,2.3-2.3,3.2-2.7c-0.5-0.4-0.7-0.7-0.7-1.1c0-0.4,0.3-0.7,1.6-1.4
			c-0.5-0.1-1.5-0.8-1.5-2.2c0-1.4,1.3-3.6,3.4-3.6c0.9,0,1.4,0.6,1.6,0.9c0.2-0.2,0.9-0.7,1.6-0.7c0.6,0,0.8,0.5,0.8,0.7
			c0,0.2-0.1,0.6-0.6,0.6c-0.4,0-0.5-0.2-0.6-0.3c-0.1-0.1-0.2-0.1-0.4-0.1c-0.2,0-0.5,0.1-0.5,0.3c0.1,0.2,0.2,0.8,0.2,1.1
			c0,0.9-0.5,3-2.7,3.4c-0.3,0.1-0.5,0.1-0.6,0.1c-0.4,0.2-1,0.6-1,0.9c0,0.2,0.2,0.4,0.3,0.5c0.3,0.2,1.2,0.8,2.5,1.6
			c1.1,0.7,1.4,1.3,1.4,2c0,0.3-0.3,2.5-4,2.5C103.2,55.5,101.3,54.4,101.3,53z M105.5,54.9c1.3,0,2.4-0.5,2.4-1.5
			c0-0.8-0.8-1.3-1.3-1.7l-1.7-1.1c-1.6,0.6-2.4,1.3-2.4,2.2C102.6,54.2,104.3,54.9,105.5,54.9z M108,43.7c0-0.9-0.3-1.3-0.9-1.3
			c-1.1,0-2.1,2.2-2.1,3.6c0,0.9,0.3,1.3,0.9,1.3C107.4,47.4,108,45.1,108,43.7z"/>
		<path fill="#898981" d="M110.9,55.3c0-1.5,1.2-3.7,2.5-3.7c0.5,0,0.6,0.4,0.6,0.6c0,0.3-0.3,0.5-0.5,0.5c-0.1,0-0.2-0.1-0.3-0.2
			c0-0.1-0.2-0.3-0.3-0.3c-0.3,0-0.6,0.3-0.8,0.8c-0.3,0.6-0.5,1.6-0.5,1.9c0,0.8,0.2,0.9,0.4,0.9c0.4,0,0.9-0.4,1-0.6
			c0,0,0.1-0.1,0.1,0l0.1,0.1c0,0,0.1,0.1,0,0.1c-0.2,0.2-0.9,1-1.6,1C111.4,56.3,110.9,56,110.9,55.3z"/>
		<path fill="#898981" d="M115.8,53.7c-0.2,0.1-0.2,0.1-0.4-0.1c-0.1-0.2-0.1-0.3,0.1-0.4c3.2-2.7,5.6-7.3,5.6-12.2
			c0-2.9-0.3-3.8-0.4-4.4c0-0.2,0-0.2,0.2-0.3c0.2-0.1,0.3-0.1,0.4,0.1c0.4,0.8,0.9,3.1,0.9,5.1C122.3,46.3,119.8,50.7,115.8,53.7z"
			/>
		<path fill="#898981" d="M123.4,43.2c0-0.1,0.1-0.1,0.1-0.1h0.6c0.4,0,0.6,0,0.9-0.6c0.1-0.1,0.3-0.8,0.5-1.6l0.6-2
			c0.2-0.7,0.3-1,0.3-1.1c0-0.1,0-0.2-0.2-0.2c-0.1,0-0.3,0.1-0.7,0.2l-0.6,0.3c-0.1,0-0.1,0-0.2,0l-0.1-0.2c0-0.1,0-0.1,0.1-0.1
			l2.5-1.3c0.2-0.1,0.2-0.1,0.3-0.1c0.1,0,0.1,0,0.1,0.1c0,0,0,0.1-0.1,0.3c0,0.1-0.5,1.4-0.9,2.6l-0.6,1.9
			c-0.2,0.5-0.4,1.1-0.4,1.3c-0.1,0.4-0.1,0.5,0.5,0.5h0.6c0.1,0,0.1,0,0.1,0.1l0,0.2c0,0.1,0,0.1-0.1,0.1c-0.1,0-1.7,0-1.8,0
			c-0.2,0-1.5,0-1.6,0c0,0-0.1,0-0.1-0.1L123.4,43.2z"/>
	</g>
	<g>
		<path fill="#898981" d="M164.2,30.8v1h-7.4v-1H164.2z M164.2,33.7v1h-7.4v-1H164.2z"/>
	</g>
	<g>
		<path fill="#898981" d="M191.8,11.8c0.2-0.7-0.3-0.9-1-0.9H190c-0.2,0-0.2,0-0.2-0.2l0.1-0.4c0-0.1,0.1-0.1,0.3-0.1s0.8,0,1.6-0.1
			c0.8,0,1.7-0.1,2-0.1c2.4,0,5.1,0.3,6.7,1.8c1.2,1.2,1.4,2.3,1.4,3.4c0,3.7-2.4,5.6-3.5,6.3c-2.4,1.3-4.9,1.3-6.2,1.3
			c-0.5,0-2.2-0.1-2.8-0.1c-1.4,0-2,0.1-2.1,0.1c-0.1,0-0.2-0.1-0.2-0.2l0.1-0.4c0-0.1,0.1-0.1,0.2-0.1h0.6c0.7,0,1.3-0.2,1.6-1.5
			L191.8,11.8z M191.2,20.8c-0.1,0.3-0.1,0.6-0.1,0.8c0,0.4,0.5,0.6,1.3,0.6c2,0,4-0.4,5.4-1.6c1.2-1,2.3-3.1,2.3-5.3
			c0-1.2-0.5-2.4-1.2-3.1c-0.6-0.6-1.4-1-2.2-1.2c-1-0.3-1.8-0.2-2.1-0.2c-0.3,0-0.9,0-1.1,0.1L191.2,20.8z"/>
		<path fill="#898981" d="M202.3,28.9c0-0.1,0.1-0.1,0.1-0.1h0.6c0.4,0,0.6,0,0.9-0.6c0.1-0.1,0.3-0.8,0.5-1.6l0.6-2
			c0.2-0.7,0.3-1,0.3-1.1c0-0.1,0-0.2-0.2-0.2c-0.1,0-0.3,0.1-0.7,0.2l-0.6,0.3c-0.1,0-0.1,0-0.2,0l-0.1-0.2c0-0.1,0-0.1,0.1-0.1
			l2.5-1.3c0.2-0.1,0.2-0.1,0.3-0.1c0.1,0,0.1,0,0.1,0.1c0,0,0,0.1-0.1,0.3c0,0.1-0.5,1.4-0.9,2.6l-0.6,1.9
			c-0.2,0.5-0.4,1.1-0.4,1.3c-0.1,0.4-0.1,0.5,0.5,0.5h0.6c0.1,0,0.1,0,0.1,0.1l0,0.2c0,0.1,0,0.1-0.1,0.1c-0.1,0-1.7,0-1.8,0
			c-0.2,0-1.5,0-1.6,0c0,0-0.1,0-0.1-0.1L202.3,28.9z"/>
		<path fill="#898981" d="M178.4,49.9c-0.1,0-0.2-0.1-0.1-0.2l4.5-11.1c0.2-0.5,0-0.8-0.7-0.8h-0.5c-0.1,0-0.1-0.1-0.1-0.2l0.1-0.3
			c0.1-0.1,0.1-0.2,0.2-0.2h2.5c0.2,0,0.2,0.2,0.2,0.3l-2.7,6.6l0.1,0c0.6-0.8,2-2,3.2-2c0.4,0,1,0.2,1,1.1c0,1.5-2.7,3-3.5,3.3v0.1
			l1.2,2c0.3,0.5,0.6,0.8,0.9,0.8c0.4,0,0.7-0.3,0.9-0.5c0.1-0.1,0.1-0.1,0.2,0L186,49c0,0,0,0.1,0,0.2c-0.1,0.1-0.8,0.9-1.6,0.9
			c-0.9,0-1.3-0.2-1.7-1.1l-1-2c-0.1-0.2-0.4-0.3-0.9-0.2l-1.2,3c0,0.1-0.1,0.1-0.3,0.1H178.4z M180.9,46.3c1.8,0.2,4-1.6,4-2.8
			c0-0.3-0.2-0.6-0.5-0.6c-1,0-2.3,1.3-2.5,1.6c-0.2,0.2-0.4,0.5-0.5,0.7L180.9,46.3z"/>
		<path fill="#898981" d="M186.7,55.2c0-0.9,0.6-2.1,1.4-2.9c0.4-0.4,1-0.7,1.5-0.7c0.4,0,0.6,0.3,0.6,0.6c0,0.5-0.4,1.1-1,1.4
			c-0.6,0.3-1.2,0.4-1.6,0.5c-0.1,0.1-0.1,0.5-0.1,1c0,0.5,0.4,0.7,0.6,0.7c0.5,0,1-0.4,1.3-0.8c0,0,0.1-0.1,0.1,0l0.1,0.1
			c0.1,0,0.1,0.1,0,0.1c-0.3,0.4-0.9,1.1-1.8,1.1C187,56.3,186.7,55.9,186.7,55.2z M187.7,53.7c0.4,0,1.8-0.4,1.8-1.2
			c0-0.2-0.1-0.4-0.4-0.4C188.4,52.1,187.8,53.3,187.7,53.7z"/>
		<path fill="#898981" d="M193.8,44.9c0-0.1,0-0.2,0.2-0.2h6.1c0.1,0,0.2,0,0.2,0.2v0.6c0,0.2-0.1,0.2-0.2,0.2h-6.1
			c-0.1,0-0.2,0-0.2-0.1V44.9z"/>
		<path fill="#898981" d="M203.9,53c0-1.4,2.3-2.3,3.2-2.7c-0.5-0.4-0.7-0.7-0.7-1.1c0-0.4,0.3-0.7,1.6-1.4
			c-0.5-0.1-1.5-0.8-1.5-2.2c0-1.4,1.3-3.6,3.4-3.6c0.9,0,1.4,0.6,1.6,0.9c0.2-0.2,0.9-0.7,1.6-0.7c0.6,0,0.8,0.5,0.8,0.7
			c0,0.2-0.1,0.6-0.6,0.6c-0.4,0-0.5-0.2-0.6-0.3c-0.1-0.1-0.2-0.1-0.4-0.1c-0.2,0-0.5,0.1-0.5,0.3c0.1,0.2,0.2,0.8,0.2,1.1
			c0,0.9-0.5,3-2.7,3.4c-0.3,0.1-0.5,0.1-0.6,0.1c-0.4,0.2-1,0.6-1,0.9c0,0.2,0.2,0.4,0.3,0.5c0.3,0.2,1.2,0.8,2.5,1.6
			c1.1,0.7,1.4,1.3,1.4,2c0,0.3-0.3,2.5-4,2.5C205.8,55.5,203.9,54.4,203.9,53z M208.2,54.9c1.3,0,2.4-0.5,2.4-1.5
			c0-0.8-0.8-1.3-1.3-1.7l-1.7-1.1c-1.6,0.6-2.4,1.3-2.4,2.2C205.2,54.2,206.9,54.9,208.2,54.9z M210.7,43.7c0-0.9-0.3-1.3-0.9-1.3
			c-1.1,0-2.1,2.2-2.1,3.6c0,0.9,0.3,1.3,0.9,1.3C210,47.4,210.7,45.1,210.7,43.7z"/>
		<path fill="#898981" d="M213.5,55.3c0-1.5,1.2-3.7,2.5-3.7c0.5,0,0.6,0.4,0.6,0.6c0,0.3-0.3,0.5-0.5,0.5c-0.1,0-0.2-0.1-0.3-0.2
			c0-0.1-0.2-0.3-0.3-0.3c-0.3,0-0.6,0.3-0.8,0.8c-0.3,0.6-0.5,1.6-0.5,1.9c0,0.8,0.2,0.9,0.4,0.9c0.4,0,0.9-0.4,1-0.6
			c0,0,0.1-0.1,0.1,0l0.1,0.1c0,0,0.1,0.1,0,0.1c-0.2,0.2-0.9,1-1.6,1C214,56.3,213.5,56,213.5,55.3z"/>
	</g>
	<g>
		<rect x="50.3" y="32" fill="#898981" width="94" height="1"/>
	</g>
	<g>
		<rect x="178.3" y="32" fill="#898981" width="43" height="1"/>
	</g>
</g>
</svg>
