<?xml version="1.0" encoding="utf-8"?>
<!-- Generator: Adobe Illustrator 18.1.1, SVG Export Plug-In . SVG Version: 6.00 Build 0)  -->
<!DOCTYPE svg PUBLIC "-//W3C//DTD SVG 1.1//EN" "http://www.w3.org/Graphics/SVG/1.1/DTD/svg11.dtd">
<svg version="1.1" id="Breaks" xmlns="http://www.w3.org/2000/svg" xmlns:xlink="http://www.w3.org/1999/xlink" x="0px" y="0px"
	 viewBox="0 0 512.2 41" enable-background="new 0 0 512.2 41" xml:space="preserve">
<g>
	<g>
		<path fill="#898981" d="M17.1,20.5c-0.1,0.5,0.2,0.4,0.4,0.1l5.4-7.4c0.5-0.6,0.4-1.2-0.1-1.2l-0.6,0c-0.2,0-0.2-0.1-0.2-0.2
			l0.1-0.3c0-0.1,0.1-0.1,0.2-0.2c0.2,0,0.8,0,1.9,0c1,0,1.5-0.1,1.7-0.1c0.2,0,0.2,0.1,0.2,0.2l-0.1,0.3c0,0.1-0.1,0.2-0.2,0.2
			l-0.5,0c-0.6,0-1.2,0.7-1.8,1.5l-7.6,10.2c-0.1,0.1-0.3,0.3-0.5,0.3c-0.2,0-0.3-0.2-0.3-0.6l1.3-10.2c0.1-0.6-0.1-1-0.8-1l-0.6,0
			c-0.1,0-0.2,0-0.2-0.1l0.1-0.4c0-0.1,0-0.2,0.2-0.2c0.2,0,1,0,2.3,0c1.3,0,2-0.1,2.3-0.1c0.2,0,0.2,0,0.2,0.1L20,11.9
			c0,0.1-0.1,0.1-0.2,0.1l-0.6,0c-0.6,0-0.9,0.2-1,0.8L17.1,20.5z"/>
		<path fill="#898981" d="M32,15.9c0.1,0,0.1,0.1,0.1,0.2c-0.3,0.7-1.2,3.2-1.3,3.5c-0.1,0.3-0.8,2.6-0.8,2.7s0.1,0.2,0.2,0.2
			c0.2,0,1.1-1,1.2-1.1c0.1-0.1,0.1-0.1,0.1,0l0.2,0.2c0.1,0.1,0.1,0.1,0,0.1c-0.2,0.4-1.7,1.9-2.8,1.9c-0.2,0-0.4-0.1-0.4-0.3
			c0-0.3,0.2-0.8,0.8-2.8l-0.1,0c-0.7,1.2-2.5,3.1-3.8,3.1c-0.4,0-1-0.3-1-1.1c0-2.6,2.8-6.6,5-6.6c0.8,0,1.1,0.3,1.3,0.6l0.3-0.5
			c0.1-0.1,0.1-0.1,0.2-0.1L32,15.9z M29.8,19.1c0.2-0.5,0.4-1,0.4-1.5c0-0.5-0.2-1.1-0.9-1c-1.7,0-3.5,3.9-3.5,5.6
			c0,0.4,0.2,0.6,0.5,0.6C27.2,22.7,29.4,19.8,29.8,19.1z"/>
		<path fill="#898981" d="M33.6,23.5c-0.1,0-0.2-0.1-0.2-0.2l1-2.9c0.3-1,0.8-2.9,0.8-3.2c0-0.2-0.1-0.3-0.3-0.3
			c-0.4,0-1.2,0.8-1.4,1.1c0,0.1-0.1,0-0.1,0L33.2,18c0,0,0-0.1,0-0.1c0.4-0.6,1.4-1.8,2.6-1.8c0.4,0,0.5,0.3,0.5,0.6
			c0,0.3-0.3,1.4-0.6,2.6l0.1,0c0.5-1,1.9-3.3,2.9-3.3c0.5,0,0.9,0.3,0.9,0.8c0,0.5-0.3,0.8-0.7,0.8c-0.2,0-0.3,0-0.5-0.2
			s-0.2-0.2-0.5-0.2c-0.5,0-1.5,1.6-2.2,2.8c-0.2,0.3-0.4,0.8-0.7,1.6l-0.6,1.8c0,0.1-0.1,0.1-0.2,0.1L33.6,23.5z"/>
		<path fill="#898981" d="M51,10.5c0.1-0.1,0.2-0.1,0.3,0.1c0.1,0.2,0.1,0.2-0.1,0.4c-3,2.6-5.2,7-5.1,11.7c0,2.7,0.3,3.6,0.5,4.2
			c0,0.1,0,0.2-0.2,0.3c-0.2,0.1-0.3,0.1-0.3,0c-0.4-0.8-0.9-3-0.9-4.8C45,17.7,47.4,13.4,51,10.5z"/>
		<path fill="#898981" d="M54.7,13c0.2-0.6,0.1-0.9-0.5-0.9l-0.7,0c-0.1,0-0.2-0.1-0.1-0.1l0.1-0.4c0-0.1,0.1-0.1,0.2-0.1
			c1.9,0,3.7-0.1,4-0.1c1.3,0,4.1,0.1,4.1,2.5c0,1.8-1.9,3.3-4,3.6v0c0.4,0.1,0.7,0.7,0.9,1.1c0.1,0.2,1.4,2.7,1.7,3.2
			c0.5,0.7,0.8,1,1.6,1l0.4,0c0.1,0,0.1,0.1,0.1,0.2l0,0.3c0,0.1-0.1,0.1-0.2,0.1c-0.2,0-0.5,0-1.3,0c-0.8,0-1.1,0.1-1.3,0.1
			c-0.1,0-0.2-0.1-0.5-0.6c-0.3-0.4-1.9-3.9-2.1-4.4c-0.5-1-1.5-0.9-2.2-0.9l-1.2,4c-0.3,1-0.1,1.3,0.7,1.3l0.7,0
			c0.1,0,0.1,0.1,0.1,0.1l0,0.4c0,0.1-0.1,0.1-0.2,0.1c-0.2,0-1,0-2.5,0c-1.1,0-1.8,0.1-2,0.1c-0.1,0-0.1-0.1-0.1-0.1l0.1-0.4
			c0-0.1,0.1-0.1,0.2-0.1l0.3,0c0.6,0,0.9-0.4,1.1-0.9L54.7,13z M55.1,17.1c0.9,0,2,0.1,3.3-0.5c1.1-0.5,1.9-1.4,1.8-2.7
			c0-0.8-0.7-2-2.9-1.9c-0.3,0-0.5,0-0.7,0L55.1,17.1z"/>
		<path fill="#898981" d="M65.2,24.3c0-0.1,0.1-0.1,0.1-0.1l0.6-0.2c0,0,0.1,0,0.1,0c0,0,0,0,0,0c0,0,0,0.1,0,0.1l-0.5,1.1
			c0.1,0,0.1,0,0.2,0c0.1,0,0.2,0,0.2,0c1,0,1.5,0.7,1.5,1.4c0,0.7-0.3,1.5-1.2,2.2c-0.5,0.3-1.3,0.7-2.2,0.8l-0.7,2.1
			c-0.2,0.6-0.1,0.7,0.3,0.7l0.3,0c0.1,0,0.1,0.1,0.1,0.1l-0.1,0.2c0,0,0,0.1-0.1,0.1c-0.1,0-0.4,0-1.1,0c-0.7,0-1,0-1.1,0
			c-0.1,0-0.1,0-0.1-0.1l0.1-0.2c0,0,0-0.1,0.1-0.1l0.2,0c0.4,0,0.6-0.3,0.8-0.9l2-5.7c-0.5,0.2-1.1,0.7-1.3,1c0,0-0.1,0-0.1,0
			l-0.1-0.1c0,0,0-0.1,0-0.1c0.4-0.4,0.8-0.9,1.6-1.3L65.2,24.3z M64.2,29.2c1.3-0.2,2.6-1.2,2.5-2.5c0-0.8-0.5-1.2-1-1.2
			c-0.2,0-0.3,0-0.3,0L64.2,29.2z"/>
		<path fill="#898981" d="M70.1,27.2c-0.1,0.1-0.2,0.1-0.3-0.1c-0.1-0.2-0.1-0.2,0.1-0.4c3-2.6,5.2-7,5.1-11.7
			c0-2.7-0.3-3.6-0.5-4.2c0-0.1,0-0.2,0.2-0.3c0.2-0.1,0.3-0.1,0.3,0c0.4,0.8,0.9,3,1,4.8C76.1,20.1,73.8,24.3,70.1,27.2z"/>
		<path fill="#898981" d="M89.6,17.2l0,1l-7,0.1l0-1L89.6,17.2z M89.7,19.9l0,1l-7,0.1l0-1L89.7,19.9z"/>
		<path fill="#898981" d="M97.6,17.3c-0.3,0-0.6,0.3-0.6,0.6c0,0.3,0.2,0.4,0.4,0.5c0.1,0.1,0.4,0.2,0.4,0.6c0,0.3-0.2,0.6-0.7,0.6
			c-0.3,0-0.9-0.3-0.9-1c0-0.6,0.4-1.2,0.8-1.6c0.2-0.3,0.8-0.6,1.4-0.7l1.3,0l1.7-0.1c0.2,0,0.4,0.1,0.2,0.4
			c-0.5,0.6-2.1,3.2-2,4.9c0,0.8,0.5,1.3,1.1,1.3c0.8,0,1.6-0.5,2.1-1.3c0.3-0.5,0.5-1.6,0.7-2.3c0.1-0.7,0.1-1.6,0.3-2.2
			c0.1-0.5,0.5-0.6,0.8-0.6c0.3,0,0.5,0.2,0.5,0.4c0,0.3-0.4,1.4-0.9,2.8c-0.2,0.7-0.4,1.2-0.4,1.6c0,0.8,0.7,1.5,1.6,1.4
			c1.2,0,2.5-1.4,2.5-3.8c0-0.3-0.1-0.9-0.3-1.1c-0.2-0.2-0.6-0.5-0.6-1c0-0.4,0.3-0.7,0.8-0.7s0.9,0.3,0.9,1.8c0,1.3-0.3,3-1.1,4.2
			c-0.5,0.7-1.2,1.7-2.6,1.7c-1.1,0-1.8-1-1.8-1.6c-0.3,0.4-1.5,1.7-2.9,1.7c-0.8,0-1.6-0.6-1.7-1.8c0-1.5,1.6-4,2.3-4.8l-0.1-0.1
			c-0.2,0.1-0.9,0.3-1.3,0.3L97.6,17.3z"/>
		<path fill="#898981" d="M111.8,16.8c0.7,0,0.9-0.4,1.2-0.8c0-0.1,0.1-0.1,0.1-0.1l0.2,0.1c0,0,0,0.1,0,0.1
			c-0.3,0.4-0.7,1.4-0.7,1.5c0,0.1-0.1,0.1-0.1,0.1c-0.1,0-0.1,0-0.2-0.1c-0.1-0.1-0.3-0.1-0.5-0.1l-2.4,0c-0.1,0-0.2,0-0.3,0
			c-0.1,0-0.2,0-0.3,0c-0.1,0-0.1,0-0.1-0.1c0,0,0-0.1,0.1-0.2c1.4-1.1,4.1-3.1,4.1-4.7c0-0.4-0.1-1.2-1.1-1.2
			c-0.8,0-1.3,0.9-1.5,1.2c-0.1,0.1-0.1,0.1-0.1,0.1l-0.2-0.1c0,0,0-0.1,0-0.1c0.2-0.6,1-1.7,2.2-1.7c0.9,0,1.5,0.6,1.5,1.6
			c0,1.8-2.7,3.6-3.9,4.5v0L111.8,16.8z"/>
		<path fill="#898981" d="M117.2,26.3l-1.4,1.9c-0.2,0.3-0.4,0.6-0.4,0.7c0,0.2,0.1,0.2,0.4,0.2l0.4,0c0.1,0,0.1,0,0.1,0.1l0,0.2
			c0,0.1,0,0.1-0.1,0.1c-0.1,0-0.6,0-1.4,0c-0.7,0-1.1,0.1-1.2,0.1c-0.1,0-0.1,0-0.1-0.1l0-0.2c0-0.1,0-0.1,0.1-0.1l0.2,0
			c0.5,0,0.9-0.3,1.3-0.8l4.8-5.9c0.1-0.1,0.1-0.1,0.3-0.1c0.1,0,0.4,0,0.5-0.1c0.1,0,0.3-0.1,0.3-0.1c0.1,0,0.1,0,0.1,0.1l-1.4,5.9
			c0,0.2-0.1,0.4-0.1,0.6s0.2,0.3,0.4,0.3l0.3,0c0.1,0,0.1,0,0.1,0.1l0,0.2c0,0.1,0,0.1-0.1,0.1c-0.1,0-0.5,0-1.3,0
			c-0.7,0-1.1,0-1.2,0.1c-0.1,0-0.1,0-0.1-0.1l0-0.2c0,0,0-0.1,0.1-0.1l0.2,0c0.4,0,0.7-0.1,0.9-0.9l0.5-2L117.2,26.3z M119.1,25.9
			l0.8-2.8c0-0.1-0.1-0.2-0.2-0.1l-2.2,2.9L119.1,25.9z"/>
		<path fill="#898981" d="M128.8,16.8c0.6,0.8,0.9,1.7,0.9,2.8c0,1.2-0.4,2.2-1.2,3c-0.8,0.8-1.8,1.2-2.9,1.2c-1.2,0-2.2-0.4-3-1.2
			c-0.8-0.8-1.2-1.8-1.2-3c0-1.3,0.4-2.3,1.3-3.1c0.8-0.7,1.8-1.1,3-1.1c0.5,0,1,0.1,1.5,0.3h4.2c0.1,0,0.1,0,0.1,0c0,0,0,0.1,0,0.1
			l-0.5,0.9c0,0,0,0.1,0,0.1c0,0,0,0-0.1,0H128.8z M127.5,22c0.2-0.4,0.4-0.7,0.5-1.2s0.2-0.9,0.2-1.3s-0.1-0.9-0.2-1.3
			c-0.1-0.4-0.3-0.8-0.5-1.2c-0.5-0.8-1.2-1.2-2-1.2c-0.9,0-1.6,0.4-2.1,1.2c-0.4,0.7-0.6,1.5-0.6,2.5c0,1.6,0.5,2.7,1.5,3.3
			c0.3,0.2,0.7,0.3,1.2,0.3s0.8-0.1,1.2-0.3C127,22.6,127.3,22.4,127.5,22z"/>
		<path fill="#898981" d="M131.6,17.5C131.6,17.5,131.6,17.5,131.6,17.5c0-0.2,0.3-0.6,1.1-1.2c0.3-0.3,0.6-0.5,0.9-0.8
			c0.3-0.3,0.6-0.5,0.9-0.8c0.3-0.3,0.6-0.5,0.8-0.8c0.5-0.6,0.8-1.1,0.8-1.6c0-0.4-0.1-0.7-0.3-0.9c-0.2-0.3-0.5-0.4-0.8-0.4
			c-0.3,0-0.5,0.1-0.8,0.2c-0.4,0.2-0.7,0.5-1,0.9c-0.1,0.1-0.1,0.2-0.1,0.2s-0.1,0.1-0.1,0.1c-0.1,0-0.1,0-0.2,0
			c-0.1,0-0.1,0-0.1,0c0-0.1,0.1-0.2,0.2-0.5c0.2-0.4,0.5-0.7,0.6-0.9c0.2-0.2,0.3-0.3,0.5-0.4c0.2-0.1,0.3-0.2,0.5-0.2
			c0.3-0.1,0.6-0.2,0.8-0.2s0.5,0,0.7,0.1c0.2,0.1,0.4,0.2,0.5,0.3c0.3,0.3,0.4,0.7,0.4,1.1c0,0.6-0.2,1.1-0.7,1.6
			c-0.3,0.4-0.9,0.9-1.9,1.5c-0.3,0.2-0.7,0.5-1.1,0.9c-0.6,0.5-0.9,0.8-0.9,0.8h2.9c0.2,0,0.4-0.1,0.6-0.2c0.1-0.1,0.2-0.3,0.4-0.7
			h0.2l-0.5,1.4c0,0.1-0.1,0.1-0.1,0.2H131.6z"/>
		<path fill="#898981" d="M144.7,8.4c0.1-0.1,0.1-0.1,0.1-0.1s0.1,0,0.1,0.1s0.1,0.1,0.1,0.1c0.1,0.1,0.1,0.2,0.1,0.3
			c0,0.1,0,0.1-0.1,0.2c-2.4,2.9-4,5.9-4.7,9.1c-0.3,1.1-0.4,2.2-0.4,3.3c0,2.2,0.4,4.2,1.2,6c0,0,0,0.1,0,0.1c0,0,0,0.1-0.1,0.2
			s-0.1,0.1-0.1,0.2c-0.1,0.2-0.2,0.2-0.3,0.2c-0.1,0-0.1,0-0.2-0.1c-1.1-2.2-1.7-4.4-1.7-6.6c0-2.4,0.5-4.7,1.6-7
			C141.4,12.2,142.8,10.2,144.7,8.4z"/>
		<path fill="#898981" d="M148.6,17.9l-1.2,0.1c-0.1,0-0.1,0-0.1,0.1l-0.9,4.1c0,0.1,0,0.2,0,0.4c0,0.1,0.1,0.3,0.2,0.4
			c0.1,0.1,0.2,0.2,0.4,0.2c0.2,0.1,0.6,0.1,1.1,0.1c0,0,0.1,0,0.1,0.1l0,0.2c0,0,0,0.1-0.1,0.1h-4.7c0,0-0.1,0-0.1-0.1l0-0.2
			c0,0,0.1-0.1,0.2-0.1c0.1,0,0.3,0,0.4,0c0.2,0,0.3-0.1,0.5-0.2c0.3-0.2,0.5-0.5,0.6-1c0-0.1,0-0.2,0.1-0.3l0.1-0.3
			c0-0.1,0.1-0.3,0.1-0.5s0.1-0.4,0.2-0.7c0.1-0.3,0.1-0.7,0.2-1.1c0.1-0.4,0.2-0.9,0.3-1.5c0.1-0.6,0.3-1.3,0.4-2.1
			c0.4-2,0.6-3,0.6-3.1c0-0.3-0.1-0.5-0.4-0.6s-0.6-0.1-1.1-0.1h-0.5c0,0-0.1,0-0.1-0.1l0.1-0.2c0-0.1,0.1-0.1,0.1-0.1h4.4
			c1.5,0,2.7,0.2,3.4,0.7c0.8,0.5,1.1,1.3,1.1,2.4c0,0.7-0.3,1.3-0.9,1.8c-0.4,0.4-1.2,0.9-2.4,1.5c-0.2,0.1-0.2,0.2-0.2,0.2
			s0,0.2,0.1,0.3c0.1,0.1,0.2,0.3,0.3,0.5c0.1,0.2,0.3,0.4,0.4,0.7c0.2,0.2,0.3,0.5,0.5,0.8c0.2,0.3,0.4,0.6,0.6,0.8
			s0.5,0.6,0.7,0.8s0.5,0.5,0.7,0.7c0.5,0.4,1,0.7,1.4,0.7h0.2c0.2,0,0.4,0,0.4,0.1s0.1,0.1,0.1,0.1v0.1c0,0.1-0.1,0.2-0.3,0.2h-0.7
			c-1.6,0-2.9-0.8-4.1-2.3c-0.3-0.5-0.6-0.9-0.9-1.2c-0.2-0.4-0.4-0.7-0.6-0.9c-0.1-0.2-0.3-0.4-0.4-0.6c-0.1-0.2-0.2-0.3-0.2-0.3
			S149,18,148.9,18C148.9,17.9,148.8,17.9,148.6,17.9z M149.9,11.5l-0.4,0c-0.3,0-0.6,0.1-0.7,0.2c-0.1,0.1-0.1,0.2-0.2,0.3
			l-1.1,5.1c0,0.1,0,0.2,0,0.3c0,0.1,0.2,0.2,0.5,0.2c0.3,0,0.6,0,1-0.1s0.7-0.2,1.1-0.3s0.7-0.3,0.9-0.5s0.5-0.4,0.8-0.7
			c0.5-0.6,0.7-1.2,0.7-1.8c0-0.8-0.2-1.4-0.7-1.8C151.3,11.7,150.7,11.5,149.9,11.5z"/>
		<path fill="#898981" d="M156.2,29.4c0-0.1,0-0.1,0.1-0.1h0.1c0.1,0,0.2,0,0.3-0.1s0.2-0.2,0.4-0.4s0.4-0.5,0.7-0.9
			s0.6-0.8,0.9-1.2c0.3-0.4,0.6-0.8,0.9-1.2s0.6-0.8,0.9-1.2c0.3-0.4,0.5-0.7,0.8-1c0.2-0.3,0.4-0.6,0.5-0.7
			c0.1-0.1,0.2-0.2,0.2-0.3c0.1,0,0.1-0.1,0.2-0.1h0.1c0.1,0,0.2,0,0.2,0.1c0,0.1,0,0.1,0,0.2l0.1,6.2c0,0.3,0.2,0.5,0.5,0.5
			c0.1,0,0.2,0,0.3,0h0.2c0,0,0.1,0,0.1,0.1v0.1c0,0,0,0.1-0.1,0.1h-3.2c0,0-0.1,0-0.1-0.1v-0.1c0,0,0-0.1,0.1-0.1
			c0.1,0,0.2,0,0.3,0c0.1,0,0.2,0,0.2,0c0.2,0,0.4-0.1,0.5-0.2c0.1-0.1,0.1-0.2,0.2-0.3c0-0.1,0.1-0.3,0.1-0.6l0-1.5v-0.1
			c0-0.2-0.1-0.2-0.3-0.2h-2.1c-0.1,0-0.2,0.1-0.3,0.2c-0.2,0.2-0.4,0.5-0.5,0.7c-0.2,0.2-0.3,0.4-0.4,0.6s-0.2,0.2-0.2,0.3
			c0,0.1-0.1,0.1-0.1,0.2c-0.1,0.1-0.1,0.3-0.1,0.4c0,0.1,0.1,0.3,0.2,0.4s0.3,0.1,0.5,0.1h0.3c0,0,0.1,0,0.1,0.1c0,0.1,0,0.1,0,0.1
			c0,0,0,0-0.1,0L156.2,29.4C156.2,29.5,156.2,29.5,156.2,29.4z M161.8,25.8l-0.1-2.3c0-0.1,0-0.1-0.1-0.1c0,0-0.1,0-0.2,0.1
			c-0.1,0.1-0.2,0.2-0.3,0.4c-0.1,0.2-0.3,0.4-0.5,0.6c-0.4,0.5-0.6,0.8-0.8,1c-0.2,0.2-0.2,0.3-0.3,0.3c0,0,0,0-0.1,0.1
			c0,0.1-0.1,0.1-0.1,0.1s0,0,0,0h1.9c0.1,0,0.1,0,0.2-0.1C161.8,25.9,161.8,25.8,161.8,25.8z"/>
		<path fill="#898981" d="M167.9,8.3c0.1,0,0.1-0.1,0.1-0.1s0.1,0,0.1,0.1c1.2,1.9,1.8,4.1,1.8,6.6c0,2.4-0.5,4.7-1.6,7
			c-1,2.2-2.5,4.2-4.3,6c0,0-0.1,0.1-0.1,0.1s0,0-0.1,0c0,0-0.1,0-0.1-0.1c0,0-0.1-0.1-0.1-0.1c-0.1-0.1-0.1-0.2-0.1-0.3
			c0-0.1,0-0.2,0.1-0.2c3.5-4,5.2-8.2,5.2-12.6c0-2-0.4-4-1.3-5.9c0,0,0-0.1,0-0.1C167.5,8.7,167.6,8.5,167.9,8.3z"/>
		<path fill="#898981" d="M177.6,17.4h3.3V14h1.1v3.4h3.3v1.1H182v3.4h-1.1v-3.4h-3.3V17.4z"/>
		<path fill="#898981" d="M197.8,22.5c0,0.2,0.1,0.3,0.3,0.3c0.2,0,0.7-0.4,1.5-1.2c0.8-0.8,1.3-1.5,1.5-2.1
			c0.3-0.5,0.5-1.1,0.7-1.9c0-0.2,0.1-0.4,0.1-0.5s0-0.2-0.1-0.2c0,0-0.1-0.1-0.1-0.1c-0.1-0.1-0.2-0.3-0.2-0.4c0-0.1,0-0.2,0.1-0.3
			c0-0.1,0.1-0.2,0.2-0.3c0.2-0.2,0.4-0.2,0.5-0.2s0.3,0,0.4,0.1s0.2,0.2,0.3,0.3c0.2,0.3,0.3,0.5,0.3,0.7s0,0.4,0,0.5
			s-0.1,0.3-0.1,0.4c-0.2,0.5-0.4,1-0.8,1.5c-0.4,0.5-0.8,1-1.1,1.3s-0.7,0.8-1.1,1.2c-0.4,0.4-0.8,0.7-1.1,1c-0.8,0.7-1.4,1-1.7,1
			c-0.4,0-0.6-0.4-0.6-1.1c0-0.1,0-0.3,0-0.4l0.3-1.9c0-0.1,0-0.1-0.1-0.1s-0.1,0-0.1,0.1c0,0-0.1,0.1-0.2,0.2s-0.2,0.3-0.4,0.5
			c-0.2,0.2-0.4,0.5-0.6,0.7c-0.2,0.2-0.4,0.5-0.7,0.7s-0.5,0.5-0.7,0.6c-0.5,0.4-0.9,0.6-1.3,0.6c-0.2,0-0.3-0.1-0.5-0.2
			c-0.1-0.1-0.2-0.3-0.2-0.4c0-0.1,0-0.3,0-0.3l0.9-6.1c0-0.2-0.1-0.2-0.2-0.2c-0.3,0-0.6,0.3-1.2,0.8c-0.1,0.1-0.2,0.2-0.2,0.2
			l-0.2-0.2c0.1-0.2,0.4-0.6,1-1c0.6-0.5,1.1-0.8,1.4-0.8c0.2,0,0.3,0.1,0.5,0.2c0.1,0.1,0.2,0.3,0.2,0.4s0,0.3,0,0.3l-0.9,6.1v0
			c0,0.1,0,0.1,0.1,0.1c0,0,0.1,0.1,0.2,0.1c0.1,0,0.2-0.1,0.4-0.2s0.4-0.3,0.6-0.5s0.4-0.5,0.6-0.7s0.4-0.5,0.6-0.8
			c0.6-0.8,0.9-1.2,1-1.3s0.1-0.3,0.2-0.4l0.4-2.9c0-0.1,0-0.2,0.1-0.3s0.1-0.1,0.2-0.1h0.9c0.1,0,0.2,0.1,0.2,0.3l-1,6.4
			c0,0,0,0.1,0,0.1V22.5z"/>
		<path fill="#898981" d="M202.9,17.5C202.9,17.5,202.9,17.5,202.9,17.5c0-0.2,0.3-0.6,1.1-1.2c0.3-0.3,0.6-0.5,0.9-0.8
			c0.3-0.3,0.6-0.5,0.9-0.8c0.3-0.3,0.6-0.5,0.8-0.8c0.5-0.6,0.8-1.1,0.8-1.6c0-0.4-0.1-0.7-0.3-0.9c-0.2-0.3-0.5-0.4-0.8-0.4
			c-0.3,0-0.5,0.1-0.8,0.2c-0.4,0.2-0.7,0.5-1,0.9c-0.1,0.1-0.1,0.2-0.1,0.2s-0.1,0.1-0.1,0.1c-0.1,0-0.1,0-0.2,0
			c-0.1,0-0.1,0-0.1,0c0-0.1,0.1-0.2,0.2-0.5c0.2-0.4,0.5-0.7,0.6-0.9c0.2-0.2,0.3-0.3,0.5-0.4c0.2-0.1,0.3-0.2,0.5-0.2
			c0.3-0.1,0.6-0.2,0.8-0.2s0.5,0,0.7,0.1c0.2,0.1,0.4,0.2,0.5,0.3c0.3,0.3,0.4,0.7,0.4,1.1c0,0.6-0.2,1.1-0.7,1.6
			c-0.3,0.4-0.9,0.9-1.9,1.5c-0.3,0.2-0.7,0.5-1.1,0.9c-0.6,0.5-0.9,0.8-0.9,0.8h2.9c0.2,0,0.4-0.1,0.6-0.2c0.1-0.1,0.2-0.3,0.4-0.7
			h0.2l-0.5,1.4c0,0.1-0.1,0.1-0.1,0.2H202.9z"/>
		<path fill="#898981" d="M211.7,29.5l-0.9,0c-0.8,0-1.3,0-1.7,0c-0.4,0-0.6,0-0.6,0c0,0,0,0,0,0l0-0.2c0,0,0,0,0.1,0
			c0.1,0,0.1,0,0.3,0c0.1,0,0.2,0,0.3-0.1c0.2-0.1,0.4-0.3,0.4-0.5l1.1-5.4c0-0.1,0-0.2,0-0.3c0-0.1,0-0.2-0.1-0.2
			c0-0.1-0.1-0.1-0.2-0.1c-0.1,0-0.3-0.1-0.5-0.1h-0.3c0,0,0,0,0,0l0-0.2c0,0,0-0.1,0-0.1h2.9c1.1,0,1.8,0.3,2.2,0.9
			c0.1,0.2,0.2,0.4,0.2,0.7c0,0.2,0,0.4-0.1,0.6c-0.1,0.1-0.2,0.3-0.3,0.4c-0.1,0.1-0.2,0.2-0.4,0.3c-0.1,0.1-0.2,0.2-0.4,0.2
			c-0.1,0.1-0.2,0.1-0.3,0.1c-0.1,0-0.1,0-0.1,0c0.9,0.5,1.3,1.1,1.3,1.8c0,0.7-0.2,1.2-0.5,1.5c-0.5,0.5-1.3,0.7-2.3,0.7
			C211.9,29.5,211.8,29.5,211.7,29.5z M211.3,25.6c-0.1,0-0.1,0.1-0.2,0.2c-0.1,0.4-0.2,0.8-0.2,1.1c-0.1,0.3-0.1,0.6-0.2,0.8
			c0,0.2-0.1,0.4-0.1,0.5c0,0.1,0,0.2-0.1,0.3c0,0.1,0,0.1,0,0.2s0,0.1,0.1,0.2c0.1,0.1,0.2,0.2,0.3,0.3c0.2,0.1,0.5,0.2,0.8,0.2
			c0.3,0,0.6-0.1,0.8-0.2s0.5-0.2,0.7-0.4c0.4-0.4,0.6-0.9,0.6-1.5c0-0.5-0.2-0.9-0.5-1.2c-0.3-0.3-0.7-0.5-1.2-0.5H211.3z
			 M211.2,25C211.2,25,211.2,25.1,211.2,25c0,0.2,0,0.2,0.1,0.2c0.2,0,0.5,0,0.7,0s0.5,0,0.8-0.1c0.3-0.1,0.5-0.2,0.7-0.3
			c0.4-0.3,0.5-0.6,0.5-0.9c0-0.6-0.2-1.1-0.7-1.3c-0.2-0.1-0.4-0.1-0.6-0.1c-0.2,0-0.4,0-0.5,0c-0.1,0-0.2,0-0.3,0
			c-0.2,0-0.2,0.1-0.3,0.2L211.2,25z"/>
		<path fill="#898981" d="M223.2,16.8c0.6,0.8,0.9,1.7,0.9,2.8c0,1.2-0.4,2.2-1.2,3c-0.8,0.8-1.8,1.2-2.9,1.2c-1.2,0-2.2-0.4-3-1.2
			c-0.8-0.8-1.2-1.8-1.2-3c0-1.3,0.4-2.3,1.3-3.1c0.8-0.7,1.8-1.1,3-1.1c0.5,0,1,0.1,1.5,0.3h4.2c0.1,0,0.1,0,0.1,0c0,0,0,0.1,0,0.1
			l-0.5,0.9c0,0,0,0.1,0,0.1c0,0,0,0-0.1,0H223.2z M221.9,22c0.2-0.4,0.4-0.7,0.5-1.2s0.2-0.9,0.2-1.3s-0.1-0.9-0.2-1.3
			c-0.1-0.4-0.3-0.8-0.5-1.2c-0.5-0.8-1.2-1.2-2-1.2c-0.9,0-1.6,0.4-2.1,1.2c-0.4,0.7-0.6,1.5-0.6,2.5c0,1.6,0.5,2.7,1.5,3.3
			c0.3,0.2,0.7,0.3,1.2,0.3s0.8-0.1,1.2-0.3C221.4,22.6,221.7,22.4,221.9,22z"/>
		<path fill="#898981" d="M226,17.5C226,17.5,226,17.5,226,17.5c0-0.2,0.3-0.6,1.1-1.2c0.3-0.3,0.6-0.5,0.9-0.8
			c0.3-0.3,0.6-0.5,0.9-0.8c0.3-0.3,0.6-0.5,0.8-0.8c0.5-0.6,0.8-1.1,0.8-1.6c0-0.4-0.1-0.7-0.3-0.9c-0.2-0.3-0.5-0.4-0.8-0.4
			c-0.3,0-0.5,0.1-0.8,0.2c-0.4,0.2-0.7,0.5-1,0.9c-0.1,0.1-0.1,0.2-0.1,0.2s-0.1,0.1-0.1,0.1c-0.1,0-0.1,0-0.2,0
			c-0.1,0-0.1,0-0.1,0c0-0.1,0.1-0.2,0.2-0.5c0.2-0.4,0.5-0.7,0.6-0.9c0.2-0.2,0.3-0.3,0.5-0.4c0.2-0.1,0.3-0.2,0.5-0.2
			c0.3-0.1,0.6-0.2,0.8-0.2s0.5,0,0.7,0.1c0.2,0.1,0.4,0.2,0.5,0.3c0.3,0.3,0.4,0.7,0.4,1.1c0,0.6-0.2,1.1-0.7,1.6
			c-0.3,0.4-0.9,0.9-1.9,1.5c-0.3,0.2-0.7,0.5-1.1,0.9c-0.6,0.5-0.9,0.8-0.9,0.8h2.9c0.2,0,0.4-0.1,0.6-0.2c0.1-0.1,0.2-0.3,0.4-0.7
			h0.2l-0.5,1.4c0,0.1-0.1,0.1-0.1,0.2H226z"/>
		<path fill="#898981" d="M239.1,8.4c0.1-0.1,0.1-0.1,0.1-0.1s0.1,0,0.1,0.1s0.1,0.1,0.1,0.1c0.1,0.1,0.1,0.2,0.1,0.3
			c0,0.1,0,0.1-0.1,0.2c-2.4,2.9-4,5.9-4.7,9.1c-0.3,1.1-0.4,2.2-0.4,3.3c0,2.2,0.4,4.2,1.2,6c0,0,0,0.1,0,0.1c0,0,0,0.1-0.1,0.2
			s-0.1,0.1-0.1,0.2c-0.1,0.2-0.2,0.2-0.3,0.2c-0.1,0-0.1,0-0.2-0.1c-1.1-2.2-1.7-4.4-1.7-6.6c0-2.4,0.5-4.7,1.6-7
			C235.8,12.2,237.2,10.2,239.1,8.4z"/>
		<path fill="#898981" d="M243,17.9l-1.2,0.1c-0.1,0-0.1,0-0.1,0.1l-0.9,4.1c0,0.1,0,0.2,0,0.4c0,0.1,0.1,0.3,0.2,0.4
			c0.1,0.1,0.2,0.2,0.4,0.2c0.2,0.1,0.6,0.1,1.1,0.1c0,0,0.1,0,0.1,0.1l0,0.2c0,0,0,0.1-0.1,0.1h-4.7c0,0-0.1,0-0.1-0.1l0-0.2
			c0,0,0.1-0.1,0.2-0.1c0.1,0,0.3,0,0.4,0c0.2,0,0.3-0.1,0.5-0.2c0.3-0.2,0.5-0.5,0.6-1c0-0.1,0-0.2,0.1-0.3l0.1-0.3
			c0-0.1,0.1-0.3,0.1-0.5s0.1-0.4,0.2-0.7c0.1-0.3,0.1-0.7,0.2-1.1c0.1-0.4,0.2-0.9,0.3-1.5c0.1-0.6,0.3-1.3,0.4-2.1
			c0.4-2,0.6-3,0.6-3.1c0-0.3-0.1-0.5-0.4-0.6s-0.6-0.1-1.1-0.1h-0.5c0,0-0.1,0-0.1-0.1l0.1-0.2c0-0.1,0.1-0.1,0.1-0.1h4.4
			c1.5,0,2.7,0.2,3.4,0.7c0.8,0.5,1.1,1.3,1.1,2.4c0,0.7-0.3,1.3-0.9,1.8c-0.4,0.4-1.2,0.9-2.4,1.5c-0.2,0.1-0.2,0.2-0.2,0.2
			s0,0.2,0.1,0.3c0.1,0.1,0.2,0.3,0.3,0.5c0.1,0.2,0.3,0.4,0.4,0.7c0.2,0.2,0.3,0.5,0.5,0.8c0.2,0.3,0.4,0.6,0.6,0.8
			s0.5,0.6,0.7,0.8s0.5,0.5,0.7,0.7c0.5,0.4,1,0.7,1.4,0.7h0.2c0.2,0,0.4,0,0.4,0.1s0.1,0.1,0.1,0.1v0.1c0,0.1-0.1,0.2-0.3,0.2h-0.7
			c-1.6,0-2.9-0.8-4.1-2.3c-0.3-0.5-0.6-0.9-0.9-1.2c-0.2-0.4-0.4-0.7-0.6-0.9c-0.1-0.2-0.3-0.4-0.4-0.6c-0.1-0.2-0.2-0.3-0.2-0.3
			s-0.1-0.1-0.1-0.1C243.3,17.9,243.2,17.9,243,17.9z M244.3,11.5l-0.4,0c-0.3,0-0.6,0.1-0.7,0.2c-0.1,0.1-0.1,0.2-0.2,0.3L242,17
			c0,0.1,0,0.2,0,0.3c0,0.1,0.2,0.2,0.5,0.2c0.3,0,0.6,0,1-0.1s0.7-0.2,1.1-0.3s0.7-0.3,0.9-0.5s0.5-0.4,0.8-0.7
			c0.5-0.6,0.7-1.2,0.7-1.8c0-0.8-0.2-1.4-0.7-1.8C245.7,11.7,245.1,11.5,244.3,11.5z"/>
		<path fill="#898981" d="M254,29.5l-0.9,0c-0.8,0-1.3,0-1.7,0c-0.4,0-0.6,0-0.6,0c0,0,0,0,0,0l0-0.2c0,0,0,0,0.1,0
			c0.1,0,0.1,0,0.3,0c0.1,0,0.2,0,0.3-0.1c0.2-0.1,0.4-0.3,0.4-0.5l1.1-5.4c0-0.1,0-0.2,0-0.3c0-0.1,0-0.2-0.1-0.2
			c0-0.1-0.1-0.1-0.2-0.1c-0.1,0-0.3-0.1-0.5-0.1H252c0,0,0,0,0,0l0-0.2c0,0,0-0.1,0-0.1h2.9c1.1,0,1.8,0.3,2.2,0.9
			c0.1,0.2,0.2,0.4,0.2,0.7c0,0.2,0,0.4-0.1,0.6c-0.1,0.1-0.2,0.3-0.3,0.4c-0.1,0.1-0.2,0.2-0.4,0.3c-0.1,0.1-0.2,0.2-0.4,0.2
			c-0.1,0.1-0.2,0.1-0.3,0.1c-0.1,0-0.1,0-0.1,0c0.9,0.5,1.3,1.1,1.3,1.8c0,0.7-0.2,1.2-0.5,1.5c-0.5,0.5-1.3,0.7-2.3,0.7
			C254.2,29.5,254.1,29.5,254,29.5z M253.6,25.6c-0.1,0-0.1,0.1-0.2,0.2c-0.1,0.4-0.2,0.8-0.2,1.1c-0.1,0.3-0.1,0.6-0.2,0.8
			c0,0.2-0.1,0.4-0.1,0.5c0,0.1,0,0.2-0.1,0.3c0,0.1,0,0.1,0,0.2s0,0.1,0.1,0.2c0.1,0.1,0.2,0.2,0.3,0.3c0.2,0.1,0.5,0.2,0.8,0.2
			c0.3,0,0.6-0.1,0.8-0.2s0.5-0.2,0.7-0.4c0.4-0.4,0.6-0.9,0.6-1.5c0-0.5-0.2-0.9-0.5-1.2c-0.3-0.3-0.7-0.5-1.2-0.5H253.6z
			 M253.6,25C253.6,25,253.6,25.1,253.6,25c0,0.2,0,0.2,0.1,0.2c0.2,0,0.5,0,0.7,0s0.5,0,0.8-0.1c0.3-0.1,0.5-0.2,0.7-0.3
			c0.4-0.3,0.5-0.6,0.5-0.9c0-0.6-0.2-1.1-0.7-1.3c-0.2-0.1-0.4-0.1-0.6-0.1c-0.2,0-0.4,0-0.5,0c-0.1,0-0.2,0-0.3,0
			c-0.2,0-0.2,0.1-0.3,0.2L253.6,25z"/>
		<path fill="#898981" d="M261,8.3c0.1,0,0.1-0.1,0.1-0.1s0.1,0,0.1,0.1c1.2,1.9,1.8,4.1,1.8,6.6c0,2.4-0.5,4.7-1.6,7
			c-1,2.2-2.5,4.2-4.3,6c0,0-0.1,0.1-0.1,0.1s0,0-0.1,0c0,0-0.1,0-0.1-0.1c0,0-0.1-0.1-0.1-0.1c-0.1-0.1-0.1-0.2-0.1-0.3
			c0-0.1,0-0.2,0.1-0.2c3.5-4,5.2-8.2,5.2-12.6c0-2-0.4-4-1.3-5.9c0,0,0-0.1,0-0.1C260.6,8.7,260.8,8.5,261,8.3z"/>
		<path fill="#898981" d="M270.7,17.4h3.3V14h1.1v3.4h3.3v1.1h-3.3v3.4H274v-3.4h-3.3V17.4z"/>
		<path fill="#898981" d="M283.5,23.5c0,0,0,0,0-0.1c0-0.3,0.6-1,1.9-2c0.5-0.4,1.1-0.9,1.6-1.3s1.1-0.9,1.6-1.3
			c0.5-0.4,1-0.9,1.3-1.3c0.9-1,1.3-1.9,1.3-2.7c0-0.6-0.2-1.1-0.6-1.6c-0.4-0.5-0.9-0.7-1.4-0.7c-0.5,0-0.9,0.1-1.4,0.4
			c-0.7,0.3-1.2,0.9-1.7,1.6c-0.1,0.2-0.2,0.3-0.2,0.4c0,0.1-0.1,0.2-0.1,0.2c-0.1,0.1-0.2,0.1-0.3,0.1c-0.1,0-0.1,0-0.1-0.1
			c0-0.1,0.1-0.4,0.4-0.8c0.4-0.8,0.8-1.3,1.1-1.5c0.3-0.3,0.6-0.5,0.9-0.6s0.5-0.3,0.8-0.4c0.5-0.2,1-0.3,1.5-0.3s0.9,0.1,1.3,0.2
			c0.4,0.1,0.7,0.3,0.9,0.5c0.5,0.5,0.7,1.1,0.7,1.9c0,1-0.4,1.9-1.2,2.8c-0.6,0.6-1.6,1.5-3.2,2.6c-0.6,0.4-1.2,0.9-1.9,1.5
			c-1,0.8-1.5,1.3-1.5,1.4h4.9c0.4,0,0.8-0.1,1-0.4c0.2-0.2,0.4-0.5,0.6-1.1h0.3l-0.9,2.4c-0.1,0.1-0.1,0.2-0.3,0.3H283.5z"/>
		<path fill="#898981" d="M300.1,22.5c0,0.2,0.1,0.3,0.3,0.3c0.2,0,0.7-0.4,1.5-1.2c0.8-0.8,1.3-1.5,1.5-2.1
			c0.3-0.5,0.5-1.1,0.7-1.9c0-0.2,0.1-0.4,0.1-0.5s0-0.2-0.1-0.2c0,0-0.1-0.1-0.1-0.1c-0.1-0.1-0.2-0.3-0.2-0.4c0-0.1,0-0.2,0.1-0.3
			c0-0.1,0.1-0.2,0.2-0.3c0.2-0.2,0.4-0.2,0.5-0.2s0.3,0,0.4,0.1s0.2,0.2,0.3,0.3c0.2,0.3,0.3,0.5,0.3,0.7s0,0.4,0,0.5
			s-0.1,0.3-0.1,0.4c-0.2,0.5-0.4,1-0.8,1.5c-0.4,0.5-0.8,1-1.1,1.3s-0.7,0.8-1.1,1.2c-0.4,0.4-0.8,0.7-1.1,1c-0.8,0.7-1.4,1-1.7,1
			c-0.4,0-0.6-0.4-0.6-1.1c0-0.1,0-0.3,0-0.4l0.3-1.9c0-0.1,0-0.1-0.1-0.1s-0.1,0-0.1,0.1c0,0-0.1,0.1-0.2,0.2s-0.2,0.3-0.4,0.5
			c-0.2,0.2-0.4,0.5-0.6,0.7c-0.2,0.2-0.4,0.5-0.7,0.7s-0.5,0.5-0.7,0.6c-0.5,0.4-0.9,0.6-1.3,0.6c-0.2,0-0.3-0.1-0.5-0.2
			c-0.1-0.1-0.2-0.3-0.2-0.4c0-0.1,0-0.3,0-0.3l0.9-6.1c0-0.2-0.1-0.2-0.2-0.2c-0.3,0-0.6,0.3-1.2,0.8c-0.1,0.1-0.2,0.2-0.2,0.2
			l-0.2-0.2c0.1-0.2,0.4-0.6,1-1c0.6-0.5,1.1-0.8,1.4-0.8c0.2,0,0.3,0.1,0.5,0.2c0.1,0.1,0.2,0.3,0.2,0.4s0,0.3,0,0.3l-0.9,6.1v0
			c0,0.1,0,0.1,0.1,0.1c0,0,0.1,0.1,0.2,0.1c0.1,0,0.2-0.1,0.4-0.2s0.4-0.3,0.6-0.5s0.4-0.5,0.6-0.7s0.4-0.5,0.6-0.8
			c0.6-0.8,0.9-1.2,1-1.3s0.1-0.3,0.2-0.4l0.4-2.9c0-0.1,0-0.2,0.1-0.3s0.1-0.1,0.2-0.1h0.9c0.1,0,0.2,0.1,0.2,0.3l-1,6.4
			c0,0,0,0.1,0,0.1V22.5z"/>
		<path fill="#898981" d="M305.2,29.4c0-0.1,0-0.1,0.1-0.1h0.1c0.1,0,0.2,0,0.3-0.1s0.2-0.2,0.4-0.4s0.4-0.5,0.7-0.9
			s0.6-0.8,0.9-1.2c0.3-0.4,0.6-0.8,0.9-1.2s0.6-0.8,0.9-1.2c0.3-0.4,0.5-0.7,0.8-1c0.2-0.3,0.4-0.6,0.5-0.7
			c0.1-0.1,0.2-0.2,0.2-0.3c0.1,0,0.1-0.1,0.2-0.1h0.1c0.1,0,0.2,0,0.2,0.1c0,0.1,0,0.1,0,0.2l0.1,6.2c0,0.3,0.2,0.5,0.5,0.5
			c0.1,0,0.2,0,0.3,0h0.2c0,0,0.1,0,0.1,0.1v0.1c0,0,0,0.1-0.1,0.1h-3.2c0,0-0.1,0-0.1-0.1v-0.1c0,0,0-0.1,0.1-0.1
			c0.1,0,0.2,0,0.3,0c0.1,0,0.2,0,0.2,0c0.2,0,0.4-0.1,0.5-0.2c0.1-0.1,0.1-0.2,0.2-0.3c0-0.1,0.1-0.3,0.1-0.6l0-1.5v-0.1
			c0-0.2-0.1-0.2-0.3-0.2h-2.1c-0.1,0-0.2,0.1-0.3,0.2c-0.2,0.2-0.4,0.5-0.5,0.7c-0.2,0.2-0.3,0.4-0.4,0.6s-0.2,0.2-0.2,0.3
			c0,0.1-0.1,0.1-0.1,0.2c-0.1,0.1-0.1,0.3-0.1,0.4c0,0.1,0.1,0.3,0.2,0.4s0.3,0.1,0.5,0.1h0.3c0,0,0.1,0,0.1,0.1c0,0.1,0,0.1,0,0.1
			c0,0,0,0-0.1,0L305.2,29.4C305.2,29.5,305.2,29.5,305.2,29.4z M310.9,25.8l-0.1-2.3c0-0.1,0-0.1-0.1-0.1c0,0-0.1,0-0.2,0.1
			c-0.1,0.1-0.2,0.2-0.3,0.4c-0.1,0.2-0.3,0.4-0.5,0.6c-0.4,0.5-0.6,0.8-0.8,1c-0.2,0.2-0.2,0.3-0.3,0.3c0,0,0,0-0.1,0.1
			c0,0.1-0.1,0.1-0.1,0.1s0,0,0,0h1.9c0.1,0,0.1,0,0.2-0.1C310.8,25.9,310.9,25.8,310.9,25.8z"/>
		<path fill="#898981" d="M320.6,22.5c0,0.2,0.1,0.3,0.3,0.3c0.2,0,0.7-0.4,1.5-1.2c0.8-0.8,1.3-1.5,1.5-2.1
			c0.3-0.5,0.5-1.1,0.7-1.9c0-0.2,0.1-0.4,0.1-0.5s0-0.2-0.1-0.2c0,0-0.1-0.1-0.1-0.1c-0.1-0.1-0.2-0.3-0.2-0.4c0-0.1,0-0.2,0.1-0.3
			c0-0.1,0.1-0.2,0.2-0.3c0.2-0.2,0.4-0.2,0.5-0.2s0.3,0,0.4,0.1s0.2,0.2,0.3,0.3c0.2,0.3,0.3,0.5,0.3,0.7s0,0.4,0,0.5
			s-0.1,0.3-0.1,0.4c-0.2,0.5-0.4,1-0.8,1.5c-0.4,0.5-0.8,1-1.1,1.3s-0.7,0.8-1.1,1.2c-0.4,0.4-0.8,0.7-1.1,1c-0.8,0.7-1.4,1-1.7,1
			c-0.4,0-0.6-0.4-0.6-1.1c0-0.1,0-0.3,0-0.4l0.3-1.9c0-0.1,0-0.1-0.1-0.1s-0.1,0-0.1,0.1c0,0-0.1,0.1-0.2,0.2s-0.2,0.3-0.4,0.5
			c-0.2,0.2-0.4,0.5-0.6,0.7c-0.2,0.2-0.4,0.5-0.7,0.7s-0.5,0.5-0.7,0.6c-0.5,0.4-0.9,0.6-1.3,0.6c-0.2,0-0.3-0.1-0.5-0.2
			c-0.1-0.1-0.2-0.3-0.2-0.4c0-0.1,0-0.3,0-0.3l0.9-6.1c0-0.2-0.1-0.2-0.2-0.2c-0.3,0-0.6,0.3-1.2,0.8c-0.1,0.1-0.2,0.2-0.2,0.2
			l-0.2-0.2c0.1-0.2,0.4-0.6,1-1c0.6-0.5,1.1-0.8,1.4-0.8c0.2,0,0.3,0.1,0.5,0.2c0.1,0.1,0.2,0.3,0.2,0.4s0,0.3,0,0.3l-0.9,6.1v0
			c0,0.1,0,0.1,0.1,0.1c0,0,0.1,0.1,0.2,0.1c0.1,0,0.2-0.1,0.4-0.2s0.4-0.3,0.6-0.5s0.4-0.5,0.6-0.7s0.4-0.5,0.6-0.8
			c0.6-0.8,0.9-1.2,1-1.3s0.1-0.3,0.2-0.4l0.4-2.9c0-0.1,0-0.2,0.1-0.3s0.1-0.1,0.2-0.1h0.9c0.1,0,0.2,0.1,0.2,0.3l-1,6.4
			c0,0,0,0.1,0,0.1V22.5z"/>
		<path fill="#898981" d="M329.1,29.5l-0.9,0c-0.8,0-1.3,0-1.7,0c-0.4,0-0.6,0-0.6,0c0,0,0,0,0,0l0-0.2c0,0,0,0,0.1,0
			c0.1,0,0.1,0,0.3,0c0.1,0,0.2,0,0.3-0.1c0.2-0.1,0.4-0.3,0.4-0.5l1.1-5.4c0-0.1,0-0.2,0-0.3c0-0.1,0-0.2-0.1-0.2
			c0-0.1-0.1-0.1-0.2-0.1c-0.1,0-0.3-0.1-0.5-0.1H327c0,0,0,0,0,0l0-0.2c0,0,0-0.1,0-0.1h2.9c1.1,0,1.8,0.3,2.2,0.9
			c0.1,0.2,0.2,0.4,0.2,0.7c0,0.2,0,0.4-0.1,0.6c-0.1,0.1-0.2,0.3-0.3,0.4c-0.1,0.1-0.2,0.2-0.4,0.3c-0.1,0.1-0.2,0.2-0.4,0.2
			c-0.1,0.1-0.2,0.1-0.3,0.1c-0.1,0-0.1,0-0.1,0c0.9,0.5,1.3,1.1,1.3,1.8c0,0.7-0.2,1.2-0.5,1.5c-0.5,0.5-1.3,0.7-2.3,0.7
			C329.2,29.5,329.2,29.5,329.1,29.5z M328.6,25.6c-0.1,0-0.1,0.1-0.2,0.2c-0.1,0.4-0.2,0.8-0.2,1.1c-0.1,0.3-0.1,0.6-0.2,0.8
			c0,0.2-0.1,0.4-0.1,0.5c0,0.1,0,0.2-0.1,0.3c0,0.1,0,0.1,0,0.2s0,0.1,0.1,0.2c0.1,0.1,0.2,0.2,0.3,0.3c0.2,0.1,0.5,0.2,0.8,0.2
			c0.3,0,0.6-0.1,0.8-0.2s0.5-0.2,0.7-0.4c0.4-0.4,0.6-0.9,0.6-1.5c0-0.5-0.2-0.9-0.5-1.2c-0.3-0.3-0.7-0.5-1.2-0.5H328.6z
			 M328.6,25C328.6,25,328.6,25.1,328.6,25c0,0.2,0,0.2,0.1,0.2c0.2,0,0.5,0,0.7,0s0.5,0,0.8-0.1c0.3-0.1,0.5-0.2,0.7-0.3
			c0.4-0.3,0.5-0.6,0.5-0.9c0-0.6-0.2-1.1-0.7-1.3c-0.2-0.1-0.4-0.1-0.6-0.1c-0.2,0-0.4,0-0.5,0c-0.1,0-0.2,0-0.3,0
			c-0.2,0-0.2,0.1-0.3,0.2L328.6,25z"/>
		<path fill="#898981" d="M337.4,18.5c0-0.2,0.1-0.3,0.3-0.3c1.3,0,2.3-0.3,3.1-1c0.8-0.7,1.2-1.7,1.2-3c0-1.8-1-2.7-3.1-2.7
			c-0.3,0-0.6,0-0.7,0.1S338,11.9,338,12l-2.2,10.1c0,0.1,0,0.2,0,0.3c0,0.1,0.1,0.3,0.2,0.4c0.1,0.1,0.2,0.2,0.4,0.2
			c0.2,0.1,0.6,0.1,1.1,0.1c0,0,0.1,0,0.1,0.1l0,0.2c0,0,0,0.1-0.1,0.1h-4.7c0,0-0.1,0-0.1-0.1l0-0.2c0,0,0.1-0.1,0.2-0.1
			c0.1,0,0.3,0,0.4,0c0.2,0,0.3-0.1,0.5-0.2c0.3-0.2,0.5-0.5,0.6-1c0-0.1,0-0.2,0.1-0.3s0-0.2,0.1-0.3s0.1-0.3,0.1-0.4
			s0.1-0.4,0.2-0.7c0.1-0.3,0.1-0.6,0.2-1.1c0.1-0.4,0.2-0.9,0.3-1.5c0.1-0.6,0.3-1.3,0.5-2.1c0.4-2,0.6-3.1,0.6-3.2s0-0.3-0.1-0.4
			c-0.1-0.1-0.2-0.2-0.3-0.2c-0.2-0.1-0.5-0.1-1-0.1h-0.6c0,0-0.1,0-0.1-0.1l0.1-0.3c0-0.1,0-0.1,0.1-0.1l2.7,0c0.7,0,1.3,0,1.8,0
			c0.5,0,0.9,0,1.2,0.1c0.3,0.1,0.6,0.1,1,0.2c0.3,0.1,0.6,0.2,0.9,0.4s0.5,0.4,0.7,0.6c0.5,0.5,0.7,1.1,0.7,1.7s-0.1,1.2-0.2,1.6
			s-0.4,0.8-0.6,1.1c-0.3,0.3-0.6,0.6-1,0.8s-0.8,0.4-1.2,0.6c-0.8,0.3-1.8,0.4-2.8,0.4C337.5,18.6,337.4,18.6,337.4,18.5z"/>
		<path fill="#898981" d="M350.7,8.4c0.1-0.1,0.1-0.1,0.1-0.1s0.1,0,0.1,0.1s0.1,0.1,0.1,0.1c0.1,0.1,0.1,0.2,0.1,0.3
			c0,0.1,0,0.1-0.1,0.2c-2.4,2.9-4,5.9-4.7,9.1c-0.3,1.1-0.4,2.2-0.4,3.3c0,2.2,0.4,4.2,1.2,6c0,0,0,0.1,0,0.1c0,0,0,0.1-0.1,0.2
			s-0.1,0.1-0.1,0.2c-0.1,0.2-0.2,0.2-0.3,0.2c-0.1,0-0.1,0-0.2-0.1c-1.1-2.2-1.7-4.4-1.7-6.6c0-2.4,0.5-4.7,1.6-7
			C347.4,12.2,348.9,10.2,350.7,8.4z"/>
		<path fill="#898981" d="M354.7,17.9l-1.2,0.1c-0.1,0-0.1,0-0.1,0.1l-0.9,4.1c0,0.1,0,0.2,0,0.4c0,0.1,0.1,0.3,0.2,0.4
			c0.1,0.1,0.2,0.2,0.4,0.2c0.2,0.1,0.6,0.1,1.1,0.1c0,0,0.1,0,0.1,0.1l0,0.2c0,0,0,0.1-0.1,0.1h-4.7c0,0-0.1,0-0.1-0.1l0-0.2
			c0,0,0.1-0.1,0.2-0.1c0.1,0,0.3,0,0.4,0c0.2,0,0.3-0.1,0.5-0.2c0.3-0.2,0.5-0.5,0.6-1c0-0.1,0-0.2,0.1-0.3l0.1-0.3
			c0-0.1,0.1-0.3,0.1-0.5s0.1-0.4,0.2-0.7c0.1-0.3,0.1-0.7,0.2-1.1c0.1-0.4,0.2-0.9,0.3-1.5c0.1-0.6,0.3-1.3,0.4-2.1
			c0.4-2,0.6-3,0.6-3.1c0-0.3-0.1-0.5-0.4-0.6s-0.6-0.1-1.1-0.1h-0.5c0,0-0.1,0-0.1-0.1l0.1-0.2c0-0.1,0.1-0.1,0.1-0.1h4.4
			c1.5,0,2.7,0.2,3.4,0.7c0.8,0.5,1.1,1.3,1.1,2.4c0,0.7-0.3,1.3-0.9,1.8c-0.4,0.4-1.2,0.9-2.4,1.5c-0.2,0.1-0.2,0.2-0.2,0.2
			s0,0.2,0.1,0.3c0.1,0.1,0.2,0.3,0.3,0.5c0.1,0.2,0.3,0.4,0.4,0.7c0.2,0.2,0.3,0.5,0.5,0.8c0.2,0.3,0.4,0.6,0.6,0.8
			s0.5,0.6,0.7,0.8s0.5,0.5,0.7,0.7c0.5,0.4,1,0.7,1.4,0.7h0.2c0.2,0,0.4,0,0.4,0.1s0.1,0.1,0.1,0.1v0.1c0,0.1-0.1,0.2-0.3,0.2h-0.7
			c-1.6,0-2.9-0.8-4.1-2.3c-0.3-0.5-0.6-0.9-0.9-1.2c-0.2-0.4-0.4-0.7-0.6-0.9c-0.1-0.2-0.3-0.4-0.4-0.6c-0.1-0.2-0.2-0.3-0.2-0.3
			S355,18,355,18C354.9,17.9,354.8,17.9,354.7,17.9z M355.9,11.5l-0.4,0c-0.3,0-0.6,0.1-0.7,0.2c-0.1,0.1-0.1,0.2-0.2,0.3l-1.1,5.1
			c0,0.1,0,0.2,0,0.3c0,0.1,0.2,0.2,0.5,0.2c0.3,0,0.6,0,1-0.1s0.7-0.2,1.1-0.3s0.7-0.3,0.9-0.5s0.5-0.4,0.8-0.7
			c0.5-0.6,0.7-1.2,0.7-1.8c0-0.8-0.2-1.4-0.7-1.8C357.3,11.7,356.7,11.5,355.9,11.5z"/>
		<path fill="#898981" d="M362.2,29.4c0-0.1,0-0.1,0.1-0.1h0.1c0.1,0,0.2,0,0.3-0.1s0.2-0.2,0.4-0.4s0.4-0.5,0.7-0.9
			s0.6-0.8,0.9-1.2c0.3-0.4,0.6-0.8,0.9-1.2s0.6-0.8,0.9-1.2c0.3-0.4,0.5-0.7,0.8-1c0.2-0.3,0.4-0.6,0.5-0.7
			c0.1-0.1,0.2-0.2,0.2-0.3c0.1,0,0.1-0.1,0.2-0.1h0.1c0.1,0,0.2,0,0.2,0.1c0,0.1,0,0.1,0,0.2l0.1,6.2c0,0.3,0.2,0.5,0.5,0.5
			c0.1,0,0.2,0,0.3,0h0.2c0,0,0.1,0,0.1,0.1v0.1c0,0,0,0.1-0.1,0.1h-3.2c0,0-0.1,0-0.1-0.1v-0.1c0,0,0-0.1,0.1-0.1
			c0.1,0,0.2,0,0.3,0c0.1,0,0.2,0,0.2,0c0.2,0,0.4-0.1,0.5-0.2c0.1-0.1,0.1-0.2,0.2-0.3c0-0.1,0.1-0.3,0.1-0.6l0-1.5v-0.1
			c0-0.2-0.1-0.2-0.3-0.2h-2.1c-0.1,0-0.2,0.1-0.3,0.2c-0.2,0.2-0.4,0.5-0.5,0.7c-0.2,0.2-0.3,0.4-0.4,0.6s-0.2,0.2-0.2,0.3
			c0,0.1-0.1,0.1-0.1,0.2c-0.1,0.1-0.1,0.3-0.1,0.4c0,0.1,0.1,0.3,0.2,0.4s0.3,0.1,0.5,0.1h0.3c0,0,0.1,0,0.1,0.1c0,0.1,0,0.1,0,0.1
			c0,0,0,0-0.1,0L362.2,29.4C362.3,29.5,362.2,29.5,362.2,29.4z M367.9,25.8l-0.1-2.3c0-0.1,0-0.1-0.1-0.1c0,0-0.1,0-0.2,0.1
			c-0.1,0.1-0.2,0.2-0.3,0.4c-0.1,0.2-0.3,0.4-0.5,0.6c-0.4,0.5-0.6,0.8-0.8,1c-0.2,0.2-0.2,0.3-0.3,0.3c0,0,0,0-0.1,0.1
			c0,0.1-0.1,0.1-0.1,0.1s0,0,0,0h1.9c0.1,0,0.1,0,0.2-0.1C367.9,25.9,367.9,25.8,367.9,25.8z"/>
		<path fill="#898981" d="M373.3,26.9c-0.2,0-0.2-0.1-0.2-0.3c0-0.1,0.1-0.2,0.2-0.3c0.2-0.1,0.3-0.2,0.5-0.4s0.4-0.3,0.5-0.5
			c0.4-0.4,0.5-0.8,0.5-1.3c0-0.2-0.1-0.4-0.2-0.7c-0.2-0.4-0.3-0.7-0.3-0.9c0-0.1,0-0.2,0.1-0.4c0.3-0.4,0.6-0.5,1-0.3
			c0.2,0.1,0.4,0.3,0.5,0.5s0.1,0.5,0.1,0.7s-0.1,0.6-0.2,1c-0.1,0.4-0.3,0.8-0.6,1.1C374.9,25.9,374.2,26.4,373.3,26.9
			C373.4,26.8,373.4,26.9,373.3,26.9z"/>
		<path fill="#898981" d="M387.2,17.9l-1.2,0.1c-0.1,0-0.1,0-0.1,0.1l-0.9,4.1c0,0.1,0,0.2,0,0.4c0,0.1,0.1,0.3,0.2,0.4
			c0.1,0.1,0.2,0.2,0.4,0.2c0.2,0.1,0.6,0.1,1.1,0.1c0,0,0.1,0,0.1,0.1l0,0.2c0,0,0,0.1-0.1,0.1h-4.7c0,0-0.1,0-0.1-0.1l0-0.2
			c0,0,0.1-0.1,0.2-0.1c0.1,0,0.3,0,0.4,0c0.2,0,0.3-0.1,0.5-0.2c0.3-0.2,0.5-0.5,0.6-1c0-0.1,0-0.2,0.1-0.3l0.1-0.3
			c0-0.1,0.1-0.3,0.1-0.5s0.1-0.4,0.2-0.7c0.1-0.3,0.1-0.7,0.2-1.1c0.1-0.4,0.2-0.9,0.3-1.5c0.1-0.6,0.3-1.3,0.4-2.1
			c0.4-2,0.6-3,0.6-3.1c0-0.3-0.1-0.5-0.4-0.6s-0.6-0.1-1.1-0.1h-0.5c0,0-0.1,0-0.1-0.1l0.1-0.2c0-0.1,0.1-0.1,0.1-0.1h4.4
			c1.5,0,2.7,0.2,3.4,0.7c0.8,0.5,1.1,1.3,1.1,2.4c0,0.7-0.3,1.3-0.9,1.8c-0.4,0.4-1.2,0.9-2.4,1.5c-0.2,0.1-0.2,0.2-0.2,0.2
			s0,0.2,0.1,0.3c0.1,0.1,0.2,0.3,0.3,0.5c0.1,0.2,0.3,0.4,0.4,0.7c0.2,0.2,0.3,0.5,0.5,0.8c0.2,0.3,0.4,0.6,0.6,0.8
			s0.5,0.6,0.7,0.8s0.5,0.5,0.7,0.7c0.5,0.4,1,0.7,1.4,0.7h0.2c0.2,0,0.4,0,0.4,0.1s0.1,0.1,0.1,0.1v0.1c0,0.1-0.1,0.2-0.3,0.2h-0.7
			c-1.6,0-2.9-0.8-4.1-2.3c-0.3-0.5-0.6-0.9-0.9-1.2c-0.2-0.4-0.4-0.7-0.6-0.9c-0.1-0.2-0.3-0.4-0.4-0.6c-0.1-0.2-0.2-0.3-0.2-0.3
			s-0.1-0.1-0.1-0.1C387.5,17.9,387.4,17.9,387.2,17.9z M388.5,11.5l-0.4,0c-0.3,0-0.6,0.1-0.7,0.2c-0.1,0.1-0.1,0.2-0.2,0.3
			l-1.1,5.1c0,0.1,0,0.2,0,0.3c0,0.1,0.2,0.2,0.5,0.2c0.3,0,0.6,0,1-0.1s0.7-0.2,1.1-0.3s0.7-0.3,0.9-0.5s0.5-0.4,0.8-0.7
			c0.5-0.6,0.7-1.2,0.7-1.8c0-0.8-0.2-1.4-0.7-1.8C389.9,11.7,389.3,11.5,388.5,11.5z"/>
		<path fill="#898981" d="M398.2,29.5l-0.9,0c-0.8,0-1.3,0-1.7,0c-0.4,0-0.6,0-0.6,0c0,0,0,0,0,0l0-0.2c0,0,0,0,0.1,0
			c0.1,0,0.1,0,0.3,0c0.1,0,0.2,0,0.3-0.1c0.2-0.1,0.4-0.3,0.4-0.5l1.1-5.4c0-0.1,0-0.2,0-0.3c0-0.1,0-0.2-0.1-0.2
			c0-0.1-0.1-0.1-0.2-0.1c-0.1,0-0.3-0.1-0.5-0.1h-0.3c0,0,0,0,0,0l0-0.2c0,0,0-0.1,0-0.1h2.9c1.1,0,1.8,0.3,2.2,0.9
			c0.1,0.2,0.2,0.4,0.2,0.7c0,0.2,0,0.4-0.1,0.6c-0.1,0.1-0.2,0.3-0.3,0.4c-0.1,0.1-0.2,0.2-0.4,0.3c-0.1,0.1-0.2,0.2-0.4,0.2
			c-0.1,0.1-0.2,0.1-0.3,0.1c-0.1,0-0.1,0-0.1,0c0.9,0.5,1.3,1.1,1.3,1.8c0,0.7-0.2,1.2-0.5,1.5c-0.5,0.5-1.3,0.7-2.3,0.7
			C398.4,29.5,398.3,29.5,398.2,29.5z M397.8,25.6c-0.1,0-0.1,0.1-0.2,0.2c-0.1,0.4-0.2,0.8-0.2,1.1c-0.1,0.3-0.1,0.6-0.2,0.8
			c0,0.2-0.1,0.4-0.1,0.5c0,0.1,0,0.2-0.1,0.3c0,0.1,0,0.1,0,0.2s0,0.1,0.1,0.2c0.1,0.1,0.2,0.2,0.3,0.3c0.2,0.1,0.5,0.2,0.8,0.2
			c0.3,0,0.6-0.1,0.8-0.2s0.5-0.2,0.7-0.4c0.4-0.4,0.6-0.9,0.6-1.5c0-0.5-0.2-0.9-0.5-1.2c-0.3-0.3-0.7-0.5-1.2-0.5H397.8z
			 M397.8,25C397.8,25,397.8,25.1,397.8,25c0,0.2,0,0.2,0.1,0.2c0.2,0,0.5,0,0.7,0s0.5,0,0.8-0.1c0.3-0.1,0.5-0.2,0.7-0.3
			c0.4-0.3,0.5-0.6,0.5-0.9c0-0.6-0.2-1.1-0.7-1.3c-0.2-0.1-0.4-0.1-0.6-0.1c-0.2,0-0.4,0-0.5,0c-0.1,0-0.2,0-0.3,0
			c-0.2,0-0.2,0.1-0.3,0.2L397.8,25z"/>
		<path fill="#898981" d="M408.1,8.3c0.1,0,0.1-0.1,0.1-0.1s0.1,0,0.1,0.1c1.2,1.9,1.8,4.1,1.8,6.6c0,2.4-0.5,4.7-1.6,7
			c-1,2.2-2.5,4.2-4.3,6c0,0-0.1,0.1-0.1,0.1s0,0-0.1,0c0,0-0.1,0-0.1-0.1c0,0-0.1-0.1-0.1-0.1c-0.1-0.1-0.1-0.2-0.1-0.3
			c0-0.1,0-0.2,0.1-0.2c3.5-4,5.2-8.2,5.2-12.6c0-2-0.4-4-1.3-5.9c0,0,0-0.1,0-0.1C407.8,8.7,407.9,8.5,408.1,8.3z"/>
		<path fill="#898981" d="M418.6,16.8c0.6,0.8,0.9,1.7,0.9,2.8c0,1.2-0.4,2.2-1.2,3c-0.8,0.8-1.8,1.2-2.9,1.2c-1.2,0-2.2-0.4-3-1.2
			c-0.8-0.8-1.2-1.8-1.2-3c0-1.3,0.4-2.3,1.3-3.1c0.8-0.7,1.8-1.1,3-1.1c0.5,0,1,0.1,1.5,0.3h4.2c0.1,0,0.1,0,0.1,0c0,0,0,0.1,0,0.1
			l-0.5,0.9c0,0,0,0.1,0,0.1c0,0,0,0-0.1,0H418.6z M417.3,22c0.2-0.4,0.4-0.7,0.5-1.2s0.2-0.9,0.2-1.3s-0.1-0.9-0.2-1.3
			c-0.1-0.4-0.3-0.8-0.5-1.2c-0.5-0.8-1.2-1.2-2-1.2c-0.9,0-1.6,0.4-2.1,1.2c-0.4,0.7-0.6,1.5-0.6,2.5c0,1.6,0.5,2.7,1.5,3.3
			c0.3,0.2,0.7,0.3,1.2,0.3s0.8-0.1,1.2-0.3C416.8,22.6,417.1,22.4,417.3,22z"/>
		<path fill="#898981" d="M429.1,8.4c0.1-0.1,0.1-0.1,0.1-0.1s0.1,0,0.1,0.1s0.1,0.1,0.1,0.1c0.1,0.1,0.1,0.2,0.1,0.3
			c0,0.1,0,0.1-0.1,0.2c-2.4,2.9-4,5.9-4.7,9.1c-0.3,1.1-0.4,2.2-0.4,3.3c0,2.2,0.4,4.2,1.2,6c0,0,0,0.1,0,0.1c0,0,0,0.1-0.1,0.2
			s-0.1,0.1-0.1,0.2c-0.1,0.2-0.2,0.2-0.3,0.2c-0.1,0-0.1,0-0.2-0.1c-1.1-2.2-1.7-4.4-1.7-6.6c0-2.4,0.5-4.7,1.6-7
			C425.8,12.2,427.3,10.2,429.1,8.4z"/>
		<path fill="#898981" d="M433.1,17.9l-1.2,0.1c-0.1,0-0.1,0-0.1,0.1l-0.9,4.1c0,0.1,0,0.2,0,0.4c0,0.1,0.1,0.3,0.2,0.4
			c0.1,0.1,0.2,0.2,0.4,0.2c0.2,0.1,0.6,0.1,1.1,0.1c0,0,0.1,0,0.1,0.1l0,0.2c0,0,0,0.1-0.1,0.1h-4.7c0,0-0.1,0-0.1-0.1l0-0.2
			c0,0,0.1-0.1,0.2-0.1c0.1,0,0.3,0,0.4,0c0.2,0,0.3-0.1,0.5-0.2c0.3-0.2,0.5-0.5,0.6-1c0-0.1,0-0.2,0.1-0.3l0.1-0.3
			c0-0.1,0.1-0.3,0.1-0.5s0.1-0.4,0.2-0.7c0.1-0.3,0.1-0.7,0.2-1.1c0.1-0.4,0.2-0.9,0.3-1.5c0.1-0.6,0.3-1.3,0.4-2.1
			c0.4-2,0.6-3,0.6-3.1c0-0.3-0.1-0.5-0.4-0.6s-0.6-0.1-1.1-0.1h-0.5c0,0-0.1,0-0.1-0.1l0.1-0.2c0-0.1,0.1-0.1,0.1-0.1h4.4
			c1.5,0,2.7,0.2,3.4,0.7c0.8,0.5,1.1,1.3,1.1,2.4c0,0.7-0.3,1.3-0.9,1.8c-0.4,0.4-1.2,0.9-2.4,1.5c-0.2,0.1-0.2,0.2-0.2,0.2
			s0,0.2,0.1,0.3c0.1,0.1,0.2,0.3,0.3,0.5c0.1,0.2,0.3,0.4,0.4,0.7c0.2,0.2,0.3,0.5,0.5,0.8c0.2,0.3,0.4,0.6,0.6,0.8
			s0.5,0.6,0.7,0.8s0.5,0.5,0.7,0.7c0.5,0.4,1,0.7,1.4,0.7h0.2c0.2,0,0.4,0,0.4,0.1s0.1,0.1,0.1,0.1v0.1c0,0.1-0.1,0.2-0.3,0.2h-0.7
			c-1.6,0-2.9-0.8-4.1-2.3c-0.3-0.5-0.6-0.9-0.9-1.2c-0.2-0.4-0.4-0.7-0.6-0.9c-0.1-0.2-0.3-0.4-0.4-0.6c-0.1-0.2-0.2-0.3-0.2-0.3
			s-0.1-0.1-0.1-0.1C433.3,17.9,433.2,17.9,433.1,17.9z M434.3,11.5l-0.4,0c-0.3,0-0.6,0.1-0.7,0.2c-0.1,0.1-0.1,0.2-0.2,0.3L432,17
			c0,0.1,0,0.2,0,0.3c0,0.1,0.2,0.2,0.5,0.2c0.3,0,0.6,0,1-0.1s0.7-0.2,1.1-0.3s0.7-0.3,0.9-0.5s0.5-0.4,0.8-0.7
			c0.5-0.6,0.7-1.2,0.7-1.8c0-0.8-0.2-1.4-0.7-1.8C435.7,11.7,435.1,11.5,434.3,11.5z"/>
		<path fill="#898981" d="M440.6,29.4c0-0.1,0-0.1,0.1-0.1h0.1c0.1,0,0.2,0,0.3-0.1s0.2-0.2,0.4-0.4s0.4-0.5,0.7-0.9
			s0.6-0.8,0.9-1.2c0.3-0.4,0.6-0.8,0.9-1.2s0.6-0.8,0.9-1.2c0.3-0.4,0.5-0.7,0.8-1c0.2-0.3,0.4-0.6,0.5-0.7
			c0.1-0.1,0.2-0.2,0.2-0.3c0.1,0,0.1-0.1,0.2-0.1h0.1c0.1,0,0.2,0,0.2,0.1c0,0.1,0,0.1,0,0.2l0.1,6.2c0,0.3,0.2,0.5,0.5,0.5
			c0.1,0,0.2,0,0.3,0h0.2c0,0,0.1,0,0.1,0.1v0.1c0,0,0,0.1-0.1,0.1h-3.2c0,0-0.1,0-0.1-0.1v-0.1c0,0,0-0.1,0.1-0.1
			c0.1,0,0.2,0,0.3,0c0.1,0,0.2,0,0.2,0c0.2,0,0.4-0.1,0.5-0.2c0.1-0.1,0.1-0.2,0.2-0.3c0-0.1,0.1-0.3,0.1-0.6l0-1.5v-0.1
			c0-0.2-0.1-0.2-0.3-0.2H444c-0.1,0-0.2,0.1-0.3,0.2c-0.2,0.2-0.4,0.5-0.5,0.7c-0.2,0.2-0.3,0.4-0.4,0.6s-0.2,0.2-0.2,0.3
			c0,0.1-0.1,0.1-0.1,0.2c-0.1,0.1-0.1,0.3-0.1,0.4c0,0.1,0.1,0.3,0.2,0.4s0.3,0.1,0.5,0.1h0.3c0,0,0.1,0,0.1,0.1c0,0.1,0,0.1,0,0.1
			c0,0,0,0-0.1,0L440.6,29.4C440.7,29.5,440.6,29.5,440.6,29.4z M446.3,25.8l-0.1-2.3c0-0.1,0-0.1-0.1-0.1c0,0-0.1,0-0.2,0.1
			c-0.1,0.1-0.2,0.2-0.3,0.4c-0.1,0.2-0.3,0.4-0.5,0.6c-0.4,0.5-0.6,0.8-0.8,1c-0.2,0.2-0.2,0.3-0.3,0.3c0,0,0,0-0.1,0.1
			c0,0.1-0.1,0.1-0.1,0.1s0,0,0,0h1.9c0.1,0,0.1,0,0.2-0.1C446.3,25.9,446.3,25.8,446.3,25.8z"/>
		<path fill="#898981" d="M452.3,8.3c0.1,0,0.1-0.1,0.1-0.1s0.1,0,0.1,0.1c1.2,1.9,1.8,4.1,1.8,6.6c0,2.4-0.5,4.7-1.6,7
			c-1,2.2-2.5,4.2-4.3,6c0,0-0.1,0.1-0.1,0.1s0,0-0.1,0c0,0-0.1,0-0.1-0.1c0,0-0.1-0.1-0.1-0.1c-0.1-0.1-0.1-0.2-0.1-0.3
			c0-0.1,0-0.2,0.1-0.2c3.5-4,5.2-8.2,5.2-12.6c0-2-0.4-4-1.3-5.9c0,0,0-0.1,0-0.1C452,8.7,452.1,8.5,452.3,8.3z"/>
		<path fill="#898981" d="M462.8,16.8c0.6,0.8,0.9,1.7,0.9,2.8c0,1.2-0.4,2.2-1.2,3c-0.8,0.8-1.8,1.2-2.9,1.2c-1.2,0-2.2-0.4-3-1.2
			c-0.8-0.8-1.2-1.8-1.2-3c0-1.3,0.4-2.3,1.3-3.1c0.8-0.7,1.8-1.1,3-1.1c0.5,0,1,0.1,1.5,0.3h4.2c0.1,0,0.1,0,0.1,0c0,0,0,0.1,0,0.1
			l-0.5,0.9c0,0,0,0.1,0,0.1c0,0,0,0-0.1,0H462.8z M461.5,22c0.2-0.4,0.4-0.7,0.5-1.2s0.2-0.9,0.2-1.3s-0.1-0.9-0.2-1.3
			c-0.1-0.4-0.3-0.8-0.5-1.2c-0.5-0.8-1.2-1.2-2-1.2c-0.9,0-1.6,0.4-2.1,1.2c-0.4,0.7-0.6,1.5-0.6,2.5c0,1.6,0.5,2.7,1.5,3.3
			c0.3,0.2,0.7,0.3,1.2,0.3s0.8-0.1,1.2-0.3C461,22.6,461.3,22.4,461.5,22z"/>
		<path fill="#898981" d="M473.3,8.4c0.1-0.1,0.1-0.1,0.1-0.1s0.1,0,0.1,0.1s0.1,0.1,0.1,0.1c0.1,0.1,0.1,0.2,0.1,0.3
			c0,0.1,0,0.1-0.1,0.2c-2.4,2.9-4,5.9-4.7,9.1c-0.3,1.1-0.4,2.2-0.4,3.3c0,2.2,0.4,4.2,1.2,6c0,0,0,0.1,0,0.1c0,0,0,0.1-0.1,0.2
			s-0.1,0.1-0.1,0.2c-0.1,0.2-0.2,0.2-0.3,0.2c-0.1,0-0.1,0-0.2-0.1c-1.1-2.2-1.7-4.4-1.7-6.6c0-2.4,0.5-4.7,1.6-7
			C470,12.2,471.5,10.2,473.3,8.4z"/>
		<path fill="#898981" d="M477.3,17.9l-1.2,0.1c-0.1,0-0.1,0-0.1,0.1l-0.9,4.1c0,0.1,0,0.2,0,0.4c0,0.1,0.1,0.3,0.2,0.4
			c0.1,0.1,0.2,0.2,0.4,0.2c0.2,0.1,0.6,0.1,1.1,0.1c0,0,0.1,0,0.1,0.1l0,0.2c0,0,0,0.1-0.1,0.1h-4.7c0,0-0.1,0-0.1-0.1l0-0.2
			c0,0,0.1-0.1,0.2-0.1c0.1,0,0.3,0,0.4,0c0.2,0,0.3-0.1,0.5-0.2c0.3-0.2,0.5-0.5,0.6-1c0-0.1,0-0.2,0.1-0.3l0.1-0.3
			c0-0.1,0.1-0.3,0.1-0.5s0.1-0.4,0.2-0.7c0.1-0.3,0.1-0.7,0.2-1.1c0.1-0.4,0.2-0.9,0.3-1.5c0.1-0.6,0.3-1.3,0.4-2.1
			c0.4-2,0.6-3,0.6-3.1c0-0.3-0.1-0.5-0.4-0.6s-0.6-0.1-1.1-0.1h-0.5c0,0-0.1,0-0.1-0.1l0.1-0.2c0-0.1,0.1-0.1,0.1-0.1h4.4
			c1.5,0,2.7,0.2,3.4,0.7c0.8,0.5,1.1,1.3,1.1,2.4c0,0.7-0.3,1.3-0.9,1.8c-0.4,0.4-1.2,0.9-2.4,1.5c-0.2,0.1-0.2,0.2-0.2,0.2
			s0,0.2,0.1,0.3c0.1,0.1,0.2,0.3,0.3,0.5c0.1,0.2,0.3,0.4,0.4,0.7c0.2,0.2,0.3,0.5,0.5,0.8c0.2,0.3,0.4,0.6,0.6,0.8
			s0.5,0.6,0.7,0.8s0.5,0.5,0.7,0.7c0.5,0.4,1,0.7,1.4,0.7h0.2c0.2,0,0.4,0,0.4,0.1s0.1,0.1,0.1,0.1v0.1c0,0.1-0.1,0.2-0.3,0.2h-0.7
			c-1.6,0-2.9-0.8-4.1-2.3c-0.3-0.5-0.6-0.9-0.9-1.2c-0.2-0.4-0.4-0.7-0.6-0.9c-0.1-0.2-0.3-0.4-0.4-0.6c-0.1-0.2-0.2-0.3-0.2-0.3
			s-0.1-0.1-0.1-0.1C477.5,17.9,477.4,17.9,477.3,17.9z M478.5,11.5l-0.4,0c-0.3,0-0.6,0.1-0.7,0.2c-0.1,0.1-0.1,0.2-0.2,0.3
			l-1.1,5.1c0,0.1,0,0.2,0,0.3c0,0.1,0.2,0.2,0.5,0.2c0.3,0,0.6,0,1-0.1s0.7-0.2,1.1-0.3s0.7-0.3,0.9-0.5s0.5-0.4,0.8-0.7
			c0.5-0.6,0.7-1.2,0.7-1.8c0-0.8-0.2-1.4-0.7-1.8C479.9,11.7,479.3,11.5,478.5,11.5z"/>
		<path fill="#898981" d="M488.3,29.5l-0.9,0c-0.8,0-1.3,0-1.7,0c-0.4,0-0.6,0-0.6,0c0,0,0,0,0,0l0-0.2c0,0,0,0,0.1,0
			c0.1,0,0.1,0,0.3,0c0.1,0,0.2,0,0.3-0.1c0.2-0.1,0.4-0.3,0.4-0.5l1.1-5.4c0-0.1,0-0.2,0-0.3c0-0.1,0-0.2-0.1-0.2
			c0-0.1-0.1-0.1-0.2-0.1c-0.1,0-0.3-0.1-0.5-0.1h-0.3c0,0,0,0,0,0l0-0.2c0,0,0-0.1,0-0.1h2.9c1.1,0,1.8,0.3,2.2,0.9
			c0.1,0.2,0.2,0.4,0.2,0.7c0,0.2,0,0.4-0.1,0.6c-0.1,0.1-0.2,0.3-0.3,0.4c-0.1,0.1-0.2,0.2-0.4,0.3c-0.1,0.1-0.2,0.2-0.4,0.2
			c-0.1,0.1-0.2,0.1-0.3,0.1c-0.1,0-0.1,0-0.1,0c0.9,0.5,1.3,1.1,1.3,1.8c0,0.7-0.2,1.2-0.5,1.5c-0.5,0.5-1.3,0.7-2.3,0.7
			C488.4,29.5,488.4,29.5,488.3,29.5z M487.8,25.6c-0.1,0-0.1,0.1-0.2,0.2c-0.1,0.4-0.2,0.8-0.2,1.1c-0.1,0.3-0.1,0.6-0.2,0.8
			c0,0.2-0.1,0.4-0.1,0.5c0,0.1,0,0.2-0.1,0.3c0,0.1,0,0.1,0,0.2s0,0.1,0.1,0.2c0.1,0.1,0.2,0.2,0.3,0.3c0.2,0.1,0.5,0.2,0.8,0.2
			c0.3,0,0.6-0.1,0.8-0.2s0.5-0.2,0.7-0.4c0.4-0.4,0.6-0.9,0.6-1.5c0-0.5-0.2-0.9-0.5-1.2c-0.3-0.3-0.7-0.5-1.2-0.5H487.8z
			 M487.8,25C487.8,25,487.8,25.1,487.8,25c0,0.2,0,0.2,0.1,0.2c0.2,0,0.5,0,0.7,0s0.5,0,0.8-0.1c0.3-0.1,0.5-0.2,0.7-0.3
			c0.4-0.3,0.5-0.6,0.5-0.9c0-0.6-0.2-1.1-0.7-1.3c-0.2-0.1-0.4-0.1-0.6-0.1c-0.2,0-0.4,0-0.5,0c-0.1,0-0.2,0-0.3,0
			c-0.2,0-0.2,0.1-0.3,0.2L487.8,25z"/>
		<path fill="#898981" d="M495.2,8.3c0.1,0,0.1-0.1,0.1-0.1s0.1,0,0.1,0.1c1.2,1.9,1.8,4.1,1.8,6.6c0,2.4-0.5,4.7-1.6,7
			c-1,2.2-2.5,4.2-4.3,6c0,0-0.1,0.1-0.1,0.1s0,0-0.1,0c0,0-0.1,0-0.1-0.1c0,0-0.1-0.1-0.1-0.1c-0.1-0.1-0.1-0.2-0.1-0.3
			c0-0.1,0-0.2,0.1-0.2c3.5-4,5.2-8.2,5.2-12.6c0-2-0.4-4-1.3-5.9c0,0,0-0.1,0-0.1C494.9,8.7,495,8.5,495.2,8.3z"/>
	</g>
</g>
</svg>
