<?xml version="1.0" encoding="utf-8"?>
<!-- Generator: Adobe Illustrator 18.1.1, SVG Export Plug-In . SVG Version: 6.00 Build 0)  -->
<!DOCTYPE svg PUBLIC "-//W3C//DTD SVG 1.1//EN" "http://www.w3.org/Graphics/SVG/1.1/DTD/svg11.dtd">
<svg version="1.1" id="Breaks" xmlns="http://www.w3.org/2000/svg" xmlns:xlink="http://www.w3.org/1999/xlink" x="0px" y="0px"
	 viewBox="0 0 118.4 58.5" enable-background="new 0 0 118.4 58.5" xml:space="preserve">
<g>
	<g>
		<path fill="#898981" d="M17.5,8.3C17.6,7.7,17.7,7,16.8,7H16c-0.1,0-0.1-0.1-0.1-0.2L16,6.5c0-0.1,0.1-0.2,0.3-0.2s3.6-0.1,4-0.1
			c1.8,0,2.8,0.1,3.8,0.9c0.8,0.7,1.1,1.3,1.1,2.6c0,1.9-1.6,4-5.5,4c-0.8,0-1.6-0.1-1.9-0.2L16.8,17c-0.2,0.7-0.2,1.4,0.6,1.4h0.7
			c0.1,0,0.2,0.1,0.2,0.2l-0.1,0.4c0,0.1-0.1,0.2-0.2,0.2c-0.2,0-1-0.1-2.5-0.1c-1.3,0-2,0.1-2.2,0.1c-0.1,0-0.2-0.1-0.2-0.2l0-0.3
			c0-0.1,0.1-0.2,0.2-0.2h0.4c1,0,1.3-0.7,1.5-1.5L17.5,8.3z M17.8,12.9c0.3,0.2,0.8,0.3,1.6,0.3c2.8,0,4-2,4-3.6
			c0-2.3-1.9-2.7-3.2-2.7c-0.2,0-0.6,0-0.7,0L17.8,12.9z"/>
		<path fill="#898981" d="M24.4,23.3c0-2.2,1.7-5.1,3.6-5.1c1.1,0,1.6,0.8,1.6,2c0,2.4-1.7,5.3-3.5,5.3
			C25.1,25.5,24.4,24.6,24.4,23.3z M28.9,19.9c0-0.8-0.4-1.2-1-1.2c-1.5,0-2.8,3.3-2.8,5c0,1,0.4,1.4,0.9,1.4
			C27.7,25.1,28.9,21.7,28.9,19.9z"/>
		<path fill="#898981" d="M17.8,35.3c0.3-1.1-0.4-1.3-1-1.3h-0.6C16,34,16,33.9,16,33.8l0.1-0.4c0-0.1,0.1-0.1,0.2-0.1
			c0.1,0,0.3,0,0.7,0c0.4,0,1,0,1.9,0h1.2c1.4,0,2.5,0,3.3,0c0.8,0,1.3,0,1.5,0c0.3,0,0.3,0.1,0.4,0.4l0.6,2.6c0,0.1,0,0.1-0.1,0.2
			l-0.2,0.1c-0.1,0-0.1,0-0.2-0.1l-1.8-2.3C23.6,34,23.5,34,23.3,34h-3.4l-1.6,5h1.8c1.1,0,1.7,0,2.3-1.6c0-0.1,0.1-0.1,0.1-0.1
			l0.3,0.1c0.1,0,0.1,0.1,0.1,0.2l-1,3.8c0,0.1-0.1,0.1-0.1,0.1l-0.3,0c-0.1,0-0.1,0-0.1-0.2c0.1-1.6-0.6-1.6-2.1-1.6h-1.1l-1.8,5.8
			h4.9c0.7,0,1.1-0.3,1.5-0.8l1.5-1.9c0.1-0.1,0.1-0.1,0.2,0l0.2,0.1c0.1,0.1,0.1,0.1,0.1,0.3l-1,2.7c-0.1,0.3-0.2,0.3-0.4,0.3
			c-0.2,0-1,0-2.1,0c-1.1,0-2.5,0-3.8,0h-2.2c-0.9,0-1.4,0-1.8,0c-0.3,0-0.5,0-0.6,0c-0.1,0-0.2,0-0.2-0.2l0.1-0.4
			c0-0.1,0.1-0.2,0.2-0.2h0.7c0.8,0,1.2-0.4,1.4-1.1L17.8,35.3z"/>
		<path fill="#898981" d="M25.9,52.1C25.9,52,26,52,26,52h0.6c0.4,0,0.6,0,0.9-0.6c0.1-0.1,0.3-0.8,0.5-1.6l0.6-2
			c0.2-0.7,0.3-1,0.3-1.1c0-0.1,0-0.2-0.2-0.2c-0.1,0-0.3,0.1-0.7,0.2L27.5,47c-0.1,0-0.1,0-0.2,0l-0.1-0.2c0-0.1,0-0.1,0.1-0.1
			l2.5-1.3c0.2-0.1,0.2-0.1,0.3-0.1c0.1,0,0.1,0,0.1,0.1c0,0,0,0.1-0.1,0.3c0,0.1-0.5,1.4-0.9,2.6l-0.6,1.9
			c-0.2,0.5-0.4,1.1-0.4,1.3c-0.1,0.4-0.1,0.5,0.5,0.5h0.6c0.1,0,0.1,0,0.1,0.1l0,0.2c0,0.1,0,0.1-0.1,0.1c-0.1,0-1.7,0-1.8,0
			c-0.2,0-1.5,0-1.6,0c0,0-0.1,0-0.1-0.1L25.9,52.1z"/>
	</g>
	<g>
		<path fill="#898981" d="M46.7,22.2v1h-7.4v-1H46.7z M46.7,25v1h-7.4v-1H46.7z"/>
	</g>
	<g>
		<path fill="#898981" d="M64.6,8c0.2-0.7-0.3-0.9-1-0.9h-0.9c-0.2,0-0.2,0-0.2-0.2l0.1-0.4c0-0.1,0.1-0.1,0.3-0.1s0.8,0,1.6-0.1
			c0.8,0,1.7-0.1,2-0.1c2.4,0,5.1,0.3,6.7,1.8c1.2,1.2,1.4,2.3,1.4,3.4c0,3.7-2.4,5.6-3.5,6.3c-2.4,1.3-4.9,1.3-6.2,1.3
			c-0.5,0-2.2-0.1-2.8-0.1c-1.4,0-2,0.1-2.1,0.1c-0.1,0-0.2-0.1-0.2-0.2l0.1-0.4c0-0.1,0.1-0.1,0.2-0.1h0.6c0.7,0,1.3-0.2,1.6-1.5
			L64.6,8z M64,17c-0.1,0.3-0.1,0.6-0.1,0.8c0,0.4,0.5,0.6,1.3,0.6c2,0,4-0.4,5.4-1.6c1.2-1,2.3-3.1,2.3-5.3c0-1.2-0.5-2.4-1.2-3.1
			c-0.6-0.6-1.4-1-2.2-1.2c-1-0.3-1.8-0.2-2.1-0.2c-0.3,0-0.9,0-1.1,0.1L64,17z"/>
		<path fill="#898981" d="M75.1,25.1c0-0.1,0.1-0.1,0.1-0.1h0.6c0.4,0,0.6,0,0.9-0.6c0.1-0.1,0.3-0.8,0.5-1.6l0.6-2
			c0.2-0.7,0.3-1,0.3-1.1c0-0.1,0-0.2-0.2-0.2c-0.1,0-0.3,0.1-0.7,0.2L76.8,20c-0.1,0-0.1,0-0.2,0l-0.1-0.2c0-0.1,0-0.1,0.1-0.1
			l2.5-1.3c0.2-0.1,0.2-0.1,0.3-0.1c0.1,0,0.1,0,0.1,0.1c0,0,0,0.1-0.1,0.3c0,0.1-0.5,1.4-0.9,2.6L78,23.1c-0.2,0.5-0.4,1.1-0.4,1.3
			C77.4,24.8,77.5,25,78,25h0.6c0.1,0,0.1,0,0.1,0.1l0,0.2c0,0.1,0,0.1-0.1,0.1c-0.1,0-1.7,0-1.8,0c-0.2,0-1.5,0-1.6,0
			c0,0-0.1,0-0.1-0.1L75.1,25.1z"/>
		<path fill="#898981" d="M90.8,6.2c0.1-0.1,0.2-0.2,0.3-0.1l0.5,0.2c0.1,0,0.1,0.2,0,0.3l-9.1,12.5c-0.1,0.2-0.2,0.2-0.3,0.2
			L81.7,19c-0.1,0-0.1-0.1,0.1-0.2L90.8,6.2z"/>
		<path fill="#898981" d="M98.4,8.3C98.7,7.3,98,7,97.3,7h-0.6c-0.1,0-0.2-0.1-0.1-0.2l0.1-0.4c0-0.1,0.1-0.1,0.2-0.1
			c0.1,0,0.3,0,0.7,0c0.4,0,1,0,1.9,0h1.2c1.4,0,2.5,0,3.3,0c0.8,0,1.3,0,1.5,0c0.3,0,0.3,0.1,0.4,0.4l0.6,2.6c0,0.1,0,0.1-0.1,0.2
			l-0.2,0.1c-0.1,0-0.1,0-0.2-0.1l-1.8-2.3C104.2,7,104.1,7,103.9,7h-3.4l-1.6,5h1.8c1.1,0,1.7,0,2.3-1.6c0-0.1,0.1-0.1,0.1-0.1
			l0.3,0.1c0.1,0,0.1,0.1,0.1,0.2l-1,3.8c0,0.1-0.1,0.1-0.1,0.1l-0.3,0c-0.1,0-0.1,0-0.1-0.2c0.1-1.6-0.6-1.6-2.1-1.6h-1.1l-1.8,5.8
			h4.9c0.7,0,1.1-0.3,1.5-0.8l1.5-1.9c0.1-0.1,0.1-0.1,0.2,0l0.2,0.1c0.1,0.1,0.1,0.1,0.1,0.3l-1,2.7c-0.1,0.3-0.2,0.3-0.4,0.3
			c-0.2,0-1,0-2.1,0c-1.1,0-2.5,0-3.8,0h-2.2c-0.9,0-1.4,0-1.8,0c-0.3,0-0.5,0-0.6,0c-0.1,0-0.2,0-0.2-0.2l0.1-0.4
			c0-0.1,0.1-0.2,0.2-0.2h0.7c0.8,0,1.2-0.4,1.4-1.1L98.4,8.3z"/>
		<path fill="#898981" d="M106.5,25.1c0-0.1,0.1-0.1,0.1-0.1h0.6c0.4,0,0.6,0,0.9-0.6c0.1-0.1,0.3-0.8,0.5-1.6l0.6-2
			c0.2-0.7,0.3-1,0.3-1.1c0-0.1,0-0.2-0.2-0.2c-0.1,0-0.3,0.1-0.7,0.2l-0.6,0.3c-0.1,0-0.1,0-0.2,0l-0.1-0.2c0-0.1,0-0.1,0.1-0.1
			l2.5-1.3c0.2-0.1,0.2-0.1,0.3-0.1c0.1,0,0.1,0,0.1,0.1c0,0,0,0.1-0.1,0.3c0,0.1-0.5,1.4-0.9,2.6l-0.6,1.9
			c-0.2,0.5-0.4,1.1-0.4,1.3c-0.1,0.4-0.1,0.5,0.5,0.5h0.6c0.1,0,0.1,0,0.1,0.1l0,0.2c0,0.1,0,0.1-0.1,0.1c-0.1,0-1.7,0-1.8,0
			c-0.2,0-1.5,0-1.6,0c0,0-0.1,0-0.1-0.1L106.5,25.1z"/>
		<path fill="#898981" d="M71.2,46C71,46,71,46,71,45.9l1.1-3.1c0.3-1.1,0.9-3.1,0.9-3.3c0-0.2-0.2-0.3-0.3-0.3
			c-0.4,0-1.2,0.9-1.5,1.2c0,0.1-0.1,0-0.2,0l-0.2-0.2c0,0,0-0.1,0-0.2c0.4-0.6,1.5-1.9,2.8-1.9c0.4,0,0.5,0.3,0.5,0.7
			c0,0.4-0.3,1.4-0.7,2.7l0.1,0c0.5-1.1,2-3.4,3.1-3.4c0.5,0,0.9,0.3,0.9,0.9c0,0.5-0.4,0.9-0.7,0.9c-0.2,0-0.3,0-0.5-0.2
			c-0.2-0.2-0.2-0.2-0.5-0.2c-0.5,0-1.6,1.6-2.3,2.9c-0.2,0.4-0.5,0.8-0.7,1.6l-0.6,1.9c0,0.1-0.1,0.1-0.2,0.1H71.2z"/>
		<path fill="#898981" d="M82.2,41.1c0-0.1,0-0.2,0.2-0.2h6.1c0.1,0,0.2,0,0.2,0.2v0.6c0,0.2-0.1,0.2-0.2,0.2h-6.1
			c-0.1,0-0.2,0-0.2-0.1V41.1z"/>
		<path fill="#898981" d="M92.3,49.2c0-1.4,2.3-2.3,3.2-2.7c-0.5-0.4-0.7-0.7-0.7-1.1c0-0.4,0.3-0.7,1.6-1.4
			c-0.5-0.1-1.5-0.8-1.5-2.2c0-1.4,1.3-3.6,3.4-3.6c0.9,0,1.4,0.6,1.6,0.9c0.2-0.2,0.9-0.7,1.6-0.7c0.6,0,0.8,0.5,0.8,0.7
			c0,0.2-0.1,0.6-0.6,0.6c-0.4,0-0.5-0.2-0.6-0.3c-0.1-0.1-0.2-0.1-0.4-0.1c-0.2,0-0.5,0.1-0.5,0.3c0.1,0.2,0.2,0.8,0.2,1.1
			c0,0.9-0.5,3-2.7,3.4c-0.3,0.1-0.5,0.1-0.6,0.1c-0.4,0.2-1,0.6-1,0.9c0,0.2,0.2,0.4,0.3,0.5c0.3,0.2,1.2,0.8,2.5,1.6
			c1.1,0.7,1.4,1.3,1.4,2c0,0.3-0.3,2.5-4,2.5C94.2,51.7,92.3,50.6,92.3,49.2z M96.6,51.1c1.3,0,2.4-0.5,2.4-1.5
			c0-0.8-0.8-1.3-1.3-1.7L96,46.8c-1.6,0.6-2.4,1.3-2.4,2.2C93.6,50.4,95.3,51.1,96.6,51.1z M99.1,39.9c0-0.9-0.3-1.3-0.9-1.3
			c-1.1,0-2.1,2.2-2.1,3.6c0,0.9,0.3,1.3,0.9,1.3C98.4,43.6,99.1,41.3,99.1,39.9z"/>
	</g>
	<g>
		<rect x="6.9" y="27.5" fill="#898981" width="23" height="1"/>
	</g>
	<g>
		<rect x="59.9" y="27.5" fill="#898981" width="52" height="1"/>
	</g>
</g>
</svg>
