<?xml version="1.0" encoding="utf-8"?>
<!-- Generator: Adobe Illustrator 18.1.1, SVG Export Plug-In . SVG Version: 6.00 Build 0)  -->
<!DOCTYPE svg PUBLIC "-//W3C//DTD SVG 1.1//EN" "http://www.w3.org/Graphics/SVG/1.1/DTD/svg11.dtd">
<svg version="1.1" id="Text_Layout" xmlns="http://www.w3.org/2000/svg" xmlns:xlink="http://www.w3.org/1999/xlink" x="0px"
	 y="0px" viewBox="0 0 108 95" enable-background="new 0 0 108 95" xml:space="preserve">
<g>
	<path fill="#333333" d="M71.1,78H36.9L19.9,48l17.1-30h34.2l17.1,30L71.1,78z M38.1,76h31.8l15.9-28L69.9,20H38.1L22.2,48L38.1,76z
		"/>
</g>
<g>
	<g>
		<g>
			<path fill="#333333" d="M71.7,51.8c-0.1-0.3-2.7-7.7-6.3-9.6c-0.2-0.1-0.4-0.2-0.7-0.3c1.1-3.6,1.4-6.6,0.7-9.2
				c-0.7-2.5-3-4.4-5.3-4.3c-2,0.1-3.5,1.7-3.9,4.4c-0.1,0.8-0.1,1.6,0,2.3c-0.5,0.7-0.8,1.2-0.9,1.4L37.4,64.9
				c-0.1,0.2-0.3,0.5-0.1,0.8l0.2,0.3h0.3c0.3,0,0.5-0.2,0.6-0.4l20.6-25.9c1.3,1.1,2.9,2,4.3,2.7c-0.6,2-1.5,4.1-2.5,6.5
				c-2.7,6.5-1.5,11.9,0.5,13.2c0.1,0.1,0.2,0.1,0.3,0.1c0.2,0,0.4-0.1,0.5-0.3c0.2-0.3,0.1-0.6-0.2-0.8c-1.4-0.9-2.6-5.7,0-11.7
				c1-2.3,1.8-4.5,2.5-6.4c0.2,0.1,0.3,0.2,0.5,0.2c3.2,1.7,5.7,8.9,5.7,9c0.1,0.3,0.4,0.5,0.7,0.4C71.6,52.4,71.8,52.1,71.7,51.8
				L71.7,51.8z M56.8,39.3l-1.2,1l0.5-1.4c0.1-0.4,0.4-1.2,0.7-1.9c0.3,0.6,0.6,1.1,1,1.5C57.3,38.9,57,39.2,56.8,39.3L56.8,39.3z
				 M58.6,37.6c-0.5-0.6-0.9-1.4-1.1-2.2c0.6-1,1.2-1.8,2-1.8c0.2,0,0.4,0.1,0.6,0.2c0.3,0.2,0.5,0.5,0.5,0.8
				C60.6,35.4,59.6,36.6,58.6,37.6L58.6,37.6z M63.7,41.3c-1.3-0.7-2.8-1.5-3.9-2.5c0.8-1,2.3-3.2,2.1-4.8c-0.1-0.6-0.3-1-0.8-1.3
				c-0.4-0.3-0.8-0.4-1.2-0.4c-0.9,0-1.8,0.6-2.5,1.3c0-0.2,0-0.5,0.1-0.8c0.3-2.1,1.3-3.3,2.8-3.4c0,0,0.1,0,0.2,0
				c1.5,0,3.4,1.3,4,3.4C65,35.3,64.7,38,63.7,41.3L63.7,41.3z M63.7,41.3"/>
		</g>
	</g>
</g>
</svg>
