<?xml version="1.0" encoding="utf-8"?>
<!-- Generator: Adobe Illustrator 18.1.1, SVG Export Plug-In . SVG Version: 6.00 Build 0)  -->
<!DOCTYPE svg PUBLIC "-//W3C//DTD SVG 1.1//EN" "http://www.w3.org/Graphics/SVG/1.1/DTD/svg11.dtd">
<svg version="1.1" id="Text_Layout" xmlns="http://www.w3.org/2000/svg" xmlns:xlink="http://www.w3.org/1999/xlink" x="0px"
	 y="0px" viewBox="0 0 108 95" enable-background="new 0 0 108 95" xml:space="preserve">
<g>
	<g>
		<path fill="#333333" d="M71.1,77H36.9L19.9,47l17.1-30h34.2l17.1,30L71.1,77z M38.1,75h31.8l15.9-28L69.9,19H38.1L22.2,47L38.1,75
			z"/>
	</g>
	<g>
		<g>
			<path fill="#333333" d="M74.5,54.6L68.6,37c0.3-0.3,0.5-0.8,0.5-1.2c0-1-0.8-1.9-1.9-1.9c-0.4,0-0.8,0.2-1.2,0.4
				c-0.5-0.3-1.1-0.8-1.6-1.3c-1.6-1.4-3.5-2.9-5.7-2.9c-0.5,0-1,0.1-1.4,0.1c-0.6-1.2-1.9-2-3.3-2c-1.5,0-2.7,0.8-3.3,2
				c-0.4-0.1-0.9-0.1-1.4-0.1c-2.2,0-4.1,1.6-5.7,2.9C43,33.5,42.5,34,42,34.3c-0.3-0.3-0.7-0.4-1.2-0.4c-1,0-1.9,0.8-1.9,1.9
				c0,0.5,0.2,0.9,0.5,1.2l-5.9,17.6h-2.1c0,0,1.7,7.5,9.4,7.5c7.7,0,9.4-7.5,9.4-7.5h-2.1L42.2,37c0.2-0.2,0.3-0.5,0.4-0.9
				c0.7-0.4,1.4-1,2.2-1.6c1.4-1.2,3-2.5,4.5-2.5c0.3,0,0.7,0,0.9,0.1c0.1,2,1.7,3.7,3.8,3.7c2,0,3.7-1.6,3.8-3.7
				c0.3-0.1,0.6-0.1,1-0.1c1.5,0,3.1,1.3,4.5,2.5c0.7,0.6,1.5,1.2,2.2,1.6c0.1,0.3,0.2,0.6,0.4,0.9l-5.9,17.6h-2.2
				c0,0,1.7,7.5,9.4,7.5c7.7,0,9.4-7.5,9.4-7.5H74.5z M35.5,54.6l5.3-15.9l5.3,15.9H35.5z M61.9,54.6l5.3-15.9l5.3,15.9H61.9z
				 M61.9,54.6"/>
		</g>
	</g>
</g>
</svg>
