<?xml version="1.0" encoding="utf-8"?>
<!-- Generator: Adobe Illustrator 18.1.1, SVG Export Plug-In . SVG Version: 6.00 Build 0)  -->
<!DOCTYPE svg PUBLIC "-//W3C//DTD SVG 1.1//EN" "http://www.w3.org/Graphics/SVG/1.1/DTD/svg11.dtd">
<svg version="1.1" id="Text_Layout" xmlns="http://www.w3.org/2000/svg" xmlns:xlink="http://www.w3.org/1999/xlink" x="0px"
	 y="0px" viewBox="0 0 309.9 95" enable-background="new 0 0 309.9 95" xml:space="preserve">
<g>
	<g>
		<path fill="#E42017" d="M150.6,61.7l-2.5-0.1c8.2,0,16.8,0.2,25.2,0.4c-18.4-1.9-40.2-3.5-54.4,0.5c-1.5-2.1-19.4-3.1-19.8-2.6
			c-3.7,0.4-7.5,0.7-11.3,1c2.6-0.2,5.2-0.3,7.8-0.5c-2.6,0.2-5.2,0.4-7.8,0.5c-10.3,0.7-20.9,1-31.8,1c-5.5,0-11,0-16.6-0.1
			c-2.8-0.1-5.6-0.1-8.4-0.2l-0.5,0c-0.2,0-0.1,0-0.2,0l-0.3,0l-0.6-0.1l-1-0.1c0.1-0.5,0.1-1,0.2-1.6l0-0.4l0-0.1c0,0,0,0,0-0.2
			l0-0.7l0.1-2.9c0.1-3,0.2-7.1,0.3-11.8c0-2.4,0.1-4.9,0.1-7.5c0-0.5,0-0.4,0-0.4l0-0.2l0-0.3c0-0.2,0-0.4,0.1-0.6
			c0.3,0,0.6,0.1,0.9,0.1l0.2,0l1.3,0c1,0,2.1,0,3.1,0.1c4.1,0.1,8.2,0.2,12,0.2c7.7,0.2,14.5,0.3,19.1,0.5c2.2,0.1,4.4,0.1,6.7,0.2
			c-3.7-0.2-3.7-0.2-7.5-0.4c9.4-0.6,17.9-1.1,26.1-1.5c-1.4-0.3-1.7-0.6-5.1-1l4.2,0.2c3.8-0.9,12.6-0.8,16.8-1.2
			c-0.9,0.5,2.4,0.6,5.2,0.6l-1.1-0.3c10.9,0.2,23.6-0.2,33.4-0.1c1.4,0,2.4,0.2,3,0.3l9.4-0.4c-0.7,0.6,7.8,0.5,3.3,0.9
			c7-0.7,14.1-0.3,20.8-1c23.9-0.1,49.3-0.6,73.9-1.6l-0.6-0.2c4.3-0.2,8.4-0.6,12.7-0.9c2.1-0.2,4.4-0.3,6.7-0.3c1.2,0,2.4,0,3.6,0
			c1.2,0,2.6,0,3.6,0.1c1.8-0.2,3.9-0.4,6.2-0.6c0.3,2.6,0.5,5.7,0.8,8.4c0.3,2.6,0.7,4.8,1.1,5.9c0.2,8.7,0.8,12.1,1.2,20.6
			c0.6-2.2,0.8,8.2,1.3,4.1c0.9-5.6,0.1-5.9,0.9-10.7l-0.2,0.1c0.2-4.8,0.4-9.6,0.6-14.4l0.1-3.6l0.1-1.8l0.1-2.3
			c0.1-4.1,0.1-8.2,0.2-12.3c-5.1-0.1-10.1-0.2-15.2-0.3c-3.2-0.1-6.4-0.1-9.6-0.2c-6.4-0.1-12.8-0.2-19.3-0.3
			c-15.1,0.5-31.4,0.1-47.1,0.3c-16.9,0.2-35.1,0.6-49.6,1.2c-3.5,0.2-5.9-0.4-8.9-0.6c-13.3,0.3-30.3,0.1-45.3,0.4
			c0.3,0,0.6,0,0.7,0c-8,0.1-14-0.5-21.8-0.4c0,0.2-1.2,0.2-1.8,0.3c-0.7-0.4-12.1,0-23.8,0.5c-5.8,0.2-11.7,0.5-16.3,0.7
			c-1.1,0-2.2,0.1-3.2,0.1c-1.1,0-2.1,0-3,0.1c-2.2,0-3.7,0-4.3-0.1c-1.2,0-2.4,0.1-3.7,0.1c-0.9,0-1.8,0-2.7,0
			c-0.1,2.5-0.1,5-0.2,7.5l-0.1,3.9l-0.1,2.7c-0.2,3.4-0.4,6.7-0.5,10.1c-0.2,3.3-0.3,6.6-0.5,9.8L17,59c0,0.6,0,1.2-0.1,1.8
			c0,1.4-0.1,2.7-0.1,4.1c0,2.7-0.1,5.4-0.1,8.1c3.8,0,7.5,0.1,11.2,0c0.7,0,1.3-0.1,2-0.1l0.5,0l0.3,0l0.6-0.1
			c0.8-0.1,1.6-0.2,2.4-0.3c1.6-0.2,3.1-0.4,4.4-0.6c2.5,0.4,3-0.3,6-0.2c7.6,1.7,12.1,1,8.2,0.4c6.3-0.2,12.6-0.1,18.2-0.1
			c2.6-0.1,5.2-0.3,7.8-0.4c2.2-0.1,3.5,0.1,4.6,0.5c5.7-0.2,4,0.2,10,0.4c1.4,0.6,14.9-0.9,16.6-0.8l-1,0.1
			c6.9,0.1,11.5,1.3,18.2,1.3c18.7,0.4,39.1,0,56.4,0.2c0.2-0.6-3.8,0.1-4-0.7c10.2,0.1,20.5,0.9,30.8,1c1.9,0.2,4.1,0.5,5,0.7
			c3.3,0.2,1.9-0.3,4.4-0.2l0.3,0.6c3.5-0.5,5.2,0.6,8.5,0.4c0.2-0.2,1.4-0.3,2.6-0.2c0.1,0.6,3.6,0,3.5,0.5l0,0
			c0.7,0,1.2,0,2.1,0.1c1.3-0.2,14-1.8,15.4-2.1l0.6,0.1c1.9,0,2.7-0.5,1.6-0.6l2.3,0l-0.3,0l2.3,0c0.4,0.1,0.9,0.3,0.3,0.6
			c1.3-0.2,2.8-0.3,4.1-0.2c-3.7-0.4-8.2-0.9-12-1.5c1.6-0.2,4.4,0.1,6.1,0c2,0.4,6.2,0.7,9.5,1c0.7,0,1.2-0.7,2.8-0.4
			c0.8,0.5,1.8,0,3.2,0.3c-1.6,0.2-3.1,0.1-4.6,0.1c0.3,0.5,3.8,0.4,5.1,0.5c0.6-0.2,3.6,0,5.5-0.1c-0.8,0.5,1.5,0.3,2.7,0.6
			c1.3,0.1,2.1-0.1,1.6-0.3c0.4-0.6-5.1-0.3-3.3-0.9c0.5,0.3,3,0.2,4.3,0.2c0-0.3-0.9-0.2,0-0.5c1.5,0.1,3.1-0.3,4,0
			c-0.3,0.1-0.9,0-1.3,0c2,0-10.6,2-8.1,1.8c-0.7-0.3,11.2-1.8,9.9-1.8c-1.2-0.2,0.9-0.6-0.4-0.7l-1.4,0.4c-1.7-0.1-2.4-0.7-1.8-0.9
			c2.8,0-8,2.1-5.6,1.8l-1-0.1c1-0.2,3.8-0.4,4.8-0.1c0-0.3,1.4-0.4,2.5-0.5l0.4,0.1c1.2-0.2,2.8-0.1,2.1-0.5c-7,0,4.6-3.1-2.2-3.3
			c2.8,0.7-1,0.7-3.9,0.8c-0.3-0.2-1.6-0.6-3.7-0.7c-1.8,0.1-1.1,0.2-1.4,0.4c-1-0.2-3-0.3-2.7-0.6c-1.4,0.4-2.3-0.3-4-0.1
			c-1.5,0.2,0.1,0.2-1,0.4c-2.3,0-5.5-0.1-7.3-0.2c-0.7-0.3-2.8-0.9-1.3-1.4c3.5,0.1-1.3,0.8,2.3,0.7c-1.6-0.8,3.2-0.2,3.8-0.8
			c-1.1-0.3-3.5-0.3-5.4-0.3l0.4,0.1c-1.7,0.1-5.1,0.3-7-0.1c0.4-0.3-0.4-0.5,0.9-0.5l-2.4-0.1c-0.3,0.1-0.6,0.2,0.1,0.2
			c-1.1,0.2-2.2,0.1-3.1-0.1c-0.3-0.3-12.6,1.2-12.2,1c-1.7,0-2.1-0.4-3.8-0.1c-0.2,0.2,16.2-1,14-0.9c-1.5-0.3-19.3,1.4-20.3,0.9
			c-1.3,0-2.8,0.1-2.5,0.4c-2.1-0.1,0.6-0.5-0.9-0.8c0,0,0.1,0.1-0.4,0.1l-1.5-0.4c-3.3,0.4-8.2-0.1-11.6,0.5c1-0.3,2.1-0.9,4.4-1.1
			l0.4,0.2c0.3-0.1,2.1-0.2,2.1-0.5c-2.1-0.2-3.9-0.1-6.2,0.1c-0.4-0.1-0.9-0.2-1.2-0.2c0,0,0,0.1,0,0.1c-0.7-0.2-0.7-0.2-0.4-0.3
			c0,0,0.1,0,0.2-0.1c-1.3-0.8-8.3,0.5-12.2,0.1c-1.1,0.1-0.1,0.1-1.5,0.3c-3.9-0.3-6.7-0.6-10.8-0.8c-1.3,0.4-1.4,0.5,0.2,0.9
			l-3.1-0.1c2.8-1-5.8-0.9-2.7-1.9c-0.9-0.2-2.8-0.3-4.5-0.1c-0.2,0.2-0.4,0.6-2.6,0.6c-3.1-0.3-2.3-0.2-4.9-0.5
			c-0.6-0.3,0.3-0.4,0.2-0.7c-3.9,0.4-3.4-0.7-7.1-0.6c-2.3,0.1-6.9,0.1-7,0.7C150.3,62.5,150.3,62.1,150.6,61.7z"/>
	</g>
</g>
</svg>
