<?xml version="1.0" encoding="utf-8"?>
<!-- Generator: Adobe Illustrator 18.1.1, SVG Export Plug-In . SVG Version: 6.00 Build 0)  -->
<!DOCTYPE svg PUBLIC "-//W3C//DTD SVG 1.1//EN" "http://www.w3.org/Graphics/SVG/1.1/DTD/svg11.dtd">
<svg version="1.1" id="Text_Layout" xmlns="http://www.w3.org/2000/svg" xmlns:xlink="http://www.w3.org/1999/xlink" x="0px"
	 y="0px" viewBox="0 0 108 95" enable-background="new 0 0 108 95" xml:space="preserve">
<g>
	<g>
		<g>
			<path fill="#FFFFFF" d="M71.1,77H36.9L19.9,47l17.1-30h34.2l17.1,30L71.1,77z M38.1,75h31.8l15.9-28L69.9,19H38.1L22.2,47
				L38.1,75z"/>
		</g>
	</g>
	<g>
		<g>
			<g>
				<path fill="#FFFFFF" d="M62.3,52.9v2.6c0,4.4-3.2,8-7.3,8.7v2.6h2.3v3h-7.5v-3H52v-2.6c-4.2-0.7-7.3-4.3-7.3-8.7v-2.6
					c0-0.8,0.7-1.5,1.5-1.5c0.8,0,1.5,0.7,1.5,1.5v2.6c0,3.2,2.6,5.8,5.8,5.8c3.2,0,5.8-2.6,5.8-5.8v-2.6c0-0.8,0.7-1.5,1.5-1.5
					C61.7,51.4,62.3,52,62.3,52.9L62.3,52.9z M53.5,39.9c-2.5,0-4.5,2-4.5,4.5v10.3c0,2.5,2,4.5,4.5,4.5c2.5,0,4.5-2,4.5-4.5V44.4
					C58,41.9,56,39.9,53.5,39.9L53.5,39.9z M59.1,37.1c0-0.2,0-0.3-0.1-0.4c-0.9-2.2-3.1-3.6-5.4-3.7h-0.1c-2.4,0-4.5,1.4-5.5,3.6
					c-0.2,0.5,0,1.2,0.6,1.4c0.5,0.2,1.2,0,1.4-0.5c0.6-1.4,2-2.3,3.5-2.3h0.1c1.5,0,2.9,0.9,3.5,2.3c0.2,0.5,0.8,0.8,1.4,0.6
					C58.8,37.9,59,37.5,59.1,37.1L59.1,37.1z M61.5,34c0.3-0.2,0.5-0.5,0.5-0.9c0-0.2,0-0.4-0.2-0.6c-1.8-2.9-4.8-4.6-8.2-4.6h-0.1
					c-3.4,0-6.5,1.6-8.3,4.5c-0.3,0.5-0.2,1.1,0.3,1.5c0.5,0.3,1.1,0.2,1.5-0.3c1.4-2.2,3.9-3.5,6.5-3.5h0.1c2.6,0,5.1,1.4,6.4,3.6
					C60.3,34.1,61,34.3,61.5,34L61.5,34z M65.6,30.1c-2.5-4.3-7-6.8-12-6.9h-0.1c-5,0-9.5,2.5-12.1,6.7c-0.3,0.5-0.2,1.2,0.3,1.5
					c0.5,0.3,1.1,0.2,1.5-0.3c2.2-3.6,6-5.7,10.3-5.7h0.1c4.2,0,8,2.2,10.2,5.8c0.3,0.5,1,0.7,1.5,0.4c0.3-0.2,0.5-0.5,0.5-0.9
					C65.7,30.4,65.7,30.3,65.6,30.1L65.6,30.1z M65.6,30.1"/>
			</g>
		</g>
	</g>
</g>
</svg>
