<?xml version="1.0" encoding="utf-8"?>
<!-- Generator: Adobe Illustrator 18.1.1, SVG Export Plug-In . SVG Version: 6.00 Build 0)  -->
<!DOCTYPE svg PUBLIC "-//W3C//DTD SVG 1.1//EN" "http://www.w3.org/Graphics/SVG/1.1/DTD/svg11.dtd">
<svg version="1.1" id="Text_Layout" xmlns="http://www.w3.org/2000/svg" xmlns:xlink="http://www.w3.org/1999/xlink" x="0px"
	 y="0px" viewBox="0 0 108 95" enable-background="new 0 0 108 95" xml:space="preserve">
<g>
	<g>
		<path fill="#333333" d="M71.1,77H36.9L19.9,47l17.1-30h34.2l17.1,30L71.1,77z M38.1,75h31.8l15.9-28L69.9,19H38.1L22.2,47L38.1,75
			z"/>
	</g>
	<g>
		<g>
			<g>
				<path fill="#333333" d="M67.7,35.2h3.2c0,0,0.6-2.4-2.1-2.5h-6.1c0-0.2-0.1-0.4-0.3-0.4L47.8,29c-0.2,0-0.4,0.1-0.5,0.3
					c0,0,0,0.1,0,0.1H47c0-0.1,0-0.1,0-0.2c-0.1-0.2-0.3-0.3-0.5-0.2l-9.1,4.4c-0.2,0.1-0.3,0.3-0.2,0.5l-1,0c0,0-0.5,1.2,4,1.2h5.1
					v2.9h6.7v-2.9h15.1v19.6c0,0,0,0.1,0,0.1c-0.8,0.2-1.4,0.9-1.4,1.8c0,0.9,0.6,1.6,1.4,1.8v1.2c0,0.1,0.1,0.3,0.2,0.3l0.7,0.4
					c0.1,0.1,0.1,0.2,0.1,0.3c0,0.1,0,0.2-0.1,0.3c-0.2,0.2-0.5,0.2-0.7,0c-0.2-0.2-0.4-0.2-0.6,0c-0.2,0.2-0.2,0.4,0,0.6
					c0.2,0.2,0.6,0.4,0.9,0.4c0.3,0,0.7-0.1,0.9-0.4c0.2-0.2,0.4-0.6,0.4-0.9c0-0.3-0.1-0.7-0.4-0.9c0,0,0,0-0.1-0.1l-0.5-0.3v-1
					c0.8-0.2,1.4-0.9,1.4-1.8c0-0.9-0.6-1.6-1.4-1.8c0,0,0-0.1,0-0.1V35.2z M46.2,33.8l-8.1,0.1l8.4-4L46.2,33.8z M50.9,32.7
					L48.2,34l-0.5-4.1l12.6,2.8H50.9z M68.3,56.7c0,0.6-0.5,1-1,1c-0.6,0-1-0.5-1-1c0-0.6,0.5-1,1-1C67.9,55.7,68.3,56.1,68.3,56.7
					L68.3,56.7z M68.3,56.7"/>
			</g>
		</g>
		<g>
			<rect x="43.7" y="38.5" fill="#333333" width="6.5" height="6.7"/>
		</g>
		<g>
			<rect x="44.8" y="45.9" fill="#333333" width="4.3" height="15.7"/>
		</g>
		<g>
			<path fill="#333333" d="M51.9,67l-2.8-1.7v-2.6h-4.3v2.1L42.1,67H51.9z M51.9,67"/>
		</g>
	</g>
</g>
</svg>
