<?xml version="1.0" encoding="utf-8"?>
<!-- Generator: Adobe Illustrator 18.1.1, SVG Export Plug-In . SVG Version: 6.00 Build 0)  -->
<!DOCTYPE svg PUBLIC "-//W3C//DTD SVG 1.1//EN" "http://www.w3.org/Graphics/SVG/1.1/DTD/svg11.dtd">
<svg version="1.1" id="Text_Layout" xmlns="http://www.w3.org/2000/svg" xmlns:xlink="http://www.w3.org/1999/xlink" x="0px"
	 y="0px" viewBox="0 0 108 95" enable-background="new 0 0 108 95" xml:space="preserve">
<g>
	<g opacity="0.8">
		<polygon fill="#1F639A" points="66.8,24 79.7,47 66.8,70 41.2,70 28.3,47 41.2,24 		"/>
	</g>
	<g>
		<g>
			<path fill="#FFFFFF" d="M65.6,34.9H42.4c-0.6,0-1.1,0.5-1.1,1.1V52c0,0.6,0.5,1.1,1.1,1.1h7.5l-5.6,6.2c-0.4,0.5-0.4,1.2,0.1,1.6
				c0.2,0.2,0.5,0.3,0.8,0.3c0.3,0,0.6-0.1,0.8-0.4l7-7.7h2.1l7,7.7c0.2,0.3,0.5,0.4,0.8,0.4c0.3,0,0.5-0.1,0.8-0.3
				c0.5-0.4,0.5-1.1,0.1-1.6l-5.6-6.2h7.5c0.6,0,1.1-0.5,1.1-1.1V36.1C66.8,35.4,66.2,34.9,65.6,34.9L65.6,34.9z M64.5,50.8H43.5
				V37.2h20.9V50.8z M64.5,50.8"/>
		</g>
	</g>
</g>
</svg>
