<?xml version="1.0" encoding="utf-8"?>
<!-- Generator: Adobe Illustrator 18.0.0, SVG Export Plug-In . SVG Version: 6.00 Build 0)  -->
<!DOCTYPE svg PUBLIC "-//W3C//DTD SVG 1.1//EN" "http://www.w3.org/Graphics/SVG/1.1/DTD/svg11.dtd">
<svg version="1.1" id="Layer_1" xmlns="http://www.w3.org/2000/svg" xmlns:xlink="http://www.w3.org/1999/xlink" x="0px" y="0px"
	 viewBox="0 0 74 69.3" enable-background="new 0 0 74 69.3" xml:space="preserve">
<g>
	<defs>
		<path id="SVGID_1_" d="M48.8,24.5v24c0,0.5-0.2,1-0.6,1.4c-0.4,0.4-0.9,0.6-1.4,0.6h-22c-0.5,0-1-0.2-1.4-0.6
			c-0.4-0.4-0.6-0.9-0.6-1.4v-24c0-0.5,0.2-1,0.6-1.4c0.4-0.4,0.9-0.6,1.4-0.6h22c0.5,0,1,0.2,1.4,0.6
			C48.6,23.5,48.8,23.9,48.8,24.5z"/>
	</defs>
	<defs>
		<path id="SVGID_2_" d="M46.8,29.5v-4c0-0.3-0.1-0.5-0.3-0.7c-0.2-0.2-0.4-0.3-0.7-0.3h-20c-0.3,0-0.5,0.1-0.7,0.3
			c-0.2,0.2-0.3,0.4-0.3,0.7v4c0,0.3,0.1,0.5,0.3,0.7c0.2,0.2,0.4,0.3,0.7,0.3h20c0.3,0,0.5-0.1,0.7-0.3
			C46.7,30,46.8,29.7,46.8,29.5z"/>
	</defs>
	<defs>
		<path id="SVGID_3_" d="M28.2,35.9c0.4-0.4,0.6-0.9,0.6-1.4c0-0.6-0.2-1-0.6-1.4s-0.9-0.6-1.4-0.6c-0.6,0-1,0.2-1.4,0.6
			s-0.6,0.9-0.6,1.4c0,0.6,0.2,1,0.6,1.4s0.9,0.6,1.4,0.6C27.3,36.5,27.8,36.3,28.2,35.9z"/>
	</defs>
	<defs>
		<path id="SVGID_4_" d="M28.2,41.9c0.4-0.4,0.6-0.9,0.6-1.4c0-0.6-0.2-1-0.6-1.4s-0.9-0.6-1.4-0.6c-0.6,0-1,0.2-1.4,0.6
			s-0.6,0.9-0.6,1.4c0,0.6,0.2,1,0.6,1.4s0.9,0.6,1.4,0.6C27.3,42.5,27.8,42.3,28.2,41.9z"/>
	</defs>
	<defs>
		<path id="SVGID_5_" d="M28.2,47.9c0.4-0.4,0.6-0.9,0.6-1.4s-0.2-1-0.6-1.4s-0.9-0.6-1.4-0.6c-0.6,0-1,0.2-1.4,0.6
			s-0.6,0.9-0.6,1.4s0.2,1,0.6,1.4s0.9,0.6,1.4,0.6C27.3,48.5,27.8,48.3,28.2,47.9z"/>
	</defs>
	<defs>
		<path id="SVGID_6_" d="M34.2,35.9c0.4-0.4,0.6-0.9,0.6-1.4c0-0.6-0.2-1-0.6-1.4s-0.9-0.6-1.4-0.6c-0.6,0-1,0.2-1.4,0.6
			s-0.6,0.9-0.6,1.4c0,0.6,0.2,1,0.6,1.4s0.9,0.6,1.4,0.6C33.3,36.5,33.8,36.3,34.2,35.9z"/>
	</defs>
	<defs>
		<path id="SVGID_7_" d="M34.2,41.9c0.4-0.4,0.6-0.9,0.6-1.4c0-0.6-0.2-1-0.6-1.4s-0.9-0.6-1.4-0.6c-0.6,0-1,0.2-1.4,0.6
			s-0.6,0.9-0.6,1.4c0,0.6,0.2,1,0.6,1.4s0.9,0.6,1.4,0.6C33.3,42.5,33.8,42.3,34.2,41.9z"/>
	</defs>
	<defs>
		<path id="SVGID_8_" d="M34.2,47.9c0.4-0.4,0.6-0.9,0.6-1.4s-0.2-1-0.6-1.4s-0.9-0.6-1.4-0.6c-0.6,0-1,0.2-1.4,0.6
			s-0.6,0.9-0.6,1.4s0.2,1,0.6,1.4s0.9,0.6,1.4,0.6C33.3,48.5,33.8,48.3,34.2,47.9z"/>
	</defs>
	<defs>
		<path id="SVGID_9_" d="M40.2,35.9c0.4-0.4,0.6-0.9,0.6-1.4c0-0.6-0.2-1-0.6-1.4s-0.9-0.6-1.4-0.6c-0.6,0-1,0.2-1.4,0.6
			s-0.6,0.9-0.6,1.4c0,0.6,0.2,1,0.6,1.4s0.9,0.6,1.4,0.6C39.3,36.5,39.8,36.3,40.2,35.9z"/>
	</defs>
	<defs>
		<path id="SVGID_10_" d="M40.2,41.9c0.4-0.4,0.6-0.9,0.6-1.4c0-0.6-0.2-1-0.6-1.4s-0.9-0.6-1.4-0.6c-0.6,0-1,0.2-1.4,0.6
			s-0.6,0.9-0.6,1.4c0,0.6,0.2,1,0.6,1.4s0.9,0.6,1.4,0.6C39.3,42.5,39.8,42.3,40.2,41.9z"/>
	</defs>
	<defs>
		<path id="SVGID_11_" d="M40.2,47.9c0.4-0.4,0.6-0.9,0.6-1.4s-0.2-1-0.6-1.4s-0.9-0.6-1.4-0.6c-0.6,0-1,0.2-1.4,0.6
			s-0.6,0.9-0.6,1.4s0.2,1,0.6,1.4s0.9,0.6,1.4,0.6C39.3,48.5,39.8,48.3,40.2,47.9z"/>
	</defs>
	<defs>
		<path id="SVGID_12_" d="M46.2,35.9c0.4-0.4,0.6-0.9,0.6-1.4c0-0.6-0.2-1-0.6-1.4s-0.9-0.6-1.4-0.6c-0.6,0-1,0.2-1.4,0.6
			s-0.6,0.9-0.6,1.4c0,0.6,0.2,1,0.6,1.4s0.9,0.6,1.4,0.6C45.3,36.5,45.8,36.3,46.2,35.9z"/>
	</defs>
	<defs>
		<path id="SVGID_13_" d="M46.8,46.5v-6c0-0.5-0.2-1-0.6-1.4c-0.4-0.4-0.9-0.6-1.4-0.6c-0.5,0-1,0.2-1.4,0.6
			c-0.4,0.4-0.6,0.9-0.6,1.4v6c0,0.5,0.2,1,0.6,1.4c0.4,0.4,0.9,0.6,1.4,0.6c0.5,0,1-0.2,1.4-0.6C46.6,47.5,46.8,47,46.8,46.5z"/>
	</defs>
	<clipPath id="SVGID_14_">
		<use xlink:href="#SVGID_1_"  overflow="visible"/>
	</clipPath>
	<clipPath id="SVGID_15_" clip-path="url(#SVGID_14_)">
		<use xlink:href="#SVGID_2_"  overflow="visible"/>
	</clipPath>
	<clipPath id="SVGID_16_" clip-path="url(#SVGID_15_)">
		<use xlink:href="#SVGID_3_"  overflow="visible"/>
	</clipPath>
	<clipPath id="SVGID_17_" clip-path="url(#SVGID_16_)">
		<use xlink:href="#SVGID_4_"  overflow="visible"/>
	</clipPath>
	<clipPath id="SVGID_18_" clip-path="url(#SVGID_17_)">
		<use xlink:href="#SVGID_5_"  overflow="visible"/>
	</clipPath>
	<clipPath id="SVGID_19_" clip-path="url(#SVGID_18_)">
		<use xlink:href="#SVGID_6_"  overflow="visible"/>
	</clipPath>
	<clipPath id="SVGID_20_" clip-path="url(#SVGID_19_)">
		<use xlink:href="#SVGID_7_"  overflow="visible"/>
	</clipPath>
	<clipPath id="SVGID_21_" clip-path="url(#SVGID_20_)">
		<use xlink:href="#SVGID_8_"  overflow="visible"/>
	</clipPath>
	<clipPath id="SVGID_22_" clip-path="url(#SVGID_21_)">
		<use xlink:href="#SVGID_9_"  overflow="visible"/>
	</clipPath>
	<clipPath id="SVGID_23_" clip-path="url(#SVGID_22_)">
		<use xlink:href="#SVGID_10_"  overflow="visible"/>
	</clipPath>
	<clipPath id="SVGID_24_" clip-path="url(#SVGID_23_)">
		<use xlink:href="#SVGID_11_"  overflow="visible"/>
	</clipPath>
	<clipPath id="SVGID_25_" clip-path="url(#SVGID_24_)">
		<use xlink:href="#SVGID_12_"  overflow="visible"/>
	</clipPath>
	<clipPath id="SVGID_26_" clip-path="url(#SVGID_25_)">
		<use xlink:href="#SVGID_13_"  overflow="visible"/>
	</clipPath>
	<polygon clip-path="url(#SVGID_26_)" fill="none" stroke="#FFFFFF" stroke-width="2" stroke-miterlimit="10" points="53,5.3 
		69.5,34.3 53,63.3 20,63.3 3.5,34.3 20,5.3 	"/>
</g>
<g>
</g>
<g>
</g>
<g>
</g>
<g>
</g>
<g>
</g>
<g>
</g>
<g>
</g>
<g>
</g>
<g>
</g>
<g>
</g>
<g>
</g>
<g>
</g>
<g>
</g>
<g>
</g>
<g>
</g>
</svg>
