<?xml version="1.0" encoding="utf-8"?>
<!-- Generator: Adobe Illustrator 18.1.1, SVG Export Plug-In . SVG Version: 6.00 Build 0)  -->
<!DOCTYPE svg PUBLIC "-//W3C//DTD SVG 1.1//EN" "http://www.w3.org/Graphics/SVG/1.1/DTD/svg11.dtd">
<svg version="1.1" id="Text_Layout" xmlns="http://www.w3.org/2000/svg" xmlns:xlink="http://www.w3.org/1999/xlink" x="0px"
	 y="0px" viewBox="0 0 108 95" enable-background="new 0 0 108 95" xml:space="preserve">
<g>
	<path fill="#333333" d="M71.1,77H36.9L19.9,47l17.1-30h34.2l17.1,30L71.1,77z"/>
</g>
<g>
	<g>
		<path fill="#FFFFFF" d="M52.8,34.3c-0.5-0.2-1-0.1-1.4,0.3l-7.6,7.7h-5.9c-0.7,0-1.3,0.6-1.3,1.3v9.1c0,0.7,0.6,1.3,1.3,1.3h5.8
			l7.7,7.7c0.2,0.2,0.6,0.4,0.9,0.4c0.2,0,0.3,0,0.5-0.1c0.5-0.2,0.8-0.7,0.8-1.2V35.4C53.6,34.9,53.3,34.5,52.8,34.3z"/>
		<path fill="#FFFFFF" d="M65.9,48c0-4.7-2.8-9-7.2-10.9c-0.6-0.3-1.4,0-1.7,0.7c-0.3,0.6,0,1.4,0.7,1.7c3.4,1.5,5.6,4.8,5.6,8.5
			c0,3.7-2.2,7-5.6,8.5c-0.6,0.3-0.9,1-0.7,1.7c0.2,0.5,0.7,0.8,1.2,0.8c0.2,0,0.3,0,0.5-0.1C63.1,57,65.9,52.7,65.9,48z"/>
		<path fill="#FFFFFF" d="M60.3,48c0-2.5-1.5-4.7-3.8-5.7c-0.6-0.3-1.4,0-1.7,0.7c-0.3,0.6,0,1.4,0.7,1.7c1.4,0.6,2.2,1.9,2.2,3.4
			c0,1.5-0.9,2.8-2.2,3.4c-0.6,0.3-0.9,1-0.7,1.7c0.2,0.5,0.7,0.8,1.2,0.8c0.2,0,0.3,0,0.5-0.1C58.9,52.7,60.3,50.5,60.3,48z"/>
		<path fill="#FFFFFF" d="M60.9,32.2c-0.6-0.3-1.4,0-1.7,0.7c-0.3,0.6,0,1.4,0.7,1.7c5.4,2.3,8.9,7.6,8.9,13.5
			c0,5.9-3.5,11.2-8.9,13.5c-0.6,0.3-0.9,1-0.7,1.7c0.2,0.5,0.7,0.8,1.2,0.8c0.2,0,0.3,0,0.5-0.1c6.3-2.7,10.4-8.9,10.4-15.8
			C71.4,41.1,67.3,34.9,60.9,32.2z"/>
	</g>
</g>
</svg>
