<?xml version="1.0" encoding="utf-8"?>
<!-- Generator: Adobe Illustrator 18.1.1, SVG Export Plug-In . SVG Version: 6.00 Build 0)  -->
<!DOCTYPE svg PUBLIC "-//W3C//DTD SVG 1.1//EN" "http://www.w3.org/Graphics/SVG/1.1/DTD/svg11.dtd">
<svg version="1.1" id="Breaks" xmlns="http://www.w3.org/2000/svg" xmlns:xlink="http://www.w3.org/1999/xlink" x="0px" y="0px"
	 viewBox="0 0 233.7 45.8" enable-background="new 0 0 233.7 45.8" xml:space="preserve">
<g>
	<g>
		<path fill="#898981" d="M11.7,14.2c0.3-1.1-0.4-1.3-1-1.3H10c-0.1,0-0.2-0.1-0.1-0.2l0.1-0.4c0-0.1,0.1-0.1,0.2-0.1
			c0.1,0,0.3,0,0.7,0c0.4,0,1,0,1.9,0H14c1.4,0,2.5,0,3.3,0c0.8,0,1.3,0,1.5,0c0.3,0,0.3,0.1,0.4,0.4l0.6,2.6c0,0.1,0,0.1-0.1,0.2
			l-0.2,0.1c-0.1,0-0.1,0-0.2-0.1L17.5,13c-0.1-0.1-0.2-0.2-0.3-0.2h-3.4l-1.6,5h1.8c1.1,0,1.7,0,2.3-1.6c0-0.1,0.1-0.1,0.1-0.1
			l0.3,0.1c0.1,0,0.1,0.1,0.1,0.2l-1,3.8c0,0.1-0.1,0.1-0.1,0.1l-0.3,0c-0.1,0-0.1,0-0.1-0.2c0.1-1.6-0.6-1.6-2.1-1.6h-1.1l-1.8,5.8
			H15c0.7,0,1.1-0.3,1.5-0.8l1.5-1.9c0.1-0.1,0.1-0.1,0.2,0l0.2,0.1c0.1,0.1,0.1,0.1,0.1,0.3l-1,2.7C17.5,25,17.4,25,17.1,25
			c-0.2,0-1,0-2.1,0c-1.1,0-2.5,0-3.8,0H9c-0.9,0-1.4,0-1.8,0c-0.3,0-0.5,0-0.6,0c-0.1,0-0.2,0-0.2-0.2l0.1-0.4
			c0-0.1,0.1-0.2,0.2-0.2h0.7c0.8,0,1.2-0.4,1.4-1.1L11.7,14.2z"/>
		<path fill="#898981" d="M27.3,11.3c0.2-0.1,0.2-0.1,0.4,0.1c0.1,0.2,0.1,0.3-0.1,0.4c-3.2,2.7-5.6,7.3-5.6,12.2
			c0,2.9,0.3,3.8,0.4,4.4c0,0.2,0,0.2-0.2,0.3c-0.2,0.1-0.3,0.1-0.4-0.1c-0.4-0.8-0.9-3.1-0.9-5.1C20.9,18.8,23.4,14.3,27.3,11.3z"
			/>
		<path fill="#898981" d="M30.9,13.9c0.2-0.6,0.1-0.9-0.5-0.9h-0.7c-0.2,0-0.2-0.1-0.2-0.2l0.1-0.4c0-0.1,0.1-0.2,0.2-0.2
			c2,0,3.9-0.1,4.2-0.1c1.4,0,4.3,0.1,4.3,2.7c0,1.9-2,3.4-4.3,3.7v0c0.5,0.2,0.7,0.7,0.9,1.1c0.1,0.2,1.4,2.9,1.7,3.4
			c0.5,0.8,0.9,1.1,1.7,1.1h0.5c0.1,0,0.2,0.1,0.1,0.2l-0.1,0.4c0,0.1-0.1,0.2-0.2,0.2c-0.2,0-0.5-0.1-1.4-0.1
			c-0.8,0-1.2,0.1-1.4,0.1c-0.2,0-0.2-0.2-0.5-0.6c-0.3-0.5-2-4.2-2.2-4.6c-0.5-1.1-1.6-1-2.3-1l-1.3,4.2c-0.3,1.1-0.1,1.4,0.7,1.4
			H31c0.1,0,0.2,0.1,0.1,0.2l-0.1,0.4c0,0.1-0.1,0.1-0.2,0.1c-0.2,0-1.1-0.1-2.7-0.1c-1.1,0-1.9,0.1-2.1,0.1C26,25,26,24.9,26,24.8
			l0.1-0.4c0-0.1,0.1-0.2,0.2-0.2h0.4c0.7,0,1-0.4,1.2-0.9L30.9,13.9z M31.1,18.2c1,0,2.1,0.1,3.5-0.5c1.1-0.5,2-1.5,2-2.8
			c0-0.8-0.7-2.1-3-2.1c-0.3,0-0.5,0-0.8,0L31.1,18.2z"/>
		<path fill="#898981" d="M39.7,31.1c0-0.3,0.2-0.8,0.7-2l0.3-0.9c0.1-0.3,0.2-0.5,0.2-0.7c0-0.1-0.1-0.1-0.2-0.1
			c-0.2,0-0.7,0.6-0.9,0.8c0,0-0.1,0-0.1,0l-0.1-0.1c0,0-0.1-0.1,0-0.1c0-0.1,1.2-1.4,1.9-1.4c0.1,0,0.3,0.1,0.3,0.3
			c0,0.2-0.2,0.7-0.4,1.2l-0.6,1.7c-0.2,0.4-0.2,0.7-0.2,0.7c0,0.1,0,0.2,0.1,0.2c0.2,0,0.8-0.7,0.9-0.8c0,0,0.1,0,0.1,0l0.1,0.1
			c0,0.1,0.1,0.1,0,0.1c-0.1,0.1-1,1.1-1.9,1.1C39.8,31.3,39.7,31.3,39.7,31.1z M41.1,24.6c0-0.3,0.2-0.6,0.6-0.6
			c0.4,0,0.6,0.3,0.6,0.5c0,0.2-0.1,0.6-0.6,0.6C41.2,25.2,41.1,24.8,41.1,24.6z"/>
		<path fill="#898981" d="M44.1,28.8c-0.2,0.1-0.2,0.1-0.4-0.1c-0.1-0.2-0.1-0.3,0.1-0.4c3.2-2.7,5.6-7.3,5.6-12.2
			c0-2.9-0.3-3.8-0.4-4.4c0-0.2,0-0.2,0.2-0.3c0.2-0.1,0.3-0.1,0.4,0.1c0.4,0.8,0.9,3.1,0.9,5.1C50.6,21.4,48.1,25.8,44.1,28.8z"/>
		<path fill="#898981" d="M64.2,18.4v1h-7.4v-1H64.2z M64.2,21.2v1h-7.4v-1H64.2z"/>
		<path fill="#898981" d="M74.4,13.9c0.2-0.6,0.1-0.9-0.5-0.9h-0.7c-0.2,0-0.2-0.1-0.2-0.2l0.1-0.4c0-0.1,0.1-0.2,0.2-0.2
			c2,0,3.9-0.1,4.2-0.1c1.4,0,4.3,0.1,4.3,2.7c0,1.9-2,3.4-4.3,3.7v0c0.5,0.2,0.7,0.7,0.9,1.1c0.1,0.2,1.4,2.9,1.7,3.4
			c0.5,0.8,0.9,1.1,1.7,1.1h0.5c0.1,0,0.2,0.1,0.1,0.2l-0.1,0.4c0,0.1-0.1,0.2-0.2,0.2c-0.2,0-0.5-0.1-1.4-0.1
			c-0.8,0-1.2,0.1-1.4,0.1c-0.2,0-0.2-0.2-0.5-0.6c-0.3-0.5-2-4.2-2.2-4.6c-0.5-1.1-1.6-1-2.3-1l-1.3,4.2c-0.3,1.1-0.1,1.4,0.7,1.4
			h0.8c0.1,0,0.2,0.1,0.1,0.2l-0.1,0.4c0,0.1-0.1,0.1-0.2,0.1c-0.2,0-1.1-0.1-2.7-0.1c-1.1,0-1.9,0.1-2.1,0.1
			c-0.1,0-0.1-0.1-0.1-0.2l0.1-0.4c0-0.1,0.1-0.2,0.2-0.2h0.4c0.7,0,1-0.4,1.2-0.9L74.4,13.9z M74.7,18.2c1,0,2.1,0.1,3.5-0.5
			c1.1-0.5,2-1.5,2-2.8c0-0.8-0.7-2.1-3-2.1c-0.3,0-0.5,0-0.8,0L74.7,18.2z"/>
		<path fill="#898981" d="M83.2,27.4c-0.1,0-0.1,0-0.1-0.1l0-0.2c0-0.1,0-0.1,0.1-0.1h1c0.3-1,0.7-1.9,1.3-2.5
			c0.3-0.4,0.9-0.8,1.6-0.8c0.6,0,1,0.4,1,0.7c0,0.3-0.2,0.5-0.4,0.5c-0.4,0-0.5-0.2-0.5-0.4c0-0.1-0.1-0.3-0.5-0.3
			c-1,0-1.4,1.6-1.8,2.9h1.1c0.1,0,0.1,0,0.1,0.1l-0.1,0.2c0,0.1,0,0.1-0.1,0.1h-1c-0.3,0.9-0.8,2.8-1.3,4.2
			c-0.7,1.7-1.5,2.9-2.6,2.9c-0.4,0-0.8-0.3-0.8-0.7c0-0.3,0.2-0.5,0.5-0.5c0.3,0,0.5,0.3,0.5,0.5c0,0.1,0.1,0.2,0.2,0.2
			c0.5,0,1.1-0.9,1.7-3l1.1-3.8H83.2z"/>
		<path fill="#898981" d="M98.8,24.2v-3.3h-3.1v-1h3.1v-3.3h1.1v3.3h3.1v1h-3.1v3.3H98.8z"/>
		<path fill="#898981" d="M119.1,12.6c-0.1,0.4-0.2,1.7-0.3,2.8l-0.5,0.1c-0.1-0.9-0.2-1.4-0.5-1.7c-0.2-0.3-0.7-0.5-2.1-0.5h-3.1
			l2.9,5.8l-5.3,6.1h5c1.2,0,1.8-0.4,2.7-2l0.4,0.2l-1.3,3.1h-8.7l0.1-0.5l5.6-6.4l-3.3-6.4l0.1-0.5H119.1z"/>
		<path fill="#898981" d="M119.6,31.1c0-0.3,0.2-0.8,0.7-2l0.3-0.9c0.1-0.3,0.2-0.5,0.2-0.7c0-0.1-0.1-0.1-0.2-0.1
			c-0.2,0-0.7,0.6-0.9,0.8c0,0-0.1,0-0.1,0l-0.1-0.1c0,0-0.1-0.1,0-0.1c0-0.1,1.2-1.4,1.9-1.4c0.1,0,0.3,0.1,0.3,0.3
			c0,0.2-0.2,0.7-0.4,1.2l-0.6,1.7c-0.2,0.4-0.2,0.7-0.2,0.7c0,0.1,0,0.2,0.1,0.2c0.2,0,0.8-0.7,0.9-0.8c0,0,0.1,0,0.1,0l0.1,0.1
			c0,0.1,0.1,0.1,0,0.1c-0.1,0.1-1,1.1-1.9,1.1C119.7,31.3,119.6,31.3,119.6,31.1z M121,24.6c0-0.3,0.2-0.6,0.6-0.6
			c0.4,0,0.6,0.3,0.6,0.5c0,0.2-0.1,0.6-0.6,0.6C121.1,25.2,121,24.8,121,24.6z"/>
		<path fill="#898981" d="M122.3,28.7c-0.1,0-0.2-0.1-0.1-0.3l4.6-17c0-0.2,0.1-0.2,0.3-0.2h3.7c0.1,0,0.2,0.1,0.2,0.1l-0.1,0.5
			c0,0.1-0.1,0.1-0.3,0.1h-2.4c-0.1,0-0.2,0.1-0.3,0.3l-4.3,15.6c0,0.1,0,0.2,0.1,0.2h2.7c0.1,0,0.2,0,0.1,0.1l-0.1,0.4
			c0,0.1-0.1,0.1-0.3,0.1H122.3z"/>
		<path fill="#898981" d="M137.6,14.2c0.3-1.1-0.4-1.3-1-1.3h-0.6c-0.1,0-0.2-0.1-0.1-0.2l0.1-0.4c0-0.1,0.1-0.1,0.2-0.1
			c0.1,0,0.3,0,0.7,0c0.4,0,1,0,1.9,0h1.2c1.4,0,2.5,0,3.3,0c0.8,0,1.3,0,1.5,0c0.3,0,0.3,0.1,0.4,0.4l0.6,2.6c0,0.1,0,0.1-0.1,0.2
			l-0.2,0.1c-0.1,0-0.1,0-0.2-0.1l-1.8-2.3c-0.1-0.1-0.2-0.2-0.3-0.2h-3.4l-1.6,5h1.8c1.1,0,1.7,0,2.3-1.6c0-0.1,0.1-0.1,0.1-0.1
			l0.3,0.1c0.1,0,0.1,0.1,0.1,0.2l-1,3.8c0,0.1-0.1,0.1-0.1,0.1l-0.3,0c-0.1,0-0.1,0-0.1-0.2c0.1-1.6-0.6-1.6-2.1-1.6h-1.1l-1.8,5.8
			h4.9c0.7,0,1.1-0.3,1.5-0.8l1.5-1.9c0.1-0.1,0.1-0.1,0.2,0l0.2,0.1c0.1,0.1,0.1,0.1,0.1,0.3l-1,2.7c-0.1,0.3-0.2,0.3-0.4,0.3
			c-0.2,0-1,0-2.1,0c-1.1,0-2.5,0-3.8,0h-2.2c-0.9,0-1.4,0-1.8,0c-0.3,0-0.5,0-0.6,0c-0.1,0-0.2,0-0.2-0.2l0.1-0.4
			c0-0.1,0.1-0.2,0.2-0.2h0.7c0.8,0,1.2-0.4,1.4-1.1L137.6,14.2z"/>
		<path fill="#898981" d="M153.2,11.3c0.2-0.1,0.2-0.1,0.4,0.1c0.1,0.2,0.1,0.3-0.1,0.4c-3.2,2.7-5.6,7.3-5.6,12.2
			c0,2.9,0.3,3.8,0.4,4.4c0,0.2,0,0.2-0.2,0.3c-0.2,0.1-0.3,0.1-0.4-0.1c-0.4-0.8-0.9-3.1-0.9-5.1C146.8,18.8,149.3,14.3,153.2,11.3
			z"/>
		<path fill="#898981" d="M156.8,13.9c0.2-0.6,0.1-0.9-0.5-0.9h-0.7c-0.2,0-0.2-0.1-0.2-0.2l0.1-0.4c0-0.1,0.1-0.2,0.2-0.2
			c2,0,3.9-0.1,4.2-0.1c1.4,0,4.3,0.1,4.3,2.7c0,1.9-2,3.4-4.3,3.7v0c0.5,0.2,0.7,0.7,0.9,1.1c0.1,0.2,1.4,2.9,1.7,3.4
			c0.5,0.8,0.9,1.1,1.7,1.1h0.5c0.1,0,0.2,0.1,0.1,0.2l-0.1,0.4c0,0.1-0.1,0.2-0.2,0.2c-0.2,0-0.5-0.1-1.4-0.1
			c-0.8,0-1.2,0.1-1.4,0.1c-0.2,0-0.2-0.2-0.5-0.6c-0.3-0.5-2-4.2-2.2-4.6c-0.5-1.1-1.6-1-2.3-1l-1.3,4.2c-0.3,1.1-0.1,1.4,0.7,1.4
			h0.8c0.1,0,0.2,0.1,0.1,0.2l-0.1,0.4c0,0.1-0.1,0.1-0.2,0.1c-0.2,0-1.1-0.1-2.7-0.1c-1.1,0-1.9,0.1-2.1,0.1
			c-0.1,0-0.1-0.1-0.1-0.2l0.1-0.4c0-0.1,0.1-0.2,0.2-0.2h0.4c0.7,0,1-0.4,1.2-0.9L156.8,13.9z M157,18.2c1,0,2.1,0.1,3.5-0.5
			c1.1-0.5,2-1.5,2-2.8c0-0.8-0.7-2.1-3-2.1c-0.3,0-0.5,0-0.8,0L157,18.2z"/>
		<path fill="#898981" d="M165.5,31.2c-0.1,0-0.1,0-0.1-0.1l0.8-2c0.3-0.7,0.6-1.5,0.6-1.7c0-0.1,0-0.2-0.1-0.2
			c-0.2,0-0.8,0.7-0.9,0.8c0,0-0.1,0-0.1,0l-0.1-0.1c0,0,0-0.1,0-0.1c0.3-0.3,1.1-1.2,1.8-1.2c0.2,0,0.3,0.1,0.3,0.3
			c0,0.3-0.7,1.7-0.8,2l0.1,0c0.5-0.8,1.6-2.3,2.6-2.3c0.4,0,0.5,0.3,0.5,0.5c0,0.4-0.4,1.5-0.6,1.9l0.1,0c0.6-0.9,1.6-2.4,2.5-2.4
			c0.3,0,0.5,0.3,0.5,0.5c0,0.4-0.2,0.8-0.7,2c-0.3,0.6-0.5,1.1-0.5,1.3c0,0.1,0,0.1,0.1,0.1c0.2,0,0.8-0.7,0.9-0.8
			c0-0.1,0.1,0,0.1,0l0.1,0.1c0,0,0,0.1,0,0.1c0,0.1-1.2,1.4-1.9,1.4c-0.1,0-0.2-0.1-0.2-0.3c0-0.3,0.3-1,0.8-2.1
			c0.3-0.8,0.5-1.2,0.5-1.6c0-0.1-0.1-0.2-0.2-0.2c-0.4,0-1.5,1.2-2.1,2.2c-0.1,0.1-0.3,0.4-0.5,0.8l-0.4,1c0,0.1-0.1,0.1-0.2,0.1
			H168c-0.1,0-0.1,0-0.1-0.1l0.8-1.8c0.3-0.8,0.6-1.5,0.6-1.9c0-0.1-0.1-0.2-0.2-0.2c-0.4,0-1.4,1.1-2.1,2c-0.2,0.2-0.4,0.5-0.6,0.9
			l-0.4,1c0,0.1-0.1,0.1-0.2,0.1H165.5z"/>
		<path fill="#898981" d="M174.9,28.8c-0.2,0.1-0.2,0.1-0.4-0.1c-0.1-0.2-0.1-0.3,0.1-0.4c3.2-2.7,5.6-7.3,5.6-12.2
			c0-2.9-0.3-3.8-0.4-4.4c0-0.2,0-0.2,0.2-0.3c0.2-0.1,0.3-0.1,0.4,0.1c0.4,0.8,0.9,3.1,0.9,5.1C181.4,21.4,178.9,25.8,174.9,28.8z"
			/>
		<path fill="#898981" d="M187.5,20c0-0.1,0-0.2,0.2-0.2h6.1c0.1,0,0.2,0,0.2,0.2v0.6c0,0.2-0.1,0.2-0.2,0.2h-6.1
			c-0.1,0-0.2,0-0.2-0.1V20z"/>
		<path fill="#898981" d="M203.7,13.9c0.2-0.6,0.1-0.9-0.5-0.9h-0.7c-0.2,0-0.2-0.1-0.2-0.2l0.1-0.4c0-0.1,0.1-0.2,0.2-0.2
			c2,0,3.9-0.1,4.2-0.1c1.4,0,4.3,0.1,4.3,2.7c0,1.9-2,3.4-4.3,3.7v0c0.5,0.2,0.7,0.7,0.9,1.1c0.1,0.2,1.4,2.9,1.7,3.4
			c0.5,0.8,0.9,1.1,1.7,1.1h0.5c0.1,0,0.2,0.1,0.1,0.2l-0.1,0.4c0,0.1-0.1,0.2-0.2,0.2c-0.2,0-0.5-0.1-1.4-0.1
			c-0.8,0-1.2,0.1-1.4,0.1c-0.2,0-0.2-0.2-0.5-0.6c-0.3-0.5-2-4.2-2.2-4.6c-0.5-1.1-1.6-1-2.3-1l-1.3,4.2c-0.3,1.1-0.1,1.4,0.7,1.4
			h0.8c0.1,0,0.2,0.1,0.1,0.2l-0.1,0.4c0,0.1-0.1,0.1-0.2,0.1c-0.2,0-1.1-0.1-2.7-0.1c-1.1,0-1.9,0.1-2.1,0.1
			c-0.1,0-0.1-0.1-0.1-0.2l0.1-0.4c0-0.1,0.1-0.2,0.2-0.2h0.4c0.7,0,1-0.4,1.2-0.9L203.7,13.9z M203.9,18.2c1,0,2.1,0.1,3.5-0.5
			c1.1-0.5,2-1.5,2-2.8c0-0.8-0.7-2.1-3-2.1c-0.3,0-0.5,0-0.8,0L203.9,18.2z"/>
		<path fill="#898981" d="M212.5,27.4c-0.1,0-0.1,0-0.1-0.1l0-0.2c0-0.1,0-0.1,0.1-0.1h1c0.3-1,0.7-1.9,1.3-2.5
			c0.3-0.4,0.9-0.8,1.6-0.8c0.6,0,1,0.4,1,0.7c0,0.3-0.2,0.5-0.4,0.5c-0.4,0-0.5-0.2-0.5-0.4c0-0.1-0.1-0.3-0.5-0.3
			c-1,0-1.4,1.6-1.8,2.9h1.1c0.1,0,0.1,0,0.1,0.1l-0.1,0.2c0,0.1,0,0.1-0.1,0.1h-1c-0.3,0.9-0.8,2.8-1.3,4.2
			c-0.7,1.7-1.5,2.9-2.6,2.9c-0.4,0-0.8-0.3-0.8-0.7c0-0.3,0.2-0.5,0.5-0.5c0.3,0,0.5,0.3,0.5,0.5c0,0.1,0.1,0.2,0.2,0.2
			c0.5,0,1.1-0.9,1.7-3l1.1-3.8H212.5z"/>
		<path fill="#898981" d="M227,11.2c0.1,0,0.2,0.1,0.1,0.3l-4.6,17c0,0.2-0.1,0.2-0.3,0.2h-3.7c-0.1,0-0.2-0.1-0.2-0.1l0.1-0.5
			c0-0.1,0.1-0.1,0.2-0.1h2.5c0.1,0,0.2-0.1,0.3-0.3l4.3-15.6c0-0.1,0-0.2-0.1-0.2h-2.7c-0.1,0-0.2,0-0.1-0.1l0.1-0.4
			c0-0.1,0.1-0.1,0.3-0.1H227z"/>
	</g>
</g>
</svg>
