<?xml version="1.0" encoding="utf-8"?>
<!-- Generator: Adobe Illustrator 18.1.1, SVG Export Plug-In . SVG Version: 6.00 Build 0)  -->
<!DOCTYPE svg PUBLIC "-//W3C//DTD SVG 1.1//EN" "http://www.w3.org/Graphics/SVG/1.1/DTD/svg11.dtd">
<svg version="1.1" id="Text_Layout" xmlns="http://www.w3.org/2000/svg" xmlns:xlink="http://www.w3.org/1999/xlink" x="0px"
	 y="0px" viewBox="0 0 108 95" enable-background="new 0 0 108 95" xml:space="preserve">
<g>
	<g>
		<g>
			<path fill="#333333" d="M59.6,61.5c0.4,0,0.7,0,1.1,0c1.6,0,3.3,0,4.8-0.2c0.4-0.1,0.7-0.1,1.1-0.2c0.1,0,0.2,0,0.3,0
				c0.2,0,0.4-0.1,0.4,0.2c0,0.3-0.2,0.2-0.4,0.2c-0.3,0.1-0.7,0.2-1,0.3c-0.7,0.2-1.3,0.4-2,0.6c-4.4,1.1-9,2-13.5,2.1
				c-4.3,0.1-8.6-0.4-12.5-2c-2.6-1-5.1-2.6-6.4-5.1c-1.1-2-1.3-4.5-0.8-6.8c0.5-2.3,1.6-4.4,2.9-6.3c3.3-4.8,7.9-8.7,13.3-11.1
				c6-2.7,12.7-3.5,19.1-2.4c0.9,0.2,1.8,0.4,2.8,0.6c2.4,0.6,4.9,1.6,6.6,3.5c1.8,2,2.6,4.8,2.3,7.5c-0.3,2.7-1.5,5.2-3.2,7.3
				c-4.2,5.1-10.6,7.7-17.1,8.3c-0.3,0-0.6,0.1-0.9,0.1c-3.9,0.3-8.6-0.1-12.1-2.2c-0.7-0.4-0.9-1.2-0.2-1.9
				c1.8-1.7,3.3-3.7,3.8-6.2c0.5-2.7-0.4-5.5-1.5-8c-0.2-0.4-0.2-0.9,0.1-1.2c0.6-0.7,1.5-0.2,2.2-0.1c0.9,0.2,1.8,0.5,2.6,0.8
				c1.7,0.6,3.4,1.3,5,2.2c2.1,1.2,4,2.6,5.5,4.4c1.1,1.3,1.9,2.7,2.7,4.2c0.4,0.7,0.7,1.5,1.1,2.2c0.2,0.4,0.3,0.9,0.8,1.1
				c1.3,0.5,2.5-1.4,3.2-2.2c1.9-2.4,2.7-5.5,2.3-8.4c-0.2-1.3-0.6-2.5-1.4-3.6c-1.4-2.1-3.9-3.3-6.4-4.1c-6-1.7-12.6-1.2-18.2,1.5
				c-3.3,1.6-6.3,4.7-7.9,8c-1.4,2.9-1.8,6.6-0.2,9.5c1.5,2.9,4.6,4.6,7.7,5.6c3.2,1.1,6.6,1.5,10,1.7
				C56.9,61.5,58.2,61.6,59.6,61.5z M54,55.2c0.4,0,0.8,0,1.1,0c0.3,0,0.7-0.1,1-0.1c0.5,0,1-0.2,1.4-0.2c0.6,0,1.1-0.3,1.7-0.3
				c0.5-0.1,1-0.3,1.5-0.4c0.9-0.3,1.3-0.8,1.2-1.8c-0.1-0.5-0.3-0.9-0.5-1.4C61,49.5,60,48.3,59,47.3c-0.8-0.8-1.7-1.5-2.7-2.1
				c-0.9-0.6-1.8-1-2.7-1.5c-0.7-0.3-1.4-0.6-2.1-0.8c-0.2,0-0.3-0.2-0.5-0.2c-0.1,0-0.3,0-0.2,0.1c0.2,0.3,0.1,0.6,0.2,0.9
				c0.3,0.9,0.3,1.8,0.3,2.7c0,0.9,0,1.8-0.3,2.7c-0.2,0.7-0.3,1.4-0.6,2c-0.4,1-1,2-1.7,2.8c-0.2,0.2-0.2,0.3,0.1,0.4
				c0.4,0.2,0.8,0.2,1.1,0.3c0.6,0.2,1.3,0.2,2,0.4C52.6,55.2,53.4,55.2,54,55.2z"/>
		</g>
	</g>
	<g>
		<path fill="#333333" d="M71.1,77H36.9L19.9,47l17.1-30h34.2l17.1,30L71.1,77z M38.1,75h31.8l15.9-28L69.9,19H38.1L22.2,47L38.1,75
			z"/>
	</g>
</g>
</svg>
