<?xml version="1.0" encoding="utf-8"?>
<!-- Generator: Adobe Illustrator 18.1.1, SVG Export Plug-In . SVG Version: 6.00 Build 0)  -->
<!DOCTYPE svg PUBLIC "-//W3C//DTD SVG 1.1//EN" "http://www.w3.org/Graphics/SVG/1.1/DTD/svg11.dtd">
<svg version="1.1" id="Text_Layout" xmlns="http://www.w3.org/2000/svg" xmlns:xlink="http://www.w3.org/1999/xlink" x="0px"
	 y="0px" viewBox="0 0 108 95" enable-background="new 0 0 108 95" xml:space="preserve">
<g>
	<g>
		<g>
			<g>
				<path fill="#333333" d="M74.2,55.3c-0.5-1.4-3.3-1.5-4.1-1.5c0,0-0.9,0-1.8,0c-0.4,0-0.9-0.2-1.2-0.5c-0.3-0.3-0.5-0.7-0.5-1.2
					V35.4c0-2.5-2.1-4.6-4.6-4.6H46.1c-2.5,0-4.6,2.1-4.6,4.6V52c0,0.3-0.1,0.5-0.3,0.6c-0.2,0.2-0.5,0.2-0.7,0.1
					c-3.1-0.8-6.7-1.3-6.7,1.4c0,0,0.9,7.4,12.2,7.4c3.7,0,7.4-0.9,10.9-1.9c0.3-0.1,0.6-0.1,0.9,0C59,59.9,60.5,60,62,60
					c4.4,0,9.1-1,10.9-2.4C73.2,57.3,74.5,56.4,74.2,55.3L74.2,55.3z M60.9,49.3V34.9c0-0.7,0.5-1.2,1.2-1.2c0.7,0,1.2,0.5,1.2,1.2
					v14.4c0,0.7-0.5,1.2-1.2,1.2C61.4,50.5,60.9,50,60.9,49.3L60.9,49.3z M71.6,56.7c-1.5,1.2-6.1,2.1-10.1,2
					c-0.1,0-0.2-0.1-0.2-0.2c0-0.1,0.1-0.2,0.2-0.3c3.7-1.3,7-2.7,9.5-2.9c1.2-0.1,1.3,0.1,1.4,0.3C72.3,55.6,72.6,55.9,71.6,56.7
					L71.6,56.7z M71.6,56.7"/>
			</g>
		</g>
	</g>
	<g>
		<path fill="#333333" d="M71.1,77H36.9L19.9,47l17.1-30h34.2l17.1,30L71.1,77z M38.1,75h31.8l15.9-28L69.9,19H38.1L22.2,47L38.1,75
			z"/>
	</g>
</g>
</svg>
