<?xml version="1.0" encoding="utf-8"?>
<!-- Generator: Adobe Illustrator 18.1.1, SVG Export Plug-In . SVG Version: 6.00 Build 0)  -->
<!DOCTYPE svg PUBLIC "-//W3C//DTD SVG 1.1//EN" "http://www.w3.org/Graphics/SVG/1.1/DTD/svg11.dtd">
<svg version="1.1" id="Breaks" xmlns="http://www.w3.org/2000/svg" xmlns:xlink="http://www.w3.org/1999/xlink" x="0px" y="0px"
	 viewBox="0 0 579.9 87.2" enable-background="new 0 0 579.9 87.2" xml:space="preserve">
<g>
	<g>
		<rect x="75" y="41.6" fill="#898981" width="76" height="1"/>
	</g>
	<g>
		<rect x="191" y="41.6" fill="#898981" width="140" height="1"/>
	</g>
	<g>
		<rect x="368" y="41.6" fill="#898981" width="194" height="1"/>
	</g>
	<g>
		<path fill="#898981" d="M21.9,44.6c-0.3,1-0.1,1.3,0.4,1.3h0.8c0.1,0,0.1,0.1,0.1,0.1l0,0.4c0,0.1-0.1,0.1-0.2,0.1
			c-0.2,0-1-0.1-2.6-0.1c-1.3,0-1.9,0.1-2.2,0.1c-0.1,0-0.1-0.1-0.1-0.2l0.1-0.4c0-0.1,0-0.1,0.2-0.1h0.5c0.4,0,0.8-0.4,0.9-0.8
			l2.9-9c0.2-0.6,0.1-0.9-0.5-0.9h-0.6c-0.1,0-0.2,0-0.1-0.1l0.1-0.4c0-0.1,0.1-0.1,0.3-0.1c1.9,0,3.7-0.1,4.2-0.1
			c1.5,0,4.2,0.1,4.2,2.6c0,1.8-1.9,3.2-4.2,3.5v0.1c0.6,0.1,0.9,0.7,1,1c0.1,0.2,1.3,2.7,1.6,3.2c0.5,0.8,0.9,1,1.6,1h0.5
			c0.1,0,0.1,0.1,0.1,0.2l0,0.4c0,0.1-0.1,0.2-0.2,0.2c-0.2,0-0.5-0.1-1.4-0.1c-1,0-1.4,0.1-1.7,0.1c-0.2,0-0.3-0.2-0.5-0.6
			c-0.3-0.4-1.8-4-2.1-4.4c-0.4-1-1.2-0.9-1.7-0.9L21.9,44.6z M23.3,40.1c0.7,0,1.7,0.1,2.9-0.4c0.9-0.4,1.8-1.4,1.8-2.7
			c0-0.8-0.5-1.9-2.3-1.9c-0.3,0-0.5,0-0.8,0L23.3,40.1z"/>
		<path fill="#898981" d="M43.3,39.5c0,3.6-2.6,7.3-6.6,7.3c-0.7,0-2.1-0.1-3.2-1.2c-1.1-1.1-1.6-2.5-1.6-4.1c0-3.7,2.7-7.3,6.6-7.3
			C41.3,34.2,43.3,36.2,43.3,39.5z M36.3,36.4c-1.5,1.7-2.6,4.3-2.6,6.3c0,2.2,1.2,3.3,2.7,3.3c2.6,0,5-4,5-7.9c0-1.8-0.9-3-2.5-3
			C37.8,35.1,36.9,35.7,36.3,36.4z"/>
		<path fill="#898981" d="M54.7,43.5c0,0,0.1,0.1,0,0.2l-0.9,2.6c-0.1,0.3-0.2,0.3-0.4,0.3c-0.1,0-0.9,0-1.9,0c-1,0-2.3,0-3.6,0
			h-2.3c-0.6,0-1.1,0-1.5,0c-0.4,0-0.7,0-0.8,0c-0.1,0-0.1,0-0.1-0.1l0.1-0.5c0-0.1,0.1-0.1,0.1-0.1h0.6c0.7,0,1.1-0.4,1.3-1
			l2.8-8.6c0.3-1-0.3-1.2-0.9-1.2h-0.6c-0.1,0-0.1-0.1-0.1-0.2l0.1-0.4c0-0.1,0.1-0.1,0.2-0.1c0.1,0,0.5,0,1,0c0.5,0,1.1,0,1.5,0
			h1.3c1.3,0,2.3,0,3,0c0.7,0,1.2,0,1.3,0c0.3,0,0.3,0.1,0.4,0.4l0.5,2.4c0,0.1,0,0.1-0.1,0.2l-0.2,0.1c-0.1,0-0.1,0-0.2-0.1
			l-1.8-2.1c-0.1-0.1-0.2-0.1-0.3-0.1h-2.8l-1.5,4.7h1.5c0.8,0,1.5-0.1,2.1-1.5c0-0.1,0.1-0.1,0.1-0.1l0.3,0.1
			c0.1,0,0.1,0.1,0.1,0.1c-0.3,0.7-0.9,2.9-0.9,3.6c0,0.1-0.1,0.1-0.1,0.1h-0.3c-0.1,0-0.1-0.1-0.1-0.2c0-1.3-0.7-1.5-2-1.5h-0.9
			L47,45.9h4c0.6,0,1.1-0.3,1.6-0.7c0.4-0.3,1.4-1.5,1.7-1.9c0-0.1,0.1-0.1,0.2,0L54.7,43.5z"/>
		<path fill="#898981" d="M67.9,40.3v1h-7v-1H67.9z M67.9,43.1v1h-7v-1H67.9z"/>
	</g>
	<g>
		<path fill="#898981" d="M80.9,22.7c0.2-0.6,0.1-1.1-1-1.1h-0.7c-0.1,0-0.2-0.1-0.1-0.2l0.1-0.3c0-0.1,0.1-0.2,0.2-0.2
			c0.2,0,1,0.1,3.1,0.1c0.3,0,0.3,0.3,0.4,0.5l3.9,8.6c0.1,0.3,0.2,0.3,0.5-0.4l2.4-7c0.2-0.7,0-1-0.6-1h-0.6
			c-0.2,0-0.2-0.1-0.2-0.2l0.1-0.3c0-0.1,0.1-0.1,0.2-0.1c0.2,0,0.8,0.1,2.1,0.1c0.9,0,1.3-0.1,1.5-0.1c0.1,0,0.2,0.1,0.2,0.2
			L92,21.5c0,0.1-0.1,0.1-0.2,0.1h-0.5c-0.5,0-0.7,0.1-1,1l-3.5,10c-0.2,0.6-0.5,0.6-0.7,0.1l-4.3-9.6c-0.1-0.2-0.3-0.2-0.3,0
			l-2.3,7.6c-0.3,1.1-0.2,1.7,0.6,1.7h0.7c0.1,0,0.2,0.1,0.2,0.2L80.7,33c0,0.1-0.1,0.1-0.2,0.1c-0.2,0-1-0.1-2.3-0.1
			c-1.2,0-1.8,0.1-2,0.1c-0.1,0-0.2-0.1-0.1-0.2l0.1-0.3c0-0.1,0.1-0.1,0.2-0.1h0.5c0.9,0,1.3-0.5,1.7-1.9L80.9,22.7z"/>
		<path fill="#898981" d="M90.4,31.5c0-1.5,1-3.4,2.3-4.7c0.6-0.6,1.5-1.2,2.4-1.2c0.7,0,1,0.5,1,1c0,0.9-0.7,1.8-1.7,2.3
			c-1,0.5-1.9,0.7-2.6,0.7c-0.1,0.2-0.2,0.8-0.2,1.7c0,0.8,0.6,1.1,0.9,1.1c0.9,0,1.7-0.7,2.1-1.3c0-0.1,0.1-0.1,0.2,0l0.2,0.2
			c0.1,0.1,0.1,0.1,0,0.2c-0.5,0.6-1.5,1.8-2.9,1.8C90.9,33.2,90.4,32.7,90.4,31.5z M92,29.1c0.6,0.1,3-0.7,3-2
			c0-0.4-0.2-0.7-0.6-0.7C93.2,26.4,92.1,28.4,92,29.1z"/>
		<path fill="#898981" d="M99.1,26.7h-1.3c-0.1,0-0.1,0-0.1-0.1l0.1-0.4c0-0.1,0.1-0.1,0.2-0.1h1.3l0.9-2.1c0.1-0.2,0.1-0.2,0.3-0.3
			c0.2-0.1,0.7-0.2,0.8-0.3c0.1-0.1,0.2-0.1,0.3-0.1c0.1,0,0.1,0.1,0,0.4l-1.2,2.4h1.8c0.1,0,0.1,0.1,0.1,0.2l-0.2,0.4
			c0,0.1-0.1,0.1-0.2,0.1h-1.8l-1.7,4.1c-0.2,0.5-0.4,1-0.4,1.2c0,0.2,0.1,0.3,0.2,0.3c0.5,0,1.7-1,1.8-1.2c0.1-0.1,0.1-0.1,0.2,0
			l0.2,0.2c0.1,0.1,0.1,0.1,0,0.2c-0.2,0.3-1.9,1.8-3.3,1.8c-0.5,0-0.6-0.2-0.6-0.4c0-0.3,0.1-0.6,0.2-0.8L99.1,26.7z"/>
		<path fill="#898981" d="M107,32.8c0-0.4,0.3-1.2,1.1-3.3l0.5-1.4c0.2-0.5,0.3-0.8,0.3-1.1c0-0.2-0.1-0.2-0.3-0.2
			c-0.3,0-1.2,1-1.4,1.3c-0.1,0.1-0.1,0.1-0.2,0l-0.1-0.2c-0.1-0.1-0.1-0.1-0.1-0.2c0.1-0.1,1.9-2.3,3.1-2.2c0.2,0,0.4,0.1,0.4,0.5
			c0,0.3-0.3,1.1-0.6,2l-1,2.7c-0.3,0.7-0.3,1.1-0.3,1.2c0,0.2,0.1,0.3,0.2,0.3c0.4-0.1,1.4-1.1,1.4-1.3c0-0.1,0.1-0.1,0.2,0
			l0.1,0.1c0.1,0.1,0.1,0.1,0,0.2c-0.1,0.1-1.5,1.9-3,1.9C107.1,33.2,107,33.1,107,32.8z M109.3,22.3c0-0.5,0.4-0.9,0.9-0.9
			c0.6,0,1,0.5,1,0.9c0,0.3-0.2,0.9-1,0.9C109.4,23.2,109.3,22.5,109.3,22.3z"/>
		<path fill="#898981" d="M112.1,33.1c-0.2,0-0.2,0-0.2-0.2l1.3-3.3c0.4-1.1,0.9-2.4,0.9-2.7c0-0.2-0.1-0.3-0.3-0.3
			c-0.3,0-1.2,0.9-1.5,1.2c-0.1,0.1-0.1,0.1-0.2,0l-0.2-0.2c-0.1-0.1-0.1-0.1,0-0.2c0.3-0.3,1.6-1.8,2.9-1.8c0.4,0,0.6,0.3,0.6,0.5
			c0,0.6-0.8,2.3-0.9,2.7l0.1,0c0.5-0.9,2.5-3.3,4.1-3.3c0.5,0,0.9,0.3,0.9,0.7c0,0.8-0.4,1.7-1,3.2c-0.5,1.2-0.9,2.2-0.9,2.5
			c0,0.1,0.1,0.2,0.2,0.2c0.3,0,1.1-0.7,1.3-0.9c0.1-0.1,0.1,0,0.2,0l0.1,0.1c0.1,0.1,0.1,0.1,0,0.2c-0.2,0.3-1.7,1.6-2.9,1.6
			c-0.2,0-0.4-0.1-0.4-0.4c0-0.3,0.6-1.8,1.2-3.3c0.3-0.7,0.9-2.2,0.9-2.6c0-0.3-0.1-0.4-0.4-0.4c-0.7,0-2.5,1.7-3.3,2.9
			c-0.3,0.5-0.6,1-1.1,2.3l-0.5,1.2c0,0.1-0.1,0.1-0.3,0.1H112.1z"/>
		<path fill="#898981" d="M120.9,31.6c0-2.4,2-6,4.1-6c0.8,0,1,0.7,1,1c0,0.4-0.4,0.8-0.7,0.8c-0.2,0-0.4-0.1-0.5-0.4
			c-0.1-0.2-0.3-0.5-0.6-0.5c-0.5,0-0.9,0.4-1.3,1.2c-0.5,1-0.8,2.6-0.8,3.2c0,1.3,0.4,1.5,0.7,1.5c0.7,0,1.4-0.7,1.6-1
			c0.1-0.1,0.1-0.1,0.2-0.1l0.2,0.2c0.1,0,0.1,0.1,0,0.2c-0.3,0.4-1.4,1.5-2.6,1.5C121.6,33.2,120.9,32.8,120.9,31.6z"/>
		<path fill="#898981" d="M126.5,30.9c0-2.3,1.7-5.3,4.1-5.3c1.2,0,1.9,0.9,1.9,2.1c0,2-1.6,5.6-4.2,5.6
			C127.4,33.2,126.5,32.3,126.5,30.9z M131.8,27.4c0-0.6-0.3-1-0.9-1c-0.8,0-1.7,0.7-2.6,2.1c-0.6,1-1,2.1-1,2.9
			c0,0.6,0.4,0.9,0.8,0.9C130,32.4,131.8,28.6,131.8,27.4z"/>
		<path fill="#898981" d="M133.9,33.1c-0.1,0-0.2,0-0.1-0.2l1.4-3.3c0.5-1.1,1-2.4,1-2.7c0-0.2-0.1-0.3-0.2-0.3
			c-0.3,0-1.4,1.1-1.5,1.3c-0.1,0.1-0.1,0.1-0.2,0l-0.2-0.2c-0.1-0.1-0.1-0.1,0-0.2c0.4-0.5,1.8-2,3-2c0.3,0,0.4,0.2,0.4,0.5
			c0,0.4-1.1,2.8-1.3,3.3l0.1,0c0.8-1.3,2.7-3.8,4.2-3.8c0.6,0,0.8,0.5,0.8,0.8c0,0.7-0.7,2.4-1,3.1l0.1,0c1-1.5,2.6-3.9,4.1-3.9
			c0.6,0,0.9,0.5,0.9,0.9c0,0.6-0.3,1.4-1.1,3.2c-0.4,1-0.8,1.8-0.8,2.1c0,0.1,0.1,0.2,0.2,0.2c0.3,0,1.3-1.2,1.4-1.3
			c0.1-0.1,0.1-0.1,0.2,0l0.1,0.1c0.1,0.1,0.1,0.1,0,0.2c-0.1,0.1-1.9,2.2-3.1,2.2c-0.2,0-0.3-0.2-0.3-0.4c0-0.5,0.5-1.7,1.2-3.4
			c0.5-1.3,0.9-2,0.9-2.6c0-0.2-0.1-0.3-0.4-0.3c-0.6,0-2.4,2-3.5,3.6c-0.1,0.2-0.5,0.6-0.7,1.3L139,33c0,0.1-0.1,0.1-0.3,0.1H138
			c-0.1,0-0.2,0-0.2-0.1l1.2-3c0.5-1.2,1-2.5,1-3c0-0.2-0.1-0.4-0.4-0.4c-0.6,0-2.3,1.8-3.3,3.3c-0.3,0.4-0.6,0.9-0.9,1.5l-0.6,1.6
			c-0.1,0.1-0.1,0.1-0.3,0.1H133.9z"/>
		<path fill="#898981" d="M146.7,31.5c0-1.5,1-3.4,2.3-4.7c0.6-0.6,1.5-1.2,2.4-1.2c0.7,0,1,0.5,1,1c0,0.9-0.7,1.8-1.7,2.3
			c-1,0.5-1.9,0.7-2.6,0.7c-0.1,0.2-0.2,0.8-0.2,1.7c0,0.8,0.6,1.1,0.9,1.1c0.9,0,1.7-0.7,2.1-1.3c0-0.1,0.1-0.1,0.2,0l0.2,0.2
			c0.1,0.1,0.1,0.1,0,0.2c-0.5,0.6-1.5,1.8-2.9,1.8C147.2,33.2,146.7,32.7,146.7,31.5z M148.3,29.1c0.6,0.1,3-0.7,3-2
			c0-0.4-0.2-0.7-0.6-0.7C149.5,26.4,148.4,28.4,148.3,29.1z"/>
		<path fill="#898981" d="M91.8,50.6c0.2-0.6,0.1-0.9-0.5-0.9h-0.7c-0.1,0-0.2-0.1-0.1-0.1l0.1-0.4c0-0.1,0.1-0.1,0.2-0.1
			c1.9,0,3.7-0.1,4-0.1c1.3,0,4.1,0.1,4.1,2.6c0,1.8-1.9,3.2-4.1,3.5v0c0.4,0.1,0.7,0.7,0.9,1.1c0.1,0.2,1.3,2.7,1.7,3.3
			c0.5,0.7,0.8,1,1.6,1h0.5c0.1,0,0.1,0.1,0.1,0.2L99.5,61c0,0.1-0.1,0.1-0.2,0.1c-0.2,0-0.5-0.1-1.3-0.1c-0.8,0-1.1,0.1-1.3,0.1
			c-0.1,0-0.2-0.1-0.5-0.6c-0.3-0.4-1.9-4-2.1-4.4c-0.5-1-1.5-0.9-2.2-0.9l-1.3,3.9c-0.3,1-0.1,1.3,0.7,1.3H92
			c0.1,0,0.1,0.1,0.1,0.1L92,61c0,0.1-0.1,0.1-0.2,0.1c-0.2,0-1-0.1-2.5-0.1c-1.1,0-1.8,0.1-2,0.1c-0.1,0-0.1-0.1-0.1-0.1l0.1-0.4
			c0-0.1,0.1-0.1,0.2-0.1h0.3c0.6,0,1-0.4,1.1-0.9L91.8,50.6z M92,54.6c0.9,0,2,0.1,3.3-0.5c1.1-0.4,1.9-1.4,1.9-2.7
			c0-0.8-0.7-2-2.9-2c-0.3,0-0.5,0-0.7,0L92,54.6z"/>
		<path fill="#898981" d="M100.2,59.5c0-1.5,1-3.4,2.3-4.7c0.6-0.6,1.5-1.2,2.4-1.2c0.7,0,1,0.5,1,1c0,0.9-0.7,1.8-1.7,2.3
			c-1,0.5-1.9,0.7-2.6,0.7c-0.1,0.2-0.2,0.8-0.2,1.7c0,0.8,0.6,1.1,0.9,1.1c0.9,0,1.7-0.7,2.1-1.3c0-0.1,0.1-0.1,0.2,0l0.2,0.2
			c0.1,0.1,0.1,0.1,0,0.2c-0.5,0.6-1.5,1.8-2.9,1.8C100.7,61.2,100.2,60.7,100.2,59.5z M101.8,57.1c0.6,0.1,3-0.7,3-2
			c0-0.4-0.2-0.7-0.6-0.7C103.1,54.4,102,56.4,101.8,57.1z"/>
		<path fill="#898981" d="M108.4,54.7c-0.6,0-1,0.4-1,0.9c0,0.3,0.2,0.4,0.4,0.5c0.1,0.1,0.4,0.3,0.4,0.5s-0.2,0.6-0.7,0.6
			c-0.3,0-0.8-0.3-0.8-1c0-0.7,0.5-1.5,0.7-1.7c0.4-0.4,0.8-0.9,2.1-0.9c1.8,0,2.1-0.1,2.3-0.1c0.2,0,0.4,0.1,0.2,0.3
			c-0.4,0.5-2.1,2.9-2.1,4.7c0,1.2,0.6,1.7,1.3,1.7c1.5,0,3.1-2.4,3.1-4.2c0-0.3,0-0.6-0.1-0.9c-0.1-0.3-0.3-0.5-0.3-0.7
			c0-0.5,0.3-0.8,0.8-0.8c0.5,0,0.7,0.5,0.7,1c0,0.9-0.4,2.7-1.2,4c-0.8,1.4-2.3,2.7-3.7,2.7c-0.9,0-1.8-0.6-1.8-1.9
			c0-1.7,1.5-3.9,2.5-5.1l-0.1-0.1c-0.4,0.3-1.3,0.5-1.7,0.5H108.4z"/>
		<path fill="#898981" d="M115.9,59.5c0-1.5,1-3.4,2.3-4.7c0.6-0.6,1.5-1.2,2.4-1.2c0.7,0,1,0.5,1,1c0,0.9-0.7,1.8-1.7,2.3
			c-1,0.5-1.9,0.7-2.6,0.7c-0.1,0.2-0.2,0.8-0.2,1.7c0,0.8,0.6,1.1,0.9,1.1c0.9,0,1.7-0.7,2.1-1.3c0-0.1,0.1-0.1,0.2,0l0.2,0.2
			c0.1,0.1,0.1,0.1,0,0.2c-0.5,0.6-1.5,1.8-2.9,1.8C116.4,61.2,115.9,60.7,115.9,59.5z M117.5,57.1c0.6,0.1,3-0.7,3-2
			c0-0.4-0.2-0.7-0.6-0.7C118.7,54.4,117.6,56.4,117.5,57.1z"/>
		<path fill="#898981" d="M122.6,61.1c-0.2,0-0.2,0-0.2-0.2l1.3-3.3c0.4-1.1,0.9-2.4,0.9-2.7c0-0.2-0.1-0.3-0.3-0.3
			c-0.3,0-1.2,0.9-1.5,1.2c-0.1,0.1-0.1,0.1-0.2,0l-0.2-0.2c-0.1-0.1-0.1-0.1,0-0.2c0.3-0.3,1.6-1.8,2.9-1.8c0.4,0,0.6,0.3,0.6,0.5
			c0,0.6-0.8,2.3-0.9,2.7l0.1,0c0.5-0.9,2.5-3.3,4.1-3.3c0.5,0,0.9,0.3,0.9,0.7c0,0.8-0.4,1.7-1,3.2c-0.5,1.2-0.9,2.2-0.9,2.5
			c0,0.1,0.1,0.2,0.2,0.2c0.3,0,1.1-0.7,1.3-0.9c0.1-0.1,0.1,0,0.2,0l0.1,0.1c0.1,0.1,0.1,0.1,0,0.2c-0.2,0.3-1.7,1.6-2.9,1.6
			c-0.2,0-0.4-0.1-0.4-0.4c0-0.3,0.6-1.8,1.2-3.3c0.3-0.7,0.9-2.2,0.9-2.6c0-0.3-0.1-0.4-0.4-0.4c-0.7,0-2.5,1.7-3.3,2.9
			c-0.3,0.5-0.6,1-1.1,2.3l-0.5,1.2c0,0.1-0.1,0.1-0.3,0.1H122.6z"/>
		<path fill="#898981" d="M139.2,53.8c0.2,0,0.2,0.1,0.2,0.2l-1.4,3.7c-0.5,1.4-0.8,2.2-0.8,2.3c0,0.2,0,0.2,0.1,0.2
			c0.3,0,1.3-0.9,1.4-1.1c0-0.1,0.1-0.1,0.2,0l0.2,0.2c0.1,0.1,0.1,0.1,0,0.2c-0.1,0.1-1.7,1.8-3,1.8c-0.3,0-0.3-0.2-0.3-0.4
			c0-0.2,0.9-2.5,1.2-3.1l-0.1-0.1c-0.8,1.1-2.7,3.5-4.4,3.5c-0.4,0-0.6-0.3-0.7-0.7c0-0.6,0.6-1.7,1.3-3.4c0.5-1.1,0.9-2,0.9-2.3
			c0-0.2-0.1-0.3-0.3-0.3c-0.3,0-1.2,0.8-1.4,1c-0.1,0.1-0.1,0.1-0.2,0l-0.2-0.2c-0.1,0-0.1-0.1,0-0.2c0.1-0.2,1.6-1.7,2.8-1.7
			c0.4,0,0.5,0.4,0.5,0.6c0,0.5-0.4,1.5-1.2,3.1c-0.5,1.1-1,2.2-1,2.6c0,0.2,0.1,0.3,0.3,0.3c1,0,2.9-2.4,3.4-3.1
			c0.3-0.5,0.6-1,0.8-1.5l0.6-1.7c0-0.1,0.1-0.1,0.3-0.1H139.2z"/>
		<path fill="#898981" d="M140.2,59.5c0-1.5,1-3.4,2.3-4.7c0.6-0.6,1.5-1.2,2.4-1.2c0.7,0,1,0.5,1,1c0,0.9-0.7,1.8-1.7,2.3
			c-1,0.5-1.9,0.7-2.6,0.7c-0.1,0.2-0.2,0.8-0.2,1.7c0,0.8,0.6,1.1,0.9,1.1c0.9,0,1.7-0.7,2.1-1.3c0-0.1,0.1-0.1,0.2,0l0.2,0.2
			c0.1,0.1,0.1,0.1,0,0.2c-0.5,0.6-1.5,1.8-2.9,1.8C140.7,61.2,140.2,60.7,140.2,59.5z M141.8,57.1c0.6,0.1,3-0.7,3-2
			c0-0.4-0.2-0.7-0.6-0.7C143.1,54.4,141.9,56.4,141.8,57.1z"/>
	</g>
	<g>
		<path fill="#898981" d="M235.8,22.6c0.2-0.6,0.1-0.9-0.5-0.9h-0.7c-0.1,0-0.2-0.1-0.1-0.1l0.1-0.4c0-0.1,0.1-0.1,0.2-0.1
			c1.9,0,3.7-0.1,4-0.1c1.3,0,4.1,0.1,4.1,2.6c0,1.8-1.9,3.2-4.1,3.5v0c0.4,0.1,0.7,0.7,0.9,1.1c0.1,0.2,1.3,2.7,1.7,3.3
			c0.5,0.7,0.8,1,1.6,1h0.5c0.1,0,0.1,0.1,0.1,0.2l-0.1,0.3c0,0.1-0.1,0.1-0.2,0.1c-0.2,0-0.5-0.1-1.3-0.1c-0.8,0-1.1,0.1-1.3,0.1
			c-0.1,0-0.2-0.1-0.5-0.6c-0.3-0.4-1.9-4-2.1-4.4c-0.5-1-1.5-0.9-2.2-0.9l-1.3,3.9c-0.3,1-0.1,1.3,0.7,1.3h0.7
			c0.1,0,0.1,0.1,0.1,0.1L236,33c0,0.1-0.1,0.1-0.2,0.1c-0.2,0-1-0.1-2.5-0.1c-1.1,0-1.8,0.1-2,0.1c-0.1,0-0.1-0.1-0.1-0.1l0.1-0.4
			c0-0.1,0.1-0.1,0.2-0.1h0.3c0.6,0,1-0.4,1.1-0.9L235.8,22.6z M236,26.6c0.9,0,2,0.1,3.3-0.5c1.1-0.4,1.9-1.4,1.9-2.7
			c0-0.8-0.7-2-2.9-2c-0.3,0-0.5,0-0.7,0L236,26.6z"/>
		<path fill="#898981" d="M244.2,31.5c0-1.5,1-3.4,2.3-4.7c0.6-0.6,1.5-1.2,2.4-1.2c0.7,0,1,0.5,1,1c0,0.9-0.7,1.8-1.7,2.3
			c-1,0.5-1.9,0.7-2.6,0.7c-0.1,0.2-0.2,0.8-0.2,1.7c0,0.8,0.6,1.1,0.9,1.1c0.9,0,1.7-0.7,2.1-1.3c0-0.1,0.1-0.1,0.2,0l0.2,0.2
			c0.1,0.1,0.1,0.1,0,0.2c-0.5,0.6-1.5,1.8-2.9,1.8C244.7,33.2,244.2,32.7,244.2,31.5z M245.8,29.1c0.6,0.1,3-0.7,3-2
			c0-0.4-0.2-0.7-0.6-0.7C247.1,26.4,246,28.4,245.8,29.1z"/>
		<path fill="#898981" d="M252.4,26.7c-0.6,0-1,0.4-1,0.9c0,0.3,0.2,0.4,0.4,0.5c0.1,0.1,0.4,0.3,0.4,0.5s-0.2,0.6-0.7,0.6
			c-0.3,0-0.8-0.3-0.8-1c0-0.7,0.5-1.5,0.7-1.7c0.4-0.4,0.8-0.9,2.1-0.9c1.8,0,2.1-0.1,2.3-0.1c0.2,0,0.4,0.1,0.2,0.3
			c-0.4,0.5-2.1,2.9-2.1,4.7c0,1.2,0.6,1.7,1.3,1.7c1.5,0,3.1-2.4,3.1-4.2c0-0.3,0-0.6-0.1-0.9c-0.1-0.3-0.3-0.5-0.3-0.7
			c0-0.5,0.3-0.8,0.8-0.8c0.5,0,0.7,0.5,0.7,1c0,0.9-0.4,2.7-1.2,4c-0.8,1.4-2.3,2.7-3.7,2.7c-0.9,0-1.8-0.6-1.8-1.9
			c0-1.7,1.5-3.9,2.5-5.1l-0.1-0.1c-0.4,0.3-1.3,0.5-1.7,0.5H252.4z"/>
		<path fill="#898981" d="M259.9,31.5c0-1.5,1-3.4,2.3-4.7c0.6-0.6,1.5-1.2,2.4-1.2c0.7,0,1,0.5,1,1c0,0.9-0.7,1.8-1.7,2.3
			c-1,0.5-1.9,0.7-2.6,0.7c-0.1,0.2-0.2,0.8-0.2,1.7c0,0.8,0.6,1.1,0.9,1.1c0.9,0,1.7-0.7,2.1-1.3c0-0.1,0.1-0.1,0.2,0l0.2,0.2
			c0.1,0.1,0.1,0.1,0,0.2c-0.5,0.6-1.5,1.8-2.9,1.8C260.4,33.2,259.9,32.7,259.9,31.5z M261.5,29.1c0.6,0.1,3-0.7,3-2
			c0-0.4-0.2-0.7-0.6-0.7C262.7,26.4,261.6,28.4,261.5,29.1z"/>
		<path fill="#898981" d="M266.6,33.1c-0.2,0-0.2,0-0.2-0.2l1.3-3.3c0.4-1.1,0.9-2.4,0.9-2.7c0-0.2-0.1-0.3-0.3-0.3
			c-0.3,0-1.2,0.9-1.5,1.2c-0.1,0.1-0.1,0.1-0.2,0l-0.2-0.2c-0.1-0.1-0.1-0.1,0-0.2c0.3-0.3,1.6-1.8,2.9-1.8c0.4,0,0.6,0.3,0.6,0.5
			c0,0.6-0.8,2.3-0.9,2.7l0.1,0c0.5-0.9,2.5-3.3,4.1-3.3c0.5,0,0.9,0.3,0.9,0.7c0,0.8-0.4,1.7-1,3.2c-0.5,1.2-0.9,2.2-0.9,2.5
			c0,0.1,0.1,0.2,0.2,0.2c0.3,0,1.1-0.7,1.3-0.9c0.1-0.1,0.1,0,0.2,0l0.1,0.1c0.1,0.1,0.1,0.1,0,0.2c-0.2,0.3-1.7,1.6-2.9,1.6
			c-0.2,0-0.4-0.1-0.4-0.4c0-0.3,0.6-1.8,1.2-3.3c0.3-0.7,0.9-2.2,0.9-2.6c0-0.3-0.1-0.4-0.4-0.4c-0.7,0-2.5,1.7-3.3,2.9
			c-0.3,0.5-0.6,1-1.1,2.3l-0.5,1.2c0,0.1-0.1,0.1-0.3,0.1H266.6z"/>
		<path fill="#898981" d="M283.2,25.8c0.2,0,0.2,0.1,0.2,0.2l-1.4,3.7c-0.5,1.4-0.8,2.2-0.8,2.3c0,0.2,0,0.2,0.1,0.2
			c0.3,0,1.3-0.9,1.4-1.1c0-0.1,0.1-0.1,0.2,0l0.2,0.2c0.1,0.1,0.1,0.1,0,0.2c-0.1,0.1-1.7,1.8-3,1.8c-0.3,0-0.3-0.2-0.3-0.4
			c0-0.2,0.9-2.5,1.2-3.1l-0.1-0.1c-0.8,1.1-2.7,3.5-4.4,3.5c-0.4,0-0.6-0.3-0.7-0.7c0-0.6,0.6-1.7,1.3-3.4c0.5-1.1,0.9-2,0.9-2.3
			c0-0.2-0.1-0.3-0.3-0.3c-0.3,0-1.2,0.8-1.4,1c-0.1,0.1-0.1,0.1-0.2,0l-0.2-0.2c-0.1,0-0.1-0.1,0-0.2c0.1-0.2,1.6-1.7,2.8-1.7
			c0.4,0,0.5,0.4,0.5,0.6c0,0.5-0.4,1.5-1.2,3.1c-0.5,1.1-1,2.2-1,2.6c0,0.2,0.1,0.3,0.3,0.3c1,0,2.9-2.4,3.4-3.1
			c0.3-0.5,0.6-1,0.8-1.5l0.6-1.7c0-0.1,0.1-0.1,0.3-0.1H283.2z"/>
		<path fill="#898981" d="M284.2,31.5c0-1.5,1-3.4,2.3-4.7c0.6-0.6,1.5-1.2,2.4-1.2c0.7,0,1,0.5,1,1c0,0.9-0.7,1.8-1.7,2.3
			c-1,0.5-1.9,0.7-2.6,0.7c-0.1,0.2-0.2,0.8-0.2,1.7c0,0.8,0.6,1.1,0.9,1.1c0.9,0,1.7-0.7,2.1-1.3c0-0.1,0.1-0.1,0.2,0l0.2,0.2
			c0.1,0.1,0.1,0.1,0,0.2c-0.5,0.6-1.5,1.8-2.9,1.8C284.7,33.2,284.2,32.7,284.2,31.5z M285.8,29.1c0.6,0.1,3-0.7,3-2
			c0-0.4-0.2-0.7-0.6-0.7C287.1,26.4,285.9,28.4,285.8,29.1z"/>
		<path fill="#898981" d="M197.9,55.6l-2.5,3.2c-0.4,0.5-0.7,1-0.7,1.2c0,0.3,0.2,0.4,0.6,0.4h0.6c0.1,0,0.2,0,0.1,0.2L196,61
			c0,0.1-0.1,0.1-0.2,0.1c-0.2,0-1-0.1-2.4-0.1c-1.2,0-1.8,0.1-2,0.1c-0.1,0-0.2,0-0.2-0.1l0.1-0.4c0-0.1,0.1-0.1,0.1-0.1h0.3
			c0.8,0,1.5-0.5,2.2-1.3l8.3-10c0.1-0.1,0.2-0.2,0.5-0.2c0.3,0,0.7-0.1,0.8-0.1c0.2-0.1,0.5-0.1,0.6-0.1c0.1,0,0.2,0.1,0.2,0.2
			l-2.6,10c-0.1,0.3-0.2,0.8-0.2,1s0.3,0.5,0.7,0.5h0.5c0.1,0,0.2,0.1,0.1,0.2l-0.1,0.3c0,0.1-0.1,0.2-0.2,0.2
			c-0.2,0-0.9-0.1-2.2-0.1c-1.3,0-1.8,0.1-2.1,0.1c-0.2,0-0.2-0.1-0.2-0.2l0.1-0.3c0-0.1,0.1-0.1,0.1-0.1h0.3c0.7,0,1.2-0.1,1.5-1.5
			l0.9-3.3H197.9z M201.3,55l1.4-4.8c0.1-0.3-0.3-0.3-0.4-0.1l-3.9,4.9H201.3z"/>
		<path fill="#898981" d="M206.6,54.7c-0.6,0-1,0.4-1,0.9c0,0.3,0.2,0.4,0.4,0.5c0.1,0.1,0.4,0.3,0.4,0.5s-0.2,0.6-0.7,0.6
			c-0.3,0-0.8-0.3-0.8-1c0-0.7,0.5-1.5,0.7-1.7c0.4-0.4,0.8-0.9,2.1-0.9c1.8,0,2.1-0.1,2.3-0.1c0.2,0,0.4,0.1,0.2,0.3
			c-0.4,0.5-2.1,2.9-2.1,4.7c0,1.2,0.6,1.7,1.3,1.7c1.5,0,3.1-2.4,3.1-4.2c0-0.3,0-0.6-0.1-0.9c-0.1-0.3-0.3-0.5-0.3-0.7
			c0-0.5,0.3-0.8,0.8-0.8c0.5,0,0.7,0.5,0.7,1c0,0.9-0.4,2.7-1.2,4c-0.8,1.4-2.3,2.7-3.7,2.7c-0.9,0-1.8-0.6-1.8-1.9
			c0-1.7,1.5-3.9,2.5-5.1l-0.1-0.1c-0.4,0.3-1.3,0.5-1.7,0.5H206.6z"/>
		<path fill="#898981" d="M214,59.5c0-1.5,1-3.4,2.3-4.7c0.6-0.6,1.5-1.2,2.4-1.2c0.7,0,1,0.5,1,1c0,0.9-0.7,1.8-1.7,2.3
			c-1,0.5-1.9,0.7-2.6,0.7c-0.1,0.2-0.2,0.8-0.2,1.7c0,0.8,0.6,1.1,0.9,1.1c0.9,0,1.7-0.7,2.1-1.3c0-0.1,0.1-0.1,0.2,0l0.2,0.2
			c0.1,0.1,0.1,0.1,0,0.2c-0.5,0.6-1.5,1.8-2.9,1.8C214.5,61.2,214,60.7,214,59.5z M215.6,57.1c0.6,0.1,3-0.7,3-2
			c0-0.4-0.2-0.7-0.6-0.7C216.8,54.4,215.7,56.4,215.6,57.1z"/>
		<path fill="#898981" d="M220.8,61.1c-0.1,0-0.2-0.1-0.2-0.2l1-2.9c0.3-1,0.9-2.9,0.9-3.2c0-0.2-0.1-0.3-0.3-0.3
			c-0.4,0-1.2,0.8-1.4,1.1c0,0.1-0.1,0-0.1,0l-0.2-0.2c0,0,0-0.1,0-0.1c0.4-0.6,1.5-1.8,2.7-1.8c0.4,0,0.5,0.3,0.5,0.6
			c0,0.3-0.3,1.4-0.6,2.6l0.1,0c0.5-1,1.9-3.2,2.9-3.2c0.5,0,0.8,0.3,0.8,0.8c0,0.5-0.4,0.8-0.7,0.8c-0.2,0-0.3,0-0.5-0.2
			c-0.1-0.1-0.2-0.2-0.5-0.2c-0.5,0-1.5,1.5-2.2,2.7c-0.2,0.3-0.4,0.8-0.7,1.6l-0.6,1.8c0,0.1-0.1,0.1-0.2,0.1H220.8z"/>
		<path fill="#898981" d="M233.8,53.6c0.1,0,0.1,0.1,0.1,0.2c-0.3,0.7-1.3,3.2-1.3,3.5c-0.1,0.3-0.9,2.5-0.9,2.7s0.1,0.2,0.2,0.2
			c0.2,0,1.1-0.9,1.3-1.1c0.1-0.1,0.1-0.1,0.1,0l0.2,0.2c0.1,0.1,0.1,0.1,0,0.1c-0.2,0.4-1.8,1.9-2.8,1.9c-0.2,0-0.4-0.1-0.4-0.3
			c0-0.3,0.2-0.8,0.9-2.7l-0.1,0c-0.8,1.2-2.6,3.1-3.9,3.1c-0.4,0-1-0.3-1-1.2c0-2.6,3-6.5,5.1-6.5c0.8,0,1.1,0.3,1.3,0.6l0.3-0.5
			c0.1-0.1,0.1-0.1,0.2-0.1H233.8z M231.5,56.7c0.3-0.5,0.4-1,0.4-1.5c0-0.5-0.2-1.1-0.8-1.1c-1.7,0-3.6,3.8-3.6,5.5
			c0,0.4,0.2,0.6,0.5,0.6C228.9,60.3,231.2,57.4,231.5,56.7z"/>
		<path fill="#898981" d="M232.9,64.1c0-1.3,2.2-2.2,3-2.6c-0.5-0.4-0.7-0.7-0.7-1c0-0.3,0.3-0.6,1.5-1.3c-0.5-0.1-1.4-0.8-1.4-2.1
			c0-1.4,1.2-3.4,3.2-3.4c0.9,0,1.4,0.6,1.5,0.8c0.2-0.2,0.9-0.7,1.5-0.7c0.6,0,0.8,0.5,0.8,0.7c0,0.2-0.1,0.6-0.6,0.6
			c-0.3,0-0.5-0.1-0.6-0.3c-0.1-0.1-0.2-0.1-0.3-0.1c-0.2,0-0.5,0.1-0.5,0.3c0.1,0.2,0.1,0.7,0.1,1c0,0.9-0.5,2.9-2.6,3.2
			c-0.3,0.1-0.5,0.1-0.5,0.1c-0.3,0.1-0.9,0.6-0.9,0.9c0,0.2,0.2,0.4,0.3,0.5c0.3,0.2,1.2,0.8,2.3,1.5c1,0.7,1.3,1.3,1.3,1.9
			c0,0.3-0.3,2.3-3.8,2.3C234.7,66.4,232.9,65.3,232.9,64.1z M236.9,65.9c1.2,0,2.2-0.4,2.2-1.4c0-0.8-0.8-1.3-1.2-1.6l-1.6-1
			c-1.5,0.6-2.3,1.3-2.3,2.1C234.1,65.2,235.7,65.9,236.9,65.9z M239.3,55.2c0-0.8-0.3-1.2-0.8-1.2c-1.1,0-2,2.1-2,3.5
			c0,0.8,0.3,1.2,0.8,1.2C238.7,58.7,239.3,56.5,239.3,55.2z"/>
		<path fill="#898981" d="M242.3,59.5c0-1.5,1-3.4,2.3-4.7c0.6-0.6,1.5-1.2,2.4-1.2c0.7,0,1,0.5,1,1c0,0.9-0.7,1.8-1.7,2.3
			c-1,0.5-1.9,0.7-2.6,0.7c-0.1,0.2-0.2,0.8-0.2,1.7c0,0.8,0.6,1.1,0.9,1.1c0.9,0,1.7-0.7,2.1-1.3c0-0.1,0.1-0.1,0.2,0l0.2,0.2
			c0.1,0.1,0.1,0.1,0,0.2c-0.5,0.6-1.5,1.8-2.9,1.8C242.8,61.2,242.3,60.7,242.3,59.5z M243.9,57.1c0.6,0.1,3-0.7,3-2
			c0-0.4-0.2-0.7-0.6-0.7C245.1,54.4,244,56.4,243.9,57.1z"/>
		<path fill="#898981" d="M255.1,54.7h-1.3c-0.1,0-0.1,0-0.1-0.1l0.1-0.4c0-0.1,0.1-0.1,0.2-0.1h1.3l0.9-2.1
			c0.1-0.2,0.1-0.2,0.3-0.3c0.2-0.1,0.7-0.2,0.8-0.3c0.1-0.1,0.2-0.1,0.3-0.1c0.1,0,0.1,0.1,0,0.4l-1.2,2.4h1.8
			c0.1,0,0.1,0.1,0.1,0.2l-0.2,0.4c0,0.1-0.1,0.1-0.2,0.1h-1.8l-1.7,4.1c-0.2,0.5-0.4,1-0.4,1.2c0,0.2,0.1,0.3,0.2,0.3
			c0.5,0,1.7-1,1.8-1.2c0.1-0.1,0.1-0.1,0.2,0l0.2,0.2c0.1,0.1,0.1,0.1,0,0.2c-0.2,0.3-1.9,1.8-3.3,1.8c-0.5,0-0.6-0.2-0.6-0.4
			c0-0.3,0.1-0.6,0.2-0.8L255.1,54.7z"/>
		<path fill="#898981" d="M258.2,58.9c0-2.3,1.7-5.3,4.1-5.3c1.2,0,1.9,0.9,1.9,2.1c0,2-1.6,5.6-4.2,5.6
			C259.1,61.2,258.2,60.3,258.2,58.9z M263.5,55.4c0-0.6-0.3-1-0.9-1c-0.8,0-1.7,0.7-2.6,2.1c-0.6,1-1,2.1-1,2.9
			c0,0.6,0.4,0.9,0.8,0.9C261.7,60.4,263.5,56.6,263.5,55.4z"/>
		<path fill="#898981" d="M267.7,54.7h-1.3c-0.1,0-0.1,0-0.1-0.1l0.1-0.4c0-0.1,0.1-0.1,0.2-0.1h1.3l0.9-2.1
			c0.1-0.2,0.1-0.2,0.3-0.3c0.2-0.1,0.7-0.2,0.8-0.3c0.1-0.1,0.2-0.1,0.3-0.1c0.1,0,0.1,0.1,0,0.4l-1.2,2.4h1.8
			c0.1,0,0.1,0.1,0.1,0.2l-0.2,0.4c0,0.1-0.1,0.1-0.2,0.1h-1.8l-1.7,4.1c-0.2,0.5-0.4,1-0.4,1.2c0,0.2,0.1,0.3,0.2,0.3
			c0.5,0,1.7-1,1.8-1.2c0.1-0.1,0.1-0.1,0.2,0l0.2,0.2c0.1,0.1,0.1,0.1,0,0.2c-0.2,0.3-1.9,1.8-3.3,1.8c-0.5,0-0.6-0.2-0.6-0.4
			c0-0.3,0.1-0.6,0.2-0.8L267.7,54.7z"/>
		<path fill="#898981" d="M278,53.6c0.1,0,0.1,0.1,0.1,0.2c-0.3,0.7-1.3,3.2-1.3,3.5c-0.1,0.3-0.9,2.5-0.9,2.7s0.1,0.2,0.2,0.2
			c0.2,0,1.1-0.9,1.3-1.1c0.1-0.1,0.1-0.1,0.1,0l0.2,0.2c0.1,0.1,0.1,0.1,0,0.1c-0.2,0.4-1.8,1.9-2.8,1.9c-0.2,0-0.4-0.1-0.4-0.3
			c0-0.3,0.2-0.8,0.9-2.7l-0.1,0c-0.8,1.2-2.6,3.1-3.9,3.1c-0.4,0-1-0.3-1-1.2c0-2.6,3-6.5,5.1-6.5c0.8,0,1.1,0.3,1.3,0.6l0.3-0.5
			c0.1-0.1,0.1-0.1,0.2-0.1H278z M275.7,56.7c0.3-0.5,0.4-1,0.4-1.5c0-0.5-0.2-1.1-0.8-1.1c-1.7,0-3.6,3.8-3.6,5.5
			c0,0.4,0.2,0.6,0.5,0.6C273.1,60.3,275.4,57.4,275.7,56.7z"/>
		<path fill="#898981" d="M282.5,50.7c0.3-0.7,0.3-1.1-0.3-1.1h-0.5c-0.1,0-0.1-0.1-0.1-0.2l0.1-0.3c0-0.1,0.1-0.1,0.2-0.1h2.2
			c0.2,0,0.2,0.1,0.2,0.3l-3.7,9.5c-0.2,0.4-0.6,1.4-0.2,1.4c0.3,0,1.1-0.7,1.3-0.9c0.1-0.1,0.1-0.1,0.2,0l0.2,0.2
			c0,0,0.1,0.1,0,0.2c-0.1,0.1-1.8,1.7-2.9,1.7c-0.2,0-0.4-0.1-0.4-0.5c0-0.3,0.5-1.4,0.7-1.9L282.5,50.7z"/>
		<path fill="#898981" d="M294.9,53.6c0.1,0,0.1,0.1,0.1,0.2c-0.3,0.7-1.3,3.2-1.3,3.5c-0.1,0.3-0.9,2.5-0.9,2.7s0.1,0.2,0.2,0.2
			c0.2,0,1.1-0.9,1.3-1.1c0.1-0.1,0.1-0.1,0.1,0l0.2,0.2c0.1,0.1,0.1,0.1,0,0.1c-0.2,0.4-1.8,1.9-2.8,1.9c-0.2,0-0.4-0.1-0.4-0.3
			c0-0.3,0.2-0.8,0.9-2.7l-0.1,0c-0.8,1.2-2.6,3.1-3.9,3.1c-0.4,0-1-0.3-1-1.2c0-2.6,3-6.5,5.1-6.5c0.8,0,1.1,0.3,1.3,0.6l0.3-0.5
			c0.1-0.1,0.1-0.1,0.2-0.1H294.9z M292.6,56.7c0.3-0.5,0.4-1,0.4-1.5c0-0.5-0.2-1.1-0.8-1.1c-1.7,0-3.6,3.8-3.6,5.5
			c0,0.4,0.2,0.6,0.5,0.6C290,60.3,292.3,57.4,292.6,56.7z"/>
		<path fill="#898981" d="M295.1,60.2c0-0.3,0.2-0.6,0.6-0.6c0.4,0,0.6,0.3,0.7,0.6c0.1,0.3,0.2,0.5,0.6,0.5c0.5,0,1-0.5,1-1.1
			c0-0.8-0.5-1.5-0.8-2.1c-0.1-0.3-0.5-0.9-0.5-1.8c0-1,1-2.2,2.3-2.2c0.5,0,1.3,0.2,1.3,0.9c0,0.3-0.3,0.6-0.6,0.6
			c-0.2,0-0.5-0.1-0.6-0.4c-0.1-0.2-0.1-0.5-0.5-0.5s-0.9,0.5-0.9,1.1c0,0.7,0.5,1.4,0.6,1.7c0.1,0.2,0.7,1.1,0.7,2.1
			c0,1.4-1.1,2.2-2.4,2.2C295.8,61.2,295.1,60.8,295.1,60.2z"/>
		<path fill="#898981" d="M300.4,60.2c0-0.3,0.2-0.6,0.6-0.6c0.4,0,0.6,0.3,0.7,0.6c0.1,0.3,0.2,0.5,0.6,0.5c0.5,0,1-0.5,1-1.1
			c0-0.8-0.5-1.5-0.8-2.1c-0.1-0.3-0.5-0.9-0.5-1.8c0-1,1-2.2,2.3-2.2c0.5,0,1.3,0.2,1.3,0.9c0,0.3-0.3,0.6-0.6,0.6
			c-0.2,0-0.5-0.1-0.6-0.4c-0.1-0.2-0.1-0.5-0.5-0.5s-0.9,0.5-0.9,1.1c0,0.7,0.5,1.4,0.6,1.7c0.1,0.2,0.7,1.1,0.7,2.1
			c0,1.4-1.1,2.2-2.4,2.2C301.1,61.2,300.4,60.8,300.4,60.2z"/>
		<path fill="#898981" d="M306.3,59.5c0-1.5,1-3.4,2.3-4.7c0.6-0.6,1.5-1.2,2.4-1.2c0.7,0,1,0.5,1,1c0,0.9-0.7,1.8-1.7,2.3
			c-1,0.5-1.9,0.7-2.6,0.7c-0.1,0.2-0.2,0.8-0.2,1.7c0,0.8,0.6,1.1,0.9,1.1c0.9,0,1.7-0.7,2.1-1.3c0-0.1,0.1-0.1,0.2,0l0.2,0.2
			c0.1,0.1,0.1,0.1,0,0.2c-0.5,0.6-1.5,1.8-2.9,1.8C306.8,61.2,306.3,60.7,306.3,59.5z M307.9,57.1c0.6,0.1,3-0.7,3-2
			c0-0.4-0.2-0.7-0.6-0.7C309.2,54.4,308,56.4,307.9,57.1z"/>
		<path fill="#898981" d="M312,60.2c0-0.3,0.2-0.6,0.6-0.6c0.4,0,0.6,0.3,0.7,0.6c0.1,0.3,0.2,0.5,0.6,0.5c0.5,0,1-0.5,1-1.1
			c0-0.8-0.5-1.5-0.8-2.1c-0.1-0.3-0.5-0.9-0.5-1.8c0-1,1-2.2,2.3-2.2c0.5,0,1.3,0.2,1.3,0.9c0,0.3-0.3,0.6-0.6,0.6
			c-0.2,0-0.5-0.1-0.6-0.4c-0.1-0.2-0.1-0.5-0.5-0.5s-0.9,0.5-0.9,1.1c0,0.7,0.5,1.4,0.6,1.7c0.1,0.2,0.7,1.1,0.7,2.1
			c0,1.4-1.1,2.2-2.4,2.2C312.6,61.2,312,60.8,312,60.2z"/>
		<path fill="#898981" d="M320.3,54.7H319c-0.1,0-0.1,0-0.1-0.1l0.1-0.4c0-0.1,0.1-0.1,0.2-0.1h1.3l0.9-2.1c0.1-0.2,0.1-0.2,0.3-0.3
			c0.2-0.1,0.7-0.2,0.8-0.3c0.1-0.1,0.2-0.1,0.3-0.1c0.1,0,0.1,0.1,0,0.4l-1.2,2.4h1.8c0.1,0,0.1,0.1,0.1,0.2l-0.2,0.4
			c0,0.1-0.1,0.1-0.2,0.1h-1.8l-1.7,4.1c-0.2,0.5-0.4,1-0.4,1.2c0,0.2,0.1,0.3,0.2,0.3c0.5,0,1.7-1,1.8-1.2c0.1-0.1,0.1-0.1,0.2,0
			l0.2,0.2c0.1,0.1,0.1,0.1,0,0.2c-0.2,0.3-1.9,1.8-3.3,1.8c-0.5,0-0.6-0.2-0.6-0.4c0-0.3,0.1-0.6,0.2-0.8L320.3,54.7z"/>
		<path fill="#898981" d="M322.9,60.2c0-0.3,0.2-0.6,0.6-0.6c0.4,0,0.6,0.3,0.7,0.6c0.1,0.3,0.2,0.5,0.6,0.5c0.5,0,1-0.5,1-1.1
			c0-0.8-0.5-1.5-0.8-2.1c-0.1-0.3-0.5-0.9-0.5-1.8c0-1,1-2.2,2.3-2.2c0.5,0,1.3,0.2,1.3,0.9c0,0.3-0.3,0.6-0.6,0.6
			c-0.2,0-0.5-0.1-0.6-0.4c-0.1-0.2-0.1-0.5-0.5-0.5s-0.9,0.5-0.9,1.1c0,0.7,0.5,1.4,0.6,1.7c0.1,0.2,0.7,1.1,0.7,2.1
			c0,1.4-1.1,2.2-2.4,2.2C323.6,61.2,322.9,60.8,322.9,60.2z"/>
	</g>
	<g>
		<path fill="#898981" d="M402.4,27.6l-2.5,3.2c-0.4,0.5-0.7,1-0.7,1.2c0,0.3,0.2,0.4,0.6,0.4h0.6c0.1,0,0.2,0,0.1,0.2l-0.1,0.3
			c0,0.1-0.1,0.1-0.2,0.1c-0.2,0-1-0.1-2.4-0.1c-1.2,0-1.8,0.1-2,0.1c-0.1,0-0.2,0-0.2-0.1l0.1-0.4c0-0.1,0.1-0.1,0.1-0.1h0.3
			c0.8,0,1.5-0.5,2.2-1.3l8.3-10c0.1-0.1,0.2-0.2,0.5-0.2c0.3,0,0.7-0.1,0.8-0.1c0.2-0.1,0.5-0.1,0.6-0.1c0.1,0,0.2,0.1,0.2,0.2
			l-2.6,10c-0.1,0.3-0.2,0.8-0.2,1s0.3,0.5,0.7,0.5h0.5c0.1,0,0.2,0.1,0.1,0.2l-0.1,0.3c0,0.1-0.1,0.2-0.2,0.2
			c-0.2,0-0.9-0.1-2.2-0.1c-1.3,0-1.8,0.1-2.1,0.1c-0.2,0-0.2-0.1-0.2-0.2l0.1-0.3c0-0.1,0.1-0.1,0.1-0.1h0.3c0.7,0,1.2-0.1,1.5-1.5
			l0.9-3.3H402.4z M405.8,27l1.4-4.8c0.1-0.3-0.3-0.3-0.4-0.1l-3.9,4.9H405.8z"/>
		<path fill="#898981" d="M411.1,26.7c-0.6,0-1,0.4-1,0.9c0,0.3,0.2,0.4,0.4,0.5c0.1,0.1,0.4,0.3,0.4,0.5s-0.2,0.6-0.7,0.6
			c-0.3,0-0.8-0.3-0.8-1c0-0.7,0.5-1.5,0.7-1.7c0.4-0.4,0.8-0.9,2.1-0.9c1.8,0,2.1-0.1,2.3-0.1c0.2,0,0.4,0.1,0.2,0.3
			c-0.4,0.5-2.1,2.9-2.1,4.7c0,1.2,0.6,1.7,1.3,1.7c1.5,0,3.1-2.4,3.1-4.2c0-0.3,0-0.6-0.1-0.9c-0.1-0.3-0.3-0.5-0.3-0.7
			c0-0.5,0.3-0.8,0.8-0.8c0.5,0,0.7,0.5,0.7,1c0,0.9-0.4,2.7-1.2,4c-0.8,1.4-2.3,2.7-3.7,2.7c-0.9,0-1.8-0.6-1.8-1.9
			c0-1.7,1.5-3.9,2.5-5.1l-0.1-0.1c-0.4,0.3-1.3,0.5-1.7,0.5H411.1z"/>
		<path fill="#898981" d="M418.5,31.5c0-1.5,1-3.4,2.3-4.7c0.6-0.6,1.5-1.2,2.4-1.2c0.7,0,1,0.5,1,1c0,0.9-0.7,1.8-1.7,2.3
			c-1,0.5-1.9,0.7-2.6,0.7c-0.1,0.2-0.2,0.8-0.2,1.7c0,0.8,0.6,1.1,0.9,1.1c0.9,0,1.7-0.7,2.1-1.3c0-0.1,0.1-0.1,0.2,0l0.2,0.2
			c0.1,0.1,0.1,0.1,0,0.2c-0.5,0.6-1.5,1.8-2.9,1.8C419,33.2,418.5,32.7,418.5,31.5z M420.1,29.1c0.6,0.1,3-0.7,3-2
			c0-0.4-0.2-0.7-0.6-0.7C421.3,26.4,420.2,28.4,420.1,29.1z"/>
		<path fill="#898981" d="M425.3,33.1c-0.1,0-0.2-0.1-0.2-0.2l1-2.9c0.3-1,0.9-2.9,0.9-3.2c0-0.2-0.1-0.3-0.3-0.3
			c-0.4,0-1.2,0.8-1.4,1.1c0,0.1-0.1,0-0.1,0l-0.2-0.2c0,0,0-0.1,0-0.1c0.4-0.6,1.5-1.8,2.7-1.8c0.4,0,0.5,0.3,0.5,0.6
			c0,0.3-0.3,1.4-0.6,2.6l0.1,0c0.5-1,1.9-3.2,2.9-3.2c0.5,0,0.8,0.3,0.8,0.8c0,0.5-0.4,0.8-0.7,0.8c-0.2,0-0.3,0-0.5-0.2
			c-0.1-0.1-0.2-0.2-0.5-0.2c-0.5,0-1.5,1.5-2.2,2.7c-0.2,0.3-0.4,0.8-0.7,1.6l-0.6,1.8c0,0.1-0.1,0.1-0.2,0.1H425.3z"/>
		<path fill="#898981" d="M438.3,25.6c0.1,0,0.1,0.1,0.1,0.2c-0.3,0.7-1.3,3.2-1.3,3.5c-0.1,0.3-0.9,2.5-0.9,2.7s0.1,0.2,0.2,0.2
			c0.2,0,1.1-0.9,1.3-1.1c0.1-0.1,0.1-0.1,0.1,0l0.2,0.2c0.1,0.1,0.1,0.1,0,0.1c-0.2,0.4-1.8,1.9-2.8,1.9c-0.2,0-0.4-0.1-0.4-0.3
			c0-0.3,0.2-0.8,0.9-2.7l-0.1,0c-0.8,1.2-2.6,3.1-3.9,3.1c-0.4,0-1-0.3-1-1.2c0-2.6,3-6.5,5.1-6.5c0.8,0,1.1,0.3,1.3,0.6l0.3-0.5
			c0.1-0.1,0.1-0.1,0.2-0.1H438.3z M436,28.7c0.3-0.5,0.4-1,0.4-1.5c0-0.5-0.2-1.1-0.8-1.1c-1.7,0-3.6,3.8-3.6,5.5
			c0,0.4,0.2,0.6,0.5,0.6C433.4,32.3,435.7,29.4,436,28.7z"/>
		<path fill="#898981" d="M437.4,36.1c0-1.3,2.2-2.2,3-2.6c-0.5-0.4-0.7-0.7-0.7-1c0-0.3,0.3-0.6,1.5-1.3c-0.5-0.1-1.4-0.8-1.4-2.1
			c0-1.4,1.2-3.4,3.2-3.4c0.9,0,1.4,0.6,1.5,0.8c0.2-0.2,0.9-0.7,1.5-0.7c0.6,0,0.8,0.5,0.8,0.7c0,0.2-0.1,0.6-0.6,0.6
			c-0.3,0-0.5-0.1-0.6-0.3c-0.1-0.1-0.2-0.1-0.3-0.1c-0.2,0-0.5,0.1-0.5,0.3c0.1,0.2,0.1,0.7,0.1,1c0,0.9-0.5,2.9-2.6,3.2
			c-0.3,0.1-0.5,0.1-0.5,0.1c-0.3,0.1-0.9,0.6-0.9,0.9c0,0.2,0.2,0.4,0.3,0.5c0.3,0.2,1.2,0.8,2.3,1.5c1,0.7,1.3,1.3,1.3,1.9
			c0,0.3-0.3,2.3-3.8,2.3C439.2,38.4,437.4,37.3,437.4,36.1z M441.4,37.9c1.2,0,2.2-0.4,2.2-1.4c0-0.8-0.8-1.3-1.2-1.6l-1.6-1
			c-1.5,0.6-2.3,1.3-2.3,2.1C438.6,37.2,440.2,37.9,441.4,37.9z M443.8,27.2c0-0.8-0.3-1.2-0.8-1.2c-1.1,0-2,2.1-2,3.5
			c0,0.8,0.3,1.2,0.8,1.2C443.2,30.7,443.8,28.5,443.8,27.2z"/>
		<path fill="#898981" d="M446.8,31.5c0-1.5,1-3.4,2.3-4.7c0.6-0.6,1.5-1.2,2.4-1.2c0.7,0,1,0.5,1,1c0,0.9-0.7,1.8-1.7,2.3
			c-1,0.5-1.9,0.7-2.6,0.7c-0.1,0.2-0.2,0.8-0.2,1.7c0,0.8,0.6,1.1,0.9,1.1c0.9,0,1.7-0.7,2.1-1.3c0-0.1,0.1-0.1,0.2,0l0.2,0.2
			c0.1,0.1,0.1,0.1,0,0.2c-0.5,0.6-1.5,1.8-2.9,1.8C447.3,33.2,446.8,32.7,446.8,31.5z M448.4,29.1c0.6,0.1,3-0.7,3-2
			c0-0.4-0.2-0.7-0.6-0.7C449.6,26.4,448.5,28.4,448.4,29.1z"/>
		<path fill="#898981" d="M459.6,26.7h-1.3c-0.1,0-0.1,0-0.1-0.1l0.1-0.4c0-0.1,0.1-0.1,0.2-0.1h1.3l0.9-2.1
			c0.1-0.2,0.1-0.2,0.3-0.3c0.2-0.1,0.7-0.2,0.8-0.3c0.1-0.1,0.2-0.1,0.3-0.1c0.1,0,0.1,0.1,0,0.4l-1.2,2.4h1.8
			c0.1,0,0.1,0.1,0.1,0.2l-0.2,0.4c0,0.1-0.1,0.1-0.2,0.1h-1.8l-1.7,4.1c-0.2,0.5-0.4,1-0.4,1.2c0,0.2,0.1,0.3,0.2,0.3
			c0.5,0,1.7-1,1.8-1.2c0.1-0.1,0.1-0.1,0.2,0l0.2,0.2c0.1,0.1,0.1,0.1,0,0.2c-0.2,0.3-1.9,1.8-3.3,1.8c-0.5,0-0.6-0.2-0.6-0.4
			c0-0.3,0.1-0.6,0.2-0.8L459.6,26.7z"/>
		<path fill="#898981" d="M462.7,30.9c0-2.3,1.7-5.3,4.1-5.3c1.2,0,1.9,0.9,1.9,2.1c0,2-1.6,5.6-4.2,5.6
			C463.6,33.2,462.7,32.3,462.7,30.9z M468,27.4c0-0.6-0.3-1-0.9-1c-0.8,0-1.7,0.7-2.6,2.1c-0.6,1-1,2.1-1,2.9
			c0,0.6,0.4,0.9,0.8,0.9C466.2,32.4,468,28.6,468,27.4z"/>
		<path fill="#898981" d="M472.2,26.7h-1.3c-0.1,0-0.1,0-0.1-0.1l0.1-0.4c0-0.1,0.1-0.1,0.2-0.1h1.3l0.9-2.1
			c0.1-0.2,0.1-0.2,0.3-0.3c0.2-0.1,0.7-0.2,0.8-0.3c0.1-0.1,0.2-0.1,0.3-0.1c0.1,0,0.1,0.1,0,0.4l-1.2,2.4h1.8
			c0.1,0,0.1,0.1,0.1,0.2l-0.2,0.4c0,0.1-0.1,0.1-0.2,0.1h-1.8l-1.7,4.1c-0.2,0.5-0.4,1-0.4,1.2c0,0.2,0.1,0.3,0.2,0.3
			c0.5,0,1.7-1,1.8-1.2c0.1-0.1,0.1-0.1,0.2,0l0.2,0.2c0.1,0.1,0.1,0.1,0,0.2c-0.2,0.3-1.9,1.8-3.3,1.8c-0.5,0-0.6-0.2-0.6-0.4
			c0-0.3,0.1-0.6,0.2-0.8L472.2,26.7z"/>
		<path fill="#898981" d="M482.5,25.6c0.1,0,0.1,0.1,0.1,0.2c-0.3,0.7-1.3,3.2-1.3,3.5c-0.1,0.3-0.9,2.5-0.9,2.7s0.1,0.2,0.2,0.2
			c0.2,0,1.1-0.9,1.3-1.1c0.1-0.1,0.1-0.1,0.1,0l0.2,0.2c0.1,0.1,0.1,0.1,0,0.1c-0.2,0.4-1.8,1.9-2.8,1.9c-0.2,0-0.4-0.1-0.4-0.3
			c0-0.3,0.2-0.8,0.9-2.7l-0.1,0c-0.8,1.2-2.6,3.1-3.9,3.1c-0.4,0-1-0.3-1-1.2c0-2.6,3-6.5,5.1-6.5c0.8,0,1.1,0.3,1.3,0.6l0.3-0.5
			c0.1-0.1,0.1-0.1,0.2-0.1H482.5z M480.2,28.7c0.3-0.5,0.4-1,0.4-1.5c0-0.5-0.2-1.1-0.8-1.1c-1.7,0-3.6,3.8-3.6,5.5
			c0,0.4,0.2,0.6,0.5,0.6C477.6,32.3,479.9,29.4,480.2,28.7z"/>
		<path fill="#898981" d="M487,22.7c0.3-0.7,0.3-1.1-0.3-1.1h-0.5c-0.1,0-0.1-0.1-0.1-0.2l0.1-0.3c0-0.1,0.1-0.1,0.2-0.1h2.2
			c0.2,0,0.2,0.1,0.2,0.3l-3.7,9.5c-0.2,0.4-0.6,1.4-0.2,1.4c0.3,0,1.1-0.7,1.3-0.9c0.1-0.1,0.1-0.1,0.2,0l0.2,0.2
			c0,0,0.1,0.1,0,0.2c-0.1,0.1-1.8,1.7-2.9,1.7c-0.2,0-0.4-0.1-0.4-0.5c0-0.3,0.5-1.4,0.7-1.9L487,22.7z"/>
		<path fill="#898981" d="M499.4,25.6c0.1,0,0.1,0.1,0.1,0.2c-0.3,0.7-1.3,3.2-1.3,3.5c-0.1,0.3-0.9,2.5-0.9,2.7s0.1,0.2,0.2,0.2
			c0.2,0,1.1-0.9,1.3-1.1c0.1-0.1,0.1-0.1,0.1,0l0.2,0.2c0.1,0.1,0.1,0.1,0,0.1c-0.2,0.4-1.8,1.9-2.8,1.9c-0.2,0-0.4-0.1-0.4-0.3
			c0-0.3,0.2-0.8,0.9-2.7l-0.1,0c-0.8,1.2-2.6,3.1-3.9,3.1c-0.4,0-1-0.3-1-1.2c0-2.6,3-6.5,5.1-6.5c0.8,0,1.1,0.3,1.3,0.6l0.3-0.5
			c0.1-0.1,0.1-0.1,0.2-0.1H499.4z M497.1,28.7c0.3-0.5,0.4-1,0.4-1.5c0-0.5-0.2-1.1-0.8-1.1c-1.7,0-3.6,3.8-3.6,5.5
			c0,0.4,0.2,0.6,0.5,0.6C494.5,32.3,496.8,29.4,497.1,28.7z"/>
		<path fill="#898981" d="M499.6,32.2c0-0.3,0.2-0.6,0.6-0.6c0.4,0,0.6,0.3,0.7,0.6c0.1,0.3,0.2,0.5,0.6,0.5c0.5,0,1-0.5,1-1.1
			c0-0.8-0.5-1.5-0.8-2.1c-0.1-0.3-0.5-0.9-0.5-1.8c0-1,1-2.2,2.3-2.2c0.5,0,1.3,0.2,1.3,0.9c0,0.3-0.3,0.6-0.6,0.6
			c-0.2,0-0.5-0.1-0.6-0.4c-0.1-0.2-0.1-0.5-0.5-0.5s-0.9,0.5-0.9,1.1c0,0.7,0.5,1.4,0.6,1.7c0.1,0.2,0.7,1.1,0.7,2.1
			c0,1.4-1.1,2.2-2.4,2.2C500.3,33.2,499.6,32.8,499.6,32.2z"/>
		<path fill="#898981" d="M504.9,32.2c0-0.3,0.2-0.6,0.6-0.6c0.4,0,0.6,0.3,0.7,0.6c0.1,0.3,0.2,0.5,0.6,0.5c0.5,0,1-0.5,1-1.1
			c0-0.8-0.5-1.5-0.8-2.1c-0.1-0.3-0.5-0.9-0.5-1.8c0-1,1-2.2,2.3-2.2c0.5,0,1.3,0.2,1.3,0.9c0,0.3-0.3,0.6-0.6,0.6
			c-0.2,0-0.5-0.1-0.6-0.4c-0.1-0.2-0.1-0.5-0.5-0.5s-0.9,0.5-0.9,1.1c0,0.7,0.5,1.4,0.6,1.7c0.1,0.2,0.7,1.1,0.7,2.1
			c0,1.4-1.1,2.2-2.4,2.2C505.6,33.2,504.9,32.8,504.9,32.2z"/>
		<path fill="#898981" d="M510.8,31.5c0-1.5,1-3.4,2.3-4.7c0.6-0.6,1.5-1.2,2.4-1.2c0.7,0,1,0.5,1,1c0,0.9-0.7,1.8-1.7,2.3
			c-1,0.5-1.9,0.7-2.6,0.7c-0.1,0.2-0.2,0.8-0.2,1.7c0,0.8,0.6,1.1,0.9,1.1c0.9,0,1.7-0.7,2.1-1.3c0-0.1,0.1-0.1,0.2,0l0.2,0.2
			c0.1,0.1,0.1,0.1,0,0.2c-0.5,0.6-1.5,1.8-2.9,1.8C511.3,33.2,510.8,32.7,510.8,31.5z M512.4,29.1c0.6,0.1,3-0.7,3-2
			c0-0.4-0.2-0.7-0.6-0.7C513.7,26.4,512.5,28.4,512.4,29.1z"/>
		<path fill="#898981" d="M516.5,32.2c0-0.3,0.2-0.6,0.6-0.6c0.4,0,0.6,0.3,0.7,0.6c0.1,0.3,0.2,0.5,0.6,0.5c0.5,0,1-0.5,1-1.1
			c0-0.8-0.5-1.5-0.8-2.1c-0.1-0.3-0.5-0.9-0.5-1.8c0-1,1-2.2,2.3-2.2c0.5,0,1.3,0.2,1.3,0.9c0,0.3-0.3,0.6-0.6,0.6
			c-0.2,0-0.5-0.1-0.6-0.4c-0.1-0.2-0.1-0.5-0.5-0.5s-0.9,0.5-0.9,1.1c0,0.7,0.5,1.4,0.6,1.7c0.1,0.2,0.7,1.1,0.7,2.1
			c0,1.4-1.1,2.2-2.4,2.2C517.1,33.2,516.5,32.8,516.5,32.2z"/>
		<path fill="#898981" d="M524.8,26.7h-1.3c-0.1,0-0.1,0-0.1-0.1l0.1-0.4c0-0.1,0.1-0.1,0.2-0.1h1.3L526,24c0.1-0.2,0.1-0.2,0.3-0.3
			c0.2-0.1,0.7-0.2,0.8-0.3c0.1-0.1,0.2-0.1,0.3-0.1c0.1,0,0.1,0.1,0,0.4l-1.2,2.4h1.8c0.1,0,0.1,0.1,0.1,0.2l-0.2,0.4
			c0,0.1-0.1,0.1-0.2,0.1h-1.8l-1.7,4.1c-0.2,0.5-0.4,1-0.4,1.2c0,0.2,0.1,0.3,0.2,0.3c0.5,0,1.7-1,1.8-1.2c0.1-0.1,0.1-0.1,0.2,0
			l0.2,0.2c0.1,0.1,0.1,0.1,0,0.2c-0.2,0.3-1.9,1.8-3.3,1.8c-0.5,0-0.6-0.2-0.6-0.4c0-0.3,0.1-0.6,0.2-0.8L524.8,26.7z"/>
		<path fill="#898981" d="M527.4,32.2c0-0.3,0.2-0.6,0.6-0.6c0.4,0,0.6,0.3,0.7,0.6c0.1,0.3,0.2,0.5,0.6,0.5c0.5,0,1-0.5,1-1.1
			c0-0.8-0.5-1.5-0.8-2.1c-0.1-0.3-0.5-0.9-0.5-1.8c0-1,1-2.2,2.3-2.2c0.5,0,1.3,0.2,1.3,0.9c0,0.3-0.3,0.6-0.6,0.6
			c-0.2,0-0.5-0.1-0.6-0.4c-0.1-0.2-0.1-0.5-0.5-0.5s-0.9,0.5-0.9,1.1c0,0.7,0.5,1.4,0.6,1.7c0.1,0.2,0.7,1.1,0.7,2.1
			c0,1.4-1.1,2.2-2.4,2.2C528.1,33.2,527.4,32.8,527.4,32.2z"/>
		<path fill="#898981" d="M375.7,55.6l-2.5,3.2c-0.4,0.5-0.7,1-0.7,1.2c0,0.3,0.2,0.4,0.6,0.4h0.6c0.1,0,0.2,0,0.1,0.2l-0.1,0.3
			c0,0.1-0.1,0.1-0.2,0.1c-0.2,0-1-0.1-2.4-0.1c-1.2,0-1.8,0.1-2,0.1c-0.1,0-0.2,0-0.2-0.1l0.1-0.4c0-0.1,0.1-0.1,0.1-0.1h0.3
			c0.8,0,1.5-0.5,2.2-1.3l8.3-10c0.1-0.1,0.2-0.2,0.5-0.2c0.3,0,0.7-0.1,0.8-0.1c0.2-0.1,0.5-0.1,0.6-0.1c0.1,0,0.2,0.1,0.2,0.2
			l-2.6,10c-0.1,0.3-0.2,0.8-0.2,1s0.3,0.5,0.7,0.5h0.5c0.1,0,0.2,0.1,0.1,0.2l-0.1,0.3c0,0.1-0.1,0.2-0.2,0.2
			c-0.2,0-0.9-0.1-2.2-0.1c-1.3,0-1.8,0.1-2.1,0.1c-0.2,0-0.2-0.1-0.2-0.2l0.1-0.3c0-0.1,0.1-0.1,0.1-0.1h0.3c0.7,0,1.2-0.1,1.5-1.5
			l0.9-3.3H375.7z M379.1,55l1.4-4.8c0.1-0.3-0.3-0.3-0.4-0.1l-3.9,4.9H379.1z"/>
		<path fill="#898981" d="M384.3,54.7c-0.6,0-1,0.4-1,0.9c0,0.3,0.2,0.4,0.4,0.5c0.1,0.1,0.4,0.3,0.4,0.5s-0.2,0.6-0.7,0.6
			c-0.3,0-0.8-0.3-0.8-1c0-0.7,0.5-1.5,0.7-1.7c0.4-0.4,0.8-0.9,2.1-0.9c1.8,0,2.1-0.1,2.3-0.1c0.2,0,0.4,0.1,0.2,0.3
			c-0.4,0.5-2.1,2.9-2.1,4.7c0,1.2,0.6,1.7,1.3,1.7c1.5,0,3.1-2.4,3.1-4.2c0-0.3,0-0.6-0.1-0.9c-0.1-0.3-0.3-0.5-0.3-0.7
			c0-0.5,0.3-0.8,0.8-0.8c0.5,0,0.7,0.5,0.7,1c0,0.9-0.4,2.7-1.2,4c-0.8,1.4-2.3,2.7-3.7,2.7c-0.9,0-1.8-0.6-1.8-1.9
			c0-1.7,1.5-3.9,2.5-5.1l-0.1-0.1c-0.4,0.3-1.3,0.5-1.7,0.5H384.3z"/>
		<path fill="#898981" d="M391.7,59.5c0-1.5,1-3.4,2.3-4.7c0.6-0.6,1.5-1.2,2.4-1.2c0.7,0,1,0.5,1,1c0,0.9-0.7,1.8-1.7,2.3
			c-1,0.5-1.9,0.7-2.6,0.7c-0.1,0.2-0.2,0.8-0.2,1.7c0,0.8,0.6,1.1,0.9,1.1c0.9,0,1.7-0.7,2.1-1.3c0-0.1,0.1-0.1,0.2,0l0.2,0.2
			c0.1,0.1,0.1,0.1,0,0.2c-0.5,0.6-1.5,1.8-2.9,1.8C392.2,61.2,391.7,60.7,391.7,59.5z M393.3,57.1c0.6,0.1,3-0.7,3-2
			c0-0.4-0.2-0.7-0.6-0.7C394.6,54.4,393.5,56.4,393.3,57.1z"/>
		<path fill="#898981" d="M398.5,61.1c-0.1,0-0.2-0.1-0.2-0.2l1-2.9c0.3-1,0.9-2.9,0.9-3.2c0-0.2-0.1-0.3-0.3-0.3
			c-0.4,0-1.2,0.8-1.4,1.1c0,0.1-0.1,0-0.1,0l-0.2-0.2c0,0,0-0.1,0-0.1c0.4-0.6,1.5-1.8,2.7-1.8c0.4,0,0.5,0.3,0.5,0.6
			c0,0.3-0.3,1.4-0.6,2.6l0.1,0c0.5-1,1.9-3.2,2.9-3.2c0.5,0,0.8,0.3,0.8,0.8c0,0.5-0.4,0.8-0.7,0.8c-0.2,0-0.3,0-0.5-0.2
			c-0.1-0.1-0.2-0.2-0.5-0.2c-0.5,0-1.5,1.5-2.2,2.7c-0.2,0.3-0.4,0.8-0.7,1.6l-0.6,1.8c0,0.1-0.1,0.1-0.2,0.1H398.5z"/>
		<path fill="#898981" d="M411.6,53.6c0.1,0,0.1,0.1,0.1,0.2c-0.3,0.7-1.3,3.2-1.3,3.5c-0.1,0.3-0.9,2.5-0.9,2.7s0.1,0.2,0.2,0.2
			c0.2,0,1.1-0.9,1.3-1.1c0.1-0.1,0.1-0.1,0.1,0l0.2,0.2c0.1,0.1,0.1,0.1,0,0.1c-0.2,0.4-1.8,1.9-2.8,1.9c-0.2,0-0.4-0.1-0.4-0.3
			c0-0.3,0.2-0.8,0.9-2.7l-0.1,0c-0.8,1.2-2.6,3.1-3.9,3.1c-0.4,0-1-0.3-1-1.2c0-2.6,3-6.5,5.1-6.5c0.8,0,1.1,0.3,1.3,0.6l0.3-0.5
			c0.1-0.1,0.1-0.1,0.2-0.1H411.6z M409.3,56.7c0.3-0.5,0.4-1,0.4-1.5c0-0.5-0.2-1.1-0.8-1.1c-1.7,0-3.6,3.8-3.6,5.5
			c0,0.4,0.2,0.6,0.5,0.6C406.7,60.3,409,57.4,409.3,56.7z"/>
		<path fill="#898981" d="M410.6,64.1c0-1.3,2.2-2.2,3-2.6c-0.5-0.4-0.7-0.7-0.7-1c0-0.3,0.3-0.6,1.5-1.3c-0.5-0.1-1.4-0.8-1.4-2.1
			c0-1.4,1.2-3.4,3.2-3.4c0.9,0,1.4,0.6,1.5,0.8c0.2-0.2,0.9-0.7,1.5-0.7c0.6,0,0.8,0.5,0.8,0.7c0,0.2-0.1,0.6-0.6,0.6
			c-0.3,0-0.5-0.1-0.6-0.3c-0.1-0.1-0.2-0.1-0.3-0.1c-0.2,0-0.5,0.1-0.5,0.3c0.1,0.2,0.1,0.7,0.1,1c0,0.9-0.5,2.9-2.6,3.2
			c-0.3,0.1-0.5,0.1-0.5,0.1c-0.3,0.1-0.9,0.6-0.9,0.9c0,0.2,0.2,0.4,0.3,0.5c0.3,0.2,1.2,0.8,2.3,1.5c1,0.7,1.3,1.3,1.3,1.9
			c0,0.3-0.3,2.3-3.8,2.3C412.4,66.4,410.6,65.3,410.6,64.1z M414.7,65.9c1.2,0,2.2-0.4,2.2-1.4c0-0.8-0.8-1.3-1.2-1.6l-1.6-1
			c-1.5,0.6-2.3,1.3-2.3,2.1C411.9,65.2,413.5,65.9,414.7,65.9z M417.1,55.2c0-0.8-0.3-1.2-0.8-1.2c-1.1,0-2,2.1-2,3.5
			c0,0.8,0.3,1.2,0.8,1.2C416.4,58.7,417.1,56.5,417.1,55.2z"/>
		<path fill="#898981" d="M420,59.5c0-1.5,1-3.4,2.3-4.7c0.6-0.6,1.5-1.2,2.4-1.2c0.7,0,1,0.5,1,1c0,0.9-0.7,1.8-1.7,2.3
			c-1,0.5-1.9,0.7-2.6,0.7c-0.1,0.2-0.2,0.8-0.2,1.7c0,0.8,0.6,1.1,0.9,1.1c0.9,0,1.7-0.7,2.1-1.3c0-0.1,0.1-0.1,0.2,0l0.2,0.2
			c0.1,0.1,0.1,0.1,0,0.2c-0.5,0.6-1.5,1.8-2.9,1.8C420.5,61.2,420,60.7,420,59.5z M421.6,57.1c0.6,0.1,3-0.7,3-2
			c0-0.4-0.2-0.7-0.6-0.7C422.9,54.4,421.8,56.4,421.6,57.1z"/>
		<path fill="#898981" d="M429.9,60.2c0-0.3,0.2-0.6,0.6-0.6c0.4,0,0.6,0.3,0.7,0.6c0.1,0.3,0.2,0.5,0.6,0.5c0.5,0,1-0.5,1-1.1
			c0-0.8-0.5-1.5-0.8-2.1c-0.1-0.3-0.5-0.9-0.5-1.8c0-1,1-2.2,2.3-2.2c0.5,0,1.3,0.2,1.3,0.9c0,0.3-0.3,0.6-0.6,0.6
			c-0.2,0-0.5-0.1-0.6-0.4c-0.1-0.2-0.1-0.5-0.5-0.5s-0.9,0.5-0.9,1.1c0,0.7,0.5,1.4,0.6,1.7c0.1,0.2,0.7,1.1,0.7,2.1
			c0,1.4-1.1,2.2-2.4,2.2C430.5,61.2,429.9,60.8,429.9,60.2z"/>
		<path fill="#898981" d="M435.5,61.1c-0.1,0-0.1-0.1-0.1-0.1l4.1-10.2c0.2-0.5,0.2-0.7,0.2-0.9c0-0.2-0.3-0.4-0.6-0.4h-0.6
			c-0.1,0-0.2-0.1-0.2-0.2l0.1-0.3c0-0.1,0.1-0.1,0.2-0.1h2.4c0.1,0,0.2,0.1,0.2,0.2c0,0.1-0.1,0.3-0.2,0.5l-2.8,6.6l0.1,0.1
			c0.9-1.3,2.1-2.8,3.6-2.8c0.8,0,1.2,0.7,1.2,1.5c0,1.5-0.6,3-1.2,4.2c-0.7,1.4-1.7,2.4-2.7,2.4c-0.5,0-0.9-0.4-0.9-0.8
			c0-0.4,0.3-0.9,0.6-0.9c0.4,0,0.6,0.3,0.6,0.5c0,0.2,0.1,0.4,0.3,0.4c0.4,0,1-1.2,1.3-2.1c0.4-1,0.7-2.4,0.7-3.3c0-0.5,0-1-0.5-1
			c-1,0-2.5,1.9-3,2.5c-0.4,0.5-0.8,1.2-1.2,2.1l-0.8,1.8c0,0.1-0.1,0.1-0.3,0.1H435.5z"/>
		<path fill="#898981" d="M451.6,53.6c0.1,0,0.1,0.1,0.1,0.2c-0.3,0.7-1.3,3.2-1.3,3.5c-0.1,0.3-0.9,2.5-0.9,2.7s0.1,0.2,0.2,0.2
			c0.2,0,1.1-0.9,1.3-1.1c0.1-0.1,0.1-0.1,0.1,0l0.2,0.2c0.1,0.1,0.1,0.1,0,0.1c-0.2,0.4-1.8,1.9-2.8,1.9c-0.2,0-0.4-0.1-0.4-0.3
			c0-0.3,0.2-0.8,0.9-2.7l-0.1,0c-0.8,1.2-2.6,3.1-3.9,3.1c-0.4,0-1-0.3-1-1.2c0-2.6,3-6.5,5.1-6.5c0.8,0,1.1,0.3,1.3,0.6l0.3-0.5
			c0.1-0.1,0.1-0.1,0.2-0.1H451.6z M449.3,56.7c0.3-0.5,0.4-1,0.4-1.5c0-0.5-0.2-1.1-0.8-1.1c-1.7,0-3.6,3.8-3.6,5.5
			c0,0.4,0.2,0.6,0.5,0.6C446.7,60.3,449,57.4,449.3,56.7z"/>
		<path fill="#898981" d="M452.8,61.1c-0.1,0-0.2-0.1-0.2-0.2l1-2.9c0.3-1,0.9-2.9,0.9-3.2c0-0.2-0.1-0.3-0.3-0.3
			c-0.4,0-1.2,0.8-1.4,1.1c0,0.1-0.1,0-0.1,0l-0.2-0.2c0,0,0-0.1,0-0.1c0.4-0.6,1.5-1.8,2.7-1.8c0.4,0,0.5,0.3,0.5,0.6
			c0,0.3-0.3,1.4-0.6,2.6l0.1,0c0.5-1,1.9-3.2,2.9-3.2c0.5,0,0.8,0.3,0.8,0.8c0,0.5-0.4,0.8-0.7,0.8c-0.2,0-0.3,0-0.5-0.2
			c-0.1-0.1-0.2-0.2-0.5-0.2c-0.5,0-1.5,1.5-2.2,2.7c-0.2,0.3-0.4,0.8-0.7,1.6l-0.6,1.8c0,0.1-0.1,0.1-0.2,0.1H452.8z"/>
		<path fill="#898981" d="M458.8,59.5c0-1.5,1-3.4,2.3-4.7c0.6-0.6,1.5-1.2,2.4-1.2c0.7,0,1,0.5,1,1c0,0.9-0.7,1.8-1.7,2.3
			c-1,0.5-1.9,0.7-2.6,0.7c-0.1,0.2-0.2,0.8-0.2,1.7c0,0.8,0.6,1.1,0.9,1.1c0.9,0,1.7-0.7,2.1-1.3c0-0.1,0.1-0.1,0.2,0l0.2,0.2
			c0.1,0.1,0.1,0.1,0,0.2c-0.5,0.6-1.5,1.8-2.9,1.8C459.4,61.2,458.8,60.7,458.8,59.5z M460.5,57.1c0.6,0.1,3-0.7,3-2
			c0-0.4-0.2-0.7-0.6-0.7C461.7,54.4,460.6,56.4,460.5,57.1z"/>
		<path fill="#898981" d="M464.9,61.1c-0.1,0-0.1-0.1-0.1-0.1l4.1-10.2c0.2-0.5,0.2-0.7,0.2-0.9c0-0.2-0.3-0.4-0.6-0.4H468
			c-0.1,0-0.2-0.1-0.2-0.2l0.1-0.3c0-0.1,0.1-0.1,0.2-0.1h2.4c0.1,0,0.2,0.1,0.2,0.2c0,0.1-0.1,0.3-0.2,0.5l-2.8,6.6l0.1,0.1
			c0.9-1.3,2.1-2.8,3.6-2.8c0.8,0,1.2,0.7,1.2,1.5c0,1.5-0.6,3-1.2,4.2c-0.7,1.4-1.7,2.4-2.7,2.4c-0.5,0-0.9-0.4-0.9-0.8
			c0-0.4,0.3-0.9,0.6-0.9c0.4,0,0.6,0.3,0.6,0.5c0,0.2,0.1,0.4,0.3,0.4c0.4,0,1-1.2,1.3-2.1c0.4-1,0.7-2.4,0.7-3.3c0-0.5,0-1-0.5-1
			c-1,0-2.5,1.9-3,2.5c-0.4,0.5-0.8,1.2-1.2,2.1l-0.8,1.8c0,0.1-0.1,0.1-0.3,0.1H464.9z"/>
		<path fill="#898981" d="M473.7,58.9c0-2.3,1.7-5.3,4.1-5.3c1.2,0,1.9,0.9,1.9,2.1c0,2-1.6,5.6-4.2,5.6
			C474.5,61.2,473.7,60.3,473.7,58.9z M479,55.4c0-0.6-0.3-1-0.9-1c-0.8,0-1.7,0.7-2.6,2.1c-0.6,1-1,2.1-1,2.9
			c0,0.6,0.4,0.9,0.8,0.9C477.1,60.4,479,56.6,479,55.4z"/>
		<path fill="#898981" d="M484.2,50.7c0.3-0.7,0.3-1.1-0.3-1.1h-0.5c-0.1,0-0.1-0.1-0.1-0.2l0.1-0.3c0-0.1,0.1-0.1,0.2-0.1h2.2
			c0.2,0,0.2,0.1,0.2,0.3l-3.7,9.5c-0.2,0.4-0.6,1.4-0.2,1.4c0.3,0,1.1-0.7,1.3-0.9c0.1-0.1,0.1-0.1,0.2,0l0.2,0.2
			c0,0,0.1,0.1,0,0.2c-0.1,0.1-1.8,1.7-2.9,1.7c-0.2,0-0.4-0.1-0.4-0.5c0-0.3,0.5-1.4,0.7-1.9L484.2,50.7z"/>
		<path fill="#898981" d="M491.9,49.5c-0.1,0-0.2-0.1-0.1-0.1l0.1-0.4c0-0.1,0.1-0.1,0.2-0.1h2.2c0.3,0,0.3,0.2,0.2,0.3
			c-0.3,0.6-3.4,9.1-3.7,10.1c-0.2,0.6-0.2,0.8,0.1,0.8c0.3,0,1.2-0.8,1.3-0.9c0.1-0.1,0.1-0.1,0.2,0l0.2,0.2c0.1,0,0.1,0.1,0,0.2
			c-0.1,0.2-1.7,1.6-2.6,1.6c-0.3,0-0.5-0.1-0.5-0.4c0-0.4,0.4-1.6,0.8-2.6l-0.1,0c-0.9,1.4-2.6,3.1-3.8,3.1c-0.6,0-1.2-0.4-1.2-1.2
			c0-1.4,1-3.6,2.5-5c0.6-0.6,1.6-1.5,2.8-1.5c0.5,0,0.8,0.2,1.1,0.6l1.4-3.9c0.1-0.3,0-0.7-0.4-0.7H491.9z M489.7,57.9
			c0.5-0.7,1.2-1.8,1.2-2.5c0-0.8-0.4-1.2-1-1.2c-1.7,0-3.6,3.9-3.6,5.6c0,0.4,0.3,0.6,0.5,0.6C487.6,60.3,489,58.8,489.7,57.9z"/>
		<path fill="#898981" d="M493.6,59.5c0-1.5,1-3.4,2.3-4.7c0.6-0.6,1.5-1.2,2.4-1.2c0.7,0,1,0.5,1,1c0,0.9-0.7,1.8-1.7,2.3
			c-1,0.5-1.9,0.7-2.6,0.7c-0.1,0.2-0.2,0.8-0.2,1.7c0,0.8,0.6,1.1,0.9,1.1c0.9,0,1.7-0.7,2.1-1.3c0-0.1,0.1-0.1,0.2,0l0.2,0.2
			c0.1,0.1,0.1,0.1,0,0.2c-0.5,0.6-1.5,1.8-2.9,1.8C494.1,61.2,493.6,60.7,493.6,59.5z M495.2,57.1c0.6,0.1,3-0.7,3-2
			c0-0.4-0.2-0.7-0.6-0.7C496.5,54.4,495.4,56.4,495.2,57.1z"/>
		<path fill="#898981" d="M500.4,61.1c-0.1,0-0.2-0.1-0.2-0.2l1-2.9c0.3-1,0.9-2.9,0.9-3.2c0-0.2-0.1-0.3-0.3-0.3
			c-0.4,0-1.2,0.8-1.4,1.1c0,0.1-0.1,0-0.1,0l-0.2-0.2c0,0,0-0.1,0-0.1c0.4-0.6,1.5-1.8,2.7-1.8c0.4,0,0.5,0.3,0.5,0.6
			c0,0.3-0.3,1.4-0.6,2.6l0.1,0c0.5-1,1.9-3.2,2.9-3.2c0.5,0,0.8,0.3,0.8,0.8c0,0.5-0.4,0.8-0.7,0.8c-0.2,0-0.3,0-0.5-0.2
			c-0.1-0.1-0.2-0.2-0.5-0.2c-0.5,0-1.5,1.5-2.2,2.7c-0.2,0.3-0.4,0.8-0.7,1.6l-0.6,1.8c0,0.1-0.1,0.1-0.2,0.1H500.4z"/>
		<path fill="#898981" d="M505.8,60.2c0-0.3,0.2-0.6,0.6-0.6c0.4,0,0.6,0.3,0.7,0.6c0.1,0.3,0.2,0.5,0.6,0.5c0.5,0,1-0.5,1-1.1
			c0-0.8-0.5-1.5-0.8-2.1c-0.1-0.3-0.5-0.9-0.5-1.8c0-1,1-2.2,2.3-2.2c0.5,0,1.3,0.2,1.3,0.9c0,0.3-0.3,0.6-0.6,0.6
			c-0.2,0-0.5-0.1-0.6-0.4c-0.1-0.2-0.1-0.5-0.5-0.5s-0.9,0.5-0.9,1.1c0,0.7,0.5,1.4,0.6,1.7c0.1,0.2,0.7,1.1,0.7,2.1
			c0,1.4-1.1,2.2-2.4,2.2C506.5,61.2,505.8,60.8,505.8,60.2z"/>
		<path fill="#898981" d="M512.8,52.7c0-0.2,0.1-0.2,0.2-0.2c0.4-0.1,1.3-0.6,1.3-1.4c0-0.4-0.1-0.5-0.4-0.8
			c-0.1-0.1-0.5-0.3-0.5-0.7c0-0.4,0.3-0.8,0.7-0.8c0.8,0,1.2,1,1.2,1.6c0,1.9-2,2.5-2.3,2.5C512.9,52.8,512.8,52.9,512.8,52.7z"/>
		<path fill="#898981" d="M518.6,59.5c0-1.5,1-3.4,2.3-4.7c0.6-0.6,1.5-1.2,2.4-1.2c0.7,0,1,0.5,1,1c0,0.9-0.7,1.8-1.7,2.3
			c-1,0.5-1.9,0.7-2.6,0.7c-0.1,0.2-0.2,0.8-0.2,1.7c0,0.8,0.6,1.1,0.9,1.1c0.9,0,1.7-0.7,2.1-1.3c0-0.1,0.1-0.1,0.2,0l0.2,0.2
			c0.1,0.1,0.1,0.1,0,0.2c-0.5,0.6-1.5,1.8-2.9,1.8C519.1,61.2,518.6,60.7,518.6,59.5z M520.2,57.1c0.6,0.1,3-0.7,3-2
			c0-0.4-0.2-0.7-0.6-0.7C521.4,54.4,520.3,56.4,520.2,57.1z"/>
		<path fill="#898981" d="M529,60.3L529,60.3c-0.6,0.5-1.4,1-2.3,1c-0.5,0-1.8-0.1-1.8-2.1c0-0.4,0.2-2.8,2.1-4.6
			c0.8-0.8,1.6-1,2.3-1c0.8,0,1.3,0.4,1.6,0.6c0.1,0.1,0.2,0.1,0.3,0l0.9-0.6c0.1-0.1,0.2-0.1,0.3-0.1c0.1,0,0.2,0.1,0.1,0.3
			l-4.1,11.1c-0.3,0.7-0.1,0.9,0.3,0.9h0.5c0.1,0,0.1,0.1,0.1,0.1l-0.1,0.3c0,0.1-0.1,0.1-0.2,0.1c-0.2,0-0.8-0.1-1.8-0.1
			c-1,0-1.7,0.1-1.9,0.1c-0.1,0-0.2-0.1-0.1-0.1l0.1-0.3c0-0.1,0.1-0.1,0.2-0.1h0.5c0.6,0,1-0.2,1.3-0.9L529,60.3z M530.7,55.3
			c0-0.6-0.4-1-1-1c-0.5,0-0.9,0.2-1.4,0.7c-1.2,1.2-2.2,3.4-2.2,4.6c0,0.7,0.3,1.1,0.8,1.1C529.2,60.8,530.7,56.1,530.7,55.3z"/>
		<path fill="#898981" d="M540.8,53.8c0.2,0,0.2,0.1,0.2,0.2l-1.4,3.7c-0.5,1.4-0.8,2.2-0.8,2.3c0,0.2,0,0.2,0.1,0.2
			c0.3,0,1.3-0.9,1.4-1.1c0-0.1,0.1-0.1,0.2,0l0.2,0.2c0.1,0.1,0.1,0.1,0,0.2c-0.1,0.1-1.7,1.8-3,1.8c-0.3,0-0.3-0.2-0.3-0.4
			c0-0.2,0.9-2.5,1.2-3.1l-0.1-0.1c-0.8,1.1-2.7,3.5-4.4,3.5c-0.4,0-0.6-0.3-0.7-0.7c0-0.6,0.6-1.7,1.3-3.4c0.5-1.1,0.9-2,0.9-2.3
			c0-0.2-0.1-0.3-0.3-0.3c-0.3,0-1.2,0.8-1.4,1c-0.1,0.1-0.1,0.1-0.2,0l-0.2-0.2c-0.1,0-0.1-0.1,0-0.2c0.1-0.2,1.6-1.7,2.8-1.7
			c0.4,0,0.5,0.4,0.5,0.6c0,0.5-0.4,1.5-1.2,3.1c-0.5,1.1-1,2.2-1,2.6c0,0.2,0.1,0.3,0.3,0.3c1,0,2.9-2.4,3.4-3.1
			c0.3-0.5,0.6-1,0.8-1.5l0.6-1.7c0-0.1,0.1-0.1,0.3-0.1H540.8z"/>
		<path fill="#898981" d="M542.3,60.8c0-0.4,0.3-1.2,1.1-3.3l0.5-1.4c0.2-0.5,0.3-0.8,0.3-1.1c0-0.2-0.1-0.2-0.3-0.2
			c-0.3,0-1.2,1-1.4,1.3c-0.1,0.1-0.1,0.1-0.2,0l-0.1-0.2c-0.1-0.1-0.1-0.1-0.1-0.2c0.1-0.1,1.9-2.3,3.1-2.2c0.2,0,0.4,0.1,0.4,0.5
			c0,0.3-0.3,1.1-0.6,2l-1,2.7c-0.3,0.7-0.3,1.1-0.3,1.2c0,0.2,0.1,0.3,0.2,0.3c0.4-0.1,1.4-1.1,1.4-1.3c0-0.1,0.1-0.1,0.2,0
			l0.1,0.1c0.1,0.1,0.1,0.1,0,0.2c-0.1,0.1-1.5,1.9-3,1.9C542.4,61.2,542.3,61.1,542.3,60.8z M544.5,50.3c0-0.5,0.4-0.9,0.9-0.9
			c0.6,0,1,0.5,1,0.9c0,0.3-0.2,0.9-1,0.9C544.7,51.2,544.5,50.5,544.5,50.3z"/>
		<path fill="#898981" d="M549.3,54.7h-1.3c-0.1,0-0.1,0-0.1-0.1l0.1-0.4c0-0.1,0.1-0.1,0.2-0.1h1.3l0.9-2.1
			c0.1-0.2,0.1-0.2,0.3-0.3c0.2-0.1,0.7-0.2,0.8-0.3c0.1-0.1,0.2-0.1,0.3-0.1c0.1,0,0.1,0.1,0,0.4l-1.2,2.4h1.8
			c0.1,0,0.1,0.1,0.1,0.2l-0.2,0.4c0,0.1-0.1,0.1-0.2,0.1h-1.8l-1.7,4.1c-0.2,0.5-0.4,1-0.4,1.2c0,0.2,0.1,0.3,0.2,0.3
			c0.5,0,1.7-1,1.8-1.2c0.1-0.1,0.1-0.1,0.2,0l0.2,0.2c0.1,0.1,0.1,0.1,0,0.2c-0.2,0.3-1.9,1.8-3.3,1.8c-0.5,0-0.6-0.2-0.6-0.4
			c0-0.3,0.1-0.6,0.2-0.8L549.3,54.7z"/>
		<path fill="#898981" d="M552.7,56.2c0,0-0.1-0.1,0-0.2c0.1-0.2,1.1-2.4,2.2-2.4c0.6,0,0.8,0.5,0.9,2c0.2,2.1,0.3,4.2,0.3,5.3
			l0.1,0c0.5-0.8,1.6-3,1.8-3.8c0.1-0.3,0.3-0.8,0.3-1.6c0-0.2,0-0.5-0.1-0.7c-0.1-0.2-0.2-0.4-0.2-0.6c0-0.3,0.2-0.6,0.7-0.6
			c0.5,0,0.7,0.5,0.7,0.9c0,1.2-0.7,2.7-1.2,3.8c-0.8,1.7-2.7,5-4.2,6.5c-0.5,0.5-1.7,1.6-2.7,1.6c-0.7,0-1-0.4-1-0.8
			c0-0.5,0.4-0.7,0.7-0.7c0.3,0,0.5,0.1,0.7,0.3c0.1,0.1,0.3,0.2,0.5,0.2c0.2,0,0.5-0.1,0.8-0.4c1-0.7,1.7-1.8,2-2.4
			c0.1-0.3,0.2-0.7,0.1-1c0-0.4-0.4-5.3-0.6-6.2c-0.1-0.3-0.2-0.5-0.3-0.5c-0.3,0-0.9,1.1-1,1.5c0,0.1-0.1,0.1-0.2,0.1L552.7,56.2z"
			/>
	</g>
	<g>
		<path fill="#898981" d="M170.9,40.7c-0.1-0.2-0.2-0.3-0.3-0.3c-0.4,0-0.8,0.6-1.1,1.3c0,0.1-0.1,0.1-0.2,0.1l-0.3-0.1
			c-0.1,0-0.1-0.1,0-0.1c0.1-0.2,1.2-2.4,2.1-2.4c0.4,0,0.6,0.2,0.8,1l0.6,2.1c0.8-1,1.4-1.9,1.9-2.4c0.3-0.3,0.7-0.7,1.2-0.7
			c0.3,0,0.5,0.3,0.5,0.6c0,0.6-0.2,1.5-0.5,2.1c0,0.1-0.1,0.1-0.2,0.1l-0.2-0.1c-0.1,0-0.1-0.1-0.1-0.1c0.3-1,0.3-1.4,0-1.4
			c-0.4,0-1.4,1.3-2.4,2.5l0.8,2.4c0.1,0.3,0.3,0.5,0.5,0.5c0.4,0,1.1-1,1.2-1.2c0-0.1,0.1-0.1,0.2,0l0.2,0.1c0.1,0,0.1,0.1,0.1,0.2
			c-0.2,0.4-1.2,2.1-2.2,2.1c-0.4,0-0.7-0.3-0.8-0.8l-0.8-2.4c-1.1,1.5-2.4,3.2-3.1,3.2c-0.5,0-0.7-0.2-0.7-0.6
			c0-0.4,0.2-1.5,0.4-1.9c0-0.1,0.1-0.1,0.1-0.1l0.3,0.1c0.1,0,0.1,0.1,0.1,0.1c-0.4,1.1-0.1,1.3,0.1,1.3c0.4,0,1.7-1.6,2.6-2.7
			L170.9,40.7z"/>
	</g>
	<g>
		<path fill="#898981" d="M343.9,40.7c-0.1-0.2-0.2-0.3-0.3-0.3c-0.4,0-0.8,0.6-1.1,1.3c0,0.1-0.1,0.1-0.2,0.1l-0.3-0.1
			c-0.1,0-0.1-0.1,0-0.1c0.1-0.2,1.2-2.4,2.1-2.4c0.4,0,0.6,0.2,0.8,1l0.6,2.1c0.8-1,1.4-1.9,1.9-2.4c0.3-0.3,0.7-0.7,1.2-0.7
			c0.3,0,0.5,0.3,0.5,0.6c0,0.6-0.2,1.5-0.5,2.1c0,0.1-0.1,0.1-0.2,0.1l-0.2-0.1c-0.1,0-0.1-0.1-0.1-0.1c0.3-1,0.3-1.4,0-1.4
			c-0.4,0-1.4,1.3-2.4,2.5l0.8,2.4c0.1,0.3,0.3,0.5,0.5,0.5c0.4,0,1.1-1,1.2-1.2c0-0.1,0.1-0.1,0.2,0l0.2,0.1c0.1,0,0.1,0.1,0.1,0.2
			c-0.2,0.4-1.2,2.1-2.2,2.1c-0.4,0-0.7-0.3-0.8-0.8l-0.8-2.4c-1.1,1.5-2.4,3.2-3.1,3.2c-0.5,0-0.7-0.2-0.7-0.6
			c0-0.4,0.2-1.5,0.4-1.9c0-0.1,0.1-0.1,0.1-0.1l0.3,0.1c0.1,0,0.1,0.1,0.1,0.1c-0.4,1.1-0.1,1.3,0.1,1.3c0.4,0,1.7-1.6,2.6-2.7
			L343.9,40.7z"/>
	</g>
</g>
</svg>
