<?xml version="1.0" encoding="utf-8"?>
<!-- Generator: Adobe Illustrator 18.1.1, SVG Export Plug-In . SVG Version: 6.00 Build 0)  -->
<!DOCTYPE svg PUBLIC "-//W3C//DTD SVG 1.1//EN" "http://www.w3.org/Graphics/SVG/1.1/DTD/svg11.dtd">
<svg version="1.1" id="Text_Layout" xmlns="http://www.w3.org/2000/svg" xmlns:xlink="http://www.w3.org/1999/xlink" x="0px"
	 y="0px" viewBox="0 0 108 95" enable-background="new 0 0 108 95" xml:space="preserve">
<g>
	<g>
		<path fill="#333333" d="M71.1,77H36.9L19.9,47l17.1-30h34.2l17.1,30L71.1,77z M38.1,75h31.8l15.9-28L69.9,19H38.1L22.2,47L38.1,75
			z"/>
	</g>
	<g>
		<g>
			<g>
				<path fill="#333333" d="M72.8,32.8c-0.6,0-1.1,0-1.6,0V31h-0.6c-11.4,0-15.2,2.7-16.5,4.2C52.9,33.7,49,31,37.6,31H37v1.8
					c-0.5,0-1.1,0-1.6,0h-1.3v25.9h1.3c14.1,0,16.9,3.2,17.4,3.8h2.6c0.4-0.6,3.4-3.8,17.3-3.8h1.3V32.8H72.8z M53.2,57.5
					c-2-1.4-6.1-3.1-14.7-3.2V32.5c12.1,0.2,14.4,3.5,14.7,4V57.5z M69.7,54.2C61.1,54.3,56.9,56,55,57.5v-21
					c0.3-0.6,2.7-3.9,14.7-4V54.2z M69.7,54.2"/>
			</g>
		</g>
	</g>
</g>
</svg>
